<svg width="42" height="42" viewBox="0 0 42 42" fill="none" xmlns="http://www.w3.org/2000/svg">
<path d="M8.48747 4.98052C8.26679 5.14653 8.22247 5.45999 8.38848 5.68067C8.55448 5.90134 8.86794 5.94566 9.08862 5.77966L8.48747 4.98052ZM10.9605 4.53307C11.1987 4.39347 11.2787 4.08715 11.1391 3.8489C10.9995 3.61064 10.6932 3.53067 10.4549 3.67027L10.9605 4.53307ZM9.08862 5.77966C9.68687 5.32963 10.3117 4.91317 10.9605 4.53307L10.4549 3.67027C9.77299 4.06983 9.1162 4.50756 8.48747 4.98052L9.08862 5.77966Z" fill="#006389"/>
<path d="M12.0758 2.85977C11.8258 2.97703 11.7181 3.27476 11.8354 3.52477C11.9527 3.77478 12.2504 3.8824 12.5004 3.76514L12.0758 2.85977ZM14.6525 2.90836C14.9147 2.82171 15.057 2.53892 14.9703 2.27672C14.8837 2.01453 14.6009 1.87221 14.3387 1.95886L14.6525 2.90836ZM12.5004 3.76514C13.1964 3.43872 13.9147 3.15216 14.6525 2.90836L14.3387 1.95886C13.5629 2.21523 12.8075 2.51657 12.0758 2.85977L12.5004 3.76514Z" fill="#006389"/>
<path d="M16.1504 1.43198C15.8779 1.47635 15.6929 1.73327 15.7372 2.00582C15.7816 2.27838 16.0385 2.46335 16.3111 2.41898L16.1504 1.43198ZM18.5034 2.18867C18.7792 2.1754 18.992 1.94103 18.9787 1.66521C18.9655 1.38939 18.7311 1.17655 18.4553 1.18983L18.5034 2.18867ZM16.3111 2.41898C17.0305 2.30185 17.7621 2.22436 18.5034 2.18867L18.4553 1.18983C17.6761 1.22734 16.907 1.30881 16.1504 1.43198L16.3111 2.41898Z" fill="#006389"/>
<path d="M20.2787 1.06519C20.0028 1.07684 19.7886 1.30994 19.8003 1.58583C19.8119 1.86173 20.045 2.07595 20.3209 2.06431L20.2787 1.06519ZM22.2306 2.07619C22.5064 2.09119 22.7421 1.87982 22.7571 1.60409C22.7721 1.32835 22.5607 1.09267 22.285 1.07767L22.2306 2.07619ZM20.3209 2.06431C20.9508 2.03772 21.5879 2.04123 22.2306 2.07619L22.285 1.07767C21.61 1.04095 20.9407 1.03726 20.2787 1.06519L20.3209 2.06431Z" fill="#006389"/>
<path d="M24.5565 1.40609C24.2848 1.3564 24.0244 1.53633 23.9747 1.80796C23.925 2.0796 24.1049 2.34008 24.3765 2.38977L24.5565 1.40609ZM26.2363 2.82388C26.5019 2.89952 26.7785 2.74553 26.8542 2.47995C26.9298 2.21436 26.7758 1.93775 26.5102 1.86212L26.2363 2.82388ZM24.3765 2.38977C24.9967 2.5032 25.6172 2.64757 26.2363 2.82388L26.5102 1.86212C25.8601 1.67698 25.2082 1.5253 24.5565 1.40609L24.3765 2.38977Z" fill="#006389"/>
<path d="M28.3664 2.51892C28.1096 2.41745 27.8192 2.54338 27.7177 2.8002C27.6162 3.05702 27.7421 3.34748 27.999 3.44896L28.3664 2.51892ZM29.7391 4.23587C29.9849 4.36162 30.2862 4.26427 30.4119 4.01842C30.5377 3.77257 30.4403 3.47133 30.1945 3.34558L29.7391 4.23587ZM27.999 3.44896C28.5853 3.68063 29.166 3.94272 29.7391 4.23587L30.1945 3.34558C29.5927 3.03775 28.9827 2.7624 28.3664 2.51892L27.999 3.44896Z" fill="#006389"/>
<path d="M32.3166 4.64293C32.0897 4.48556 31.7781 4.54195 31.6208 4.76886C31.4634 4.99578 31.5198 5.3073 31.7467 5.46466L32.3166 4.64293ZM33.2616 6.62765C33.4722 6.80615 33.7878 6.78005 33.9663 6.56936C34.1448 6.35867 34.1187 6.04316 33.908 5.86466L33.2616 6.62765ZM31.7467 5.46466C32.2648 5.82394 32.7704 6.21153 33.2616 6.62765L33.908 5.86466C33.3922 5.42771 32.861 5.02051 32.3166 4.64293L31.7467 5.46466Z" fill="#006389"/>
<path d="M35.0848 6.9495C34.886 6.75781 34.5695 6.76356 34.3778 6.96233C34.1861 7.1611 34.1919 7.47763 34.3906 7.66932L35.0848 6.9495ZM35.6996 9.05998C35.879 9.26993 36.1946 9.29472 36.4045 9.11535C36.6145 8.93597 36.6393 8.62036 36.4599 8.41041L35.6996 9.05998ZM34.3906 7.66932C34.8444 8.10695 35.2814 8.57055 35.6996 9.05998L36.4599 8.41041C36.0208 7.89647 35.5617 7.40944 35.0848 6.9495L34.3906 7.66932Z" fill="#006389"/>
<path d="M40.7717 17.6306C40.7226 17.3589 40.4626 17.1783 40.1908 17.2274C39.9191 17.2765 39.7386 17.5366 39.7876 17.8083L40.7717 17.6306ZM40.0357 19.7019C40.0583 19.9771 40.2998 20.1819 40.575 20.1592C40.8502 20.1366 41.055 19.8951 41.0323 19.6199L40.0357 19.7019ZM39.7876 17.8083C39.8997 18.4287 39.9829 19.0604 40.0357 19.7019L41.0323 19.6199C40.9768 18.9462 40.8895 18.2826 40.7717 17.6306L39.7876 17.8083Z" fill="#006389"/>
<path d="M39.8304 13.7706C39.7391 13.51 39.4538 13.3728 39.1932 13.4642C38.9326 13.5555 38.7954 13.8408 38.8868 14.1014L39.8304 13.7706ZM39.4306 15.9321C39.4964 16.2003 39.7672 16.3644 40.0354 16.2986C40.3036 16.2327 40.4676 15.962 40.4018 15.6938L39.4306 15.9321ZM38.8868 14.1014C39.0953 14.6964 39.2772 15.307 39.4306 15.9321L40.4018 15.6938C40.2407 15.0373 40.0496 14.3959 39.8304 13.7706L38.8868 14.1014Z" fill="#006389"/>
<path d="M38.0368 10.2338C37.8877 10.0014 37.5783 9.9339 37.346 10.0831C37.1136 10.2322 37.0461 10.5415 37.1952 10.7739L38.0368 10.2338ZM38.1479 12.4292C38.2739 12.6748 38.5753 12.7718 38.821 12.6457C39.0667 12.5197 39.1636 12.2183 39.0376 11.9726L38.1479 12.4292ZM37.1952 10.7739C37.5358 11.3045 37.854 11.8564 38.1479 12.4292L39.0376 11.9726C38.729 11.3712 38.3947 10.7914 38.0368 10.2338L37.1952 10.7739Z" fill="#006389"/>
<path d="M41.0979 21.5015C41.1027 21.2254 40.8827 20.9978 40.6066 20.993C40.3305 20.9882 40.1028 21.2082 40.098 21.4843L41.0979 21.5015ZM39.9727 23.3899C39.9413 23.6643 40.1383 23.9121 40.4126 23.9435C40.687 23.9748 40.9348 23.7778 40.9662 23.5035L39.9727 23.3899ZM40.098 21.4843C40.0871 22.1146 40.0458 22.7504 39.9727 23.3899L40.9662 23.5035C41.043 22.8319 41.0864 22.164 41.0979 21.5015L40.098 21.4843Z" fill="#006389"/>
<path d="M40.6774 25.4893C40.7328 25.2187 40.5585 24.9545 40.288 24.8991C40.0174 24.8436 39.7532 25.018 39.6978 25.2885L40.6774 25.4893ZM39.2243 27.1387C39.143 27.4026 39.2911 27.6824 39.555 27.7636C39.8189 27.8449 40.0988 27.6968 40.18 27.4329L39.2243 27.1387ZM39.6978 25.2885C39.5712 25.9061 39.4137 26.5234 39.2243 27.1387L40.18 27.4329C40.3789 26.7869 40.5444 26.1384 40.6774 25.4893L39.6978 25.2885Z" fill="#006389"/>
<path d="M39.5847 29.0121C39.6858 28.7552 39.5595 28.4649 39.3025 28.3638C39.0456 28.2627 38.7553 28.389 38.6542 28.646L39.5847 29.0121ZM37.8697 30.3872C37.7443 30.6332 37.8421 30.9343 38.0881 31.0597C38.3341 31.1851 38.6352 31.0874 38.7606 30.8413L37.8697 30.3872ZM38.6542 28.646C38.4233 29.2326 38.1621 29.8137 37.8697 30.3872L38.7606 30.8413C39.0676 30.2391 39.3421 29.6287 39.5847 29.0121L38.6542 28.646Z" fill="#006389"/>
<path d="M37.6913 32.6237C37.8444 32.3939 37.7822 32.0835 37.5524 31.9304C37.3225 31.7773 37.0121 31.8395 36.859 32.0693L37.6913 32.6237ZM35.7246 33.6056C35.5501 33.8196 35.5821 34.1346 35.796 34.3091C36.01 34.4837 36.325 34.4517 36.4995 34.2377L35.7246 33.6056ZM36.859 32.0693C36.5095 32.594 36.1314 33.1068 35.7246 33.6056L36.4995 34.2377C36.9268 33.7138 37.3239 33.1751 37.6913 32.6237L36.859 32.0693Z" fill="#006389"/>
<path d="M35.1177 35.7472C35.3125 35.5516 35.3118 35.235 35.1161 35.0401C34.9204 34.8453 34.6038 34.846 34.409 35.0417L35.1177 35.7472ZM32.9976 36.3283C32.7848 36.5043 32.755 36.8194 32.931 37.0322C33.107 37.245 33.4222 37.2748 33.635 37.0988L32.9976 36.3283ZM34.409 35.0417C33.9642 35.4884 33.4937 35.918 32.9976 36.3283L33.635 37.0988C34.1559 36.668 34.6502 36.2168 35.1177 35.7472L34.409 35.0417Z" fill="#006389"/>
<path d="M31.9077 38.3246C32.1348 38.1675 32.1915 37.856 32.0344 37.6289C31.8773 37.4018 31.5658 37.3451 31.3387 37.5022L31.9077 38.3246ZM29.7174 38.5115C29.4762 38.6459 29.3898 38.9505 29.5242 39.1917C29.6587 39.4328 29.9633 39.5193 30.2044 39.3848L29.7174 38.5115ZM31.3387 37.5022C30.8203 37.8609 30.2796 38.1979 29.7174 38.5115L30.2044 39.3848C30.7948 39.0556 31.3628 38.7015 31.9077 38.3246L31.3387 37.5022Z" fill="#006389"/>
<path d="M27.8792 40.3767C28.1356 40.2744 28.2606 39.9835 28.1583 39.727C28.056 39.4705 27.7652 39.3455 27.5087 39.4478L27.8792 40.3767ZM25.7026 40.0687C25.4375 40.1458 25.285 40.4233 25.3621 40.6884C25.4392 40.9536 25.7167 41.106 25.9819 41.0289L25.7026 40.0687ZM27.5087 39.4478C26.9231 39.6814 26.3208 39.8889 25.7026 40.0687L25.9819 41.0289C26.6309 40.8402 27.2637 40.6221 27.8792 40.3767L27.5087 39.4478Z" fill="#006389"/>
<path d="M23.5458 41.4584C23.8192 41.4202 24.0099 41.1675 23.9716 40.894C23.9334 40.6205 23.6806 40.4298 23.4072 40.4681L23.5458 41.4584ZM21.5052 40.641C21.2293 40.6527 21.0152 40.8859 21.0269 41.1618C21.0387 41.4377 21.2718 41.6518 21.5477 41.6401L21.5052 40.641ZM23.4072 40.4681C22.7828 40.5555 22.1484 40.6136 21.5052 40.641L21.5477 41.6401C22.2231 41.6113 22.8896 41.5503 23.5458 41.4584L23.4072 40.4681Z" fill="#006389"/>
<path d="M19.2602 41.5778C19.5358 41.5955 19.7736 41.3865 19.7913 41.1109C19.809 40.8353 19.5999 40.5976 19.3243 40.5799L19.2602 41.5778ZM17.4266 40.3654C17.1541 40.3212 16.8973 40.5063 16.8531 40.7789C16.8089 41.0515 16.9941 41.3083 17.2667 41.3525L17.4266 40.3654ZM19.3243 40.5799C18.6952 40.5394 18.0621 40.4683 17.4266 40.3654L17.2667 41.3525C17.9339 41.4606 18.599 41.5353 19.2602 41.5778L19.3243 40.5799Z" fill="#006389"/>
<path d="M14.333 40.4178C14.5918 40.5141 14.8797 40.3824 14.976 40.1236C15.0723 39.8648 14.9406 39.5769 14.6818 39.4806L14.333 40.4178ZM12.9263 38.7286C12.678 38.6078 12.3788 38.7111 12.258 38.9594C12.1371 39.2077 12.2405 39.507 12.4888 39.6278L12.9263 38.7286ZM14.6818 39.4806C14.091 39.2607 13.5052 39.0102 12.9263 38.7286L12.4888 39.6278C13.0966 39.9235 13.712 40.1866 14.333 40.4178L14.6818 39.4806Z" fill="#006389"/>
<path d="M10.0411 38.3458C10.2764 38.4902 10.5843 38.4165 10.7288 38.1812C10.8732 37.9459 10.7995 37.638 10.5642 37.4935L10.0411 38.3458ZM8.98681 36.4169C8.76649 36.2504 8.45293 36.2941 8.28646 36.5144C8.12 36.7347 8.16366 37.0483 8.38399 37.2147L8.98681 36.4169ZM10.5642 37.4935C10.0269 37.1637 9.50043 36.8049 8.98681 36.4169L8.38399 37.2147C8.92332 37.6222 9.47638 37.9991 10.0411 38.3458L10.5642 37.4935Z" fill="#006389"/>
<path d="M6.73428 35.7393C6.93202 35.9321 7.24858 35.928 7.44133 35.7303C7.63408 35.5326 7.63004 35.216 7.4323 35.0232L6.73428 35.7393ZM6.13085 33.6256C5.9526 33.4147 5.63713 33.3882 5.42622 33.5664C5.21531 33.7447 5.18882 34.0601 5.36707 34.271L6.13085 33.6256ZM7.4323 35.0232C6.98085 34.5832 6.54636 34.1172 6.13085 33.6256L5.36707 34.271C5.80339 34.7873 6.25982 35.2768 6.73428 35.7393L7.4323 35.0232Z" fill="#006389"/>
<path d="M3.98886 32.4477C4.14101 32.6782 4.45117 32.7416 4.68161 32.5895C4.91205 32.4373 4.97552 32.1272 4.82336 31.8967L3.98886 32.4477ZM3.84941 30.254C3.72018 30.0099 3.41758 29.9169 3.17355 30.0461C2.92951 30.1753 2.83646 30.4779 2.96569 30.722L3.84941 30.254ZM4.82336 31.8967C4.47599 31.3706 4.15069 30.8228 3.84941 30.254L2.96569 30.722C3.28205 31.3193 3.62378 31.8948 3.98886 32.4477L4.82336 31.8967Z" fill="#006389"/>
<path d="M2.20957 28.9663C2.3197 29.2196 2.61427 29.3356 2.8675 29.2254C3.12073 29.1153 3.23673 28.8207 3.12659 28.5675L2.20957 28.9663ZM2.45054 26.7814C2.36532 26.5187 2.08331 26.3749 1.82064 26.4601C1.55798 26.5453 1.41413 26.8273 1.49935 27.09L2.45054 26.7814ZM3.12659 28.5675C2.87515 27.9894 2.6492 27.3937 2.45054 26.7814L1.49935 27.09C1.70795 27.733 1.94531 28.3587 2.20957 28.9663L3.12659 28.5675Z" fill="#006389"/>
<path d="M1.00869 25.0793C1.06612 25.3494 1.33164 25.5218 1.60175 25.4644C1.87185 25.4069 2.04426 25.1414 1.98683 24.8713L1.00869 25.0793ZM1.68049 22.9863C1.64936 22.7119 1.40169 22.5147 1.12731 22.5458C0.852926 22.577 0.655734 22.8246 0.686867 23.099L1.68049 22.9863ZM1.98683 24.8713C1.85571 24.2547 1.75307 23.6259 1.68049 22.9863L0.686867 23.099C0.763076 23.7707 0.870894 24.4312 1.00869 25.0793L1.98683 24.8713Z" fill="#006389"/>
<path d="M0.607525 20.8522C0.610167 21.1284 0.836157 21.3501 1.11229 21.3474C1.38842 21.3448 1.61012 21.1188 1.60748 20.8427L0.607525 20.8522ZM1.68163 18.9343C1.70561 18.6592 1.50204 18.4168 1.22694 18.3928C0.951838 18.3688 0.709386 18.5724 0.685405 18.8475L1.68163 18.9343ZM1.60748 20.8427C1.60145 20.2122 1.62572 19.5756 1.68163 18.9343L0.685405 18.8475C0.626702 19.5209 0.601185 20.1897 0.607525 20.8522L1.60748 20.8427Z" fill="#006389"/>
<path d="M1.18939 16.2215C1.13791 16.4928 1.3161 16.7545 1.5874 16.806C1.8587 16.8575 2.12037 16.6793 2.17186 16.408L1.18939 16.2215ZM2.61827 14.5511C2.69566 14.286 2.54351 14.0084 2.27844 13.931C2.01336 13.8536 1.73574 14.0058 1.65835 14.2708L2.61827 14.5511ZM2.17186 16.408C2.28939 15.7886 2.43787 15.169 2.61827 14.5511L1.65835 14.2708C1.46891 14.9197 1.31292 15.5706 1.18939 16.2215L2.17186 16.408Z" fill="#006389"/>
<path d="M2.72284 11.7796C2.59772 12.0257 2.69585 12.3267 2.94202 12.4518C3.1882 12.577 3.48918 12.4788 3.6143 12.2327L2.72284 11.7796ZM4.56098 10.574C4.70924 10.341 4.64057 10.032 4.4076 9.88374C4.17463 9.73548 3.86559 9.80415 3.71733 10.0371L4.56098 10.574ZM3.6143 12.2327C3.89995 11.6706 4.21536 11.1171 4.56098 10.574L3.71733 10.0371C3.3544 10.6074 3.02305 11.1889 2.72284 11.7796L3.6143 12.2327Z" fill="#006389"/>
<path d="M5.40284 7.62441C5.21911 7.83056 5.23728 8.14662 5.44342 8.33035C5.64957 8.51409 5.96563 8.49592 6.14936 8.28977L5.40284 7.62441ZM7.48756 6.92723C7.6903 6.73975 7.70268 6.42341 7.5152 6.22067C7.32772 6.01792 7.01138 6.00555 6.80864 6.19302L7.48756 6.92723ZM6.14936 8.28977C6.56884 7.81913 7.01492 7.36428 7.48756 6.92723L6.80864 6.19302C6.31233 6.65195 5.8437 7.12978 5.40284 7.62441L6.14936 8.28977Z" fill="#006389"/>
<circle cx="20.9062" cy="21.0421" r="19.0327" fill="#DFB08A"/>
<path d="M33.4839 21.0424C33.4839 27.5937 28.0312 32.9262 21.2778 32.9262C14.5243 32.9262 9.07166 27.5937 9.07166 21.0424C9.07166 14.4912 14.5243 9.15866 21.2778 9.15866C28.0312 9.15866 33.4839 14.4912 33.4839 21.0424Z" fill="#A3E0FB" stroke="#006389"/>
<path d="M15.6904 12.0114L15.2356 11.7958C14.6982 11.5412 14.0596 11.6424 13.6272 12.0508L12.8187 12.8145C12.5028 13.1129 12.5711 13.6328 12.9533 13.8395C13.1594 13.9509 13.2878 14.1663 13.2878 14.4006V14.9306C13.2878 15.0924 13.2621 15.2531 13.2116 15.4068L13.189 15.4759C13.0287 15.964 13.0643 16.4953 13.2883 16.9577L13.5996 17.6005C13.8659 18.1504 14.4232 18.4996 15.0342 18.4996C15.7413 18.4996 16.3639 18.9655 16.5634 19.6438L16.7596 20.3109C16.988 21.0875 17.5752 21.7073 18.3383 21.9775L19.7216 22.4672C19.8156 22.5004 19.9067 22.5412 19.9941 22.5891L20.1081 22.6515C20.6325 22.9388 20.9586 23.4892 20.9586 24.0872V24.9454C20.9586 25.2614 21.0342 25.5729 21.1791 25.8538C21.3907 26.264 21.7389 26.5874 22.1635 26.7683L22.6425 26.9723C23.0845 27.1606 23.4039 27.5563 23.4948 28.028C23.5616 28.3749 23.4989 28.7342 23.3187 29.0381L22.7482 29.9997C22.5875 30.2706 22.5027 30.5798 22.5027 30.8948V31.6134C22.5027 31.994 22.7612 32.3261 23.1302 32.4194C23.4197 32.4926 23.7263 32.4048 23.9332 32.1896L25.6406 30.4136L27.4791 28.3304C27.7422 28.0322 27.9142 27.6649 27.9748 27.2719L27.9976 27.1239C28.0817 26.5778 28.4154 26.1021 28.9003 25.837L29.5903 25.4597C29.8765 25.3033 30.0244 24.9762 29.9529 24.658C29.8779 24.3243 29.5816 24.0872 29.2396 24.0872H29.1333C28.8218 24.0872 28.5344 23.9195 28.3812 23.6483L27.8572 22.7208C27.6455 22.3462 27.3334 22.0381 26.9561 21.8314C26.6159 21.6451 26.2343 21.5474 25.8464 21.5474H24.3613C24.0552 21.5474 23.7523 21.6098 23.4711 21.7308C22.8575 21.995 22.1582 21.9729 21.5624 21.6707L20.5051 21.1344C20.1111 20.9345 19.8628 20.5301 19.8628 20.0883C19.8628 19.4404 20.388 18.9152 21.0358 18.9152H21.2497C21.4148 18.9152 21.5737 18.9776 21.6948 19.0898C21.9887 19.3623 22.4564 19.309 22.6815 18.9773L23.9199 17.1521C24.0962 16.8922 24.372 16.7167 24.6821 16.6672L24.7155 16.6618C25.2485 16.5766 25.6406 16.1168 25.6406 15.577V15.2107C25.6406 15.0455 25.7286 14.8929 25.8714 14.8102C26.1478 14.65 26.1828 14.2648 25.9398 14.0575L25.3129 13.5228C25.233 13.4547 25.1433 13.399 25.0468 13.3575L23.8872 12.8598C22.9701 12.4662 21.9959 12.2215 21.0016 12.1351L20.071 12.0542C19.5679 12.0105 19.0619 12.0112 18.559 12.0563L16.8181 12.2125C16.431 12.2472 16.0416 12.1778 15.6904 12.0114Z" fill="url(#paint0_linear)"/>
<path d="M28.1311 12.0505V11.6316C28.1311 11.5916 28.1771 11.5692 28.2086 11.5938L29.376 12.5047L29.8832 12.9904C30.3741 13.4605 30.8193 13.9761 31.2126 14.5304C31.6473 15.143 32.0165 15.7996 32.3141 16.4893L32.5368 17.0056C32.5496 17.0352 32.5279 17.0681 32.4958 17.0681C31.8167 17.0681 31.1439 16.9393 30.5129 16.6886L29.6073 16.3288C29.4539 16.2678 29.3102 16.185 29.1806 16.0829L29.1703 16.0748C28.6834 15.6911 28.4462 15.0711 28.5525 14.4603C28.6028 14.172 28.5771 13.8755 28.4781 13.6001L28.3288 13.185C28.198 12.8211 28.1311 12.4373 28.1311 12.0505Z" fill="url(#paint1_linear)"/>
<path d="M15.6904 12.0114L15.2356 11.7958C14.6982 11.5412 14.0596 11.6424 13.6272 12.0508L12.8187 12.8145C12.5028 13.1129 12.5711 13.6328 12.9533 13.8395C13.1594 13.9509 13.2878 14.1663 13.2878 14.4006V14.9306C13.2878 15.0924 13.2621 15.2531 13.2116 15.4068L13.189 15.4759C13.0287 15.964 13.0643 16.4953 13.2883 16.9577L13.5996 17.6005C13.8659 18.1504 14.4232 18.4996 15.0342 18.4996C15.7413 18.4996 16.3639 18.9655 16.5634 19.6438L16.7596 20.3109C16.988 21.0875 17.5752 21.7073 18.3383 21.9775L19.7216 22.4672C19.8156 22.5004 19.9067 22.5412 19.9941 22.5891L20.1081 22.6515C20.6325 22.9388 20.9586 23.4892 20.9586 24.0872V24.9454C20.9586 25.2614 21.0342 25.5729 21.1791 25.8538C21.3907 26.264 21.7389 26.5874 22.1635 26.7683L22.6425 26.9723C23.0845 27.1606 23.4039 27.5563 23.4948 28.028C23.5616 28.3749 23.4989 28.7342 23.3187 29.0381L22.7482 29.9997C22.5875 30.2706 22.5027 30.5798 22.5027 30.8948V31.6134C22.5027 31.994 22.7612 32.3261 23.1302 32.4194C23.4197 32.4926 23.7263 32.4048 23.9332 32.1896L25.6406 30.4136L27.4791 28.3304C27.7422 28.0322 27.9142 27.6649 27.9748 27.2719L27.9976 27.1239C28.0817 26.5778 28.4154 26.1021 28.9003 25.837L29.5903 25.4597C29.8765 25.3033 30.0244 24.9762 29.9529 24.658C29.8779 24.3243 29.5816 24.0872 29.2396 24.0872H29.1333C28.8218 24.0872 28.5344 23.9195 28.3812 23.6483L27.8572 22.7208C27.6455 22.3462 27.3334 22.0381 26.9561 21.8314C26.6159 21.6451 26.2343 21.5474 25.8464 21.5474H24.3613C24.0552 21.5474 23.7523 21.6098 23.4711 21.7308C22.8575 21.995 22.1582 21.9729 21.5624 21.6707L20.5051 21.1344C20.1111 20.9345 19.8628 20.5301 19.8628 20.0883C19.8628 19.4404 20.388 18.9152 21.0358 18.9152H21.2497C21.4148 18.9152 21.5737 18.9776 21.6948 19.0898C21.9887 19.3623 22.4564 19.309 22.6815 18.9773L23.9199 17.1521C24.0962 16.8922 24.372 16.7167 24.6821 16.6672L24.7155 16.6618C25.2485 16.5766 25.6406 16.1168 25.6406 15.577V15.2107C25.6406 15.0455 25.7286 14.8929 25.8714 14.8102C26.1478 14.65 26.1828 14.2648 25.9398 14.0575L25.3129 13.5228C25.233 13.4547 25.1433 13.399 25.0468 13.3575L23.8872 12.8598C22.9701 12.4662 21.9959 12.2215 21.0016 12.1351L20.071 12.0542C19.5679 12.0105 19.0619 12.0112 18.559 12.0563L16.8181 12.2125C16.431 12.2472 16.0416 12.1778 15.6904 12.0114Z" stroke="#006389"/>
<path d="M28.1311 12.0505V11.6316C28.1311 11.5916 28.1771 11.5692 28.2086 11.5938L29.376 12.5047L29.8832 12.9904C30.3741 13.4605 30.8193 13.9761 31.2126 14.5304C31.6473 15.143 32.0165 15.7996 32.3141 16.4893L32.5368 17.0056C32.5496 17.0352 32.5279 17.0681 32.4958 17.0681C31.8167 17.0681 31.1439 16.9393 30.5129 16.6886L29.6073 16.3288C29.4539 16.2678 29.3102 16.185 29.1806 16.0829L29.1703 16.0748C28.6834 15.6911 28.4462 15.0711 28.5525 14.4603C28.6028 14.172 28.5771 13.8755 28.4781 13.6001L28.3288 13.185C28.198 12.8211 28.1311 12.4373 28.1311 12.0505Z" stroke="#006389"/>
<defs>
<linearGradient id="paint0_linear" x1="19.7024" y1="16.93" x2="13.5579" y2="12.1387" gradientUnits="userSpaceOnUse">
<stop stop-color="#16A029"/>
<stop offset="1" stop-color="#C2ED19"/>
</linearGradient>
<linearGradient id="paint1_linear" x1="19.7024" y1="16.93" x2="13.5579" y2="12.1387" gradientUnits="userSpaceOnUse">
<stop stop-color="#16A029"/>
<stop offset="1" stop-color="#C2ED19"/>
</linearGradient>
</defs>
</svg>
