<svg width="42" height="42" viewBox="0 0 42 42" fill="none" xmlns="http://www.w3.org/2000/svg">
<path d="M8.70207 5.0013C8.48139 5.16731 8.43707 5.48077 8.60308 5.70145C8.76908 5.92212 9.08254 5.96644 9.30322 5.80044L8.70207 5.0013ZM11.1751 4.55385C11.4133 4.41425 11.4933 4.10793 11.3537 3.86968C11.2141 3.63142 10.9078 3.55145 10.6695 3.69105L11.1751 4.55385ZM9.30322 5.80044C9.90147 5.35041 10.5263 4.93395 11.1751 4.55385L10.6695 3.69105C9.98759 4.09061 9.3308 4.52834 8.70207 5.0013L9.30322 5.80044Z" fill="#006389"/>
<path d="M12.2904 2.88055C12.0404 2.99781 11.9327 3.29554 12.05 3.54555C12.1673 3.79556 12.465 3.90318 12.715 3.78592L12.2904 2.88055ZM14.8671 2.92914C15.1293 2.8425 15.2716 2.5597 15.1849 2.29751C15.0983 2.03531 14.8155 1.893 14.5533 1.97964L14.8671 2.92914ZM12.715 3.78592C13.411 3.45951 14.1293 3.17294 14.8671 2.92914L14.5533 1.97964C13.7775 2.23602 13.0221 2.53735 12.2904 2.88055L12.715 3.78592Z" fill="#006389"/>
<path d="M16.365 1.45276C16.0925 1.49713 15.9075 1.75405 15.9518 2.02661C15.9962 2.29916 16.2531 2.48414 16.5257 2.43976L16.365 1.45276ZM18.718 2.20946C18.9938 2.19618 19.2066 1.96181 19.1933 1.68599C19.1801 1.41017 18.9457 1.19733 18.6699 1.21061L18.718 2.20946ZM16.5257 2.43976C17.2451 2.32264 17.9767 2.24514 18.718 2.20946L18.6699 1.21061C17.8907 1.24812 17.1216 1.32959 16.365 1.45276L16.5257 2.43976Z" fill="#006389"/>
<path d="M20.4933 1.08598C20.2174 1.09762 20.0032 1.33072 20.0149 1.60662C20.0265 1.88251 20.2596 2.09673 20.5355 2.08509L20.4933 1.08598ZM22.4452 2.09698C22.721 2.11197 22.9567 1.90061 22.9717 1.62487C22.9867 1.34914 22.7753 1.11345 22.4996 1.09845L22.4452 2.09698ZM20.5355 2.08509C21.1654 2.0585 21.8025 2.06201 22.4452 2.09698L22.4996 1.09845C21.8246 1.06174 21.1553 1.05804 20.4933 1.08598L20.5355 2.08509Z" fill="#006389"/>
<path d="M24.7711 1.42687C24.4994 1.37718 24.239 1.55711 24.1893 1.82875C24.1396 2.10038 24.3195 2.36086 24.5911 2.41055L24.7711 1.42687ZM26.4509 2.84467C26.7165 2.9203 26.9931 2.76631 27.0688 2.50073C27.1444 2.23515 26.9904 1.95854 26.7248 1.8829L26.4509 2.84467ZM24.5911 2.41055C25.2113 2.52398 25.8318 2.66835 26.4509 2.84467L26.7248 1.8829C26.0747 1.69777 25.4228 1.54609 24.7711 1.42687L24.5911 2.41055Z" fill="#006389"/>
<path d="M28.581 2.5397C28.3242 2.43823 28.0338 2.56416 27.9323 2.82098C27.8308 3.07781 27.9567 3.36826 28.2136 3.46974L28.581 2.5397ZM29.9537 4.25665C30.1995 4.3824 30.5008 4.28505 30.6265 4.0392C30.7523 3.79336 30.6549 3.49211 30.4091 3.36636L29.9537 4.25665ZM28.2136 3.46974C28.7999 3.70141 29.3806 3.9635 29.9537 4.25665L30.4091 3.36636C29.8073 3.05853 29.1973 2.78318 28.581 2.5397L28.2136 3.46974Z" fill="#006389"/>
<path d="M32.5312 4.66371C32.3043 4.50635 31.9927 4.56273 31.8354 4.78964C31.678 5.01656 31.7344 5.32808 31.9613 5.48545L32.5312 4.66371ZM33.4762 6.64843C33.6868 6.82693 34.0024 6.80084 34.1809 6.59014C34.3594 6.37945 34.3333 6.06394 34.1226 5.88544L33.4762 6.64843ZM31.9613 5.48545C32.4794 5.84472 32.985 6.23232 33.4762 6.64843L34.1226 5.88544C33.6068 5.44849 33.0756 5.0413 32.5312 4.66371L31.9613 5.48545Z" fill="#006389"/>
<path d="M35.2994 6.97028C35.1006 6.7786 34.7841 6.78434 34.5924 6.98311C34.4007 7.18188 34.4065 7.49842 34.6052 7.6901L35.2994 6.97028ZM35.9142 9.08076C36.0936 9.29072 36.4092 9.3155 36.6191 9.13613C36.8291 8.95675 36.8539 8.64114 36.6745 8.43119L35.9142 9.08076ZM34.6052 7.6901C35.059 8.12774 35.496 8.59133 35.9142 9.08076L36.6745 8.43119C36.2354 7.91726 35.7763 7.43022 35.2994 6.97028L34.6052 7.6901Z" fill="#006389"/>
<path d="M40.9863 17.6514C40.9372 17.3796 40.6772 17.1991 40.4054 17.2482C40.1337 17.2973 39.9532 17.5573 40.0022 17.8291L40.9863 17.6514ZM40.2503 19.7227C40.2729 19.9979 40.5144 20.2027 40.7896 20.18C41.0648 20.1573 41.2696 19.9159 41.2469 19.6407L40.2503 19.7227ZM40.0022 17.8291C40.1143 18.4495 40.1975 19.0811 40.2503 19.7227L41.2469 19.6407C41.1914 18.967 41.1041 18.3034 40.9863 17.6514L40.0022 17.8291Z" fill="#006389"/>
<path d="M40.045 13.7914C39.9537 13.5308 39.6684 13.3936 39.4078 13.485C39.1472 13.5763 39.01 13.8616 39.1014 14.1222L40.045 13.7914ZM39.6452 15.9529C39.711 16.2211 39.9818 16.3852 40.25 16.3193C40.5182 16.2535 40.6822 15.9828 40.6164 15.7146L39.6452 15.9529ZM39.1014 14.1222C39.3099 14.7172 39.4918 15.3277 39.6452 15.9529L40.6164 15.7146C40.4553 15.0581 40.2642 14.4167 40.045 13.7914L39.1014 14.1222Z" fill="#006389"/>
<path d="M38.2514 10.2546C38.1023 10.0222 37.7929 9.95469 37.5606 10.1038C37.3282 10.253 37.2607 10.5623 37.4098 10.7947L38.2514 10.2546ZM38.3625 12.4499C38.4885 12.6956 38.7899 12.7926 39.0356 12.6665C39.2813 12.5405 39.3782 12.2391 39.2522 11.9934L38.3625 12.4499ZM37.4098 10.7947C37.7504 11.3253 38.0686 11.8772 38.3625 12.4499L39.2522 11.9934C38.9436 11.392 38.6093 10.8122 38.2514 10.2546L37.4098 10.7947Z" fill="#006389"/>
<path d="M41.3125 21.5223C41.3173 21.2462 41.0973 21.0185 40.8212 21.0138C40.5451 21.009 40.3174 21.2289 40.3126 21.505L41.3125 21.5223ZM40.1873 23.4107C40.1559 23.6851 40.3529 23.9329 40.6272 23.9643C40.9016 23.9956 41.1494 23.7986 41.1808 23.5243L40.1873 23.4107ZM40.3126 21.505C40.3017 22.1354 40.2604 22.7711 40.1873 23.4107L41.1808 23.5243C41.2576 22.8527 41.301 22.1848 41.3125 21.5223L40.3126 21.505Z" fill="#006389"/>
<path d="M40.892 25.51C40.9474 25.2395 40.7731 24.9753 40.5026 24.9198C40.232 24.8644 39.9678 25.0388 39.9124 25.3093L40.892 25.51ZM39.4389 27.1594C39.3576 27.4234 39.5057 27.7032 39.7696 27.7844C40.0335 27.8657 40.3134 27.7176 40.3946 27.4537L39.4389 27.1594ZM39.9124 25.3093C39.7858 25.9269 39.6283 26.5442 39.4389 27.1594L40.3946 27.4537C40.5935 26.8076 40.759 26.1591 40.892 25.51L39.9124 25.3093Z" fill="#006389"/>
<path d="M39.7993 29.0329C39.9004 28.776 39.7741 28.4857 39.5171 28.3846C39.2602 28.2834 38.9699 28.4098 38.8688 28.6668L39.7993 29.0329ZM38.0843 30.408C37.9589 30.654 38.0567 30.9551 38.3027 31.0805C38.5487 31.2059 38.8498 31.1081 38.9752 30.8621L38.0843 30.408ZM38.8688 28.6668C38.6379 29.2534 38.3767 29.8345 38.0843 30.408L38.9752 30.8621C39.2822 30.2599 39.5567 29.6495 39.7993 29.0329L38.8688 28.6668Z" fill="#006389"/>
<path d="M37.9059 32.6445C38.059 32.4147 37.9968 32.1043 37.767 31.9512C37.5371 31.7981 37.2267 31.8603 37.0736 32.0901L37.9059 32.6445ZM35.9392 33.6264C35.7647 33.8404 35.7967 34.1554 36.0106 34.3299C36.2246 34.5044 36.5396 34.4724 36.7141 34.2584L35.9392 33.6264ZM37.0736 32.0901C36.7241 32.6148 36.346 33.1276 35.9392 33.6264L36.7141 34.2584C37.1414 33.7346 37.5385 33.1959 37.9059 32.6445L37.0736 32.0901Z" fill="#006389"/>
<path d="M35.3323 35.768C35.5271 35.5723 35.5264 35.2558 35.3307 35.0609C35.135 34.8661 34.8184 34.8668 34.6236 35.0625L35.3323 35.768ZM33.2122 36.349C32.9994 36.525 32.9696 36.8402 33.1456 37.053C33.3216 37.2658 33.6368 37.2956 33.8496 37.1196L33.2122 36.349ZM34.6236 35.0625C34.1788 35.5092 33.7083 35.9388 33.2122 36.349L33.8496 37.1196C34.3705 36.6888 34.8648 36.2376 35.3323 35.768L34.6236 35.0625Z" fill="#006389"/>
<path d="M32.1223 38.3454C32.3494 38.1882 32.4061 37.8768 32.249 37.6497C32.0919 37.4226 31.7804 37.3659 31.5533 37.523L32.1223 38.3454ZM29.932 38.5322C29.6908 38.6667 29.6044 38.9713 29.7388 39.2124C29.8733 39.4536 30.1779 39.5401 30.419 39.4056L29.932 38.5322ZM31.5533 37.523C31.0349 37.8816 30.4942 38.2187 29.932 38.5322L30.419 39.4056C31.0094 39.0764 31.5774 38.7223 32.1223 38.3454L31.5533 37.523Z" fill="#006389"/>
<path d="M28.0938 40.3974C28.3502 40.2951 28.4752 40.0043 28.3729 39.7478C28.2706 39.4913 27.9798 39.3663 27.7233 39.4686L28.0938 40.3974ZM25.9172 40.0895C25.6521 40.1666 25.4996 40.4441 25.5767 40.7092C25.6538 40.9744 25.9313 41.1268 26.1965 41.0497L25.9172 40.0895ZM27.7233 39.4686C27.1377 39.7022 26.5354 39.9097 25.9172 40.0895L26.1965 41.0497C26.8455 40.8609 27.4783 40.6429 28.0938 40.3974L27.7233 39.4686Z" fill="#006389"/>
<path d="M23.7604 41.4792C24.0338 41.441 24.2245 41.1882 24.1862 40.9148C24.148 40.6413 23.8952 40.4506 23.6218 40.4889L23.7604 41.4792ZM21.7198 40.6617C21.4439 40.6735 21.2298 40.9067 21.2415 41.1825C21.2533 41.4584 21.4864 41.6726 21.7623 41.6608L21.7198 40.6617ZM23.6218 40.4889C22.9974 40.5763 22.363 40.6344 21.7198 40.6617L21.7623 41.6608C22.4377 41.6321 23.1042 41.5711 23.7604 41.4792L23.6218 40.4889Z" fill="#006389"/>
<path d="M19.4748 41.5986C19.7504 41.6163 19.9882 41.4073 20.0059 41.1317C20.0236 40.8561 19.8145 40.6184 19.5389 40.6007L19.4748 41.5986ZM17.6412 40.3861C17.3687 40.342 17.1119 40.5271 17.0677 40.7997C17.0235 41.0723 17.2087 41.3291 17.4813 41.3733L17.6412 40.3861ZM19.5389 40.6007C18.9098 40.5602 18.2767 40.4891 17.6412 40.3861L17.4813 41.3733C18.1485 41.4814 18.8136 41.5561 19.4748 41.5986L19.5389 40.6007Z" fill="#006389"/>
<path d="M14.5476 40.4386C14.8064 40.5349 15.0943 40.4032 15.1906 40.1444C15.2869 39.8856 15.1552 39.5977 14.8964 39.5014L14.5476 40.4386ZM13.1409 38.7494C12.8926 38.6285 12.5934 38.7319 12.4726 38.9802C12.3517 39.2285 12.4551 39.5277 12.7034 39.6486L13.1409 38.7494ZM14.8964 39.5014C14.3056 39.2815 13.7198 39.031 13.1409 38.7494L12.7034 39.6486C13.3112 39.9443 13.9266 40.2074 14.5476 40.4386L14.8964 39.5014Z" fill="#006389"/>
<path d="M10.2557 38.3665C10.491 38.511 10.7989 38.4373 10.9434 38.202C11.0878 37.9666 11.0141 37.6587 10.7788 37.5143L10.2557 38.3665ZM9.20141 36.4376C8.98109 36.2712 8.66753 36.3148 8.50106 36.5352C8.3346 36.7555 8.37826 37.0691 8.59859 37.2355L9.20141 36.4376ZM10.7788 37.5143C10.2415 37.1845 9.71503 36.8257 9.20141 36.4376L8.59859 37.2355C9.13792 37.643 9.69098 38.0199 10.2557 38.3665L10.7788 37.5143Z" fill="#006389"/>
<path d="M6.94888 35.7601C7.14662 35.9529 7.46318 35.9488 7.65593 35.7511C7.84868 35.5533 7.84464 35.2368 7.6469 35.044L6.94888 35.7601ZM6.34545 33.6464C6.1672 33.4354 5.85173 33.409 5.64082 33.5872C5.4299 33.7654 5.40342 34.0809 5.58166 34.2918L6.34545 33.6464ZM7.6469 35.044C7.19545 34.604 6.76096 34.138 6.34545 33.6464L5.58166 34.2918C6.01799 34.8081 6.47442 35.2976 6.94888 35.7601L7.6469 35.044Z" fill="#006389"/>
<path d="M4.20346 32.4685C4.35561 32.699 4.66577 32.7624 4.89621 32.6103C5.12665 32.4581 5.19012 32.148 5.03796 31.9175L4.20346 32.4685ZM4.06401 30.2747C3.93478 30.0307 3.63218 29.9376 3.38815 30.0669C3.14411 30.1961 3.05105 30.4987 3.18029 30.7427L4.06401 30.2747ZM5.03796 31.9175C4.69059 31.3914 4.36529 30.8436 4.06401 30.2747L3.18029 30.7427C3.49665 31.3401 3.83838 31.9156 4.20346 32.4685L5.03796 31.9175Z" fill="#006389"/>
<path d="M2.42417 28.9871C2.5343 29.2404 2.82887 29.3564 3.0821 29.2462C3.33532 29.1361 3.45133 28.8415 3.34119 28.5883L2.42417 28.9871ZM2.66514 26.8022C2.57992 26.5395 2.29791 26.3957 2.03524 26.4809C1.77258 26.5661 1.62873 26.8481 1.71395 27.1108L2.66514 26.8022ZM3.34119 28.5883C3.08975 28.0102 2.8638 27.4145 2.66514 26.8022L1.71395 27.1108C1.92255 27.7537 2.15991 28.3795 2.42417 28.9871L3.34119 28.5883Z" fill="#006389"/>
<path d="M1.22329 25.1001C1.28072 25.3702 1.54624 25.5426 1.81635 25.4852C2.08645 25.4277 2.25886 25.1622 2.20143 24.8921L1.22329 25.1001ZM1.89509 23.0071C1.86396 22.7327 1.61629 22.5355 1.34191 22.5666C1.06753 22.5977 0.870334 22.8454 0.901466 23.1198L1.89509 23.0071ZM2.20143 24.8921C2.07031 24.2754 1.96767 23.6467 1.89509 23.0071L0.901466 23.1198C0.977676 23.7915 1.08549 24.452 1.22329 25.1001L2.20143 24.8921Z" fill="#006389"/>
<path d="M0.822125 20.873C0.824767 21.1491 1.05076 21.3708 1.32689 21.3682C1.60302 21.3656 1.82472 21.1396 1.82208 20.8634L0.822125 20.873ZM1.89623 18.9551C1.92021 18.68 1.71664 18.4375 1.44154 18.4136C1.16644 18.3896 0.923985 18.5932 0.900004 18.8683L1.89623 18.9551ZM1.82208 20.8634C1.81605 20.233 1.84032 19.5964 1.89623 18.9551L0.900004 18.8683C0.841302 19.5417 0.815785 20.2105 0.822125 20.873L1.82208 20.8634Z" fill="#006389"/>
<path d="M1.40399 16.2423C1.35251 16.5136 1.5307 16.7753 1.802 16.8268C2.0733 16.8783 2.33497 16.7001 2.38645 16.4288L1.40399 16.2423ZM2.83287 14.5719C2.91026 14.3068 2.75811 14.0292 2.49304 13.9518C2.22796 13.8744 1.95034 14.0266 1.87295 14.2916L2.83287 14.5719ZM2.38645 16.4288C2.50399 15.8094 2.65247 15.1898 2.83287 14.5719L1.87295 14.2916C1.68351 14.9405 1.52752 15.5914 1.40399 16.2423L2.38645 16.4288Z" fill="#006389"/>
<path d="M2.93744 11.8003C2.81232 12.0465 2.91045 12.3475 3.15662 12.4726C3.40279 12.5977 3.70378 12.4996 3.8289 12.2534L2.93744 11.8003ZM4.77558 10.5948C4.92384 10.3618 4.85517 10.0528 4.6222 9.90452C4.38923 9.75626 4.08019 9.82493 3.93193 10.0579L4.77558 10.5948ZM3.8289 12.2534C4.11455 11.6914 4.42996 11.1379 4.77558 10.5948L3.93193 10.0579C3.569 10.6282 3.23765 11.2097 2.93744 11.8003L3.8289 12.2534Z" fill="#006389"/>
<path d="M5.61744 7.64519C5.43371 7.85134 5.45188 8.1674 5.65802 8.35113C5.86417 8.53487 6.18023 8.5167 6.36396 8.31056L5.61744 7.64519ZM7.70216 6.94802C7.9049 6.76054 7.91728 6.4442 7.7298 6.24145C7.54232 6.0387 7.22598 6.02633 7.02324 6.21381L7.70216 6.94802ZM6.36396 8.31056C6.78344 7.83991 7.22952 7.38506 7.70216 6.94802L7.02324 6.21381C6.52693 6.67274 6.0583 7.15057 5.61744 7.64519L6.36396 8.31056Z" fill="#006389"/>
<circle cx="21.1208" cy="21.0629" r="19.0327" fill="#DFB08A"/>
<path d="M14.8012 19.8185C16.601 16.8095 18.3705 14.7503 21.0703 11.3731L26.5728 18.6625C27.6305 20.0636 28.2027 21.7713 28.2027 23.5269C28.2027 23.9379 28.1713 24.3483 28.1088 24.7545L28.0296 25.2692C27.9167 26.0027 27.6933 26.7149 27.3668 27.3814C27.011 28.1079 26.5375 28.7706 25.9654 29.3426L25.6429 29.6652C25.3191 29.989 24.9612 30.2769 24.5754 30.5237C23.5532 31.1779 22.365 31.5256 21.1514 31.5256H21.0357C20.269 31.5256 19.5079 31.3949 18.785 31.1392L18.555 31.0578C17.5885 30.7158 16.7087 30.1664 15.9772 29.4482C15.1566 28.6425 14.5464 27.6477 14.2001 26.5511L14.1151 26.2818C13.6733 24.8827 13.619 23.3824 13.9543 21.9541C14.13 21.2056 14.4065 20.4783 14.8012 19.8185Z" fill="#A3E0FB"/>
<path d="M21.0703 11.3731L21.4693 11.0719L21.0816 10.5582L20.6797 11.0609L21.0703 11.3731ZM14.8012 19.8185L15.2303 20.0751L14.8012 19.8185ZM14.1151 26.2818L13.6383 26.4323H13.6383L14.1151 26.2818ZM14.2001 26.5511L14.6769 26.4005L14.2001 26.5511ZM18.555 31.0578L18.3882 31.5291H18.3882L18.555 31.0578ZM18.785 31.1392L18.9518 30.6678L18.785 31.1392ZM25.6429 29.6652L25.2893 29.3116H25.2893L25.6429 29.6652ZM25.9654 29.3426L26.319 29.6962H26.319L25.9654 29.3426ZM28.0296 25.2692L27.5354 25.1932L28.0296 25.2692ZM28.1088 24.7545L28.603 24.8306L28.603 24.8306L28.1088 24.7545ZM16.9265 21.0599C17.0581 20.8172 16.968 20.5137 16.7252 20.3821C16.4825 20.2505 16.179 20.3406 16.0474 20.5833L16.9265 21.0599ZM16.2252 21.3043L15.7857 21.066H15.7857L16.2252 21.3043ZM17.8399 28.4884L18.0901 28.0555H18.0901L17.8399 28.4884ZM18.9832 29.7269C19.2223 29.8651 19.5281 29.7834 19.6663 29.5443C19.8046 29.3052 19.7228 28.9994 19.4837 28.8612L18.9832 29.7269ZM26.5728 18.6625L26.1737 18.9637L26.5728 18.6625ZM15.8746 26.2684L16.3346 26.0725L15.8746 26.2684ZM27.3668 27.3814L26.9178 27.1615L27.3668 27.3814ZM24.5754 30.5237L24.3059 30.1026L24.5754 30.5237ZM15.9772 29.4482L15.6269 29.805L15.6269 29.805L15.9772 29.4482ZM13.9543 21.9541L13.4675 21.8399H13.4675L13.9543 21.9541ZM20.6797 11.0609C17.9919 14.4232 16.194 16.5159 14.3721 19.5618L15.2303 20.0751C17.0081 17.103 18.7491 15.0775 21.4608 11.6853L20.6797 11.0609ZM13.6383 26.4323L13.7233 26.7016L14.6769 26.4005L14.5919 26.1313L13.6383 26.4323ZM18.3882 31.5291L18.6182 31.6105L18.9518 30.6678L18.7218 30.5864L18.3882 31.5291ZM21.0357 32.0256H21.1514V31.0256H21.0357V32.0256ZM25.9964 30.0187L26.319 29.6962L25.6119 28.9891L25.2893 29.3116L25.9964 30.0187ZM28.5238 25.3452L28.603 24.8306L27.6146 24.6785L27.5354 25.1932L28.5238 25.3452ZM16.0474 20.5833L15.7857 21.066L16.6648 21.5426L16.9265 21.0599L16.0474 20.5833ZM14.9999 24.1642V24.4327H15.9999V24.1642H14.9999ZM17.5896 28.9212L18.9832 29.7269L19.4837 28.8612L18.0901 28.0555L17.5896 28.9212ZM26.9719 18.3613L21.4693 11.0719L20.6712 11.6744L26.1737 18.9637L26.9719 18.3613ZM28.7027 23.5269C28.7027 21.6626 28.095 19.8492 26.9719 18.3613L26.1737 18.9637C27.1659 20.2781 27.7027 21.88 27.7027 23.5269H28.7027ZM15.4145 26.4644C15.8545 27.4972 16.6177 28.3594 17.5896 28.9212L18.0901 28.0555C17.3057 27.602 16.6896 26.9061 16.3346 26.0725L15.4145 26.4644ZM14.9999 24.4327C14.9999 25.131 15.1409 25.822 15.4145 26.4644L16.3346 26.0725C16.1137 25.554 15.9999 24.9963 15.9999 24.4327H14.9999ZM28.603 24.8306C28.6693 24.3992 28.7027 23.9633 28.7027 23.5269H27.7027C27.7027 23.9124 27.6732 24.2974 27.6146 24.6785L28.603 24.8306ZM27.8159 27.6013C28.1646 26.8894 28.4032 26.1287 28.5238 25.3452L27.5354 25.1932C27.4302 25.8767 27.222 26.5404 26.9178 27.1615L27.8159 27.6013ZM26.319 29.6962C26.93 29.0852 27.4358 28.3773 27.8159 27.6013L26.9178 27.1615C26.5862 27.8385 26.1449 28.456 25.6119 28.9891L26.319 29.6962ZM24.8449 30.9449C25.261 30.6786 25.6471 30.3681 25.9964 30.0187L25.2893 29.3116C24.991 29.61 24.6613 29.8752 24.3059 30.1026L24.8449 30.9449ZM21.1514 32.0256C22.4605 32.0256 23.7423 31.6506 24.8449 30.9449L24.3059 30.1026C23.3642 30.7053 22.2695 31.0256 21.1514 31.0256V32.0256ZM18.6182 31.6105C19.3946 31.8852 20.2122 32.0256 21.0357 32.0256V31.0256C20.3258 31.0256 19.6211 30.9046 18.9518 30.6678L18.6182 31.6105ZM15.6269 29.805C16.4105 30.5743 17.353 31.1628 18.3882 31.5291L18.7218 30.5864C17.8241 30.2688 17.0069 29.7585 16.3275 29.0914L15.6269 29.805ZM13.7233 26.7016C14.0942 27.8763 14.7479 28.942 15.6269 29.805L16.3275 29.0914C15.5653 28.3431 14.9985 27.4191 14.6769 26.4005L13.7233 26.7016ZM13.4675 21.8399C13.1118 23.3552 13.1693 24.947 13.6383 26.4323L14.5919 26.1313C14.1774 24.8184 14.1262 23.4097 14.4411 22.0684L13.4675 21.8399ZM15.7857 21.066C15.27 22.0173 14.9999 23.0822 14.9999 24.1642H15.9999C15.9999 23.2486 16.2284 22.3475 16.6648 21.5426L15.7857 21.066ZM14.3721 19.5618C13.9473 20.2719 13.6533 21.0486 13.4675 21.8399L14.4411 22.0684C14.6068 21.3626 14.8657 20.6847 15.2303 20.0751L14.3721 19.5618Z" fill="#006389"/>
<path d="M29.8114 21.5512L29.7634 21.7803C29.6871 22.1448 29.5329 22.4885 29.3112 22.7878C28.9728 23.2446 28.493 23.5769 27.9464 23.7331L27.7172 23.7986C27.0475 23.99 26.3343 23.9633 25.6807 23.7225L25.3463 23.5993C25.1531 23.5281 24.9676 23.4376 24.7927 23.329L24.6303 23.2282C24.1026 22.9006 23.7129 22.3913 23.5349 21.7962C23.4341 21.4593 23.4043 21.1052 23.4473 20.7562L23.4828 20.4681C23.5577 19.8605 23.7735 19.2789 24.113 18.7696L25.1416 17.2267L26.6865 14.9093L29.0393 18.2867C29.2439 18.5803 29.413 18.8972 29.5431 19.2307L29.6391 19.4766C29.8967 20.1367 29.9566 20.8576 29.8114 21.5512Z" fill="#4696E6"/>
<path d="M29.7634 21.7803L30.2528 21.8828L29.7634 21.7803ZM29.8114 21.5512L29.322 21.4487L29.322 21.4487L29.8114 21.5512ZM29.6391 19.4766L29.1733 19.6584L29.6391 19.4766ZM29.5431 19.2307L30.0089 19.0489V19.0489L29.5431 19.2307ZM29.0393 18.2867L29.4495 18.0009L29.0393 18.2867ZM26.6865 14.9093L27.0968 14.6235L26.6774 14.0216L26.2705 14.632L26.6865 14.9093ZM23.4828 20.4681L22.9866 20.4069L23.4828 20.4681ZM23.4473 20.7562L23.9435 20.8173L23.4473 20.7562ZM24.6303 23.2282L24.894 22.8034H24.894L24.6303 23.2282ZM24.7927 23.329L24.529 23.7538L24.529 23.7538L24.7927 23.329ZM25.3463 23.5993L25.1734 24.0685H25.1734L25.3463 23.5993ZM25.6807 23.7225L25.8535 23.2533H25.8535L25.6807 23.7225ZM27.7172 23.7986L27.8545 24.2794L27.8545 24.2794L27.7172 23.7986ZM27.9464 23.7331L27.809 23.2524L27.809 23.2524L27.9464 23.7331ZM25.1416 17.2267L24.7256 16.9494V16.9494L25.1416 17.2267ZM24.113 18.7696L23.697 18.4922H23.697L24.113 18.7696ZM25.3763 22.0835L25.105 22.5035L25.3763 22.0835ZM25.2786 22.6156C25.5106 22.7654 25.82 22.6988 25.9699 22.4668C26.1197 22.2348 26.053 21.9253 25.8211 21.7755L25.2786 22.6156ZM25.5271 20.0112C25.6192 19.7509 25.4828 19.4652 25.2225 19.3731C24.9621 19.2811 24.6764 19.4175 24.5844 19.6778L25.5271 20.0112ZM24.9056 20.269L24.4342 20.1023L24.4342 20.1023L24.9056 20.269ZM23.5349 21.7962L23.0559 21.9396L23.0559 21.9396L23.5349 21.7962ZM24.9034 21.5267L24.445 21.7264L24.9034 21.5267ZM29.3112 22.7878L29.713 23.0854L29.713 23.0854L29.3112 22.7878ZM30.2528 21.8828L30.3008 21.6536L29.322 21.4487L29.274 21.6779L30.2528 21.8828ZM30.1049 19.2948L30.0089 19.0489L29.0773 19.4124L29.1733 19.6584L30.1049 19.2948ZM29.4495 18.0009L27.0968 14.6235L26.2762 15.1951L28.629 18.5725L29.4495 18.0009ZM22.9866 20.4069L22.951 20.695L23.9435 20.8173L23.979 20.5292L22.9866 20.4069ZM24.3666 23.653L24.529 23.7538L25.0564 22.9042L24.894 22.8034L24.3666 23.653ZM25.1734 24.0685L25.5078 24.1917L25.8535 23.2533L25.5191 23.1301L25.1734 24.0685ZM27.8545 24.2794L28.0837 24.2139L27.809 23.2524L27.5798 23.3178L27.8545 24.2794ZM26.2705 14.632L24.7256 16.9494L25.5576 17.5041L27.1025 15.1867L26.2705 14.632ZM24.7256 16.9494L23.697 18.4922L24.5291 19.0469L25.5576 17.5041L24.7256 16.9494ZM25.105 22.5035L25.2786 22.6156L25.8211 21.7755L25.6475 21.6635L25.105 22.5035ZM24.5844 19.6778L24.4342 20.1023L25.377 20.4357L25.5271 20.0112L24.5844 19.6778ZM24.2983 20.8945V21.0222H25.2983V20.8945H24.2983ZM24.4342 20.1023C24.3442 20.3568 24.2983 20.6247 24.2983 20.8945H25.2983C25.2983 20.7382 25.3249 20.5831 25.377 20.4357L24.4342 20.1023ZM25.5078 24.1917C26.261 24.4692 27.0828 24.4999 27.8545 24.2794L27.5798 23.3178C27.0121 23.48 26.4076 23.4575 25.8535 23.2533L25.5078 24.1917ZM24.529 23.7538C24.7326 23.8802 24.9485 23.9856 25.1734 24.0685L25.5192 23.1301C25.3576 23.0706 25.2026 22.9949 25.0564 22.9042L24.529 23.7538ZM23.0559 21.9396C23.2689 22.6516 23.7351 23.2611 24.3666 23.653L24.894 22.8034C24.47 22.5402 24.157 22.131 24.0139 21.6529L23.0559 21.9396ZM22.951 20.695C22.8996 21.1127 22.9353 21.5364 23.0559 21.9396L24.0139 21.6529C23.933 21.3823 23.909 21.0977 23.9435 20.8173L22.951 20.695ZM30.0089 19.0489C29.8644 18.6787 29.6767 18.3269 29.4495 18.0009L28.629 18.5725C28.811 18.8338 28.9615 19.1157 29.0773 19.4124L30.0089 19.0489ZM24.445 21.7264C24.5837 22.0448 24.8133 22.3151 25.105 22.5035L25.6475 21.6635C25.5212 21.5819 25.4218 21.4649 25.3618 21.327L24.445 21.7264ZM30.3008 21.6536C30.4658 20.865 30.3978 20.0454 30.1049 19.2948L29.1733 19.6584C29.3956 20.2281 29.4473 20.8502 29.322 21.4487L30.3008 21.6536ZM25.3618 21.327C25.3199 21.2309 25.2983 21.1271 25.2983 21.0222H24.2983C24.2983 21.2645 24.3482 21.5042 24.445 21.7264L25.3618 21.327ZM29.713 23.0854C29.9776 22.7282 30.1617 22.3179 30.2528 21.8828L29.274 21.6779C29.2125 21.9718 29.0881 22.2489 28.9094 22.4902L29.713 23.0854ZM23.979 20.5292C24.0444 19.999 24.2327 19.4914 24.5291 19.0469L23.697 18.4922C23.3142 19.0664 23.0709 19.722 22.9866 20.4069L23.979 20.5292ZM28.9094 22.4902C28.6366 22.8585 28.2497 23.1264 27.809 23.2524L28.0837 24.2139C28.7363 24.0274 29.309 23.6307 29.713 23.0854L28.9094 22.4902Z" fill="#006389"/>
<circle cx="20.974" cy="29.7424" r="0.529456" fill="#006389"/>
<circle cx="26.968" cy="22.6578" r="0.395018" fill="#006389"/>
</svg>
