<svg width="42" height="42" viewBox="0 0 42 42" fill="none" xmlns="http://www.w3.org/2000/svg">
<path d="M8.48674 4.3977C8.26606 4.5637 8.22174 4.87716 8.38774 5.09784C8.55375 5.31852 8.86721 5.36284 9.08789 5.19684L8.48674 4.3977ZM10.9597 3.95024C11.198 3.81064 11.278 3.50433 11.1384 3.26607C10.9988 3.02782 10.6924 2.94784 10.4542 3.08744L10.9597 3.95024ZM9.08789 5.19684C9.68613 4.7468 10.311 4.33035 10.9597 3.95024L10.4542 3.08744C9.77226 3.487 9.11547 3.92474 8.48674 4.3977L9.08789 5.19684Z" fill="#006389"/>
<path d="M12.075 2.27695C11.825 2.3942 11.7174 2.69193 11.8347 2.94194C11.9519 3.19195 12.2497 3.29957 12.4997 3.18232L12.075 2.27695ZM14.6517 2.32553C14.9139 2.23889 15.0563 1.9561 14.9696 1.6939C14.883 1.4317 14.6002 1.28939 14.338 1.37603L14.6517 2.32553ZM12.4997 3.18232C13.1956 2.8559 13.914 2.56933 14.6517 2.32553L14.338 1.37603C13.5621 1.63241 12.8068 1.93375 12.075 2.27695L12.4997 3.18232Z" fill="#006389"/>
<path d="M16.1497 0.849152C15.8771 0.893524 15.6921 1.15044 15.7365 1.423C15.7809 1.69555 16.0378 1.88053 16.3104 1.83616L16.1497 0.849152ZM18.5026 1.60585C18.7784 1.59257 18.9913 1.35821 18.978 1.08238C18.9647 0.806562 18.7304 0.593727 18.4545 0.607006L18.5026 1.60585ZM16.3104 1.83616C17.0298 1.71903 17.7614 1.64153 18.5026 1.60585L18.4545 0.607006C17.6754 0.644515 16.9062 0.725984 16.1497 0.849152L16.3104 1.83616Z" fill="#006389"/>
<path d="M20.278 0.48237C20.0021 0.494014 19.7879 0.727112 19.7995 1.00301C19.8112 1.27891 20.0443 1.49312 20.3202 1.48148L20.278 0.48237ZM22.2299 1.49337C22.5057 1.50837 22.7413 1.297 22.7563 1.02126C22.7713 0.74553 22.56 0.509844 22.2842 0.494845L22.2299 1.49337ZM20.3202 1.48148C20.9501 1.4549 21.5871 1.4584 22.2299 1.49337L22.2842 0.494845C21.6093 0.458129 20.94 0.454432 20.278 0.48237L20.3202 1.48148Z" fill="#006389"/>
<path d="M24.5557 0.823262C24.2841 0.773577 24.0236 0.953503 23.9739 1.22514C23.9243 1.49677 24.1042 1.75726 24.3758 1.80694L24.5557 0.823262ZM26.2356 2.24106C26.5012 2.31669 26.7778 2.16271 26.8534 1.89712C26.9291 1.63154 26.7751 1.35493 26.5095 1.2793L26.2356 2.24106ZM24.3758 1.80694C24.996 1.92038 25.6165 2.06475 26.2356 2.24106L26.5095 1.2793C25.8594 1.09416 25.2075 0.942478 24.5557 0.823262L24.3758 1.80694Z" fill="#006389"/>
<path d="M28.3657 1.9361C28.1089 1.83462 27.8184 1.96056 27.7169 2.21738C27.6155 2.4742 27.7414 2.76466 27.9982 2.86613L28.3657 1.9361ZM29.7384 3.65304C29.9842 3.7788 30.2854 3.68144 30.4112 3.43559C30.5369 3.18975 30.4396 2.88851 30.1937 2.76275L29.7384 3.65304ZM27.9982 2.86613C28.5846 3.0978 29.1652 3.35989 29.7384 3.65304L30.1937 2.76275C29.5919 2.45492 28.9819 2.17958 28.3657 1.9361L27.9982 2.86613Z" fill="#006389"/>
<path d="M32.3158 4.0601C32.0889 3.90274 31.7774 3.95912 31.62 4.18604C31.4627 4.41295 31.5191 4.72447 31.746 4.88184L32.3158 4.0601ZM33.2608 6.04483C33.4715 6.22333 33.787 6.19723 33.9655 5.98654C34.144 5.77584 34.1179 5.46034 33.9072 5.28184L33.2608 6.04483ZM31.746 4.88184C32.264 5.24111 32.7697 5.62871 33.2608 6.04483L33.9072 5.28184C33.3915 4.84488 32.8603 4.43769 32.3158 4.0601L31.746 4.88184Z" fill="#006389"/>
<path d="M35.0841 6.36668C34.8853 6.17499 34.5688 6.18073 34.3771 6.37951C34.1854 6.57828 34.1911 6.89481 34.3899 7.0865L35.0841 6.36668ZM35.6989 8.47716C35.8782 8.68711 36.1938 8.7119 36.4038 8.53252C36.6137 8.35315 36.6385 8.03754 36.4592 7.82759L35.6989 8.47716ZM34.3899 7.0865C34.8437 7.52413 35.2807 7.98772 35.6989 8.47716L36.4592 7.82759C36.0201 7.31365 35.561 6.82661 35.0841 6.36668L34.3899 7.0865Z" fill="#006389"/>
<path d="M40.771 17.0478C40.7219 16.776 40.4618 16.5955 40.1901 16.6446C39.9183 16.6937 39.7378 16.9537 39.7869 17.2255L40.771 17.0478ZM40.0349 19.1191C40.0576 19.3943 40.2991 19.599 40.5743 19.5764C40.8495 19.5537 41.0542 19.3123 41.0316 19.0371L40.0349 19.1191ZM39.7869 17.2255C39.8989 17.8459 39.9821 18.4775 40.0349 19.1191L41.0316 19.0371C40.9761 18.3634 40.8887 17.6998 40.771 17.0478L39.7869 17.2255Z" fill="#006389"/>
<path d="M39.8297 13.1878C39.7384 12.9272 39.453 12.79 39.1925 12.8814C38.9319 12.9727 38.7947 13.258 38.886 13.5186L39.8297 13.1878ZM39.4299 15.3493C39.4957 15.6175 39.7665 15.7816 40.0347 15.7157C40.3028 15.6499 40.4669 15.3792 40.4011 15.111L39.4299 15.3493ZM38.886 13.5186C39.0946 14.1136 39.2765 14.7241 39.4299 15.3493L40.4011 15.111C40.24 14.4545 40.0489 13.8131 39.8297 13.1878L38.886 13.5186Z" fill="#006389"/>
<path d="M38.0361 9.65094C37.8869 9.41855 37.5776 9.35108 37.3452 9.50024C37.1128 9.6494 37.0454 9.9587 37.1945 10.1911L38.0361 9.65094ZM38.1471 11.8463C38.2732 12.092 38.5746 12.189 38.8202 12.0629C39.0659 11.9369 39.1629 11.6355 39.0368 11.3898L38.1471 11.8463ZM37.1945 10.1911C37.5351 10.7217 37.8532 11.2736 38.1471 11.8463L39.0368 11.3898C38.7282 10.7884 38.394 10.2085 38.0361 9.65094L37.1945 10.1911Z" fill="#006389"/>
<path d="M41.0971 20.9187C41.1019 20.6426 40.882 20.4149 40.6059 20.4102C40.3298 20.4054 40.1021 20.6253 40.0973 20.9014L41.0971 20.9187ZM39.9719 22.8071C39.9406 23.0815 40.1375 23.3293 40.4119 23.3606C40.6863 23.392 40.9341 23.195 40.9655 22.9207L39.9719 22.8071ZM40.0973 20.9014C40.0864 21.5318 40.045 22.1675 39.9719 22.8071L40.9655 22.9207C41.0422 22.2491 41.0857 21.5812 41.0971 20.9187L40.0973 20.9014Z" fill="#006389"/>
<path d="M40.6767 24.9064C40.7321 24.6359 40.5577 24.3717 40.2872 24.3162C40.0167 24.2608 39.7525 24.4352 39.697 24.7057L40.6767 24.9064ZM39.2235 26.5558C39.1423 26.8198 39.2904 27.0996 39.5543 27.1808C39.8182 27.2621 40.098 27.114 40.1793 26.8501L39.2235 26.5558ZM39.697 24.7057C39.5705 25.3233 39.4129 25.9406 39.2235 26.5558L40.1793 26.8501C40.3782 26.204 40.5436 25.5555 40.6767 24.9064L39.697 24.7057Z" fill="#006389"/>
<path d="M39.584 28.4293C39.6851 28.1723 39.5588 27.8821 39.3018 27.781C39.0448 27.6798 38.7546 27.8062 38.6534 28.0631L39.584 28.4293ZM37.869 29.8044C37.7436 30.0504 37.8413 30.3515 38.0874 30.4769C38.3334 30.6023 38.6345 30.5045 38.7599 30.2585L37.869 29.8044ZM38.6534 28.0631C38.4226 28.6498 38.1613 29.2308 37.869 29.8044L38.7599 30.2585C39.0669 29.6563 39.3414 29.0459 39.584 28.4293L38.6534 28.0631Z" fill="#006389"/>
<path d="M37.6905 32.0409C37.8436 31.8111 37.7814 31.5007 37.5516 31.3476C37.3218 31.1945 37.0114 31.2567 36.8583 31.4865L37.6905 32.0409ZM35.7239 33.0228C35.5493 33.2368 35.5813 33.5518 35.7953 33.7263C36.0093 33.9008 36.3243 33.8688 36.4988 33.6548L35.7239 33.0228ZM36.8583 31.4865C36.5088 32.0112 36.1307 32.524 35.7239 33.0228L36.4988 33.6548C36.926 33.131 37.3232 32.5923 37.6905 32.0409L36.8583 31.4865Z" fill="#006389"/>
<path d="M35.1169 35.1644C35.3118 34.9687 35.3111 34.6522 35.1154 34.4573C34.9197 34.2625 34.6031 34.2632 34.4083 34.4589L35.1169 35.1644ZM32.9969 35.7454C32.7841 35.9214 32.7543 36.2366 32.9303 36.4494C33.1063 36.6622 33.4215 36.692 33.6343 36.516L32.9969 35.7454ZM34.4083 34.4589C33.9635 34.9056 33.4929 35.3352 32.9969 35.7454L33.6343 36.516C34.1551 36.0852 34.6494 35.634 35.1169 35.1644L34.4083 34.4589Z" fill="#006389"/>
<path d="M31.9069 37.7417C32.134 37.5846 32.1908 37.2732 32.0337 37.0461C31.8765 36.819 31.5651 36.7623 31.338 36.9194L31.9069 37.7417ZM29.7167 37.9286C29.4755 38.0631 29.389 38.3677 29.5235 38.6088C29.658 38.85 29.9625 38.9365 30.2037 38.802L29.7167 37.9286ZM31.338 36.9194C30.8195 37.278 30.2789 37.6151 29.7167 37.9286L30.2037 38.802C30.7941 38.4728 31.362 38.1187 31.9069 37.7417L31.338 36.9194Z" fill="#006389"/>
<path d="M27.8784 39.7938C28.1349 39.6915 28.2599 39.4007 28.1576 39.1442C28.0553 38.8877 27.7644 38.7627 27.5079 38.865L27.8784 39.7938ZM25.7019 39.4859C25.4367 39.563 25.2843 39.8404 25.3614 40.1056C25.4385 40.3708 25.716 40.5232 25.9811 40.4461L25.7019 39.4859ZM27.5079 38.865C26.9224 39.0986 26.32 39.3061 25.7019 39.4859L25.9811 40.4461C26.6302 40.2573 27.263 40.0393 27.8784 39.7938L27.5079 38.865Z" fill="#006389"/>
<path d="M23.545 40.8756C23.8185 40.8374 24.0092 40.5846 23.9709 40.3112C23.9326 40.0377 23.6799 39.847 23.4064 39.8853L23.545 40.8756ZM21.5045 40.0581C21.2286 40.0699 21.0145 40.303 21.0262 40.5789C21.0379 40.8548 21.2711 41.069 21.547 41.0572L21.5045 40.0581ZM23.4064 39.8853C22.7821 39.9726 22.1476 40.0308 21.5045 40.0581L21.547 41.0572C22.2224 41.0285 22.8888 40.9675 23.545 40.8756L23.4064 39.8853Z" fill="#006389"/>
<path d="M19.2595 40.995C19.5351 41.0127 19.7728 40.8036 19.7905 40.5281C19.8082 40.2525 19.5992 40.0147 19.3236 39.997L19.2595 40.995ZM17.4259 39.7825C17.1533 39.7384 16.8965 39.9235 16.8524 40.1961C16.8082 40.4687 16.9933 40.7255 17.2659 40.7697L17.4259 39.7825ZM19.3236 39.997C18.6945 39.9566 18.0614 39.8855 17.4259 39.7825L17.2659 40.7697C17.9332 40.8778 18.5983 40.9525 19.2595 40.995L19.3236 39.997Z" fill="#006389"/>
<path d="M14.3322 39.8349C14.591 39.9313 14.8789 39.7996 14.9753 39.5408C15.0716 39.282 14.9399 38.9941 14.6811 38.8978L14.3322 39.8349ZM12.9256 38.1458C12.6773 38.0249 12.378 38.1283 12.2572 38.3766C12.1364 38.6249 12.2398 38.9241 12.4881 39.045L12.9256 38.1458ZM14.6811 38.8978C14.0902 38.6778 13.5044 38.4274 12.9256 38.1458L12.4881 39.045C13.0959 39.3407 13.7113 39.6038 14.3322 39.8349L14.6811 38.8978Z" fill="#006389"/>
<path d="M10.0403 37.7629C10.2757 37.9074 10.5836 37.8337 10.728 37.5984C10.8725 37.363 10.7988 37.0551 10.5635 36.9107L10.0403 37.7629ZM8.98608 35.834C8.76575 35.6676 8.4522 35.7112 8.28573 35.9316C8.11927 36.1519 8.16293 36.4654 8.38326 36.6319L8.98608 35.834ZM10.5635 36.9107C10.0262 36.5809 9.4997 36.2221 8.98608 35.834L8.38326 36.6319C8.92259 37.0394 9.47565 37.4163 10.0403 37.7629L10.5635 36.9107Z" fill="#006389"/>
<path d="M6.73355 35.1565C6.93129 35.3493 7.24784 35.3452 7.4406 35.1475C7.63335 34.9497 7.62931 34.6332 7.43157 34.4404L6.73355 35.1565ZM6.13011 33.0427C5.95187 32.8318 5.6364 32.8053 5.42548 32.9836C5.21457 33.1618 5.18809 33.4773 5.36633 33.6882L6.13011 33.0427ZM7.43157 34.4404C6.98012 34.0004 6.54563 33.5344 6.13011 33.0427L5.36633 33.6882C5.80265 34.2045 6.25909 34.694 6.73355 35.1565L7.43157 34.4404Z" fill="#006389"/>
<path d="M3.98813 31.8649C4.14028 32.0953 4.45044 32.1588 4.68088 32.0067C4.91132 31.8545 4.97478 31.5443 4.82263 31.3139L3.98813 31.8649ZM3.84868 29.6711C3.71944 29.4271 3.41685 29.334 3.17282 29.4633C2.92878 29.5925 2.83572 29.8951 2.96496 30.1391L3.84868 29.6711ZM4.82263 31.3139C4.47525 30.7878 4.14996 30.24 3.84868 29.6711L2.96496 30.1391C3.28132 30.7365 3.62304 31.312 3.98813 31.8649L4.82263 31.3139Z" fill="#006389"/>
<path d="M2.20884 28.3835C2.31897 28.6367 2.61353 28.7527 2.86676 28.6426C3.11999 28.5325 3.23599 28.2379 3.12586 27.9847L2.20884 28.3835ZM2.44981 26.1986C2.36459 25.9359 2.08257 25.792 1.81991 25.8773C1.55725 25.9625 1.4134 26.2445 1.49861 26.5072L2.44981 26.1986ZM3.12586 27.9847C2.87442 27.4065 2.64846 26.8109 2.44981 26.1986L1.49861 26.5072C1.70722 27.1501 1.94458 27.7759 2.20884 28.3835L3.12586 27.9847Z" fill="#006389"/>
<path d="M1.00796 24.4965C1.06539 24.7666 1.33091 24.939 1.60101 24.8816C1.87112 24.8241 2.04353 24.5586 1.9861 24.2885L1.00796 24.4965ZM1.67976 22.4034C1.64863 22.1291 1.40096 21.9319 1.12658 21.963C0.852194 21.9941 0.655002 22.2418 0.686134 22.5162L1.67976 22.4034ZM1.9861 24.2885C1.85498 23.6718 1.75233 23.0431 1.67976 22.4034L0.686134 22.5162C0.762344 23.1878 0.870162 23.8484 1.00796 24.4965L1.9861 24.2885Z" fill="#006389"/>
<path d="M0.606793 20.2694C0.609435 20.5455 0.835424 20.7672 1.11155 20.7646C1.38768 20.762 1.60939 20.536 1.60675 20.2598L0.606793 20.2694ZM1.68089 18.3515C1.70488 18.0764 1.5013 17.8339 1.2262 17.81C0.951106 17.786 0.708653 17.9895 0.684672 18.2646L1.68089 18.3515ZM1.60675 20.2598C1.60071 19.6294 1.62499 18.9928 1.68089 18.3515L0.684672 18.2646C0.62597 18.9381 0.600453 19.6069 0.606793 20.2694L1.60675 20.2598Z" fill="#006389"/>
<path d="M1.18866 15.6387C1.13717 15.91 1.31537 16.1717 1.58667 16.2232C1.85797 16.2746 2.11964 16.0965 2.17112 15.8251L1.18866 15.6387ZM2.61754 13.9683C2.69493 13.7032 2.54278 13.4256 2.2777 13.3482C2.01263 13.2708 1.735 13.4229 1.65761 13.688L2.61754 13.9683ZM2.17112 15.8251C2.28866 15.2058 2.43714 14.5862 2.61754 13.9683L1.65761 13.688C1.46818 14.3369 1.31218 14.9878 1.18866 15.6387L2.17112 15.8251Z" fill="#006389"/>
<path d="M2.72211 11.1967C2.59699 11.4429 2.69512 11.7439 2.94129 11.869C3.18746 11.9941 3.48845 11.896 3.61357 11.6498L2.72211 11.1967ZM4.56024 9.99118C4.7085 9.75822 4.63983 9.44917 4.40687 9.30091C4.1739 9.15265 3.86485 9.22132 3.71659 9.45429L4.56024 9.99118ZM3.61357 11.6498C3.89922 11.0878 4.21462 10.5343 4.56024 9.99118L3.71659 9.45429C3.35367 10.0246 3.02232 10.6061 2.72211 11.1967L3.61357 11.6498Z" fill="#006389"/>
<path d="M5.40211 7.04159C5.21838 7.24773 5.23654 7.56379 5.44269 7.74753C5.64883 7.93126 5.9649 7.91309 6.14863 7.70695L5.40211 7.04159ZM7.48683 6.34441C7.68957 6.15693 7.70195 5.84059 7.51447 5.63784C7.32699 5.4351 7.01065 5.42272 6.8079 5.6102L7.48683 6.34441ZM6.14863 7.70695C6.56811 7.23631 7.01419 6.78146 7.48683 6.34441L6.8079 5.6102C6.3116 6.06913 5.84297 6.54696 5.40211 7.04159L6.14863 7.70695Z" fill="#006389"/>
<circle cx="20.9055" cy="20.4593" r="19.0327" fill="#DFB08A"/>
<path d="M20.6694 22.8985C21.4466 24.0414 21.8419 25.4232 22.0036 27.4015C22.0444 25.4663 22.4333 24.2429 23.5272 23.2367C23.3515 22.6282 23.2659 22.1713 23.3378 21.4808C23.4127 20.7627 23.5563 20.1649 23.9442 19.5558C24.9842 17.9224 27.4131 17.8387 29.3494 17.8387H31.2908L31.0449 19.478C30.8431 20.8229 30.3192 22.3352 29.4189 23.3545C28.2059 24.7279 26.2809 25.5053 24.6945 24.5883C24.2091 24.3076 23.8557 23.8732 23.5272 23.2367C22.4333 24.2429 22.0444 25.4663 22.0036 27.4015C21.8419 25.4232 21.4466 24.0414 20.6694 22.8985C19.8011 24.0404 19.06 24.6472 17.7029 24.7053C16.2122 24.7692 14.743 24.2979 13.5999 23.339C12.4416 22.3675 11.9207 20.7886 11.6112 19.3089C11.23 17.4862 11.1558 15.9206 11.4293 13.517C13.7554 13.5677 15.3932 13.8301 17.3166 14.565C19.1922 15.2816 21.1704 16.2799 21.7623 18.1985C22.0612 19.1674 22.0296 20.2951 21.7497 21.2697C21.5466 21.9768 21.2258 22.4304 20.6694 22.8985Z" fill="#16A029"/>
<path d="M22.0036 27.4015L21.5052 27.4423L22.5035 27.4121L22.0036 27.4015ZM17.204 19.3411C16.9674 19.1988 16.6602 19.2753 16.5179 19.512C16.3756 19.7487 16.4522 20.0559 16.6888 20.1981L17.204 19.3411ZM21.7497 21.2697L22.2302 21.4077V21.4077L21.7497 21.2697ZM17.3166 14.565L17.1381 15.032L17.3166 14.565ZM11.4293 13.517L11.4402 13.0171L10.9841 13.0071L10.9326 13.4604L11.4293 13.517ZM11.6112 19.3089L12.1006 19.2065L11.6112 19.3089ZM17.7029 24.7053L17.7243 25.2049H17.7243L17.7029 24.7053ZM26.6194 21.9739C26.872 21.8622 26.9861 21.5669 26.8744 21.3144C26.7627 21.0619 26.4674 20.9477 26.2149 21.0594L26.6194 21.9739ZM23.3378 21.4808L22.8405 21.429V21.429L23.3378 21.4808ZM31.2908 17.8387L31.7852 17.9129L31.8714 17.3387H31.2908V17.8387ZM31.0449 19.478L31.5393 19.5522L31.0449 19.478ZM24.6945 24.5883L24.9448 24.1554L24.9448 24.1554L24.6945 24.5883ZM29.4189 23.3545L29.0441 23.0235L29.4189 23.3545ZM23.9442 19.5558L23.5224 19.2872L23.9442 19.5558ZM13.5999 23.339L13.2786 23.7221L13.5999 23.339ZM21.7623 18.1985L22.2401 18.0511L21.7623 18.1985ZM22.5019 27.3608C22.3365 25.3368 21.9273 23.8591 21.0828 22.6173L20.2559 23.1796C20.9659 24.2237 21.3473 25.5096 21.5052 27.4423L22.5019 27.3608ZM21.0828 22.6173C20.2279 21.3601 18.962 20.3979 17.204 19.3411L16.6888 20.1981C18.4153 21.236 19.5267 22.1072 20.2559 23.1796L21.0828 22.6173ZM20.9913 23.2811C21.6145 22.7567 21.9966 22.2212 22.2302 21.4077L21.2691 21.1316C21.0965 21.7324 20.837 22.104 20.3475 22.5159L20.9913 23.2811ZM17.495 14.0979C15.5057 13.3378 13.8086 13.0687 11.4402 13.0171L11.4185 14.0168C13.7022 14.0666 15.2808 14.3224 17.1381 15.032L17.495 14.0979ZM10.9326 13.4604C10.6539 15.909 10.7281 17.5289 11.1218 19.4113L12.1006 19.2065C11.7319 17.4435 11.6577 15.9322 11.9261 13.5735L10.9326 13.4604ZM17.7243 25.2049C18.481 25.1724 19.0947 24.9838 19.6422 24.6273C20.1778 24.2787 20.6216 23.7873 21.0674 23.2011L20.2714 22.5959C19.8488 23.1515 19.4879 23.5346 19.0966 23.7893C18.7173 24.0362 18.2819 24.1801 17.6815 24.2058L17.7243 25.2049ZM22.5035 27.4121C22.5428 25.547 22.912 24.4819 23.8657 23.6047L23.1887 22.8687C21.9546 24.0038 21.546 25.3855 21.5037 27.391L22.5035 27.4121ZM23.8657 23.6047C24.4761 23.0432 25.3526 22.5343 26.6194 21.9739L26.2149 21.0594C24.9151 21.6344 23.9199 22.1961 23.1887 22.8687L23.8657 23.6047ZM24.0076 23.098C23.8426 22.5264 23.7721 22.1376 23.8351 21.5327L22.8405 21.429C22.7597 22.2051 22.8605 22.7299 23.0468 23.3754L24.0076 23.098ZM29.3494 18.3387H31.2908V17.3387H29.3494V18.3387ZM30.7963 17.7645L30.5504 19.4038L31.5393 19.5522L31.7852 17.9129L30.7963 17.7645ZM24.9448 24.1554C24.5728 23.9403 24.2758 23.5968 23.9715 23.0073L23.0829 23.466C23.4357 24.1495 23.8455 24.675 24.4443 25.0211L24.9448 24.1554ZM29.0441 23.0235C27.9075 24.3105 26.2348 24.9012 24.9448 24.1554L24.4443 25.0211C26.327 26.1095 28.5043 25.1453 29.7937 23.6855L29.0441 23.0235ZM30.5504 19.4038C30.3566 20.696 29.8571 22.1031 29.0441 23.0235L29.7937 23.6855C30.7813 22.5672 31.3297 20.9499 31.5393 19.5522L30.5504 19.4038ZM24.3659 19.8243C24.7864 19.164 25.5068 18.7825 26.4227 18.572C27.3403 18.3611 28.3795 18.3387 29.3494 18.3387V17.3387C28.383 17.3387 27.2396 17.3582 26.1987 17.5974C25.156 17.8371 24.142 18.3142 23.5224 19.2872L24.3659 19.8243ZM13.2786 23.7221C14.5223 24.7653 16.1154 25.2738 17.7243 25.2049L17.6815 24.2058C16.3091 24.2646 14.9638 23.8304 13.9212 22.9559L13.2786 23.7221ZM11.1218 19.4113C11.4342 20.9049 11.9813 22.634 13.2786 23.7221L13.9212 22.9559C12.9019 22.101 12.4072 20.6724 12.1006 19.2065L11.1218 19.4113ZM23.8351 21.5327C23.9055 20.8569 24.0351 20.3438 24.3659 19.8243L23.5224 19.2872C23.0775 19.9859 22.9198 20.6685 22.8405 21.429L23.8351 21.5327ZM22.2401 18.0511C21.5692 15.8764 19.3544 14.8084 17.495 14.0979L17.1381 15.032C19.0299 15.7549 20.7716 16.6833 21.2845 18.3459L22.2401 18.0511ZM22.2302 21.4077C22.533 20.3538 22.5717 19.1259 22.2401 18.0511L21.2845 18.3459C21.5508 19.2089 21.5263 20.2364 21.2691 21.1317L22.2302 21.4077Z" fill="#006389"/>
</svg>
