<svg width="42" height="42" viewBox="0 0 42 42" fill="none" xmlns="http://www.w3.org/2000/svg">
<circle cx="21.1208" cy="20.4619" r="19.0327" fill="#DFB08A"/>
<path d="M32.1948 30.1907H8.40488C7.96917 30.1907 7.61597 29.8375 7.61597 29.4018C7.61597 28.9661 7.96917 28.6129 8.40488 28.6129H23.9597L24.9886 23.3345C25.2149 22.1737 24.39 21.0711 23.2125 20.9606L11.9702 19.9051V21.3116C11.9702 21.6151 11.7242 21.8611 11.4207 21.8611V22.4408C11.4207 23.1362 11.0933 23.7911 10.537 24.2083C10.1023 23.7845 9.85713 23.2031 9.85713 22.596V21.8611C9.63012 21.8611 9.44608 21.6771 9.44608 21.4501V20.7253V15.4247C9.44608 15.1132 9.6986 14.8607 10.0101 14.8607V13.9275C10.0101 13.8163 10.0476 13.7083 10.1166 13.621C10.2103 13.5024 10.3532 13.4332 10.5044 13.4332H10.7143C10.8615 13.4332 11.0022 13.4937 11.1035 13.6005C11.1981 13.7002 11.2508 13.8323 11.2508 13.9697V14.8607C11.6481 14.8607 11.9702 15.1828 11.9702 15.5801V15.8971L25.2451 14.6768L27.0543 14.5513V13.1041H26.5315C26.2553 13.1041 26.0315 12.8802 26.0315 12.6041V9.86773C26.0315 9.64902 26.1729 9.45172 26.3862 9.40326C26.8273 9.30302 27.1666 9.31243 27.5717 9.40412C27.7873 9.45293 27.9318 9.65165 27.9318 9.87277V12.6041C27.9318 12.8802 27.7079 13.1041 27.4318 13.1041H27.0543V14.5513L27.7057 14.5061C29.4401 14.3858 30.9133 15.7603 30.9133 17.4989V17.888H32.6498V14.7898C32.6498 14.6175 32.7364 14.453 32.8924 14.3798C33.3773 14.1523 33.8369 14.1744 34.4144 14.3895C34.5991 14.4583 34.7139 14.6398 34.7139 14.837V22.2642C34.7139 22.4534 34.6084 22.6299 34.4333 22.7015C33.9087 22.9162 33.5228 22.9071 32.9536 22.6961C32.7669 22.6269 32.6498 22.4441 32.6498 22.245V19.3296H30.9133V28.6129H32.1948C32.6305 28.6129 32.9837 28.9661 32.9837 29.4018C32.9837 29.8375 32.6305 30.1907 32.1948 30.1907Z" fill="#A3E0FB"/>
<path d="M24.9886 23.3345L25.4794 23.4301L24.9886 23.3345ZM23.2125 20.9606L23.2592 20.4628L23.2125 20.9606ZM10.037 26.6217C10.037 26.8979 10.2608 27.1217 10.537 27.1217C10.8131 27.1217 11.037 26.8979 11.037 26.6217H10.037ZM25.2451 14.6768L25.2105 14.1778L25.1994 14.1789L25.2451 14.6768ZM32.8924 14.3798L33.1047 14.8325L33.1047 14.8325L32.8924 14.3798ZM34.4144 14.3895L34.2399 14.858H34.2399L34.4144 14.3895ZM34.4333 22.7015L34.6226 23.1643L34.6226 23.1643L34.4333 22.7015ZM32.9536 22.6961L33.1273 22.2273L32.9536 22.6961ZM27.7057 14.5061L27.7403 15.0049L27.7057 14.5061ZM26.3862 9.40326L26.497 9.89083V9.89083L26.3862 9.40326ZM27.5717 9.40412L27.4613 9.89178V9.89178L27.5717 9.40412ZM11.1035 13.6005L11.4663 13.2564L11.4663 13.2564L11.1035 13.6005ZM10.1166 13.621L10.5089 13.9311L10.5089 13.9311L10.1166 13.621ZM8.40488 30.6907H32.1948V29.6907H8.40488V30.6907ZM23.9597 28.1129H8.40488V29.1129H23.9597V28.1129ZM24.4505 28.7086L25.4794 23.4301L24.4979 23.2388L23.469 28.5172L24.4505 28.7086ZM23.2592 20.4628L12.0169 19.4073L11.9235 20.403L23.1658 21.4584L23.2592 20.4628ZM11.4702 19.9051V21.3116H12.4702V19.9051H11.4702ZM9.94608 21.4501V20.7253H8.94608V21.4501H9.94608ZM9.35713 21.8611V22.596H10.3571V21.8611H9.35713ZM11.4207 21.3611H9.85713V22.3611H11.4207V21.3611ZM11.9207 22.4408V21.8611H10.9207V22.4408H11.9207ZM10.037 24.2083V26.6217H11.037V24.2083H10.037ZM8.94608 15.4247V20.7253H9.94608V15.4247H8.94608ZM10.5101 14.8607V13.9275H9.5101V14.8607H10.5101ZM10.5044 13.9332H10.7143V12.9332H10.5044V13.9332ZM11.2508 14.3607H10.0101V15.3607H11.2508V14.3607ZM10.7508 13.9697V14.8607H11.7508V13.9697H10.7508ZM12.4702 19.9051V15.8971H11.4702V19.9051H12.4702ZM12.4702 15.8971V15.5801H11.4702V15.8971H12.4702ZM25.1994 14.1789L11.9244 15.3992L12.016 16.395L25.2909 15.1747L25.1994 14.1789ZM33.1047 14.8325C33.4333 14.6784 33.7469 14.6745 34.2399 14.858L34.5889 13.9209C33.9268 13.6744 33.3214 13.6263 32.68 13.9271L33.1047 14.8325ZM34.2139 14.837V22.2642H35.2139V14.837H34.2139ZM34.244 22.2388C34.026 22.3279 33.8649 22.3596 33.714 22.3584C33.5594 22.3572 33.3809 22.3212 33.1273 22.2273L32.7798 23.165C33.0954 23.2819 33.3945 23.356 33.7063 23.3584C34.0218 23.3608 34.316 23.2898 34.6226 23.1643L34.244 22.2388ZM32.1948 28.1129H30.9133V29.1129H32.1948V28.1129ZM30.9133 28.1129H23.9597V29.1129H30.9133V28.1129ZM27.6711 14.0073L27.0197 14.0525L27.0889 15.0501L27.7403 15.0049L27.6711 14.0073ZM27.0197 14.0525L25.2105 14.178L25.2797 15.1756L27.0889 15.0501L27.0197 14.0525ZM27.5543 14.5513V13.1041H26.5543V14.5513H27.5543ZM27.0543 12.6041H26.5315V13.6041H27.0543V12.6041ZM26.5315 12.6041V9.86773H25.5315V12.6041H26.5315ZM26.497 9.89083C26.8606 9.8082 27.1242 9.81548 27.4613 9.89178L27.6821 8.91646C27.209 8.80938 26.794 8.79784 26.2754 8.91569L26.497 9.89083ZM27.4318 9.87277V12.6041H28.4318V9.87277H27.4318ZM27.4318 12.6041H27.0543V13.6041H27.4318V12.6041ZM31.4133 17.888V17.4989H30.4133V17.888H31.4133ZM33.1498 17.888V14.7898H32.1498V17.888H33.1498ZM30.9133 18.388H32.6498V17.388H30.9133V18.388ZM31.4133 28.6129V19.3296H30.4133V28.6129H31.4133ZM31.4133 19.3296V17.888H30.4133V19.3296H31.4133ZM33.1498 22.245V19.3296H32.1498V22.245H33.1498ZM33.1498 19.3296V17.888H32.1498V19.3296H33.1498ZM30.9133 19.8296H32.6498V18.8296H30.9133V19.8296ZM27.4318 12.6041V12.6041V13.6041C27.984 13.6041 28.4318 13.1564 28.4318 12.6041H27.4318ZM26.5315 9.86773C26.5315 9.8656 26.5323 9.86703 26.5289 9.87158C26.5269 9.87418 26.5233 9.87809 26.5174 9.88201C26.5112 9.88611 26.504 9.88922 26.497 9.89083L26.2754 8.91569C25.8097 9.02151 25.5315 9.44194 25.5315 9.86773H26.5315ZM33.1273 22.2273C33.1323 22.2291 33.137 22.2319 33.1409 22.235C33.1447 22.238 33.147 22.2409 33.1482 22.2427C33.1504 22.246 33.1498 22.2468 33.1498 22.245H32.1498C32.1498 22.6352 32.3807 23.017 32.7798 23.165L33.1273 22.2273ZM34.2399 14.858C34.2342 14.8559 34.2288 14.8528 34.2243 14.8491C34.22 14.8456 34.2173 14.8423 34.2158 14.8401C34.2132 14.8361 34.2139 14.835 34.2139 14.837H35.2139C35.2139 14.4514 34.9878 14.0695 34.5889 13.9209L34.2399 14.858ZM10.7408 13.9446C10.7472 13.9514 10.7508 13.9604 10.7508 13.9697H11.7508C11.7508 13.7043 11.649 13.449 11.4663 13.2564L10.7408 13.9446ZM10.7143 13.9332C10.7243 13.9332 10.7339 13.9373 10.7408 13.9446L11.4663 13.2564C11.2706 13.0501 10.9987 12.9332 10.7143 12.9332V13.9332ZM10.5089 13.9311C10.5078 13.9324 10.5061 13.9332 10.5044 13.9332V12.9332C10.2003 12.9332 9.91291 13.0724 9.72434 13.311L10.5089 13.9311ZM10.5101 13.9275C10.5101 13.9288 10.5097 13.93 10.5089 13.9311L9.72434 13.311C9.58558 13.4865 9.5101 13.7037 9.5101 13.9275H10.5101ZM9.94608 15.4247C9.94608 15.3894 9.97474 15.3607 10.0101 15.3607V14.3607C9.42246 14.3607 8.94608 14.8371 8.94608 15.4247H9.94608ZM27.7403 15.0049C29.1856 14.9046 30.4133 16.0501 30.4133 17.4989H31.4133C31.4133 15.4705 29.6946 13.8669 27.6711 14.0073L27.7403 15.0049ZM8.94608 21.4501C8.94608 21.9532 9.35397 22.3611 9.85713 22.3611V21.3611C9.90626 21.3611 9.94608 21.4009 9.94608 21.4501H8.94608ZM11.4702 21.3116C11.4702 21.339 11.4481 21.3611 11.4207 21.3611V22.3611C12.0003 22.3611 12.4702 21.8912 12.4702 21.3116H11.4702ZM32.68 13.9271C32.317 14.0974 32.1498 14.4611 32.1498 14.7898H33.1498C33.1498 14.7861 33.151 14.7883 33.1464 14.7962C33.141 14.8057 33.1277 14.8217 33.1047 14.8325L32.68 13.9271ZM32.1948 30.6907C32.9066 30.6907 33.4837 30.1137 33.4837 29.4018H32.4837C32.4837 29.5614 32.3544 29.6907 32.1948 29.6907V30.6907ZM27.4613 9.89178C27.4551 9.89039 27.4489 9.8877 27.4435 9.88416C27.4384 9.88079 27.4353 9.87747 27.4337 9.87536C27.431 9.8717 27.4318 9.87073 27.4318 9.87277H28.4318C28.4318 9.44126 28.1475 9.0218 27.6821 8.91646L27.4613 9.89178ZM10.837 24.6083C11.5192 24.0967 11.9207 23.2936 11.9207 22.4408H10.9207C10.9207 22.9789 10.6674 23.4855 10.237 23.8083L10.837 24.6083ZM7.11597 29.4018C7.11597 30.1137 7.69303 30.6907 8.40488 30.6907V29.6907C8.24532 29.6907 8.11597 29.5614 8.11597 29.4018H7.11597ZM8.11597 29.4018C8.11597 29.2422 8.24532 29.1129 8.40488 29.1129V28.1129C7.69303 28.1129 7.11597 28.69 7.11597 29.4018H8.11597ZM11.2508 15.3607C11.372 15.3607 11.4702 15.459 11.4702 15.5801H12.4702C12.4702 14.9067 11.9242 14.3607 11.2508 14.3607V15.3607ZM34.2139 22.2642C34.2139 22.2667 34.2131 22.2655 34.216 22.2608C34.2197 22.255 34.2288 22.245 34.244 22.2388L34.6226 23.1643C35.0074 23.0069 35.2139 22.6319 35.2139 22.2642H34.2139ZM25.4794 23.4301C25.7622 21.9792 24.7311 20.601 23.2592 20.4628L23.1658 21.4584C24.0489 21.5413 24.6676 22.3682 24.4979 23.2388L25.4794 23.4301ZM26.5315 12.6041H25.5315C25.5315 13.1564 25.9792 13.6041 26.5315 13.6041V12.6041ZM9.35713 22.596C9.35713 23.3379 9.65671 24.0484 10.1879 24.5663L10.886 23.8503C10.5478 23.5206 10.3571 23.0683 10.3571 22.596H9.35713ZM33.4837 29.4018C33.4837 28.69 32.9066 28.1129 32.1948 28.1129V29.1129C32.3544 29.1129 32.4837 29.2422 32.4837 29.4018H33.4837Z" fill="#006389"/>
<circle cx="27.6099" cy="21.6151" r="1.03048" stroke="#006389" stroke-width="0.8"/>
<circle cx="27.6105" cy="25.5168" r="1.03048" stroke="#006389" stroke-width="0.8"/>
<path d="M8.70207 4.40032C8.48139 4.56632 8.43707 4.87979 8.60308 5.10047C8.76908 5.32114 9.08254 5.36546 9.30322 5.19946L8.70207 4.40032ZM11.1751 3.95287C11.4133 3.81327 11.4933 3.50695 11.3537 3.2687C11.2141 3.03044 10.9078 2.95047 10.6695 3.09007L11.1751 3.95287ZM9.30322 5.19946C9.90147 4.74943 10.5263 4.33297 11.1751 3.95287L10.6695 3.09007C9.98759 3.48963 9.3308 3.92736 8.70207 4.40032L9.30322 5.19946Z" fill="#006389"/>
<path d="M12.2904 2.27957C12.0404 2.39683 11.9327 2.69456 12.05 2.94457C12.1673 3.19458 12.465 3.3022 12.715 3.18494L12.2904 2.27957ZM14.8671 2.32816C15.1293 2.24151 15.2716 1.95872 15.1849 1.69652C15.0983 1.43433 14.8155 1.29201 14.5533 1.37866L14.8671 2.32816ZM12.715 3.18494C13.411 2.85852 14.1293 2.57196 14.8671 2.32816L14.5533 1.37866C13.7775 1.63503 13.0221 1.93637 12.2904 2.27957L12.715 3.18494Z" fill="#006389"/>
<path d="M16.365 0.851776C16.0925 0.896149 15.9075 1.15307 15.9518 1.42562C15.9962 1.69818 16.2531 1.88315 16.5257 1.83878L16.365 0.851776ZM18.718 1.60847C18.9938 1.5952 19.2066 1.36083 19.1933 1.08501C19.1801 0.809186 18.9457 0.596352 18.6699 0.609631L18.718 1.60847ZM16.5257 1.83878C17.2451 1.72165 17.9767 1.64416 18.718 1.60847L18.6699 0.609631C17.8907 0.647139 17.1216 0.728608 16.365 0.851776L16.5257 1.83878Z" fill="#006389"/>
<path d="M20.4933 0.484995C20.2174 0.496639 20.0032 0.729736 20.0149 1.00563C20.0265 1.28153 20.2596 1.49575 20.5355 1.48411L20.4933 0.484995ZM22.4452 1.49599C22.721 1.51099 22.9567 1.29962 22.9717 1.02389C22.9867 0.748154 22.7753 0.512468 22.4996 0.497469L22.4452 1.49599ZM20.5355 1.48411C21.1654 1.45752 21.8025 1.46103 22.4452 1.49599L22.4996 0.497469C21.8246 0.460754 21.1553 0.457056 20.4933 0.484995L20.5355 1.48411Z" fill="#006389"/>
<path d="M24.7711 0.825887C24.4994 0.776201 24.239 0.956128 24.1893 1.22776C24.1396 1.4994 24.3195 1.75988 24.5911 1.80957L24.7711 0.825887ZM26.4509 2.24368C26.7165 2.31932 26.9931 2.16533 27.0688 1.89975C27.1444 1.63416 26.9904 1.35755 26.7248 1.28192L26.4509 2.24368ZM24.5911 1.80957C25.2113 1.923 25.8318 2.06737 26.4509 2.24368L26.7248 1.28192C26.0747 1.09678 25.4228 0.945103 24.7711 0.825887L24.5911 1.80957Z" fill="#006389"/>
<path d="M28.581 1.93872C28.3242 1.83725 28.0338 1.96318 27.9323 2.22C27.8308 2.47682 27.9567 2.76728 28.2136 2.86876L28.581 1.93872ZM29.9537 3.65567C30.1995 3.78142 30.5008 3.68407 30.6265 3.43822C30.7523 3.19237 30.6549 2.89113 30.4091 2.76538L29.9537 3.65567ZM28.2136 2.86876C28.7999 3.10043 29.3806 3.36252 29.9537 3.65567L30.4091 2.76538C29.8073 2.45755 29.1973 2.1822 28.581 1.93872L28.2136 2.86876Z" fill="#006389"/>
<path d="M32.5312 4.06273C32.3043 3.90536 31.9927 3.96175 31.8354 4.18866C31.678 4.41558 31.7344 4.7271 31.9613 4.88446L32.5312 4.06273ZM33.4762 6.04745C33.6868 6.22595 34.0024 6.19985 34.1809 5.98916C34.3594 5.77847 34.3333 5.46296 34.1226 5.28446L33.4762 6.04745ZM31.9613 4.88446C32.4794 5.24374 32.985 5.63133 33.4762 6.04745L34.1226 5.28446C33.6068 4.84751 33.0756 4.44031 32.5312 4.06273L31.9613 4.88446Z" fill="#006389"/>
<path d="M35.2994 6.3693C35.1006 6.17761 34.7841 6.18336 34.5924 6.38213C34.4007 6.5809 34.4065 6.89743 34.6052 7.08912L35.2994 6.3693ZM35.9142 8.47978C36.0936 8.68973 36.4092 8.71452 36.6191 8.53515C36.8291 8.35577 36.8539 8.04016 36.6745 7.83021L35.9142 8.47978ZM34.6052 7.08912C35.059 7.52675 35.496 7.99035 35.9142 8.47978L36.6745 7.83021C36.2354 7.31627 35.7763 6.82924 35.2994 6.3693L34.6052 7.08912Z" fill="#006389"/>
<path d="M40.9863 17.0504C40.9372 16.7787 40.6772 16.5981 40.4054 16.6472C40.1337 16.6963 39.9532 16.9564 40.0022 17.2281L40.9863 17.0504ZM40.2503 19.1217C40.2729 19.3969 40.5144 19.6017 40.7896 19.579C41.0648 19.5564 41.2696 19.3149 41.2469 19.0397L40.2503 19.1217ZM40.0022 17.2281C40.1143 17.8485 40.1975 18.4802 40.2503 19.1217L41.2469 19.0397C41.1914 18.366 41.1041 17.7024 40.9863 17.0504L40.0022 17.2281Z" fill="#006389"/>
<path d="M40.045 13.1904C39.9537 12.9298 39.6684 12.7926 39.4078 12.884C39.1472 12.9753 39.01 13.2606 39.1014 13.5212L40.045 13.1904ZM39.6452 15.3519C39.711 15.6201 39.9818 15.7842 40.25 15.7184C40.5182 15.6525 40.6822 15.3818 40.6164 15.1136L39.6452 15.3519ZM39.1014 13.5212C39.3099 14.1162 39.4918 14.7268 39.6452 15.3519L40.6164 15.1136C40.4553 14.4571 40.2642 13.8157 40.045 13.1904L39.1014 13.5212Z" fill="#006389"/>
<path d="M38.2514 9.65357C38.1023 9.42118 37.7929 9.3537 37.5606 9.50286C37.3282 9.65202 37.2607 9.96133 37.4098 10.1937L38.2514 9.65357ZM38.3625 11.849C38.4885 12.0946 38.7899 12.1916 39.0356 12.0655C39.2813 11.9395 39.3782 11.6381 39.2522 11.3924L38.3625 11.849ZM37.4098 10.1937C37.7504 10.7243 38.0686 11.2762 38.3625 11.849L39.2522 11.3924C38.9436 10.791 38.6093 10.2112 38.2514 9.65357L37.4098 10.1937Z" fill="#006389"/>
<path d="M41.3125 20.9213C41.3173 20.6452 41.0973 20.4176 40.8212 20.4128C40.5451 20.408 40.3174 20.628 40.3126 20.9041L41.3125 20.9213ZM40.1873 22.8097C40.1559 23.0841 40.3529 23.3319 40.6272 23.3633C40.9016 23.3946 41.1494 23.1976 41.1808 22.9233L40.1873 22.8097ZM40.3126 20.9041C40.3017 21.5344 40.2604 22.1702 40.1873 22.8097L41.1808 22.9233C41.2576 22.2517 41.301 21.5838 41.3125 20.9213L40.3126 20.9041Z" fill="#006389"/>
<path d="M40.892 24.9091C40.9474 24.6385 40.7731 24.3743 40.5026 24.3189C40.232 24.2634 39.9678 24.4378 39.9124 24.7083L40.892 24.9091ZM39.4389 26.5585C39.3576 26.8224 39.5057 27.1022 39.7696 27.1834C40.0335 27.2647 40.3134 27.1166 40.3946 26.8527L39.4389 26.5585ZM39.9124 24.7083C39.7858 25.3259 39.6283 25.9432 39.4389 26.5585L40.3946 26.8527C40.5935 26.2067 40.759 25.5582 40.892 24.9091L39.9124 24.7083Z" fill="#006389"/>
<path d="M39.7993 28.4319C39.9004 28.175 39.7741 27.8847 39.5171 27.7836C39.2602 27.6825 38.9699 27.8088 38.8688 28.0658L39.7993 28.4319ZM38.0843 29.807C37.9589 30.053 38.0567 30.3541 38.3027 30.4795C38.5487 30.6049 38.8498 30.5072 38.9752 30.2611L38.0843 29.807ZM38.8688 28.0658C38.6379 28.6524 38.3767 29.2335 38.0843 29.807L38.9752 30.2611C39.2822 29.6589 39.5567 29.0485 39.7993 28.4319L38.8688 28.0658Z" fill="#006389"/>
<path d="M37.9059 32.0435C38.059 31.8137 37.9968 31.5033 37.767 31.3502C37.5371 31.1971 37.2267 31.2593 37.0736 31.4891L37.9059 32.0435ZM35.9392 33.0254C35.7647 33.2394 35.7967 33.5544 36.0106 33.7289C36.2246 33.9035 36.5396 33.8715 36.7141 33.6575L35.9392 33.0254ZM37.0736 31.4891C36.7241 32.0138 36.346 32.5266 35.9392 33.0254L36.7141 33.6575C37.1414 33.1336 37.5385 32.5949 37.9059 32.0435L37.0736 31.4891Z" fill="#006389"/>
<path d="M35.3323 35.167C35.5271 34.9714 35.5264 34.6548 35.3307 34.4599C35.135 34.2651 34.8184 34.2658 34.6236 34.4615L35.3323 35.167ZM33.2122 35.7481C32.9994 35.9241 32.9696 36.2392 33.1456 36.452C33.3216 36.6648 33.6368 36.6946 33.8496 36.5186L33.2122 35.7481ZM34.6236 34.4615C34.1788 34.9082 33.7083 35.3378 33.2122 35.7481L33.8496 36.5186C34.3705 36.0878 34.8648 35.6366 35.3323 35.167L34.6236 34.4615Z" fill="#006389"/>
<path d="M32.1223 37.7444C32.3494 37.5873 32.4061 37.2758 32.249 37.0487C32.0919 36.8216 31.7804 36.7649 31.5533 36.922L32.1223 37.7444ZM29.932 37.9313C29.6908 38.0657 29.6044 38.3703 29.7388 38.6115C29.8733 38.8526 30.1779 38.9391 30.419 38.8046L29.932 37.9313ZM31.5533 36.922C31.0349 37.2807 30.4942 37.6177 29.932 37.9313L30.419 38.8046C31.0094 38.4754 31.5774 38.1213 32.1223 37.7444L31.5533 36.922Z" fill="#006389"/>
<path d="M28.0938 39.7965C28.3502 39.6942 28.4752 39.4033 28.3729 39.1468C28.2706 38.8903 27.9798 38.7653 27.7233 38.8676L28.0938 39.7965ZM25.9172 39.4885C25.6521 39.5656 25.4996 39.8431 25.5767 40.1082C25.6538 40.3734 25.9313 40.5258 26.1965 40.4487L25.9172 39.4885ZM27.7233 38.8676C27.1377 39.1012 26.5354 39.3087 25.9172 39.4885L26.1965 40.4487C26.8455 40.26 27.4783 40.0419 28.0938 39.7965L27.7233 38.8676Z" fill="#006389"/>
<path d="M23.7604 40.8782C24.0338 40.84 24.2245 40.5873 24.1862 40.3138C24.148 40.0403 23.8952 39.8496 23.6218 39.8879L23.7604 40.8782ZM21.7198 40.0608C21.4439 40.0725 21.2298 40.3057 21.2415 40.5816C21.2533 40.8575 21.4864 41.0716 21.7623 41.0599L21.7198 40.0608ZM23.6218 39.8879C22.9974 39.9753 22.363 40.0334 21.7198 40.0608L21.7623 41.0599C22.4377 41.0311 23.1042 40.9701 23.7604 40.8782L23.6218 39.8879Z" fill="#006389"/>
<path d="M19.4748 40.9976C19.7504 41.0153 19.9882 40.8063 20.0059 40.5307C20.0236 40.2551 19.8145 40.0174 19.5389 39.9997L19.4748 40.9976ZM17.6412 39.7852C17.3687 39.741 17.1119 39.9261 17.0677 40.1987C17.0235 40.4713 17.2087 40.7281 17.4813 40.7723L17.6412 39.7852ZM19.5389 39.9997C18.9098 39.9592 18.2767 39.8881 17.6412 39.7852L17.4813 40.7723C18.1485 40.8804 18.8136 40.9551 19.4748 40.9976L19.5389 39.9997Z" fill="#006389"/>
<path d="M14.5476 39.8376C14.8064 39.9339 15.0943 39.8022 15.1906 39.5434C15.2869 39.2846 15.1552 38.9967 14.8964 38.9004L14.5476 39.8376ZM13.1409 38.1484C12.8926 38.0276 12.5934 38.1309 12.4726 38.3792C12.3517 38.6275 12.4551 38.9268 12.7034 39.0476L13.1409 38.1484ZM14.8964 38.9004C14.3056 38.6805 13.7198 38.43 13.1409 38.1484L12.7034 39.0476C13.3112 39.3433 13.9266 39.6064 14.5476 39.8376L14.8964 38.9004Z" fill="#006389"/>
<path d="M10.2557 37.7656C10.491 37.91 10.7989 37.8363 10.9434 37.601C11.0878 37.3657 11.0141 37.0578 10.7788 36.9133L10.2557 37.7656ZM9.20141 35.8367C8.98109 35.6702 8.66753 35.7139 8.50106 35.9342C8.3346 36.1545 8.37826 36.4681 8.59859 36.6345L9.20141 35.8367ZM10.7788 36.9133C10.2415 36.5835 9.71503 36.2247 9.20141 35.8367L8.59859 36.6345C9.13792 37.042 9.69098 37.4189 10.2557 37.7656L10.7788 36.9133Z" fill="#006389"/>
<path d="M6.94888 35.1591C7.14662 35.3519 7.46318 35.3478 7.65593 35.1501C7.84868 34.9524 7.84464 34.6358 7.6469 34.443L6.94888 35.1591ZM6.34545 33.0454C6.1672 32.8345 5.85173 32.808 5.64082 32.9862C5.4299 33.1645 5.40342 33.4799 5.58166 33.6908L6.34545 33.0454ZM7.6469 34.443C7.19545 34.003 6.76096 33.537 6.34545 33.0454L5.58166 33.6908C6.01799 34.2071 6.47442 34.6966 6.94888 35.1591L7.6469 34.443Z" fill="#006389"/>
<path d="M4.20346 31.8675C4.35561 32.098 4.66577 32.1614 4.89621 32.0093C5.12665 31.8571 5.19012 31.547 5.03796 31.3165L4.20346 31.8675ZM4.06401 29.6738C3.93478 29.4297 3.63218 29.3367 3.38815 29.4659C3.14411 29.5951 3.05105 29.8977 3.18029 30.1418L4.06401 29.6738ZM5.03796 31.3165C4.69059 30.7904 4.36529 30.2426 4.06401 29.6738L3.18029 30.1418C3.49665 30.7391 3.83838 31.3146 4.20346 31.8675L5.03796 31.3165Z" fill="#006389"/>
<path d="M2.42417 28.3861C2.5343 28.6394 2.82887 28.7554 3.0821 28.6452C3.33532 28.5351 3.45133 28.2405 3.34119 27.9873L2.42417 28.3861ZM2.66514 26.2012C2.57992 25.9385 2.29791 25.7947 2.03524 25.8799C1.77258 25.9651 1.62873 26.2471 1.71395 26.5098L2.66514 26.2012ZM3.34119 27.9873C3.08975 27.4092 2.8638 26.8135 2.66514 26.2012L1.71395 26.5098C1.92255 27.1528 2.15991 27.7785 2.42417 28.3861L3.34119 27.9873Z" fill="#006389"/>
<path d="M1.22329 24.4991C1.28072 24.7692 1.54624 24.9416 1.81635 24.8842C2.08645 24.8267 2.25886 24.5612 2.20143 24.2911L1.22329 24.4991ZM1.89509 22.4061C1.86396 22.1317 1.61629 21.9345 1.34191 21.9656C1.06753 21.9968 0.870334 22.2444 0.901466 22.5188L1.89509 22.4061ZM2.20143 24.2911C2.07031 23.6745 1.96767 23.0457 1.89509 22.4061L0.901466 22.5188C0.977676 23.1905 1.08549 23.851 1.22329 24.4991L2.20143 24.2911Z" fill="#006389"/>
<path d="M0.822125 20.272C0.824767 20.5482 1.05076 20.7699 1.32689 20.7672C1.60302 20.7646 1.82472 20.5386 1.82208 20.2625L0.822125 20.272ZM1.89623 18.3541C1.92021 18.079 1.71664 17.8366 1.44154 17.8126C1.16644 17.7886 0.923985 17.9922 0.900004 18.2673L1.89623 18.3541ZM1.82208 20.2625C1.81605 19.632 1.84032 18.9954 1.89623 18.3541L0.900004 18.2673C0.841302 18.9407 0.815785 19.6095 0.822125 20.272L1.82208 20.2625Z" fill="#006389"/>
<path d="M1.40399 15.6413C1.35251 15.9126 1.5307 16.1743 1.802 16.2258C2.0733 16.2773 2.33497 16.0991 2.38645 15.8278L1.40399 15.6413ZM2.83287 13.9709C2.91026 13.7058 2.75811 13.4282 2.49304 13.3508C2.22796 13.2734 1.95034 13.4256 1.87295 13.6906L2.83287 13.9709ZM2.38645 15.8278C2.50399 15.2084 2.65247 14.5888 2.83287 13.9709L1.87295 13.6906C1.68351 14.3395 1.52752 14.9904 1.40399 15.6413L2.38645 15.8278Z" fill="#006389"/>
<path d="M2.93744 11.1994C2.81232 11.4455 2.91045 11.7465 3.15662 11.8716C3.40279 11.9968 3.70378 11.8986 3.8289 11.6525L2.93744 11.1994ZM4.77558 9.99381C4.92384 9.76084 4.85517 9.4518 4.6222 9.30354C4.38923 9.15528 4.08019 9.22395 3.93193 9.45691L4.77558 9.99381ZM3.8289 11.6525C4.11455 11.0904 4.42996 10.5369 4.77558 9.99381L3.93193 9.45691C3.569 10.0272 3.23765 10.6087 2.93744 11.1994L3.8289 11.6525Z" fill="#006389"/>
<path d="M5.61744 7.04421C5.43371 7.25036 5.45188 7.56642 5.65802 7.75015C5.86417 7.93389 6.18023 7.91572 6.36396 7.70957L5.61744 7.04421ZM7.70216 6.34703C7.9049 6.15955 7.91728 5.84321 7.7298 5.64047C7.54232 5.43772 7.22598 5.42534 7.02324 5.61282L7.70216 6.34703ZM6.36396 7.70957C6.78344 7.23893 7.22952 6.78408 7.70216 6.34703L7.02324 5.61282C6.52693 6.07175 6.0583 6.54958 5.61744 7.04421L6.36396 7.70957Z" fill="#006389"/>
</svg>
