<svg width="41" height="42" viewBox="0 0 41 42" fill="none" xmlns="http://www.w3.org/2000/svg">
<path d="M8.11442 4.65434C7.89375 4.82034 7.84943 5.1338 8.01543 5.35448C8.18143 5.57515 8.4949 5.61948 8.71557 5.45347L8.11442 4.65434ZM10.5874 4.20688C10.8257 4.06728 10.9056 3.76096 10.766 3.52271C10.6264 3.28445 10.3201 3.20448 10.0819 3.34408L10.5874 4.20688ZM8.71557 5.45347C9.31382 5.00344 9.9387 4.58698 10.5874 4.20688L10.0819 3.34408C9.39994 3.74364 8.74315 4.18138 8.11442 4.65434L8.71557 5.45347Z" fill="#006389"/>
<path d="M11.7027 2.53361C11.4527 2.65087 11.3451 2.9486 11.4624 3.19861C11.5796 3.44862 11.8773 3.55624 12.1274 3.43898L11.7027 2.53361ZM14.2794 2.5822C14.5416 2.49556 14.6839 2.21277 14.5973 1.95057C14.5107 1.68837 14.2279 1.54606 13.9657 1.6327L14.2794 2.5822ZM12.1274 3.43898C12.8233 3.11257 13.5417 2.826 14.2794 2.5822L13.9657 1.6327C13.1898 1.88908 12.4345 2.19041 11.7027 2.53361L12.1274 3.43898Z" fill="#006389"/>
<path d="M15.7774 1.1058C15.5048 1.15018 15.3198 1.4071 15.3642 1.67965C15.4086 1.9522 15.6655 2.13718 15.938 2.09281L15.7774 1.1058ZM18.1303 1.8625C18.4061 1.84922 18.619 1.61486 18.6057 1.33904C18.5924 1.06321 18.358 0.85038 18.0822 0.863659L18.1303 1.8625ZM15.938 2.09281C16.6575 1.97568 17.3891 1.89819 18.1303 1.8625L18.0822 0.863659C17.3031 0.901168 16.5339 0.982637 15.7774 1.1058L15.938 2.09281Z" fill="#006389"/>
<path d="M19.9057 0.739023C19.6298 0.750667 19.4156 0.983765 19.4272 1.25966C19.4389 1.53556 19.672 1.74978 19.9479 1.73813L19.9057 0.739023ZM21.8576 1.75002C22.1333 1.76502 22.369 1.55365 22.384 1.27792C22.399 1.00218 22.1877 0.766497 21.9119 0.751498L21.8576 1.75002ZM19.9479 1.73813C20.5777 1.71155 21.2148 1.71506 21.8576 1.75002L21.9119 0.751498C21.2369 0.714782 20.5677 0.711085 19.9057 0.739023L19.9479 1.73813Z" fill="#006389"/>
<path d="M24.1834 1.07993C23.9118 1.03024 23.6513 1.21017 23.6016 1.48181C23.5519 1.75344 23.7319 2.01392 24.0035 2.06361L24.1834 1.07993ZM25.8633 2.49773C26.1289 2.57336 26.4055 2.41937 26.4811 2.15379C26.5568 1.88821 26.4028 1.6116 26.1372 1.53597L25.8633 2.49773ZM24.0035 2.06361C24.6237 2.17705 25.2442 2.32141 25.8633 2.49773L26.1372 1.53597C25.4871 1.35083 24.8352 1.19915 24.1834 1.07993L24.0035 2.06361Z" fill="#006389"/>
<path d="M27.9934 2.19275C27.7366 2.09127 27.4461 2.21721 27.3446 2.47403C27.2432 2.73085 27.3691 3.02131 27.6259 3.12278L27.9934 2.19275ZM29.366 3.9097C29.6119 4.03545 29.9131 3.93809 30.0389 3.69225C30.1646 3.4464 30.0673 3.14516 29.8214 3.01941L29.366 3.9097ZM27.6259 3.12278C28.2122 3.35446 28.7929 3.61654 29.366 3.9097L29.8214 3.01941C29.2196 2.71158 28.6096 2.43623 27.9934 2.19275L27.6259 3.12278Z" fill="#006389"/>
<path d="M31.9435 4.31676C31.7166 4.15939 31.4051 4.21577 31.2477 4.44269C31.0904 4.66961 31.1467 4.98113 31.3737 5.13849L31.9435 4.31676ZM32.8885 6.30148C33.0992 6.47998 33.4147 6.45388 33.5932 6.24319C33.7717 6.03249 33.7456 5.71699 33.5349 5.53849L32.8885 6.30148ZM31.3737 5.13849C31.8917 5.49777 32.3973 5.88536 32.8885 6.30148L33.5349 5.53849C33.0192 5.10154 32.488 4.69434 31.9435 4.31676L31.3737 5.13849Z" fill="#006389"/>
<path d="M34.7118 6.62333C34.513 6.43164 34.1964 6.43739 34.0048 6.63616C33.8131 6.83493 33.8188 7.15146 34.0176 7.34315L34.7118 6.62333ZM35.3265 8.73381C35.5059 8.94376 35.8215 8.96855 36.0315 8.78917C36.2414 8.6098 36.2662 8.29419 36.0868 8.08424L35.3265 8.73381ZM34.0176 7.34315C34.4714 7.78078 34.9084 8.24438 35.3265 8.73381L36.0868 8.08424C35.6477 7.5703 35.1887 7.08327 34.7118 6.62333L34.0176 7.34315Z" fill="#006389"/>
<path d="M40.3987 17.3044C40.3496 17.0327 40.0895 16.8522 39.8178 16.9012C39.546 16.9503 39.3655 17.2104 39.4146 17.4821L40.3987 17.3044ZM39.6626 19.3757C39.6853 19.6509 39.9268 19.8557 40.202 19.833C40.4772 19.8104 40.6819 19.5689 40.6593 19.2937L39.6626 19.3757ZM39.4146 17.4821C39.5266 18.1025 39.6098 18.7342 39.6626 19.3757L40.6593 19.2937C40.6038 18.62 40.5164 17.9564 40.3987 17.3044L39.4146 17.4821Z" fill="#006389"/>
<path d="M39.4574 13.4444C39.366 13.1838 39.0807 13.0466 38.8201 13.138C38.5595 13.2293 38.4224 13.5147 38.5137 13.7753L39.4574 13.4444ZM39.0576 15.606C39.1234 15.8741 39.3942 16.0382 39.6623 15.9724C39.9305 15.9066 40.0946 15.6358 40.0288 15.3676L39.0576 15.606ZM38.5137 13.7753C38.7223 14.3702 38.9042 14.9808 39.0576 15.606L40.0288 15.3676C39.8677 14.7111 39.6766 14.0697 39.4574 13.4444L38.5137 13.7753Z" fill="#006389"/>
<path d="M37.6638 9.90758C37.5146 9.67519 37.2053 9.60772 36.9729 9.75687C36.7405 9.90603 36.673 10.2153 36.8222 10.4477L37.6638 9.90758ZM37.7748 12.103C37.9009 12.3487 38.2022 12.4456 38.4479 12.3196C38.6936 12.1935 38.7906 11.8921 38.6645 11.6464L37.7748 12.103ZM36.8222 10.4477C37.1627 10.9783 37.4809 11.5302 37.7748 12.103L38.6645 11.6464C38.3559 11.045 38.0217 10.4652 37.6638 9.90758L36.8222 10.4477Z" fill="#006389"/>
<path d="M40.7248 21.1754C40.7296 20.8993 40.5097 20.6716 40.2335 20.6668C39.9574 20.662 39.7298 20.882 39.725 21.1581L40.7248 21.1754ZM39.5996 23.0638C39.5682 23.3381 39.7652 23.586 40.0396 23.6173C40.3139 23.6487 40.5618 23.4517 40.5931 23.1773L39.5996 23.0638ZM39.725 21.1581C39.7141 21.7885 39.6727 22.4242 39.5996 23.0638L40.5931 23.1773C40.6699 22.5057 40.7134 21.8379 40.7248 21.1754L39.725 21.1581Z" fill="#006389"/>
<path d="M40.3043 25.1631C40.3598 24.8926 40.1854 24.6283 39.9149 24.5729C39.6444 24.5175 39.3801 24.6918 39.3247 24.9623L40.3043 25.1631ZM38.8512 26.8125C38.77 27.0764 38.9181 27.3562 39.182 27.4375C39.4459 27.5187 39.7257 27.3706 39.807 27.1067L38.8512 26.8125ZM39.3247 24.9623C39.1981 25.5799 39.0406 26.1973 38.8512 26.8125L39.807 27.1067C40.0058 26.4607 40.1713 25.8122 40.3043 25.1631L39.3247 24.9623Z" fill="#006389"/>
<path d="M39.2117 28.686C39.3128 28.429 39.1865 28.1387 38.9295 28.0376C38.6725 27.9365 38.3822 28.0628 38.2811 28.3198L39.2117 28.686ZM37.4967 30.061C37.3713 30.307 37.469 30.6082 37.7151 30.7336C37.9611 30.859 38.2622 30.7612 38.3876 30.5152L37.4967 30.061ZM38.2811 28.3198C38.0503 28.9065 37.789 29.4875 37.4967 30.061L38.3876 30.5152C38.6946 29.9129 38.9691 29.3025 39.2117 28.686L38.2811 28.3198Z" fill="#006389"/>
<path d="M37.3182 32.2976C37.4713 32.0677 37.4091 31.7573 37.1793 31.6042C36.9495 31.4511 36.6391 31.5133 36.486 31.7432L37.3182 32.2976ZM35.3515 33.2795C35.177 33.4935 35.209 33.8084 35.423 33.983C35.637 34.1575 35.952 34.1255 36.1265 33.9115L35.3515 33.2795ZM36.486 31.7432C36.1365 32.2678 35.7584 32.7806 35.3515 33.2795L36.1265 33.9115C36.5537 33.3877 36.9509 32.849 37.3182 32.2976L36.486 31.7432Z" fill="#006389"/>
<path d="M34.7446 35.4211C34.9394 35.2254 34.9388 34.9088 34.7431 34.714C34.5474 34.5191 34.2308 34.5198 34.036 34.7155L34.7446 35.4211ZM32.6246 36.0021C32.4118 36.1781 32.382 36.4933 32.558 36.7061C32.734 36.9188 33.0491 36.9487 33.2619 36.7727L32.6246 36.0021ZM34.036 34.7155C33.5911 35.1623 33.1206 35.5918 32.6246 36.0021L33.2619 36.7727C33.7828 36.3418 34.2771 35.8906 34.7446 35.4211L34.036 34.7155Z" fill="#006389"/>
<path d="M31.5346 37.9984C31.7617 37.8413 31.8184 37.5298 31.6613 37.3028C31.5042 37.0757 31.1928 37.0189 30.9657 37.176L31.5346 37.9984ZM29.3444 38.1853C29.1032 38.3198 29.0167 38.6243 29.1512 38.8655C29.2857 39.1067 29.5902 39.1932 29.8314 39.0587L29.3444 38.1853ZM30.9657 37.176C30.4472 37.5347 29.9066 37.8718 29.3444 38.1853L29.8314 39.0587C30.4218 38.7295 30.9897 38.3754 31.5346 37.9984L30.9657 37.176Z" fill="#006389"/>
<path d="M27.5061 40.0505C27.7626 39.9482 27.8876 39.6573 27.7853 39.4009C27.683 39.1444 27.3921 39.0194 27.1356 39.1217L27.5061 40.0505ZM25.3296 39.7425C25.0644 39.8197 24.912 40.0971 24.9891 40.3623C25.0662 40.6274 25.3437 40.7799 25.6088 40.7028L25.3296 39.7425ZM27.1356 39.1217C26.55 39.3552 25.9477 39.5628 25.3296 39.7425L25.6088 40.7028C26.2579 40.514 26.8907 40.296 27.5061 40.0505L27.1356 39.1217Z" fill="#006389"/>
<path d="M23.1727 41.1323C23.4462 41.094 23.6369 40.8413 23.5986 40.5678C23.5603 40.2943 23.3076 40.1036 23.0341 40.1419L23.1727 41.1323ZM21.1322 40.3148C20.8563 40.3265 20.6421 40.5597 20.6539 40.8356C20.6656 41.1115 20.8988 41.3256 21.1747 41.3139L21.1322 40.3148ZM23.0341 40.1419C22.4098 40.2293 21.7753 40.2874 21.1322 40.3148L21.1747 41.3139C21.85 41.2851 22.5165 41.2241 23.1727 41.1323L23.0341 40.1419Z" fill="#006389"/>
<path d="M18.8872 41.2516C19.1628 41.2693 19.4005 41.0603 19.4182 40.7847C19.4359 40.5092 19.2269 40.2714 18.9513 40.2537L18.8872 41.2516ZM17.0536 40.0392C16.781 39.995 16.5242 40.1802 16.48 40.4527C16.4359 40.7253 16.621 40.9821 16.8936 41.0263L17.0536 40.0392ZM18.9513 40.2537C18.3221 40.2133 17.689 40.1422 17.0536 40.0392L16.8936 41.0263C17.5609 41.1344 18.226 41.2092 18.8872 41.2516L18.9513 40.2537Z" fill="#006389"/>
<path d="M13.9599 40.0916C14.2187 40.1879 14.5066 40.0562 14.6029 39.7974C14.6993 39.5386 14.5676 39.2507 14.3088 39.1544L13.9599 40.0916ZM12.5533 38.4024C12.305 38.2816 12.0057 38.3849 11.8849 38.6332C11.7641 38.8816 11.8674 39.1808 12.1157 39.3016L12.5533 38.4024ZM14.3088 39.1544C13.7179 38.9345 13.1321 38.6841 12.5533 38.4024L12.1157 39.3016C12.7236 39.5974 13.339 39.8605 13.9599 40.0916L14.3088 39.1544Z" fill="#006389"/>
<path d="M9.66802 38.0196C9.90336 38.164 10.2113 38.0904 10.3557 37.855C10.5002 37.6197 10.4265 37.3118 10.1911 37.1673L9.66802 38.0196ZM8.61377 36.0907C8.39344 35.9242 8.07988 35.9679 7.91342 36.1882C7.74695 36.4085 7.79061 36.7221 8.01094 36.8886L8.61377 36.0907ZM10.1911 37.1673C9.65384 36.8375 9.12739 36.4788 8.61377 36.0907L8.01094 36.8886C8.55028 37.2961 9.10333 37.673 9.66802 38.0196L10.1911 37.1673Z" fill="#006389"/>
<path d="M6.36123 35.4132C6.55897 35.6059 6.87553 35.6019 7.06828 35.4041C7.26104 35.2064 7.25699 34.8898 7.05925 34.6971L6.36123 35.4132ZM5.7578 33.2994C5.57956 33.0885 5.26408 33.062 5.05317 33.2402C4.84226 33.4185 4.81577 33.734 4.99402 33.9449L5.7578 33.2994ZM7.05925 34.6971C6.6078 34.257 6.17332 33.7911 5.7578 33.2994L4.99402 33.9449C5.43034 34.4612 5.88678 34.9507 6.36123 35.4132L7.05925 34.6971Z" fill="#006389"/>
<path d="M3.61581 32.1215C3.76797 32.352 4.07812 32.4154 4.30856 32.2633C4.53901 32.1111 4.60247 31.801 4.45032 31.5705L3.61581 32.1215ZM3.47637 29.9278C3.34713 29.6837 3.04453 29.5907 2.8005 29.7199C2.55647 29.8492 2.46341 30.1517 2.59265 30.3958L3.47637 29.9278ZM4.45032 31.5705C4.10294 31.0444 3.77765 30.4967 3.47637 29.9278L2.59265 30.3958C2.90901 30.9931 3.25073 31.5686 3.61581 32.1215L4.45032 31.5705Z" fill="#006389"/>
<path d="M1.83652 28.6402C1.94666 28.8934 2.24122 29.0094 2.49445 28.8992C2.74768 28.7891 2.86368 28.4946 2.75355 28.2413L1.83652 28.6402ZM2.07749 26.4552C1.99227 26.1925 1.71026 26.0487 1.4476 26.1339C1.18493 26.2191 1.04108 26.5011 1.1263 26.7638L2.07749 26.4552ZM2.75355 28.2413C2.5021 27.6632 2.27615 27.0675 2.07749 26.4552L1.1263 26.7638C1.3349 27.4068 1.57226 28.0326 1.83652 28.6402L2.75355 28.2413Z" fill="#006389"/>
<path d="M0.635646 24.7531C0.693077 25.0232 0.958596 25.1956 1.2287 25.1382C1.4988 25.0808 1.67121 24.8152 1.61378 24.5451L0.635646 24.7531ZM1.30744 22.6601C1.27631 22.3857 1.02864 22.1885 0.754261 22.2196C0.479879 22.2508 0.282687 22.4984 0.31382 22.7728L1.30744 22.6601ZM1.61378 24.5451C1.48266 23.9285 1.38002 23.2997 1.30744 22.6601L0.31382 22.7728C0.39003 23.4445 0.497848 24.105 0.635646 24.7531L1.61378 24.5451Z" fill="#006389"/>
<path d="M0.234478 20.5261C0.23712 20.8022 0.46311 21.0239 0.73924 21.0212C1.01537 21.0186 1.23707 20.7926 1.23443 20.5165L0.234478 20.5261ZM1.30858 18.6081C1.33256 18.333 1.12899 18.0906 0.85389 18.0666C0.578791 18.0426 0.336339 18.2462 0.312358 18.5213L1.30858 18.6081ZM1.23443 20.5165C1.2284 19.8861 1.25268 19.2494 1.30858 18.6081L0.312358 18.5213C0.253655 19.1947 0.228138 19.8635 0.234478 20.5261L1.23443 20.5165Z" fill="#006389"/>
<path d="M0.816341 15.8954C0.764859 16.1667 0.943056 16.4283 1.21436 16.4798C1.48566 16.5313 1.74733 16.3531 1.79881 16.0818L0.816341 15.8954ZM2.24523 14.2249C2.32262 13.9598 2.17047 13.6822 1.90539 13.6048C1.64031 13.5274 1.36269 13.6796 1.2853 13.9447L2.24523 14.2249ZM1.79881 16.0818C1.91635 15.4624 2.06482 14.8429 2.24523 14.2249L1.2853 13.9447C1.09586 14.5935 0.939869 15.2444 0.816341 15.8954L1.79881 16.0818Z" fill="#006389"/>
<path d="M2.34979 11.4534C2.22467 11.6996 2.32281 12.0005 2.56898 12.1257C2.81515 12.2508 3.11614 12.1526 3.24126 11.9065L2.34979 11.4534ZM4.18793 10.2478C4.33619 10.0149 4.26752 9.70583 4.03455 9.55757C3.80159 9.40931 3.49254 9.47797 3.34428 9.71094L4.18793 10.2478ZM3.24126 11.9065C3.52691 11.3445 3.84231 10.7909 4.18793 10.2478L3.34428 9.71094C2.98136 10.2812 2.65 10.8627 2.34979 11.4534L3.24126 11.9065Z" fill="#006389"/>
<path d="M5.0298 7.29824C4.84606 7.50438 4.86423 7.82044 5.07037 8.00418C5.27652 8.18791 5.59258 8.16975 5.77632 7.9636L5.0298 7.29824ZM7.11451 6.60106C7.31726 6.41358 7.32963 6.09724 7.14216 5.8945C6.95468 5.69175 6.63834 5.67937 6.43559 5.86685L7.11451 6.60106ZM5.77632 7.9636C6.19579 7.49296 6.64187 7.03811 7.11451 6.60106L6.43559 5.86685C5.93929 6.32578 5.47065 6.80361 5.0298 7.29824L5.77632 7.9636Z" fill="#006389"/>
<path d="M29.7434 20.9796L21.2816 30.7106C21.0823 30.9398 20.7263 30.9398 20.527 30.7106L12.0652 20.9796C11.3166 20.1187 10.9043 19.0162 10.9043 17.8753V17.3663C10.9043 15.0347 12.7944 13.1445 15.1261 13.1445C15.9595 13.1445 16.7744 13.3912 17.4679 13.8536L20.61 15.9483C20.7863 16.0659 21.0177 16.0595 21.1873 15.9323L23.7043 14.0445C24.4832 13.4603 25.4306 13.1445 26.4043 13.1445C28.8896 13.1445 30.9043 15.1592 30.9043 17.6445V17.8753C30.9043 19.0162 30.492 20.1187 29.7434 20.9796Z" stroke="#006389" stroke-width="2"/>
</svg>
