<svg width="31" height="31" viewBox="0 0 31 31" fill="none" xmlns="http://www.w3.org/2000/svg">
<path d="M6.37701 3.88687C6.15633 4.05287 6.11201 4.36634 6.27801 4.58701C6.44402 4.80769 6.75748 4.85201 6.97816 4.68601L6.37701 3.88687ZM8.32102 3.7917C8.55927 3.6521 8.63925 3.34578 8.49965 3.10753C8.36004 2.86927 8.05373 2.7893 7.81547 2.9289L8.32102 3.7917ZM6.97816 4.68601C7.40735 4.36315 7.85564 4.06438 8.32102 3.7917L7.81547 2.9289C7.31689 3.22104 6.83668 3.54108 6.37701 3.88687L6.97816 4.68601Z" fill="#006389"/>
<path d="M9.00046 2.3353C8.75045 2.45256 8.64283 2.75029 8.76008 3.0003C8.87734 3.25031 9.17507 3.35793 9.42508 3.24067L9.00046 2.3353ZM10.9689 2.62607C11.2311 2.53942 11.3734 2.25663 11.2867 1.99443C11.2001 1.73224 10.9173 1.58992 10.6551 1.67657L10.9689 2.62607ZM9.42508 3.24067C9.92434 3.00652 10.4396 2.80095 10.9689 2.62607L10.6551 1.67657C10.0878 1.86403 9.5355 2.08436 9.00046 2.3353L9.42508 3.24067Z" fill="#006389"/>
<path d="M11.9864 1.2915C11.7139 1.33588 11.5289 1.5928 11.5733 1.86535C11.6176 2.1379 11.8745 2.32288 12.1471 2.27851L11.9864 1.2915ZM13.7197 2.1133C13.9956 2.10002 14.2084 1.86565 14.1951 1.58983C14.1818 1.31401 13.9475 1.10117 13.6717 1.11445L13.7197 2.1133ZM12.1471 2.27851C12.6632 2.19449 13.188 2.13889 13.7197 2.1133L13.6717 1.11445C13.102 1.14188 12.5396 1.20144 11.9864 1.2915L12.1471 2.27851Z" fill="#006389"/>
<path d="M14.9946 1.02262C14.7187 1.03426 14.5045 1.26736 14.5161 1.54326C14.5278 1.81915 14.7609 2.03337 15.0368 2.02173L14.9946 1.02262ZM16.407 2.03026C16.6827 2.04526 16.9184 1.83389 16.9334 1.55815C16.9484 1.28242 16.737 1.04673 16.4613 1.03173L16.407 2.03026ZM15.0368 2.02173C15.4887 2.00266 15.9458 2.00517 16.407 2.03026L16.4613 1.03173C15.9679 1.0049 15.4786 1.00219 14.9946 1.02262L15.0368 2.02173Z" fill="#006389"/>
<path d="M18.1258 1.27001C17.8542 1.22033 17.5937 1.40025 17.544 1.67189C17.4944 1.94352 17.6743 2.20401 17.9459 2.25369L18.1258 1.27001ZM19.2803 2.56516C19.5459 2.64079 19.8225 2.48681 19.8981 2.22123C19.9737 1.95564 19.8197 1.67903 19.5542 1.6034L19.2803 2.56516ZM17.9459 2.25369C18.3908 2.33507 18.836 2.43865 19.2803 2.56516L19.5542 1.6034C19.0789 1.46806 18.6024 1.35717 18.1258 1.27001L17.9459 2.25369Z" fill="#006389"/>
<path d="M20.9104 2.08493C20.6535 1.98345 20.3631 2.10938 20.2616 2.36621C20.1601 2.62303 20.2861 2.91349 20.5429 3.01496L20.9104 2.08493ZM21.7914 3.57956C22.0372 3.70531 22.3385 3.60795 22.4642 3.36211C22.59 3.11626 22.4926 2.81502 22.2468 2.68926L21.7914 3.57956ZM20.5429 3.01496C20.9635 3.18117 21.3802 3.36921 21.7914 3.57956L22.2468 2.68926C21.8069 2.46424 21.3609 2.26294 20.9104 2.08493L20.5429 3.01496Z" fill="#006389"/>
<path d="M23.7993 3.6382C23.5724 3.48084 23.2609 3.53722 23.1035 3.76413C22.9461 3.99105 23.0025 4.30257 23.2294 4.45994L23.7993 3.6382ZM24.3163 5.29436C24.527 5.47286 24.8425 5.44676 25.021 5.23607C25.1995 5.02537 25.1734 4.70987 24.9627 4.53137L24.3163 5.29436ZM23.2294 4.45994C23.6011 4.71769 23.9639 4.99578 24.3163 5.29436L24.9627 4.53137C24.5857 4.21195 24.1974 3.91426 23.7993 3.6382L23.2294 4.45994Z" fill="#006389"/>
<path d="M25.8224 5.324C25.6237 5.13231 25.3071 5.13806 25.1154 5.33683C24.9237 5.5356 24.9295 5.85213 25.1283 6.04382L25.8224 5.324ZM26.0674 7.04159C26.2468 7.25154 26.5624 7.27633 26.7723 7.09695C26.9823 6.91758 27.0071 6.60197 26.8277 6.39202L26.0674 7.04159ZM25.1283 6.04382C25.4538 6.35778 25.7674 6.6904 26.0674 7.04159L26.8277 6.39202C26.5067 6.01633 26.1711 5.66027 25.8224 5.324L25.1283 6.04382Z" fill="#006389"/>
<path d="M29.9825 13.1364C29.9334 12.8647 29.6734 12.6841 29.4016 12.7332C29.1299 12.7823 28.9494 13.0424 28.9984 13.3141L29.9825 13.1364ZM29.1764 14.6727C29.1991 14.948 29.4405 15.1527 29.7157 15.13C29.9909 15.1074 30.1957 14.8659 30.173 14.5907L29.1764 14.6727ZM28.9984 13.3141C29.0788 13.7592 29.1385 14.2124 29.1764 14.6727L30.173 14.5907C30.1325 14.0982 30.0686 13.6131 29.9825 13.1364L28.9984 13.3141Z" fill="#006389"/>
<path d="M29.2941 10.3186C29.2028 10.058 28.9175 9.92077 28.6569 10.0121C28.3963 10.1035 28.2591 10.3888 28.3504 10.6494L29.2941 10.3186ZM28.7407 11.9629C28.8065 12.2311 29.0772 12.3951 29.3454 12.3293C29.6136 12.2635 29.7777 11.9927 29.7118 11.7245L28.7407 11.9629ZM28.3504 10.6494C28.5001 11.0762 28.6306 11.5143 28.7407 11.9629L29.7118 11.7245C29.5941 11.2446 29.4544 10.7757 29.2941 10.3186L28.3504 10.6494Z" fill="#006389"/>
<path d="M27.981 7.72879C27.8319 7.49639 27.5226 7.42892 27.2902 7.57808C27.0578 7.72724 26.9903 8.03655 27.1395 8.26894L27.981 7.72879ZM27.823 9.45654C27.949 9.70223 28.2504 9.79919 28.4961 9.67313C28.7418 9.54706 28.8387 9.24569 28.7127 9L27.823 9.45654ZM27.1395 8.26894C27.3838 8.64957 27.6121 9.04558 27.823 9.45654L28.7127 9C28.4871 8.56037 28.2427 8.13646 27.981 7.72879L27.1395 8.26894Z" fill="#006389"/>
<path d="M30.2211 15.9686C30.2258 15.6925 30.0059 15.4648 29.7298 15.46C29.4537 15.4553 29.226 15.6752 29.2212 15.9513L30.2211 15.9686ZM29.1313 17.3186C29.0999 17.5929 29.2969 17.8408 29.5713 17.8721C29.8456 17.9035 30.0934 17.7065 30.1248 17.4322L29.1313 17.3186ZM29.2212 15.9513C29.2134 16.4035 29.1837 16.8597 29.1313 17.3186L30.1248 17.4322C30.1809 16.9412 30.2127 16.453 30.2211 15.9686L29.2212 15.9513Z" fill="#006389"/>
<path d="M29.9137 18.8816C29.9692 18.6111 29.7948 18.3469 29.5243 18.2914C29.2538 18.236 28.9895 18.4104 28.9341 18.6809L29.9137 18.8816ZM28.5944 20.0083C28.5131 20.2722 28.6612 20.5521 28.9251 20.6333C29.1891 20.7146 29.4689 20.5665 29.5501 20.3026L28.5944 20.0083ZM28.9341 18.6809C28.8433 19.124 28.7303 19.5669 28.5944 20.0083L29.5501 20.3026C29.6955 19.8303 29.8165 19.3562 29.9137 18.8816L28.9341 18.6809Z" fill="#006389"/>
<path d="M29.1153 21.4557C29.2164 21.1988 29.0901 20.9085 28.8331 20.8074C28.5761 20.7063 28.2859 20.8326 28.1848 21.0896L29.1153 21.4557ZM27.6219 22.3389C27.4965 22.5849 27.5943 22.886 27.8403 23.0114C28.0863 23.1368 28.3874 23.039 28.5128 22.793L27.6219 22.3389ZM28.1848 21.0896C28.0191 21.5105 27.8317 21.9273 27.6219 22.3389L28.5128 22.793C28.7372 22.3528 28.9379 21.9065 29.1153 21.4557L28.1848 21.0896Z" fill="#006389"/>
<path d="M27.7303 24.0983C27.8834 23.8685 27.8212 23.558 27.5914 23.4049C27.3616 23.2519 27.0512 23.3141 26.8981 23.5439L27.7303 24.0983ZM26.0841 24.6462C25.9096 24.8602 25.9416 25.1751 26.1556 25.3496C26.3696 25.5242 26.6845 25.4922 26.8591 25.2782L26.0841 24.6462ZM26.8981 23.5439C26.6473 23.9203 26.3761 24.2882 26.0841 24.6462L26.8591 25.2782C27.1714 24.8952 27.4618 24.5014 27.7303 24.0983L26.8981 23.5439Z" fill="#006389"/>
<path d="M25.8498 26.3812C26.0446 26.1855 26.0439 25.8689 25.8482 25.6741C25.6525 25.4793 25.336 25.4799 25.1411 25.6756L25.8498 26.3812ZM24.1285 26.5987C23.9157 26.7747 23.8859 27.0899 24.0619 27.3027C24.2379 27.5155 24.5531 27.5453 24.7658 27.3693L24.1285 26.5987ZM25.1411 25.6756C24.822 25.9962 24.4844 26.3043 24.1285 26.5987L24.7658 27.3693C25.1466 27.0544 25.508 26.7245 25.8498 26.3812L25.1411 25.6756Z" fill="#006389"/>
<path d="M23.505 28.2666C23.7321 28.1095 23.7889 27.798 23.6317 27.5709C23.4746 27.3438 23.1632 27.2871 22.9361 27.4442L23.505 28.2666ZM21.7728 28.1683C21.5317 28.3028 21.4452 28.6074 21.5797 28.8485C21.7141 29.0897 22.0187 29.1762 22.2599 29.0417L21.7728 28.1683ZM22.9361 27.4442C22.5641 27.7015 22.1763 27.9434 21.7728 28.1683L22.2599 29.0417C22.6914 28.801 23.1066 28.5422 23.505 28.2666L22.9361 27.4442Z" fill="#006389"/>
<path d="M20.5586 29.7651C20.8151 29.6627 20.9401 29.3719 20.8378 29.1154C20.7355 28.8589 20.4447 28.7339 20.1882 28.8362L20.5586 29.7651ZM18.8924 29.2817C18.6272 29.3588 18.4748 29.6362 18.5519 29.9014C18.629 30.1666 18.9064 30.319 19.1716 30.2419L18.8924 29.2817ZM20.1882 28.8362C19.7681 29.0038 19.3359 29.1527 18.8924 29.2817L19.1716 30.2419C19.6461 30.1039 20.1087 29.9445 20.5586 29.7651L20.1882 28.8362Z" fill="#006389"/>
<path d="M17.3866 30.5588C17.6601 30.5205 17.8507 30.2678 17.8125 29.9943C17.7742 29.7208 17.5215 29.5302 17.248 29.5684L17.3866 30.5588ZM15.8834 29.6925C15.6075 29.7042 15.3934 29.9374 15.4051 30.2133C15.4168 30.4891 15.65 30.7033 15.9259 30.6915L15.8834 29.6925ZM17.248 29.5684C16.8001 29.6311 16.3449 29.6728 15.8834 29.6925L15.9259 30.6915C16.4196 30.6705 16.9068 30.6259 17.3866 30.5588L17.248 29.5684Z" fill="#006389"/>
<path d="M14.2541 30.6474C14.5297 30.6651 14.7675 30.456 14.7852 30.1805C14.8029 29.9049 14.5938 29.6671 14.3182 29.6494L14.2541 30.6474ZM12.9567 29.4955C12.6841 29.4513 12.4273 29.6365 12.3831 29.9091C12.339 30.1817 12.5241 30.4385 12.7967 30.4826L12.9567 29.4955ZM14.3182 29.6494C13.8669 29.6204 13.4126 29.5694 12.9567 29.4955L12.7967 30.4826C13.2845 30.5617 13.7707 30.6163 14.2541 30.6474L14.3182 29.6494Z" fill="#006389"/>
<path d="M10.6463 29.7968C10.9051 29.8932 11.193 29.7614 11.2893 29.5026C11.3857 29.2439 11.254 28.956 10.9952 28.8596L10.6463 29.7968ZM9.73563 28.3201C9.48733 28.1993 9.18809 28.3026 9.06727 28.5509C8.94645 28.7992 9.0498 29.0985 9.29811 29.2193L9.73563 28.3201ZM10.9952 28.8596C10.5713 28.7019 10.151 28.5222 9.73563 28.3201L9.29811 29.2193C9.74244 29.4355 10.1923 29.6278 10.6463 29.7968L10.9952 28.8596Z" fill="#006389"/>
<path d="M7.51382 28.2847C7.74916 28.4292 8.05705 28.3555 8.20151 28.1201C8.34597 27.8848 8.27229 27.5769 8.03695 27.4325L7.51382 28.2847ZM6.90522 26.66C6.68489 26.4935 6.37133 26.5372 6.20487 26.7575C6.0384 26.9778 6.08206 27.2914 6.30239 27.4579L6.90522 26.66ZM8.03695 27.4325C7.65148 27.1958 7.27376 26.9384 6.90522 26.66L6.30239 27.4579C6.69665 27.7557 7.10097 28.0313 7.51382 28.2847L8.03695 27.4325Z" fill="#006389"/>
<path d="M5.09165 26.3774C5.28939 26.5702 5.60595 26.5661 5.7987 26.3684C5.99146 26.1706 5.98741 25.8541 5.78967 25.6613L5.09165 26.3774ZM4.85591 24.6585C4.67767 24.4476 4.36219 24.4211 4.15128 24.5994C3.94037 24.7776 3.91389 25.0931 4.09213 25.304L4.85591 24.6585ZM5.78967 25.6613C5.4658 25.3456 5.15406 25.0113 4.85591 24.6585L4.09213 25.304C4.41108 25.6814 4.74477 26.0393 5.09165 26.3774L5.78967 25.6613Z" fill="#006389"/>
<path d="M3.08433 23.971C3.23648 24.2015 3.54664 24.265 3.77708 24.1128C4.00752 23.9606 4.07099 23.6505 3.91883 23.42L3.08433 23.971ZM3.22005 22.2414C3.09081 21.9974 2.78822 21.9043 2.54418 22.0335C2.30015 22.1628 2.20709 22.4654 2.33633 22.7094L3.22005 22.2414ZM3.91883 23.42C3.66962 23.0426 3.43623 22.6496 3.22005 22.2414L2.33633 22.7094C2.56759 23.1461 2.81741 23.5668 3.08433 23.971L3.91883 23.42Z" fill="#006389"/>
<path d="M1.78596 21.4273C1.89609 21.6806 2.19065 21.7966 2.44388 21.6864C2.69711 21.5763 2.81311 21.2817 2.70298 21.0285L1.78596 21.4273ZM2.21793 19.747C2.13271 19.4843 1.8507 19.3405 1.58803 19.4257C1.32537 19.5109 1.18152 19.7929 1.26674 20.0556L2.21793 19.747ZM2.70298 21.0285C2.52259 20.6137 2.36047 20.1863 2.21793 19.747L1.26674 20.0556C1.41923 20.5256 1.59275 20.9831 1.78596 21.4273L2.70298 21.0285Z" fill="#006389"/>
<path d="M0.906733 18.5855C0.964163 18.8556 1.22968 19.028 1.49979 18.9706C1.76989 18.9131 1.9423 18.6476 1.88487 18.3775L0.906733 18.5855ZM1.66508 17.025C1.63395 16.7506 1.38628 16.5535 1.1119 16.5846C0.837514 16.6157 0.640322 16.8634 0.671455 17.1378L1.66508 17.025ZM1.88487 18.3775C1.7908 17.9351 1.71716 17.484 1.66508 17.025L0.671455 17.1378C0.727165 17.6288 0.805985 18.1117 0.906733 18.5855L1.88487 18.3775Z" fill="#006389"/>
<path d="M0.612797 15.496C0.615439 15.7721 0.841429 15.9938 1.11756 15.9912C1.39369 15.9886 1.61539 15.7626 1.61275 15.4864L0.612797 15.496ZM1.66595 14.1172C1.68993 13.8421 1.48636 13.5997 1.21126 13.5757C0.936164 13.5517 0.693711 13.7553 0.66973 14.0304L1.66595 14.1172ZM1.61275 15.4864C1.60842 15.0342 1.62584 14.5774 1.66595 14.1172L0.66973 14.0304C0.626818 14.5227 0.608162 15.0116 0.612797 15.496L1.61275 15.4864Z" fill="#006389"/>
<path d="M1.03703 12.1143C0.98555 12.3856 1.16375 12.6473 1.43505 12.6988C1.70635 12.7503 1.96802 12.5721 2.0195 12.3008L1.03703 12.1143ZM2.3398 10.9685C2.41719 10.7034 2.26504 10.4258 1.99996 10.3484C1.73488 10.271 1.45726 10.4232 1.37987 10.6882L2.3398 10.9685ZM2.0195 12.3008C2.10382 11.8564 2.21035 11.4119 2.3398 10.9685L1.37987 10.6882C1.24139 11.1626 1.12735 11.6384 1.03703 12.1143L2.0195 12.3008Z" fill="#006389"/>
<path d="M2.16054 8.85983C2.03542 9.106 2.13355 9.40699 2.37972 9.53211C2.62589 9.65723 2.92688 9.55909 3.052 9.31292L2.16054 8.85983ZM3.73122 8.12289C3.87948 7.88992 3.81081 7.58087 3.57784 7.43261C3.34488 7.28435 3.03583 7.35302 2.88757 7.58599L3.73122 8.12289ZM3.052 9.31292C3.25693 8.90972 3.48322 8.51257 3.73122 8.12289L2.88757 7.58599C2.62227 8.00287 2.38003 8.42798 2.16054 8.85983L3.052 9.31292Z" fill="#006389"/>
<path d="M4.12216 5.82185C3.93843 6.02799 3.95659 6.34405 4.16274 6.52779C4.36888 6.71152 4.68495 6.69336 4.86868 6.48721L4.12216 5.82185ZM5.82881 5.50962C6.03155 5.32214 6.04393 5.0058 5.85645 4.80305C5.66897 4.60031 5.35263 4.58793 5.14989 4.77541L5.82881 5.50962ZM4.86868 6.48721C5.16962 6.14956 5.48967 5.82322 5.82881 5.50962L5.14989 4.77541C4.78709 5.11089 4.44448 5.46021 4.12216 5.82185L4.86868 6.48721Z" fill="#006389"/>
<line x1="15.7535" y1="9.4931" x2="15.7535" y2="22.1764" stroke="#006389" stroke-width="1.5" stroke-linecap="round"/>
<line x1="22.066" y1="16.0615" x2="9.3827" y2="16.0615" stroke="#006389" stroke-width="1.5" stroke-linecap="round"/>
</svg>
