<svg width="153" height="203" viewBox="0 0 153 203" fill="none" xmlns="http://www.w3.org/2000/svg">
<path d="M25.4065 122.103C26.3065 122.103 27.0565 122.073 27.6565 122.013V122.613C26.5365 122.873 25.7465 123.743 25.2865 125.223L19.6165 143.403H19.3765H19.1365L13.9165 127.953L9.14653 143.403H8.90653H8.66653L2.30653 124.533C1.88653 123.293 1.19653 122.653 0.236533 122.613V122.013C1.05653 122.073 2.12653 122.103 3.44653 122.103C4.88653 122.103 5.96653 122.073 6.68653 122.013V122.613C6.14653 122.653 5.76653 122.753 5.54653 122.913C5.32653 123.073 5.21653 123.323 5.21653 123.663C5.21653 123.983 5.32653 124.473 5.54653 125.133L9.92653 138.513L13.5865 126.903L12.7765 124.533C12.3765 123.293 11.7865 122.653 11.0065 122.613V122.013C11.7265 122.073 12.6965 122.103 13.9165 122.103C15.6365 122.103 16.9165 122.073 17.7565 122.013V122.613C16.9965 122.653 16.4665 122.743 16.1665 122.883C15.8665 123.003 15.7165 123.273 15.7165 123.693C15.7165 124.053 15.8165 124.533 16.0165 125.133L20.3365 138.483L24.0265 126.873C24.3465 125.893 24.5065 125.083 24.5065 124.443C24.5065 123.783 24.3065 123.323 23.9065 123.063C23.5065 122.783 22.8565 122.633 21.9565 122.613V122.013C23.0965 122.073 24.2465 122.103 25.4065 122.103ZM33.7447 127.383C35.7847 127.383 37.4247 128.063 38.6647 129.423C39.9247 130.763 40.5547 132.803 40.5547 135.543C40.5547 138.283 39.9247 140.323 38.6647 141.663C37.4247 143.003 35.7847 143.673 33.7447 143.673C31.7047 143.673 30.0547 143.003 28.7947 141.663C27.5547 140.323 26.9347 138.283 26.9347 135.543C26.9347 132.803 27.5547 130.763 28.7947 129.423C30.0547 128.063 31.7047 127.383 33.7447 127.383ZM33.7447 127.983C32.5447 127.983 31.5947 128.603 30.8947 129.843C30.1947 131.063 29.8447 132.963 29.8447 135.543C29.8447 138.123 30.1947 140.023 30.8947 141.243C31.5947 142.463 32.5447 143.073 33.7447 143.073C34.9447 143.073 35.8947 142.463 36.5947 141.243C37.2947 140.023 37.6447 138.123 37.6447 135.543C37.6447 132.963 37.2947 131.063 36.5947 129.843C35.8947 128.603 34.9447 127.983 33.7447 127.983ZM52.1602 127.383C52.9602 127.383 53.6102 127.613 54.1102 128.073C54.6302 128.533 54.8902 129.093 54.8902 129.753C54.8902 130.273 54.7302 130.723 54.4102 131.103C54.1102 131.463 53.7002 131.643 53.1802 131.643C52.7402 131.643 52.3602 131.503 52.0402 131.223C51.7402 130.943 51.5902 130.563 51.5902 130.083C51.5902 129.423 51.9302 128.883 52.6102 128.463C52.4702 128.263 52.2602 128.163 51.9802 128.163C51.2002 128.163 50.4902 128.473 49.8502 129.093C49.2102 129.693 48.7102 130.433 48.3502 131.313C47.9902 132.193 47.8102 133.023 47.8102 133.803V140.163C47.8102 141.083 48.0702 141.723 48.5902 142.083C49.1302 142.443 49.9302 142.623 50.9902 142.623V143.253L50.2702 143.223C48.2302 143.163 46.9302 143.133 46.3702 143.133C45.8502 143.133 44.6702 143.173 42.8302 143.253V142.623C43.6702 142.623 44.2602 142.473 44.6002 142.173C44.9402 141.853 45.1102 141.283 45.1102 140.463V131.073C45.1102 130.153 44.9402 129.483 44.6002 129.063C44.2602 128.643 43.6702 128.433 42.8302 128.433V127.803C43.4702 127.863 44.0902 127.893 44.6902 127.893C45.9502 127.893 46.9902 127.753 47.8102 127.473V131.223C48.1702 130.223 48.7402 129.333 49.5202 128.553C50.3202 127.773 51.2002 127.383 52.1602 127.383ZM60.3736 140.463C60.3736 141.283 60.5436 141.853 60.8836 142.173C61.2236 142.473 61.8136 142.623 62.6536 142.623V143.253C60.8136 143.173 59.6036 143.133 59.0236 143.133C58.4436 143.133 57.2336 143.173 55.3936 143.253V142.623C56.2336 142.623 56.8236 142.473 57.1636 142.173C57.5036 141.853 57.6736 141.283 57.6736 140.463V123.333C57.6736 122.413 57.5036 121.743 57.1636 121.323C56.8236 120.903 56.2336 120.693 55.3936 120.693V120.063C56.0136 120.123 56.6336 120.153 57.2536 120.153C58.5136 120.153 59.5536 120.013 60.3736 119.733V140.463ZM77.5447 139.983C77.5447 140.903 77.7147 141.573 78.0547 141.993C78.3947 142.413 78.9847 142.623 79.8247 142.623V143.253C79.2047 143.193 78.5847 143.163 77.9647 143.163C76.7047 143.163 75.6647 143.303 74.8447 143.583V140.913C74.4847 141.813 73.9447 142.503 73.2247 142.983C72.5047 143.443 71.6247 143.673 70.5847 143.673C68.6647 143.673 67.1547 142.983 66.0547 141.603C64.9747 140.223 64.4447 138.203 64.4647 135.543C64.4647 133.803 64.7647 132.323 65.3647 131.103C65.9847 129.863 66.8047 128.933 67.8247 128.313C68.8647 127.693 70.0047 127.383 71.2447 127.383C72.0047 127.383 72.6947 127.533 73.3147 127.833C73.9547 128.113 74.4647 128.553 74.8447 129.153V123.333C74.8447 122.413 74.6747 121.743 74.3347 121.323C73.9947 120.903 73.4047 120.693 72.5647 120.693V120.063C73.2047 120.123 73.8247 120.153 74.4247 120.153C75.6847 120.153 76.7247 120.013 77.5447 119.733V139.983ZM71.4547 142.773C72.2347 142.773 72.9347 142.473 73.5547 141.873C74.1747 141.273 74.6047 140.423 74.8447 139.323V130.383C74.3047 128.843 73.1847 128.073 71.4847 128.073C70.2447 128.073 69.2447 128.713 68.4847 129.993C67.7247 131.253 67.3547 133.103 67.3747 135.543C67.3547 137.943 67.6947 139.753 68.3947 140.973C69.0947 142.173 70.1147 142.773 71.4547 142.773ZM101.186 127.893C102.066 127.893 102.826 127.863 103.466 127.803V128.403C103.046 128.463 102.676 128.653 102.356 128.973C102.036 129.273 101.756 129.783 101.516 130.503L97.1663 143.403H96.6563L91.9163 131.343L87.6263 143.403H87.1163L82.1963 130.113C81.9163 129.413 81.6263 128.963 81.3263 128.763C81.0463 128.543 80.7563 128.433 80.4563 128.433V127.803C81.2363 127.923 82.1163 127.983 83.0963 127.983C84.0963 127.983 85.3963 127.923 86.9963 127.803V128.433C86.2563 128.433 85.7163 128.493 85.3763 128.613C85.0563 128.733 84.8963 129.043 84.8963 129.543C84.8963 129.903 84.9963 130.373 85.1963 130.953L88.1963 139.593L92.5163 127.683H93.2063L97.7963 139.803L100.616 131.223C100.796 130.683 100.886 130.233 100.886 129.873C100.886 129.393 100.716 129.043 100.376 128.823C100.036 128.603 99.4663 128.463 98.6663 128.403V127.803C99.7263 127.863 100.566 127.893 101.186 127.893ZM107.832 120.303C108.352 120.303 108.802 120.493 109.182 120.873C109.562 121.253 109.752 121.703 109.752 122.223C109.752 122.743 109.562 123.193 109.182 123.573C108.802 123.953 108.352 124.143 107.832 124.143C107.312 124.143 106.862 123.953 106.482 123.573C106.102 123.193 105.912 122.743 105.912 122.223C105.912 121.703 106.102 121.253 106.482 120.873C106.862 120.493 107.312 120.303 107.832 120.303ZM109.392 140.463C109.392 141.283 109.562 141.853 109.902 142.173C110.242 142.473 110.832 142.623 111.672 142.623V143.253C109.832 143.173 108.622 143.133 108.042 143.133C107.462 143.133 106.252 143.173 104.412 143.253V142.623C105.252 142.623 105.842 142.473 106.182 142.173C106.522 141.853 106.692 141.283 106.692 140.463V131.073C106.692 130.153 106.522 129.483 106.182 129.063C105.842 128.643 105.252 128.433 104.412 128.433V127.803C105.052 127.863 105.672 127.893 106.272 127.893C107.532 127.893 108.572 127.753 109.392 127.473V140.463ZM126.851 139.983C126.851 140.903 127.021 141.573 127.361 141.993C127.701 142.413 128.291 142.623 129.131 142.623V143.253C128.511 143.193 127.891 143.163 127.271 143.163C126.011 143.163 124.971 143.303 124.151 143.583V140.913C123.791 141.813 123.251 142.503 122.531 142.983C121.811 143.443 120.931 143.673 119.891 143.673C117.971 143.673 116.461 142.983 115.361 141.603C114.281 140.223 113.751 138.203 113.771 135.543C113.771 133.803 114.071 132.323 114.671 131.103C115.291 129.863 116.111 128.933 117.131 128.313C118.171 127.693 119.311 127.383 120.551 127.383C121.311 127.383 122.001 127.533 122.621 127.833C123.261 128.113 123.771 128.553 124.151 129.153V123.333C124.151 122.413 123.981 121.743 123.641 121.323C123.301 120.903 122.711 120.693 121.871 120.693V120.063C122.511 120.123 123.131 120.153 123.731 120.153C124.991 120.153 126.031 120.013 126.851 119.733V139.983ZM120.761 142.773C121.541 142.773 122.241 142.473 122.861 141.873C123.481 141.273 123.911 140.423 124.151 139.323V130.383C123.611 128.843 122.491 128.073 120.791 128.073C119.551 128.073 118.551 128.713 117.791 129.993C117.031 131.253 116.661 133.103 116.681 135.543C116.661 137.943 117.001 139.753 117.701 140.973C118.401 142.173 119.421 142.773 120.761 142.773ZM143.653 139.653C143.293 140.753 142.613 141.703 141.613 142.503C140.633 143.283 139.443 143.673 138.043 143.673C136.623 143.673 135.393 143.353 134.353 142.713C133.313 142.053 132.513 141.143 131.953 139.983C131.413 138.803 131.143 137.443 131.143 135.903C131.143 134.163 131.423 132.653 131.983 131.373C132.543 130.093 133.333 129.113 134.353 128.433C135.373 127.733 136.563 127.383 137.923 127.383C139.723 127.383 141.103 127.933 142.063 129.033C143.043 130.113 143.533 131.763 143.533 133.983H134.143C134.083 134.543 134.053 135.183 134.053 135.903C134.053 137.223 134.263 138.373 134.683 139.353C135.123 140.333 135.693 141.093 136.393 141.633C137.113 142.153 137.863 142.413 138.643 142.413C139.603 142.413 140.453 142.183 141.193 141.723C141.933 141.263 142.553 140.493 143.053 139.413L143.653 139.653ZM137.803 127.953C136.863 127.953 136.053 128.413 135.373 129.333C134.693 130.253 134.273 131.613 134.113 133.413H140.653C140.693 131.853 140.463 130.553 139.963 129.513C139.483 128.473 138.763 127.953 137.803 127.953ZM16.8086 167.383C17.5286 167.383 18.1686 167.493 18.7286 167.713C19.2886 167.933 19.7386 168.193 20.0786 168.493C20.2986 168.653 20.4786 168.733 20.6186 168.733C20.9786 168.733 21.1986 168.293 21.2786 167.413H21.9686C21.8886 168.393 21.8486 170.093 21.8486 172.513H21.1586C20.9386 171.193 20.5086 170.103 19.8686 169.243C19.2486 168.383 18.3186 167.953 17.0786 167.953C16.3586 167.953 15.7686 168.163 15.3086 168.583C14.8486 168.983 14.6186 169.543 14.6186 170.263C14.6186 170.963 14.8586 171.553 15.3386 172.033C15.8186 172.493 16.5886 173.053 17.6486 173.713C17.8286 173.813 18.0986 173.983 18.4586 174.223C19.3786 174.823 20.1186 175.353 20.6786 175.813C21.2386 176.273 21.6886 176.803 22.0286 177.403C22.3886 178.003 22.5686 178.693 22.5686 179.473C22.5686 180.793 22.0686 181.823 21.0686 182.563C20.0886 183.303 18.8786 183.673 17.4386 183.673C16.5386 183.673 15.7486 183.533 15.0686 183.253C14.6286 183.033 14.2186 182.763 13.8386 182.443C13.7586 182.363 13.6686 182.323 13.5686 182.323C13.4286 182.323 13.2986 182.423 13.1786 182.623C13.0786 182.823 12.9986 183.103 12.9386 183.463H12.2486C12.3286 182.323 12.3686 180.323 12.3686 177.463H13.0586C13.2786 179.343 13.6786 180.753 14.2586 181.693C14.8386 182.613 15.8286 183.073 17.2286 183.073C17.9286 183.073 18.5486 182.843 19.0886 182.383C19.6286 181.923 19.8986 181.203 19.8986 180.223C19.8986 179.443 19.6286 178.783 19.0886 178.243C18.5686 177.703 17.7086 177.053 16.5086 176.293C15.5286 175.673 14.7686 175.163 14.2286 174.763C13.7086 174.363 13.2686 173.873 12.9086 173.293C12.5486 172.713 12.3686 172.033 12.3686 171.253C12.3686 169.993 12.7886 169.033 13.6286 168.373C14.4686 167.713 15.5286 167.383 16.8086 167.383ZM29.5666 170.983C30.0666 169.723 30.7566 168.813 31.6366 168.253C32.5366 167.673 33.5466 167.383 34.6666 167.383C36.0666 167.383 37.1266 167.763 37.8466 168.523C38.2266 168.923 38.4966 169.423 38.6566 170.023C38.8166 170.623 38.8966 171.433 38.8966 172.453V180.463C38.8966 181.283 39.0666 181.853 39.4066 182.173C39.7466 182.473 40.3366 182.623 41.1766 182.623V183.253C39.3366 183.173 38.1366 183.133 37.5766 183.133C37.0166 183.133 35.8966 183.173 34.2166 183.253V182.623C34.9566 182.623 35.4666 182.473 35.7466 182.173C36.0466 181.853 36.1966 181.283 36.1966 180.463V171.793C36.1966 170.673 36.0366 169.823 35.7166 169.243C35.3966 168.643 34.7466 168.343 33.7666 168.343C32.9466 168.343 32.2166 168.573 31.5766 169.033C30.9566 169.493 30.4666 170.143 30.1066 170.983C29.7466 171.803 29.5666 172.733 29.5666 173.773V180.463C29.5666 181.283 29.7066 181.853 29.9866 182.173C30.2866 182.473 30.8066 182.623 31.5466 182.623V183.253C29.8666 183.173 28.7466 183.133 28.1866 183.133C27.6266 183.133 26.4266 183.173 24.5866 183.253V182.623C25.4266 182.623 26.0166 182.473 26.3566 182.173C26.6966 181.853 26.8666 181.283 26.8666 180.463V163.363C26.8666 162.443 26.6966 161.773 26.3566 161.353C26.0166 160.933 25.4266 160.723 24.5866 160.723V160.093C25.2266 160.153 25.8466 160.183 26.4466 160.183C27.7066 160.183 28.7466 160.043 29.5666 159.763V170.983ZM45.9133 160.303C46.4333 160.303 46.8833 160.493 47.2633 160.873C47.6433 161.253 47.8333 161.703 47.8333 162.223C47.8333 162.743 47.6433 163.193 47.2633 163.573C46.8833 163.953 46.4333 164.143 45.9133 164.143C45.3933 164.143 44.9433 163.953 44.5633 163.573C44.1833 163.193 43.9933 162.743 43.9933 162.223C43.9933 161.703 44.1833 161.253 44.5633 160.873C44.9433 160.493 45.3933 160.303 45.9133 160.303ZM47.4733 180.463C47.4733 181.283 47.6433 181.853 47.9833 182.173C48.3233 182.473 48.9133 182.623 49.7533 182.623V183.253C47.9133 183.173 46.7033 183.133 46.1233 183.133C45.5433 183.133 44.3333 183.173 42.4933 183.253V182.623C43.3333 182.623 43.9233 182.473 44.2633 182.173C44.6033 181.853 44.7733 181.283 44.7733 180.463V171.073C44.7733 170.153 44.6033 169.483 44.2633 169.063C43.9233 168.643 43.3333 168.433 42.4933 168.433V167.803C43.1333 167.863 43.7533 167.893 44.3533 167.893C45.6133 167.893 46.6533 167.753 47.4733 167.473V180.463ZM60.8524 167.383C61.9124 167.383 62.8624 167.673 63.7024 168.253C64.5624 168.833 65.2324 169.683 65.7124 170.803C66.1924 171.923 66.4324 173.263 66.4324 174.823C66.4324 176.363 66.1824 177.803 65.6824 179.143C65.2024 180.483 64.4424 181.573 63.4024 182.413C62.3824 183.253 61.1024 183.673 59.5624 183.673C58.8024 183.673 58.1124 183.523 57.4924 183.223C56.8724 182.923 56.3924 182.533 56.0524 182.053V185.893C56.0524 186.713 56.2924 187.273 56.7724 187.573C57.2524 187.893 57.9724 188.053 58.9324 188.053V188.683L58.2424 188.653C56.3824 188.593 55.1724 188.563 54.6124 188.563C54.1324 188.563 53.0524 188.603 51.3724 188.683V188.053C52.1124 188.053 52.6224 187.913 52.9024 187.633C53.2024 187.373 53.3524 186.893 53.3524 186.193V171.073C53.3524 170.153 53.1824 169.483 52.8424 169.063C52.5024 168.643 51.9124 168.433 51.0724 168.433V167.803C51.6924 167.863 52.3124 167.893 52.9324 167.893C54.1924 167.893 55.2324 167.753 56.0524 167.473V170.653C56.4924 169.613 57.1324 168.813 57.9724 168.253C58.8124 167.673 59.7724 167.383 60.8524 167.383ZM59.2324 182.983C62.0924 182.983 63.5224 180.403 63.5224 175.243C63.5224 170.603 62.3624 168.283 60.0424 168.283C59.1424 168.283 58.3324 168.613 57.6124 169.273C56.8924 169.913 56.3724 170.843 56.0524 172.063V181.063C56.3324 181.643 56.7424 182.113 57.2824 182.473C57.8224 182.813 58.4724 182.983 59.2324 182.983ZM78.284 167.383C79.344 167.383 80.294 167.673 81.134 168.253C81.994 168.833 82.664 169.683 83.144 170.803C83.624 171.923 83.864 173.263 83.864 174.823C83.864 176.363 83.614 177.803 83.114 179.143C82.634 180.483 81.874 181.573 80.834 182.413C79.814 183.253 78.534 183.673 76.994 183.673C76.234 183.673 75.544 183.523 74.924 183.223C74.304 182.923 73.824 182.533 73.484 182.053V185.893C73.484 186.713 73.724 187.273 74.204 187.573C74.684 187.893 75.404 188.053 76.364 188.053V188.683L75.674 188.653C73.814 188.593 72.604 188.563 72.044 188.563C71.564 188.563 70.484 188.603 68.804 188.683V188.053C69.544 188.053 70.054 187.913 70.334 187.633C70.634 187.373 70.784 186.893 70.784 186.193V171.073C70.784 170.153 70.614 169.483 70.274 169.063C69.934 168.643 69.344 168.433 68.504 168.433V167.803C69.124 167.863 69.744 167.893 70.364 167.893C71.624 167.893 72.664 167.753 73.484 167.473V170.653C73.924 169.613 74.564 168.813 75.404 168.253C76.244 167.673 77.204 167.383 78.284 167.383ZM76.664 182.983C79.524 182.983 80.954 180.403 80.954 175.243C80.954 170.603 79.794 168.283 77.474 168.283C76.574 168.283 75.764 168.613 75.044 169.273C74.324 169.913 73.804 170.843 73.484 172.063V181.063C73.764 181.643 74.174 182.113 74.714 182.473C75.254 182.813 75.904 182.983 76.664 182.983ZM89.5656 160.303C90.0856 160.303 90.5356 160.493 90.9156 160.873C91.2956 161.253 91.4856 161.703 91.4856 162.223C91.4856 162.743 91.2956 163.193 90.9156 163.573C90.5356 163.953 90.0856 164.143 89.5656 164.143C89.0456 164.143 88.5956 163.953 88.2156 163.573C87.8356 163.193 87.6456 162.743 87.6456 162.223C87.6456 161.703 87.8356 161.253 88.2156 160.873C88.5956 160.493 89.0456 160.303 89.5656 160.303ZM91.1256 180.463C91.1256 181.283 91.2956 181.853 91.6356 182.173C91.9756 182.473 92.5656 182.623 93.4056 182.623V183.253C91.5656 183.173 90.3556 183.133 89.7756 183.133C89.1956 183.133 87.9856 183.173 86.1456 183.253V182.623C86.9856 182.623 87.5756 182.473 87.9156 182.173C88.2556 181.853 88.4256 181.283 88.4256 180.463V171.073C88.4256 170.153 88.2556 169.483 87.9156 169.063C87.5756 168.643 86.9856 168.433 86.1456 168.433V167.803C86.7856 167.863 87.4056 167.893 88.0056 167.893C89.2656 167.893 90.3056 167.753 91.1256 167.473V180.463ZM105.015 167.383C106.415 167.383 107.475 167.763 108.195 168.523C108.575 168.923 108.845 169.423 109.005 170.023C109.165 170.623 109.245 171.433 109.245 172.453V180.463C109.245 181.283 109.415 181.853 109.755 182.173C110.095 182.473 110.685 182.623 111.525 182.623V183.253C109.685 183.173 108.485 183.133 107.925 183.133C107.365 183.133 106.245 183.173 104.565 183.253V182.623C105.305 182.623 105.815 182.473 106.095 182.173C106.395 181.853 106.545 181.283 106.545 180.463V171.793C106.545 170.673 106.385 169.823 106.065 169.243C105.745 168.643 105.095 168.343 104.115 168.343C103.295 168.343 102.565 168.583 101.925 169.063C101.285 169.543 100.785 170.203 100.425 171.043C100.085 171.863 99.9147 172.783 99.9147 173.803V180.463C99.9147 181.283 100.055 181.853 100.335 182.173C100.635 182.473 101.155 182.623 101.895 182.623V183.253C100.215 183.173 99.0947 183.133 98.5347 183.133C97.9747 183.133 96.7747 183.173 94.9347 183.253V182.623C95.7747 182.623 96.3647 182.473 96.7047 182.173C97.0447 181.853 97.2147 181.283 97.2147 180.463V171.073C97.2147 170.153 97.0447 169.483 96.7047 169.063C96.3647 168.643 95.7747 168.433 94.9347 168.433V167.803C95.5747 167.863 96.1947 167.893 96.7947 167.893C98.0547 167.893 99.0947 167.753 99.9147 167.473V171.013C100.415 169.733 101.105 168.813 101.985 168.253C102.885 167.673 103.895 167.383 105.015 167.383ZM125.802 170.503C125.442 170.503 125.132 170.383 124.872 170.143C124.632 169.903 124.512 169.553 124.512 169.093C124.512 168.693 124.612 168.233 124.812 167.713C124.292 167.933 123.882 168.183 123.582 168.463C123.282 168.723 123.012 169.053 122.772 169.453C123.232 170.153 123.462 171.043 123.462 172.123C123.462 173.703 122.982 174.893 122.022 175.693C121.062 176.473 119.792 176.863 118.212 176.863H118.182C117.522 177.243 117.022 177.593 116.682 177.913C116.342 178.233 116.172 178.593 116.172 178.993C116.172 179.633 116.652 179.953 117.612 179.953H121.362C122.722 179.953 123.842 180.253 124.722 180.853C125.622 181.433 126.072 182.313 126.072 183.493C126.072 184.453 125.762 185.343 125.142 186.163C124.522 186.983 123.612 187.643 122.412 188.143C121.212 188.643 119.762 188.893 118.062 188.893C116.322 188.893 114.862 188.623 113.682 188.083C112.522 187.563 111.942 186.783 111.942 185.743C111.942 185.063 112.212 184.473 112.752 183.973C113.312 183.473 114.082 183.083 115.062 182.803L115.242 183.283C114.802 183.423 114.452 183.703 114.192 184.123C113.932 184.543 113.802 185.013 113.802 185.533C113.802 186.453 114.212 187.153 115.032 187.633C115.872 188.133 116.992 188.383 118.392 188.383C119.932 188.383 121.252 188.083 122.352 187.483C123.452 186.903 124.002 185.993 124.002 184.753C124.002 184.033 123.742 183.473 123.222 183.073C122.722 182.673 121.822 182.473 120.522 182.473H118.302C117.122 182.473 116.172 182.323 115.452 182.023C114.752 181.723 114.402 181.123 114.402 180.223C114.402 179.603 114.622 179.013 115.062 178.453C115.522 177.893 116.272 177.343 117.312 176.803C115.992 176.663 114.932 176.203 114.132 175.423C113.352 174.643 112.962 173.543 112.962 172.123C112.962 170.543 113.442 169.363 114.402 168.583C115.362 167.783 116.632 167.383 118.212 167.383C120.092 167.383 121.482 167.903 122.382 168.943C122.762 168.403 123.242 167.963 123.822 167.623C124.402 167.263 124.982 167.083 125.562 167.083C126.082 167.083 126.502 167.233 126.822 167.533C127.142 167.833 127.302 168.263 127.302 168.823C127.302 169.383 127.142 169.803 126.822 170.083C126.522 170.363 126.182 170.503 125.802 170.503ZM118.212 176.323C119.012 176.323 119.612 176.013 120.012 175.393C120.432 174.753 120.642 173.663 120.642 172.123C120.642 170.583 120.432 169.503 120.012 168.883C119.612 168.243 119.012 167.923 118.212 167.923C117.412 167.923 116.802 168.243 116.382 168.883C115.982 169.503 115.782 170.583 115.782 172.123C115.782 173.663 115.982 174.753 116.382 175.393C116.802 176.013 117.412 176.323 118.212 176.323ZM139.552 169.093C140.192 169.473 140.512 169.903 140.512 170.383C140.512 170.563 140.462 170.733 140.362 170.893C140.182 171.213 139.902 171.373 139.522 171.373C139.222 171.373 138.862 171.253 138.442 171.013C138.142 170.833 137.812 170.583 137.452 170.263C137.092 169.943 136.722 169.583 136.342 169.183L134.992 167.863C135.112 168.383 135.262 168.943 135.442 169.543C135.822 170.923 136.022 171.883 136.042 172.423C136.022 172.983 135.902 173.393 135.682 173.653C135.462 173.913 135.192 174.043 134.872 174.043C134.572 174.043 134.322 173.913 134.122 173.653C133.922 173.393 133.822 172.983 133.822 172.423C133.822 172.083 133.872 171.663 133.972 171.163C134.092 170.663 134.232 170.123 134.392 169.543C134.532 169.103 134.682 168.543 134.842 167.863C134.842 167.863 134.442 168.263 133.642 169.063C133.222 169.483 132.812 169.873 132.412 170.233C132.032 170.593 131.692 170.863 131.392 171.043C131.012 171.263 130.662 171.373 130.342 171.373C129.902 171.373 129.592 171.203 129.412 170.863C129.332 170.723 129.292 170.573 129.292 170.413C129.292 169.973 129.622 169.543 130.282 169.123C130.582 168.943 130.932 168.793 131.332 168.673C131.732 168.533 132.282 168.373 132.982 168.193C133.602 168.053 134.182 167.903 134.722 167.743C133.822 167.483 133.232 167.323 132.952 167.263C132.412 167.103 131.902 166.953 131.422 166.813C130.942 166.653 130.552 166.493 130.252 166.333C129.612 165.953 129.292 165.523 129.292 165.043C129.292 164.863 129.342 164.693 129.442 164.533C129.622 164.213 129.902 164.053 130.282 164.053C130.582 164.053 130.942 164.173 131.362 164.413C131.662 164.593 132.002 164.853 132.382 165.193C132.762 165.533 133.152 165.913 133.552 166.333C133.912 166.713 134.332 167.133 134.812 167.593L134.362 165.913C134.162 165.193 134.012 164.623 133.912 164.203C133.832 163.763 133.792 163.363 133.792 163.003C133.792 162.443 133.902 162.033 134.122 161.773C134.342 161.513 134.602 161.383 134.902 161.383C135.202 161.383 135.452 161.513 135.652 161.773C135.872 162.033 135.982 162.443 135.982 163.003C135.982 163.343 135.922 163.763 135.802 164.263C135.702 164.763 135.572 165.303 135.412 165.883C135.272 166.323 135.122 166.883 134.962 167.563C134.962 167.563 135.362 167.163 136.162 166.363C136.582 165.943 136.982 165.553 137.362 165.193C137.762 164.833 138.112 164.563 138.412 164.383C138.792 164.163 139.142 164.053 139.462 164.053C139.922 164.053 140.232 164.223 140.392 164.563C140.472 164.703 140.512 164.853 140.512 165.013C140.512 165.493 140.182 165.923 139.522 166.303C139.222 166.483 138.872 166.643 138.472 166.783C138.072 166.903 137.522 167.053 136.822 167.233C136.202 167.373 135.622 167.523 135.082 167.683C136.002 167.943 136.592 168.103 136.852 168.163C137.392 168.323 137.902 168.483 138.382 168.643C138.862 168.783 139.252 168.933 139.552 169.093Z" fill="white"/>
<path d="M37.0356 10.5625C36.5941 10.8943 36.5052 11.5212 36.837 11.9627C37.1688 12.4042 37.7957 12.4932 38.2372 12.1613L37.0356 10.5625ZM43.2106 8.8523C43.6872 8.57329 43.8474 7.96073 43.5684 7.4841C43.2894 7.00748 42.6769 6.84728 42.2002 7.12629L43.2106 8.8523ZM38.2372 12.1613C39.8267 10.9668 41.487 9.86129 43.2106 8.8523L42.2002 7.12629C40.4102 8.17415 38.6861 9.32214 37.0356 10.5625L38.2372 12.1613Z" fill="#006389"/>
<path d="M46.4531 4.99799C45.953 5.23232 45.7376 5.8277 45.9719 6.32781C46.2062 6.82791 46.8016 7.04337 47.3017 6.80903L46.4531 4.99799ZM53.0201 4.53459C53.5446 4.36144 53.8293 3.79594 53.6562 3.2715C53.4831 2.74705 52.9176 2.46227 52.3931 2.63541L53.0201 4.53459ZM47.3017 6.80903C49.151 5.94253 51.0597 5.18179 53.0201 4.53459L52.3931 2.63541C50.3567 3.30773 48.374 4.09796 46.4531 4.99799L47.3017 6.80903Z" fill="#006389"/>
<path d="M57.1237 1.25618C56.5785 1.34473 56.2078 1.8584 56.2958 2.40349C56.3839 2.94859 56.8972 3.3187 57.4425 3.23015L57.1237 1.25618ZM63.2682 2.61923C63.8199 2.59265 64.246 2.12395 64.22 1.57234C64.194 1.02074 63.7256 0.595123 63.1739 0.621699L63.2682 2.61923ZM57.4425 3.23015C59.3544 2.91967 61.2985 2.71411 63.2682 2.61923L63.1739 0.621699C61.1287 0.720217 59.1096 0.933684 57.1237 1.25618L57.4425 3.23015Z" fill="#006389"/>
<path d="M67.9801 0.295353C67.4283 0.317884 67 0.783528 67.0234 1.3354C67.0467 1.88727 67.5129 2.31638 68.0647 2.29385L67.9801 0.295353ZM73.1385 2.33085C73.69 2.36127 74.161 1.93885 74.1906 1.38736C74.2202 0.835869 73.7971 0.364138 73.2457 0.33372L73.1385 2.33085ZM68.0647 2.29385C69.7382 2.22551 71.4308 2.23665 73.1385 2.33085L73.2457 0.33372C71.474 0.235992 69.7174 0.224408 67.9801 0.295353L68.0647 2.29385Z" fill="#006389"/>
<path d="M79.2085 1.18459C78.6651 1.08531 78.1433 1.44502 78.0431 1.98802C77.9428 2.53102 78.302 3.05169 78.8454 3.15096L79.2085 1.18459ZM83.7852 4.30091C84.3165 4.45166 84.8702 4.14339 85.022 3.61237C85.1738 3.08135 84.8661 2.52867 84.3348 2.37793L83.7852 4.30091ZM78.8454 3.15096C80.4926 3.4519 82.1407 3.83434 83.7852 4.30091L84.3348 2.37793C82.6288 1.8939 80.9185 1.49699 79.2085 1.18459L78.8454 3.15096Z" fill="#006389"/>
<path d="M89.2063 4.10643C88.6926 3.90355 88.1114 4.15535 87.9082 4.66884C87.7049 5.18233 87.9566 5.76306 88.4703 5.96594L89.2063 4.10643ZM93.0913 8.05404C93.583 8.30536 94.1858 8.11058 94.4374 7.61898C94.6891 7.12738 94.4945 6.52513 94.0027 6.27381L93.0913 8.05404ZM88.4703 5.96594C90.0274 6.58085 91.5694 7.27632 93.0913 8.05404L94.0027 6.27381C92.4236 5.46682 90.823 4.7449 89.2063 4.10643L88.4703 5.96594Z" fill="#006389"/>
<path d="M99.5695 9.67385C99.1155 9.3593 98.4921 9.47205 98.1772 9.92569C97.8623 10.3793 97.975 11.0021 98.4291 11.3166L99.5695 9.67385ZM102.454 14.4035C102.875 14.7603 103.507 14.7081 103.864 14.2869C104.221 13.8657 104.169 13.235 103.747 12.8782L102.454 14.4035ZM98.4291 11.3166C99.8055 12.2703 101.149 13.2991 102.454 14.4035L103.747 12.8782C102.393 11.7321 100.999 10.6641 99.5695 9.67385L98.4291 11.3166Z" fill="#006389"/>
<path d="M106.838 15.7281C106.44 15.3449 105.807 15.3563 105.423 15.7537C105.04 16.151 105.051 16.7838 105.449 17.167L106.838 15.7281ZM108.927 20.8582C109.286 21.2779 109.917 21.3275 110.337 20.9689C110.757 20.6104 110.807 19.9795 110.448 19.5597L108.927 20.8582ZM105.449 17.167C106.655 18.3286 107.816 19.5591 108.927 20.8582L110.448 19.5597C109.295 18.2117 108.09 16.9343 106.838 15.7281L105.449 17.167Z" fill="#006389"/>
<path d="M121.757 43.7245C121.658 43.181 121.138 42.82 120.595 42.9182C120.051 43.0163 119.69 43.5365 119.789 44.0799L121.757 43.7245ZM120.448 49.106C120.493 49.6564 120.976 50.0659 121.526 50.0206C122.077 49.9753 122.486 49.4924 122.441 48.942L120.448 49.106ZM119.789 44.0799C120.086 45.7267 120.307 47.4032 120.448 49.106L122.441 48.942C122.295 47.175 122.066 45.4346 121.757 43.7245L119.789 44.0799Z" fill="#006389"/>
<path d="M119.287 33.5967C119.104 33.0755 118.533 32.8011 118.012 32.9838C117.491 33.1664 117.217 33.7369 117.399 34.2581L119.287 33.5967ZM118.844 39.1172C118.976 39.6535 119.518 39.9817 120.054 39.8501C120.591 39.7186 120.919 39.1772 120.787 38.6409L118.844 39.1172ZM117.399 34.2581C117.954 35.8373 118.437 37.4579 118.844 39.1172L120.787 38.6409C120.364 36.919 119.862 35.2366 119.287 33.5967L117.399 34.2581Z" fill="#006389"/>
<path d="M114.586 24.3343C114.287 23.8696 113.668 23.7346 113.203 24.0328C112.739 24.3309 112.604 24.9493 112.902 25.414L114.586 24.3343ZM115.433 29.8074C115.685 30.2987 116.288 30.4927 116.78 30.2407C117.271 29.9888 117.465 29.3863 117.213 28.895L115.433 29.8074ZM112.902 25.414C113.807 26.8223 114.652 28.2873 115.433 29.8074L117.213 28.895C116.403 27.3176 115.525 25.7967 114.586 24.3343L112.902 25.414Z" fill="#006389"/>
<path d="M122.608 53.8727C122.618 53.3205 122.178 52.8652 121.626 52.8557C121.073 52.8463 120.618 53.2863 120.608 53.8385L122.608 53.8727ZM120.275 58.8965C120.213 59.4452 120.607 59.9408 121.155 60.0035C121.704 60.0661 122.2 59.6721 122.263 59.1234L120.275 58.8965ZM120.608 53.8385C120.58 55.5116 120.47 57.199 120.275 58.8965L122.263 59.1234C122.464 57.3619 122.578 55.6102 122.608 53.8727L120.608 53.8385Z" fill="#006389"/>
<path d="M121.507 64.3353C121.618 63.7943 121.269 63.266 120.728 63.1553C120.187 63.0446 119.658 63.3935 119.547 63.9345L121.507 64.3353ZM118.289 68.8452C118.127 69.373 118.423 69.9325 118.951 70.0948C119.478 70.2572 120.038 69.9609 120.201 69.4331L118.289 68.8452ZM119.547 63.9345C119.211 65.5738 118.792 67.2123 118.289 68.8452L120.201 69.4331C120.723 67.7386 121.157 66.0377 121.507 64.3353L119.547 63.9345Z" fill="#006389"/>
<path d="M118.638 73.5703C118.84 73.0565 118.587 72.4762 118.073 72.2742C117.559 72.0722 116.979 72.3249 116.776 72.8387L118.638 73.5703ZM114.692 77.4604C114.441 77.9523 114.637 78.5543 115.129 78.8049C115.621 79.0556 116.223 78.8599 116.474 78.368L114.692 77.4604ZM116.776 72.8387C116.163 74.396 115.469 75.9382 114.692 77.4604L116.474 78.368C117.28 76.7883 118.001 75.1874 118.638 73.5703L116.776 72.8387Z" fill="#006389"/>
<path d="M113.674 83.0347C113.98 82.5752 113.856 81.9547 113.396 81.6487C112.936 81.3427 112.315 81.4671 112.009 81.9266L113.674 83.0347ZM108.995 86.0044C108.645 86.4323 108.709 87.0619 109.138 87.4107C109.566 87.7596 110.196 87.6956 110.545 87.2678L108.995 86.0044ZM112.009 81.9266C111.08 83.3193 110.076 84.6804 108.995 86.0044L110.545 87.2678C111.667 85.8938 112.71 84.4809 113.674 83.0347L112.009 81.9266Z" fill="#006389"/>
<path d="M106.922 91.2258C107.312 90.8346 107.31 90.2017 106.919 89.8122C106.527 89.4227 105.893 89.424 105.504 89.8151L106.922 91.2258ZM101.754 93.2301C101.328 93.5819 101.269 94.2119 101.621 94.6374C101.973 95.0628 102.604 95.1224 103.029 94.7706L101.754 93.2301ZM105.504 89.8151C104.322 91.001 103.072 92.1411 101.754 93.2301L103.029 94.7706C104.397 93.6406 105.694 92.4572 106.922 91.2258L105.504 89.8151Z" fill="#006389"/>
<path d="M98.4905 97.9837C98.9448 97.6698 99.0583 97.0471 98.744 96.5929C98.4296 96.1388 97.8065 96.0251 97.3522 96.339L98.4905 97.9837ZM93.0468 99.0162C92.5643 99.285 92.3914 99.8938 92.6606 100.376C92.9298 100.858 93.5391 101.031 94.0215 100.763L93.0468 99.0162ZM97.3522 96.339C95.9752 97.2904 94.5397 98.1845 93.0468 99.0162L94.0215 100.763C95.5706 99.8996 97.0608 98.9715 98.4905 97.9837L97.3522 96.339Z" fill="#006389"/>
<path d="M87.9153 103.365C88.4284 103.161 88.6788 102.58 88.4744 102.067C88.27 101.553 87.6884 101.303 87.1752 101.507L87.9153 103.365ZM82.3783 103.153C81.8479 103.307 81.5431 103.862 81.6975 104.392C81.8518 104.922 82.4069 105.227 82.9373 105.073L82.3783 103.153ZM87.1752 101.507C85.6196 102.126 84.0198 102.676 82.3783 103.153L82.9373 105.073C84.6402 104.578 86.3004 104.007 87.9153 103.365L87.1752 101.507Z" fill="#006389"/>
<path d="M76.5556 106.2C77.1026 106.123 77.4842 105.618 77.408 105.071C77.3318 104.524 76.8265 104.143 76.2795 104.219L76.5556 106.2ZM71.2258 104.676C70.674 104.7 70.2458 105.166 70.2693 105.718C70.2928 106.27 70.7591 106.698 71.3109 106.674L71.2258 104.676ZM76.2795 104.219C74.6204 104.45 72.9347 104.604 71.2258 104.676L71.3109 106.674C73.0837 106.599 74.8332 106.439 76.5556 106.2L76.2795 104.219Z" fill="#006389"/>
<path d="M65.3014 106.513C65.8525 106.548 66.3283 106.13 66.3641 105.579C66.4 105.028 65.9822 104.553 65.4311 104.517L65.3014 106.513ZM60.3895 103.946C59.8443 103.858 59.3306 104.228 59.2422 104.774C59.1537 105.319 59.524 105.832 60.0692 105.921L60.3895 103.946ZM65.4311 104.517C63.7596 104.409 62.0776 104.22 60.3895 103.946L60.0692 105.921C61.8206 106.204 63.5661 106.4 65.3014 106.513L65.4311 104.517Z" fill="#006389"/>
<path d="M52.3875 103.473C52.9052 103.665 53.4812 103.402 53.6742 102.885C53.8671 102.367 53.6039 101.792 53.0862 101.599L52.3875 103.473ZM48.4243 99.6033C47.9276 99.3618 47.3289 99.5686 47.0871 100.065C46.8453 100.562 47.0519 101.16 47.5486 101.401L48.4243 99.6033ZM53.0862 101.599C51.5171 101.015 49.9615 100.351 48.4243 99.6033L47.5486 101.401C49.1436 102.177 50.7583 102.867 52.3875 103.473L53.0862 101.599Z" fill="#006389"/>
<path d="M41.1148 98.0316C41.5856 98.3204 42.2017 98.173 42.4908 97.7025C42.7799 97.232 42.6326 96.6165 42.1618 96.3277L41.1148 98.0316ZM37.971 93.47C37.5302 93.1373 36.9028 93.2247 36.5697 93.6652C36.2365 94.1057 36.3238 94.7325 36.7646 95.0652L37.971 93.47ZM42.1618 96.3277C40.7342 95.4523 39.3355 94.5 37.971 93.47L36.7646 95.0652C38.1806 96.134 39.6324 97.1226 41.1148 98.0316L42.1618 96.3277Z" fill="#006389"/>
<path d="M32.4414 91.2008C32.8371 91.5862 33.4705 91.5781 33.8561 91.1829C34.2418 90.7876 34.2336 90.1548 33.8379 89.7694L32.4414 91.2008ZM30.3803 86.0596C30.0236 85.638 29.3923 85.585 28.9703 85.9413C28.5484 86.2976 28.4954 86.9282 28.8521 87.3499L30.3803 86.0596ZM33.8379 89.7694C32.6385 88.6013 31.4841 87.3646 30.3803 86.0596L28.8521 87.3499C29.9976 88.704 31.1959 89.9879 32.4414 91.2008L33.8379 89.7694Z" fill="#006389"/>
<path d="M25.2314 82.5721C25.536 83.0329 26.1565 83.1599 26.6175 82.8557C27.0784 82.5516 27.2052 81.9315 26.9007 81.4707L25.2314 82.5721ZM24.3132 77.1104C24.0545 76.6225 23.4491 76.4363 22.9609 76.6946C22.4727 76.9528 22.2867 77.5578 22.5454 78.0458L24.3132 77.1104ZM26.9007 81.4707C25.9778 80.0742 25.1135 78.6203 24.3132 77.1104L22.5454 78.0458C23.3759 79.6126 24.2731 81.1219 25.2314 82.5721L26.9007 81.4707Z" fill="#006389"/>
<path d="M20.5636 73.4362C20.784 73.9426 21.3733 74.1747 21.8798 73.9545C22.3863 73.7344 22.6182 73.1454 22.3977 72.6389L20.5636 73.4362ZM20.6016 67.8982C20.431 67.3729 19.8669 67.0851 19.3415 67.2554C18.8161 67.4257 18.5285 67.9896 18.6991 68.5149L20.6016 67.8982ZM22.3977 72.6389C21.7297 71.1044 21.1294 69.5233 20.6016 67.8982L18.6991 68.5149C19.2467 70.2014 19.8699 71.8427 20.5636 73.4362L22.3977 72.6389Z" fill="#006389"/>
<path d="M17.4135 63.2532C17.5285 63.7934 18.0596 64.1382 18.5998 64.0233C19.14 63.9085 19.4847 63.3775 19.3698 62.8373L17.4135 63.2532ZM18.5559 57.834C18.4936 57.2852 17.9982 56.8908 17.4494 56.953C16.9007 57.0152 16.5063 57.5105 16.5687 58.0592L18.5559 57.834ZM19.3698 62.8373C19.0214 61.2004 18.7487 59.5316 18.5559 57.834L16.5687 58.0592C16.7687 59.821 17.0518 61.5534 17.4135 63.2532L19.3698 62.8373Z" fill="#006389"/>
<path d="M16.3611 52.1632C16.3664 52.7154 16.8184 53.1587 17.3706 53.1534C17.9229 53.148 18.3663 52.6959 18.361 52.1437L16.3611 52.1632ZM18.558 47.0785C18.606 46.5283 18.1989 46.0435 17.6487 45.9956C17.0985 45.9476 16.6136 46.3548 16.5655 46.905L18.558 47.0785ZM18.361 52.1437C18.345 50.4703 18.4095 48.7806 18.558 47.0785L16.5655 46.905C16.4114 48.6714 16.3444 50.4255 16.3611 52.1632L18.361 52.1437Z" fill="#006389"/>
<path d="M17.8894 40.0095C17.7864 40.552 18.1427 41.0752 18.6854 41.178C19.228 41.2808 19.7515 40.9243 19.8546 40.3817L17.8894 40.0095ZM21.0406 35.4532C21.1955 34.9231 20.8912 34.368 20.3611 34.2133C19.8309 34.0587 19.2755 34.3631 19.1206 34.8932L21.0406 35.4532ZM19.8546 40.3817C20.1668 38.7376 20.5613 37.0932 21.0406 35.4532L19.1206 34.8932C18.6232 36.5952 18.2137 38.3022 17.8894 40.0095L19.8546 40.3817Z" fill="#006389"/>
<path d="M21.909 28.3828C21.6586 28.875 21.8548 29.4767 22.3473 29.7268C22.8398 29.9768 23.442 29.7805 23.6924 29.2883L21.909 28.3828ZM26.2075 24.8858C26.5042 24.42 26.3669 23.8022 25.9009 23.5059C25.4348 23.2096 24.8165 23.347 24.5198 23.8128L26.2075 24.8858ZM23.6924 29.2883C24.4514 27.7965 25.2893 26.3272 26.2075 24.8858L24.5198 23.8128C23.5669 25.3086 22.6971 26.8337 21.909 28.3828L23.6924 29.2883Z" fill="#006389"/>
<path d="M28.9412 17.491C28.5735 17.9031 28.6099 18.5349 29.0224 18.9022C29.4349 19.2695 30.0673 19.2332 30.4349 18.8212L28.9412 17.491ZM33.9902 15.2046C34.3959 14.8298 34.4206 14.1974 34.0455 13.7921C33.6703 13.3868 33.0374 13.362 32.6317 13.7368L33.9902 15.2046ZM30.4349 18.8212C31.5495 17.5719 32.7346 16.3646 33.9902 15.2046L32.6317 13.7368C31.3287 14.9405 30.0984 16.1938 28.9412 17.491L30.4349 18.8212Z" fill="#006389"/>
<ellipse cx="69.6264" cy="52.6653" rx="50.2448" ry="50.1975" fill="#D6BAA4"/>
<path d="M106.916 52.667C106.916 72.7765 90.1828 89.122 69.4864 89.122C48.79 89.122 32.0565 72.7765 32.0565 52.667C32.0565 32.5575 48.79 16.2119 69.4864 16.2119C90.1828 16.2119 106.916 32.5575 106.916 52.667Z" fill="#A3E0FB" stroke="#006389" stroke-width="2"/>
<path d="M52.5879 25.3522L51.2124 24.7004C49.5869 23.9301 47.6554 24.2363 46.3477 25.4714L43.9023 27.7814C42.9469 28.6837 43.1535 30.2563 44.3094 30.8814C44.9328 31.2184 45.3212 31.87 45.3212 32.5787V34.1814C45.3212 34.6708 45.2434 35.157 45.0908 35.622L45.0222 35.8309C44.5375 37.3072 44.6452 38.9141 45.3226 40.3126L46.2642 42.2567C47.0698 43.9198 48.7551 44.9761 50.6031 44.9761C52.7418 44.9761 54.6248 46.3851 55.2283 48.4368L55.8217 50.4543C56.5125 52.8032 58.2884 54.678 60.5965 55.495L64.7804 56.976C65.0646 57.0766 65.3402 57.1999 65.6045 57.3447L65.9493 57.5336C67.5355 58.4026 68.5216 60.0672 68.5216 61.8758V64.4715C68.5216 65.4274 68.7503 66.3694 69.1885 67.2189C69.8285 68.4596 70.8816 69.4378 72.1659 69.9849L73.6147 70.6021C74.9514 71.1714 75.9175 72.3681 76.1923 73.7948C76.3944 74.8441 76.2049 75.931 75.6598 76.8499L73.9343 79.7584C73.4482 80.5778 73.1917 81.5129 73.1917 82.4655V84.6391C73.1917 85.7903 73.9736 86.7945 75.0897 87.0767C75.9654 87.2981 76.8925 87.0328 77.5185 86.3816L82.6826 81.0101L88.2431 74.7095C89.0388 73.8078 89.5592 72.6967 89.7423 71.5081L89.8113 71.0606C90.0658 69.4089 91.0751 67.9699 92.5414 67.1682L94.6285 66.0271C95.494 65.5539 95.9413 64.5646 95.7251 63.6022C95.4983 62.5929 94.6021 61.8758 93.5677 61.8758H93.2463C92.3041 61.8758 91.435 61.3686 90.9715 60.5483L89.3867 57.7433C88.7465 56.6102 87.8025 55.6785 86.6611 55.0532C85.6323 54.4896 84.4781 54.1941 83.305 54.1941H78.8133C77.8874 54.1941 76.9713 54.3829 76.1209 54.749C74.2648 55.5479 72.1498 55.4813 70.3478 54.5671L67.1501 52.945C65.9583 52.3404 65.2073 51.1174 65.2073 49.781C65.2073 47.8216 66.7958 46.2331 68.7552 46.2331H69.4022C69.9014 46.2331 70.3822 46.4217 70.7482 46.7611C71.6374 47.5854 73.0519 47.4241 73.7326 46.4208L77.4782 40.9004C78.0114 40.1145 78.8456 39.5838 79.7835 39.4339L79.8844 39.4177C81.4965 39.16 82.6826 37.7693 82.6826 36.1367V35.0286C82.6826 34.5292 82.9486 34.0677 83.3807 33.8173C84.2165 33.333 84.3223 32.1677 83.5873 31.5409L81.6914 29.9238C81.4497 29.7176 81.1783 29.5491 80.8864 29.4238L77.3793 27.9184C74.6054 26.7278 71.6592 25.9879 68.6519 25.7265L65.8371 25.4819C64.3155 25.3496 62.7852 25.3518 61.2639 25.4882L55.9986 25.9606C54.8278 26.0657 53.6502 25.8556 52.5879 25.3522Z" fill="url(#paint0_linear)"/>
<path d="M90.2151 25.4707V24.2036C90.2151 24.0827 90.3541 24.0148 90.4494 24.0892L93.9803 26.8443L95.5144 28.3133C96.9991 29.7351 98.3454 31.2947 99.5351 32.9712C100.85 34.824 101.967 36.8098 102.867 38.8958L103.54 40.4575C103.579 40.5468 103.513 40.6465 103.416 40.6465C101.362 40.6465 99.3273 40.257 97.4188 39.4987L94.6797 38.4103C94.2159 38.2261 93.7812 37.9756 93.3892 37.6666L93.3583 37.6422C91.8854 36.4816 91.1679 34.6066 91.4897 32.7592C91.6417 31.8871 91.564 30.9904 91.2645 30.1573L90.8132 28.9019C90.4174 27.8012 90.2151 26.6404 90.2151 25.4707Z" fill="url(#paint1_linear)"/>
<path d="M52.5879 25.3522L51.2124 24.7004C49.5869 23.9301 47.6554 24.2363 46.3477 25.4714L43.9023 27.7814C42.9469 28.6837 43.1535 30.2563 44.3094 30.8814C44.9328 31.2184 45.3212 31.87 45.3212 32.5787V34.1814C45.3212 34.6708 45.2434 35.157 45.0908 35.622L45.0222 35.8309C44.5375 37.3072 44.6452 38.9141 45.3226 40.3126L46.2642 42.2567C47.0698 43.9198 48.7551 44.9761 50.6031 44.9761C52.7418 44.9761 54.6248 46.3851 55.2283 48.4368L55.8217 50.4543C56.5125 52.8032 58.2884 54.678 60.5965 55.495L64.7804 56.976C65.0646 57.0766 65.3402 57.1999 65.6045 57.3447L65.9493 57.5336C67.5355 58.4026 68.5216 60.0672 68.5216 61.8758V64.4715C68.5216 65.4274 68.7503 66.3694 69.1885 67.2189C69.8285 68.4596 70.8816 69.4378 72.1659 69.9849L73.6147 70.6021C74.9514 71.1714 75.9175 72.3681 76.1923 73.7948C76.3944 74.8441 76.2049 75.931 75.6598 76.8499L73.9343 79.7584C73.4482 80.5778 73.1917 81.5129 73.1917 82.4655V84.6391C73.1917 85.7903 73.9736 86.7945 75.0897 87.0767C75.9654 87.2981 76.8925 87.0328 77.5185 86.3816L82.6826 81.0101L88.2431 74.7095C89.0388 73.8078 89.5592 72.6967 89.7423 71.5081L89.8113 71.0606C90.0658 69.4089 91.0751 67.9699 92.5414 67.1682L94.6285 66.0271C95.494 65.5539 95.9413 64.5646 95.7251 63.6022C95.4983 62.5929 94.6021 61.8758 93.5677 61.8758H93.2463C92.3041 61.8758 91.435 61.3686 90.9715 60.5483L89.3867 57.7433C88.7465 56.6102 87.8025 55.6785 86.6611 55.0532C85.6323 54.4896 84.4781 54.1941 83.305 54.1941H78.8133C77.8874 54.1941 76.9713 54.3829 76.1209 54.749C74.2648 55.5479 72.1498 55.4813 70.3478 54.5671L67.1501 52.945C65.9583 52.3404 65.2073 51.1174 65.2073 49.781C65.2073 47.8216 66.7958 46.2331 68.7552 46.2331H69.4022C69.9014 46.2331 70.3822 46.4217 70.7482 46.7611C71.6374 47.5854 73.0519 47.4241 73.7326 46.4208L77.4782 40.9004C78.0114 40.1145 78.8456 39.5838 79.7835 39.4339L79.8844 39.4177C81.4965 39.16 82.6826 37.7693 82.6826 36.1367V35.0286C82.6826 34.5292 82.9486 34.0677 83.3807 33.8173C84.2165 33.333 84.3223 32.1677 83.5873 31.5409L81.6914 29.9238C81.4497 29.7176 81.1783 29.5491 80.8864 29.4238L77.3793 27.9184C74.6054 26.7278 71.6592 25.9879 68.6519 25.7265L65.8371 25.4819C64.3155 25.3496 62.7852 25.3518 61.2639 25.4882L55.9986 25.9606C54.8278 26.0657 53.6502 25.8556 52.5879 25.3522Z" stroke="#006389"/>
<path d="M90.2151 25.4707V24.2036C90.2151 24.0827 90.3541 24.0148 90.4494 24.0892L93.9803 26.8443L95.5144 28.3133C96.9991 29.7351 98.3454 31.2947 99.5351 32.9712C100.85 34.824 101.967 36.8098 102.867 38.8958L103.54 40.4575C103.579 40.5468 103.513 40.6465 103.416 40.6465C101.362 40.6465 99.3273 40.257 97.4188 39.4987L94.6797 38.4103C94.2159 38.2261 93.7812 37.9756 93.3892 37.6666L93.3583 37.6422C91.8854 36.4816 91.1679 34.6066 91.4897 32.7592C91.6417 31.8871 91.564 30.9904 91.2645 30.1573L90.8132 28.9019C90.4174 27.8012 90.2151 26.6404 90.2151 25.4707Z" stroke="#006389"/>
<defs>
<linearGradient id="paint0_linear" x1="64.7221" y1="40.2288" x2="46.1381" y2="25.7373" gradientUnits="userSpaceOnUse">
<stop stop-color="#16A029"/>
<stop offset="1" stop-color="#C2ED19"/>
</linearGradient>
<linearGradient id="paint1_linear" x1="64.7221" y1="40.2288" x2="46.1381" y2="25.7373" gradientUnits="userSpaceOnUse">
<stop stop-color="#16A029"/>
<stop offset="1" stop-color="#C2ED19"/>
</linearGradient>
</defs>
</svg>
