<svg width="39" height="35" viewBox="0 0 39 35" fill="none" xmlns="http://www.w3.org/2000/svg">
<path d="M7.63985 3.63924C7.41067 3.79329 7.34977 4.10396 7.50382 4.33314C7.65787 4.56232 7.96854 4.62322 8.19772 4.46917L7.63985 3.63924ZM9.96559 3.41715C10.2102 3.28907 10.3047 2.98691 10.1766 2.74227C10.0485 2.49763 9.74638 2.40315 9.50175 2.53123L9.96559 3.41715ZM8.19772 4.46917C8.76247 4.08955 9.35264 3.73807 9.96559 3.41715L9.50175 2.53123C8.85668 2.86897 8.23511 3.23912 7.63985 3.63924L8.19772 4.46917Z" fill="#006389"/>
<path d="M11.0337 1.84666C10.779 1.95339 10.6591 2.24638 10.7658 2.50106C10.8725 2.75574 11.1655 2.87567 11.4202 2.76894L11.0337 1.84666ZM13.4556 2.04488C13.7204 1.96668 13.8717 1.68859 13.7935 1.42375C13.7153 1.15892 13.4372 1.00762 13.1724 1.08582L13.4556 2.04488ZM11.4202 2.76894C12.0782 2.49318 12.7576 2.25098 13.4556 2.04488L13.1724 1.08582C12.4394 1.30226 11.7255 1.55673 11.0337 1.84666L11.4202 2.76894Z" fill="#006389"/>
<path d="M14.8898 0.640897C14.6155 0.680739 14.4215 0.934232 14.4565 1.20709C14.4916 1.47995 14.7423 1.66884 15.0166 1.629L14.8898 0.640897ZM17.0918 1.43437C17.3682 1.42246 17.5867 1.18947 17.5797 0.913977C17.5728 0.638484 17.343 0.424808 17.0666 0.436719L17.0918 1.43437ZM15.0166 1.629C15.6975 1.5301 16.3901 1.4646 17.0918 1.43437L17.0666 0.436719C16.3309 0.468417 15.6044 0.537103 14.8898 0.640897L15.0166 1.629Z" fill="#006389"/>
<path d="M18.7868 0.331718C18.5105 0.342042 18.2922 0.573958 18.2991 0.849719C18.306 1.12548 18.5355 1.34066 18.8117 1.33033L18.7868 0.331718ZM20.6199 1.34058C20.8957 1.35395 21.133 1.14134 21.1498 0.865714C21.1666 0.590085 20.9566 0.355805 20.6808 0.342436L20.6199 1.34058ZM18.8117 1.33033C19.4081 1.30805 20.0113 1.31108 20.6199 1.34058L20.6808 0.342436C20.0436 0.311549 19.4118 0.308362 18.7868 0.331718L18.8117 1.33033Z" fill="#006389"/>
<path d="M22.8473 0.626376C22.5733 0.581609 22.3022 0.762535 22.2418 1.03049C22.1813 1.29844 22.3544 1.55194 22.6284 1.59671L22.8473 0.626376ZM24.3876 1.96301C24.6553 2.03093 24.9404 1.87276 25.0245 1.60972C25.1085 1.34668 24.9597 1.07839 24.692 1.01047L24.3876 1.96301ZM22.6284 1.59671C23.2149 1.69256 23.8019 1.81438 24.3876 1.96301L24.692 1.01047C24.0781 0.854687 23.4626 0.726934 22.8473 0.626376L22.6284 1.59671Z" fill="#006389"/>
<path d="M26.4568 1.57899C26.1943 1.48627 25.8891 1.61298 25.7751 1.862C25.6611 2.11103 25.7815 2.38807 26.044 2.48079L26.4568 1.57899ZM27.6879 3.14518C27.939 3.25997 28.2538 3.15875 28.391 2.9191C28.5282 2.67945 28.4358 2.39211 28.1847 2.27732L27.6879 3.14518ZM26.044 2.48079C26.5979 2.67643 27.1464 2.89771 27.6879 3.14518L28.1847 2.27732C27.6158 2.01732 27.0393 1.78472 26.4568 1.57899L26.044 2.48079Z" fill="#006389"/>
<path d="M30.1929 3.38847C29.9557 3.24151 29.627 3.29687 29.4587 3.51214C29.2904 3.7274 29.3462 4.02105 29.5834 4.16801L30.1929 3.38847ZM31.0125 5.14838C31.2326 5.31506 31.5651 5.28773 31.7551 5.08733C31.9451 4.88694 31.9207 4.58938 31.7005 4.4227L31.0125 5.14838ZM29.5834 4.16801C30.0721 4.47086 30.5491 4.7976 31.0125 5.14838L31.7005 4.4227C31.2119 4.05282 30.7087 3.70811 30.1929 3.38847L29.5834 4.16801Z" fill="#006389"/>
<path d="M32.8075 5.34605C32.596 5.16385 32.2627 5.1672 32.063 5.35353C31.8633 5.53986 31.8728 5.83861 32.0842 6.02081L32.8075 5.34605ZM33.3172 7.19134C33.508 7.39093 33.8407 7.41689 34.0602 7.24932C34.2797 7.08176 34.3029 6.78412 34.1121 6.58453L33.3172 7.19134ZM32.0842 6.02081C32.5117 6.38916 32.9233 6.77937 33.3172 7.19134L34.1121 6.58453C33.6955 6.14885 33.26 5.73597 32.8075 5.34605L32.0842 6.02081Z" fill="#006389"/>
<path d="M38.1749 14.3854C38.1201 14.1142 37.8559 13.9346 37.5848 13.9843C37.3138 14.0341 37.1384 14.2942 37.1933 14.5654L38.1749 14.3854ZM37.4259 16.1522C37.4512 16.4272 37.695 16.6337 37.9704 16.6134C38.2458 16.5932 38.4485 16.3538 38.4232 16.0788L37.4259 16.1522ZM37.1933 14.5654C37.2983 15.0853 37.3763 15.6146 37.4259 16.1522L38.4232 16.0788C38.3703 15.5053 38.2871 14.9405 38.1749 14.3854L37.1933 14.5654Z" fill="#006389"/>
<path d="M37.2848 11.1222C37.1834 10.8637 36.8901 10.7248 36.6297 10.812C36.3693 10.8991 36.2404 11.1793 36.3418 11.4378L37.2848 11.1222ZM36.8521 12.9727C36.9252 13.239 37.2032 13.4069 37.4729 13.3478C37.7426 13.2886 37.902 13.0248 37.8289 12.7585L36.8521 12.9727ZM36.3418 11.4378C36.5375 11.9366 36.7081 12.4485 36.8521 12.9727L37.8289 12.7585C37.6755 12.2 37.4936 11.6542 37.2848 11.1222L36.3418 11.4378Z" fill="#006389"/>
<path d="M35.5927 8.12939C35.4302 7.90303 35.1074 7.83229 34.8719 7.9714C34.6363 8.11051 34.5772 8.40678 34.7398 8.63314L35.5927 8.12939ZM35.6351 10.0233C35.7726 10.2628 36.0876 10.3636 36.3386 10.2485C36.5896 10.1334 36.6816 9.846 36.5441 9.60654L35.6351 10.0233ZM34.7398 8.63314C35.0598 9.07874 35.3589 9.54229 35.6351 10.0233L36.5441 9.60654C36.2508 9.09565 35.933 8.60308 35.5927 8.12939L34.7398 8.63314Z" fill="#006389"/>
<path d="M38.486 17.6597C38.4913 17.3844 38.2712 17.1624 37.9943 17.1639C37.7174 17.1655 37.4886 17.3899 37.4833 17.6652L38.486 17.6597ZM37.3657 19.2622C37.3307 19.5362 37.525 19.7809 37.7997 19.809C38.0744 19.8371 38.3255 19.6378 38.3605 19.3639L37.3657 19.2622ZM37.4833 17.6652C37.4731 18.1935 37.4343 18.7262 37.3657 19.2622L38.3605 19.3639C38.4337 18.7922 38.4751 18.2236 38.486 17.6597L37.4833 17.6652Z" fill="#006389"/>
<path d="M38.0935 21.0347C38.1548 20.7674 37.9822 20.514 37.7079 20.4687C37.4337 20.4235 37.1616 20.6035 37.1003 20.8709L38.0935 21.0347ZM36.6559 22.4227C36.5659 22.6838 36.7088 22.9548 36.9751 23.028C37.2413 23.1013 37.5301 22.949 37.62 22.6879L36.6559 22.4227ZM37.1003 20.8709C36.9815 21.3889 36.8337 21.9067 36.6559 22.4227L37.62 22.6879C37.8094 22.1384 37.9669 21.5868 38.0935 21.0347L37.1003 20.8709Z" fill="#006389"/>
<path d="M37.0651 24.0198C37.1754 23.7695 37.0507 23.4942 36.7867 23.405C36.5226 23.3159 36.2192 23.4465 36.109 23.6969L37.0651 24.0198ZM35.3716 25.1593C35.2348 25.3991 35.3276 25.6864 35.5789 25.8008C35.8302 25.9153 36.1449 25.8136 36.2817 25.5738L35.3716 25.1593ZM36.109 23.6969C35.892 24.1896 35.6464 24.6776 35.3716 25.1593L36.2817 25.5738C36.5735 25.0622 36.8345 24.5436 37.0651 24.0198L36.109 23.6969Z" fill="#006389"/>
<path d="M35.2793 27.0857C35.4425 26.8667 35.38 26.5742 35.1396 26.4325C34.8991 26.2907 34.5719 26.3534 34.4086 26.5724L35.2793 27.0857ZM33.3403 27.8652C33.1541 28.0692 33.1841 28.3664 33.4073 28.529C33.6304 28.6916 33.9623 28.6581 34.1484 28.4542L33.3403 27.8652ZM34.4086 26.5724C34.0795 27.0139 33.7234 27.4454 33.3403 27.8652L34.1484 28.4542C34.5538 28.01 34.9307 27.5532 35.2793 27.0857L34.4086 26.5724Z" fill="#006389"/>
<path d="M32.8461 29.7406C33.0494 29.5581 33.0459 29.2591 32.8382 29.0729C32.6305 28.8866 32.2973 28.8836 32.0939 29.0661L32.8461 29.7406ZM30.7623 30.1508C30.5402 30.3149 30.5122 30.6122 30.6998 30.8149C30.8874 31.0175 31.2195 31.0488 31.4416 30.8846L30.7623 30.1508ZM32.0939 29.0661C31.6742 29.4427 31.2303 29.8049 30.7623 30.1508L31.4416 30.8846C31.935 30.52 32.4032 30.138 32.8461 29.7406L32.0939 29.0661Z" fill="#006389"/>
<path d="M29.8062 31.933C30.0391 31.7891 30.0917 31.4924 29.9237 31.2702C29.7556 31.0481 29.4306 30.9847 29.1978 31.1286L29.8062 31.933ZM27.6665 31.9802C27.4194 32.1034 27.3375 32.3931 27.4837 32.6274C27.6299 32.8617 27.9488 32.9517 28.196 32.8286L27.6665 31.9802ZM29.1978 31.1286C28.7081 31.4312 28.1975 31.7156 27.6665 31.9802L28.196 32.8286C28.7541 32.5505 29.2911 32.2514 29.8062 31.933L29.1978 31.1286Z" fill="#006389"/>
<path d="M25.9845 33.6822C26.2433 33.5902 26.3652 33.3084 26.2568 33.0528C26.1484 32.7973 25.8507 32.6648 25.5919 32.7568L25.9845 33.6822ZM23.8836 33.281C23.6163 33.3505 23.4689 33.6196 23.5544 33.8822C23.6398 34.1448 23.9258 34.3014 24.1931 34.2319L23.8836 33.281ZM25.5919 32.7568C25.0379 32.9539 24.4682 33.1291 23.8836 33.281L24.1931 34.2319C24.8058 34.0727 25.4033 33.8889 25.9845 33.6822L25.5919 32.7568Z" fill="#006389"/>
<path d="M21.8683 34.603C22.1421 34.5689 22.3343 34.3192 22.2975 34.0453C22.2608 33.7713 22.009 33.5769 21.7352 33.611L21.8683 34.603ZM19.9344 33.7569C19.6585 33.7674 19.4454 33.9995 19.4586 34.2753C19.4717 34.5511 19.706 34.7662 19.982 34.7557L19.9344 33.7569ZM21.7352 33.611C21.1441 33.6847 20.5434 33.7337 19.9344 33.7569L19.982 34.7557C20.6196 34.7315 21.2488 34.6801 21.8683 34.603L21.7352 33.611Z" fill="#006389"/>
<path d="M17.8008 34.7009C18.0774 34.7169 18.3222 34.5077 18.3477 34.2336C18.3733 33.9595 18.1698 33.7243 17.8933 33.7083L17.8008 34.7009ZM16.0971 33.5264C15.8238 33.4869 15.5623 33.675 15.513 33.9467C15.4638 34.2185 15.6454 34.4708 15.9186 34.5104L16.0971 33.5264ZM17.8933 33.7083C17.2978 33.6738 16.6986 33.6135 16.0971 33.5264L15.9186 34.5104C16.5486 34.6016 17.1766 34.6648 17.8008 34.7009L17.8933 33.7083Z" fill="#006389"/>
<path d="M13.1279 33.7055C13.392 33.7934 13.6943 33.6608 13.803 33.4093C13.9118 33.1579 13.7859 32.8829 13.5218 32.795L13.1279 33.7055ZM11.8632 32.1599C11.61 32.0498 11.2976 32.1572 11.1655 32.3997C11.0335 32.6422 11.1317 32.9281 11.385 33.0382L11.8632 32.1599ZM13.5218 32.795C12.9636 32.6092 12.4101 32.3977 11.8632 32.1599L11.385 33.0382C11.9595 33.2879 12.5411 33.5102 13.1279 33.7055L13.5218 32.795Z" fill="#006389"/>
<path d="M9.06775 31.9423C9.31229 32.0764 9.63708 32.0033 9.7932 31.7789C9.94932 31.5545 9.87764 31.2639 9.63311 31.1297L9.06775 31.9423ZM8.1443 30.2217C7.91543 30.0672 7.58536 30.1129 7.40706 30.3237C7.22877 30.5346 7.26976 30.8308 7.49863 30.9853L8.1443 30.2217ZM9.63311 31.1297C9.12599 30.8516 8.62909 30.549 8.1443 30.2217L7.49863 30.9853C8.00933 31.3301 8.53303 31.649 9.06775 31.9423L9.63311 31.1297Z" fill="#006389"/>
<path d="M5.94428 29.7278C6.15475 29.9111 6.48804 29.9095 6.68871 29.7242C6.88939 29.5389 6.88145 29.24 6.67099 29.0567L5.94428 29.7278ZM5.44513 27.8804C5.25538 27.6797 4.92292 27.652 4.70255 27.8184C4.48219 27.9848 4.45736 28.2824 4.64711 28.483L5.44513 27.8804ZM6.67099 29.0567C6.24577 28.6863 5.83652 28.2942 5.44513 27.8804L4.64711 28.483C5.06107 28.9207 5.49412 29.3357 5.94428 29.7278L6.67099 29.0567Z" fill="#006389"/>
<path d="M3.3534 26.9388C3.51905 27.163 3.84291 27.2297 4.07676 27.0879C4.3106 26.946 4.36588 26.6493 4.20023 26.4251L3.3534 26.9388ZM3.2847 25.0452C3.14391 24.8076 2.82743 24.7108 2.57782 24.8289C2.32822 24.9471 2.24001 25.2354 2.3808 25.4729L3.2847 25.0452ZM4.20023 26.4251C3.87369 25.9832 3.56791 25.5231 3.2847 25.0452L2.3808 25.4729C2.68152 25.9803 3.00636 26.4691 3.3534 26.9388L4.20023 26.4251Z" fill="#006389"/>
<path d="M1.67483 23.9939C1.79651 24.2439 2.10091 24.3624 2.35471 24.2586C2.60852 24.1548 2.71562 23.8679 2.59394 23.6179L1.67483 23.9939ZM1.9593 22.1197C1.86506 21.8601 1.57365 21.712 1.30843 21.7889C1.04321 21.8658 0.904602 22.1385 0.998845 22.3981L1.9593 22.1197ZM2.59394 23.6179C2.3579 23.133 2.14579 22.6333 1.9593 22.1197L0.998845 22.3981C1.19739 22.9449 1.42331 23.4772 1.67483 23.9939L2.59394 23.6179Z" fill="#006389"/>
<path d="M0.540492 20.707C0.604587 20.9764 0.874945 21.1485 1.14435 21.0913C1.41376 21.0342 1.5802 20.7695 1.5161 20.5002L0.540492 20.707ZM1.22881 18.9205C1.19402 18.6465 0.943106 18.447 0.668372 18.4749C0.393638 18.5027 0.199122 18.7474 0.233907 19.0213L1.22881 18.9205ZM1.5161 20.5002C1.39314 19.9834 1.29687 19.4565 1.22881 18.9205L0.233907 19.0213C0.306506 19.5931 0.409219 20.1553 0.540492 20.707L1.5161 20.5002Z" fill="#006389"/>
<path d="M0.158568 17.1321C0.161519 17.4077 0.388136 17.6244 0.664731 17.6161C0.941326 17.6079 1.16316 17.3778 1.16021 17.1023L0.158568 17.1321ZM1.22974 15.5031C1.25656 15.2283 1.05511 14.9881 0.779801 14.9667C0.504493 14.9452 0.259576 15.1506 0.232764 15.4255L1.22974 15.5031ZM1.16021 17.1023C1.15455 16.574 1.17732 16.0405 1.22974 15.5031L0.232764 15.4255C0.176839 15.9987 0.152528 16.5681 0.158568 17.1321L1.16021 17.1023Z" fill="#006389"/>
<path d="M0.703552 13.2138C0.646555 13.4822 0.8231 13.7335 1.09788 13.775C1.37265 13.8165 1.64161 13.6326 1.6986 13.3642L0.703552 13.2138ZM2.1176 11.8069C2.20336 11.5444 2.05627 11.2751 1.78907 11.2054C1.52187 11.1357 1.23574 11.292 1.14998 11.5545L2.1176 11.8069ZM1.6986 13.3642C1.80892 12.8448 1.94827 12.3252 2.1176 11.8069L1.14998 11.5545C0.969647 12.1064 0.821147 12.6601 0.703552 13.2138L1.6986 13.3642Z" fill="#006389"/>
<path d="M2.14551 9.44535C2.01039 9.68292 2.10756 9.96718 2.36256 10.0803C2.61756 10.1933 2.93382 10.0924 3.06894 9.85487L2.14551 9.44535ZM3.95948 8.46066C4.11967 8.23573 4.05494 7.94273 3.8149 7.80623C3.57485 7.66972 3.2504 7.7414 3.0902 7.96633L3.95948 8.46066ZM3.06894 9.85487C3.33765 9.38246 3.63435 8.91717 3.95948 8.46066L3.0902 7.96633C2.74546 8.45038 2.4307 8.94398 2.14551 9.44535L3.06894 9.85487Z" fill="#006389"/>
<path d="M4.67732 5.91486C4.48439 6.10829 4.50472 6.40631 4.72272 6.58052C4.94073 6.75473 5.27386 6.73915 5.46679 6.54573L4.67732 5.91486ZM6.72873 5.39759C6.9416 5.2217 6.95319 4.92355 6.75462 4.73166C6.55604 4.53977 6.22249 4.5268 6.00962 4.70269L6.72873 5.39759ZM5.46679 6.54573C5.86235 6.14915 6.28301 5.76588 6.72873 5.39759L6.00962 4.70269C5.53927 5.09133 5.09514 5.49598 4.67732 5.91486L5.46679 6.54573Z" fill="#006389"/>
<ellipse cx="19.373" cy="17.2817" rx="17.9893" ry="16.0746" fill="#DFB08A"/>
<path d="M19.5062 4.65418L27.8835 7.51242C27.9755 7.54382 27.9731 7.67483 27.88 7.70283L27.7073 7.75473V11.6783L28.1599 11.7973C28.3213 11.8397 28.4567 11.9493 28.5318 12.0983C28.5911 12.216 28.6087 12.3503 28.5818 12.4793L28.5548 12.6087C28.5404 12.6779 28.5159 12.7445 28.482 12.8066C28.3557 13.0384 28.1127 13.1827 27.8487 13.1827H27.7939L28.7416 14.2694L27.8125 15.8811L26.8833 14.2694L27.7939 13.1827L27.5953 13.1536C27.4012 13.1252 27.2256 13.023 27.1049 12.8684L27.0683 12.8214C26.9512 12.6714 26.9074 12.4768 26.949 12.291C26.9935 12.0918 27.131 11.9261 27.3185 11.8455L27.7073 11.6783V7.75473L25.3769 8.45516L25.397 13.0831C25.5388 13.6435 25.6105 14.2193 25.6105 14.7974V14.9898V15.5202L25.5202 16.4521C25.509 16.568 25.4795 16.6814 25.4329 16.7881C25.409 16.8427 25.3896 16.8992 25.3748 16.9569L25.3465 17.068C25.2807 17.3254 25.1746 17.5708 25.0321 17.7951L24.3905 18.8053L23.7852 19.3954C23.5186 19.6552 23.2232 19.8836 22.9047 20.0761C22.5346 20.2999 22.1364 20.4733 21.7205 20.5919L21.4171 20.6784C21.0819 20.774 20.7402 20.8452 20.3947 20.8916L20.3036 20.9038L19.6936 20.9855H19.4739H19.163L18.3212 20.822L17.6732 20.6517C17.072 20.4937 16.4999 20.241 15.9782 19.903C15.6904 19.7166 15.4196 19.5053 15.1688 19.2715L14.8442 18.9688C14.561 18.7338 14.3131 18.4594 14.1079 18.1539L14.0053 18.0009C13.8532 17.7745 13.7217 17.535 13.6123 17.2852L13.5557 17.1559C13.3394 16.662 13.2278 16.1286 13.2278 15.5894V15.343C13.2278 14.7108 13.3136 14.0815 13.483 13.4723L13.5708 13.1565V8.45516L11.0677 7.70283C10.9746 7.67483 10.9722 7.54382 11.0642 7.51242L19.4416 4.65418C19.4626 4.64703 19.4853 4.64703 19.5062 4.65418Z" fill="#A3E0FB"/>
<path d="M27.7073 7.75473L27.88 7.70283C27.9731 7.67483 27.9755 7.54382 27.8835 7.51242L19.5062 4.65418C19.4853 4.64703 19.4626 4.64703 19.4416 4.65418L11.0642 7.51242C10.9722 7.54382 10.9746 7.67483 11.0677 7.70283L13.5708 8.45516M27.7073 7.75473V11.6783M27.7073 7.75473L25.3769 8.45516M27.7073 11.6783L27.3185 11.8455C27.131 11.9261 26.9935 12.0918 26.949 12.291V12.291C26.9074 12.4768 26.9512 12.6714 27.0683 12.8214L27.1049 12.8684C27.2256 13.023 27.4012 13.1252 27.5953 13.1536L27.7939 13.1827M27.7073 11.6783L28.1599 11.7973C28.3213 11.8397 28.4567 11.9493 28.5318 12.0983V12.0983C28.5911 12.216 28.6087 12.3503 28.5818 12.4793L28.5548 12.6087C28.5404 12.6779 28.5159 12.7445 28.482 12.8066V12.8066C28.3557 13.0384 28.1127 13.1827 27.8487 13.1827H27.7939M27.7939 13.1827L26.8833 14.2694L27.8125 15.8811L28.7416 14.2694L27.7939 13.1827ZM13.5708 8.45516L19.4451 10.2208C19.4639 10.2264 19.4839 10.2264 19.5027 10.2208L25.3769 8.45516M13.5708 8.45516V13.1565M13.5708 13.1565L14.0372 13.3189C14.5746 13.506 15.1245 13.6546 15.683 13.7634V13.7634M13.5708 13.1565L13.483 13.4723C13.3136 14.0815 13.2278 14.7108 13.2278 15.343V15.343M23.2316 13.7362L21.6761 14.0905L20.6961 14.2757C20.2934 14.3518 19.8834 14.3819 19.4739 14.3652V14.3652M23.2316 13.7362L24.3905 13.4364L25.397 13.0831M23.2316 13.7362V14.8222C23.2316 15.4233 23.1781 16.0232 23.0718 16.6149L23.0375 16.8064C22.9031 17.5543 22.671 18.2814 22.3471 18.9688V18.9688V18.9688C22.0984 19.5036 21.7081 19.9603 21.2184 20.2892L20.3036 20.9038M25.397 13.0831L25.3769 8.45516M25.397 13.0831V13.0831C25.5388 13.6435 25.6105 14.2193 25.6105 14.7974V14.9898V15.5202M24.3905 18.8053L23.7852 19.3954C23.5186 19.6552 23.2232 19.8836 22.9047 20.0761V20.0761C22.5346 20.2999 22.1364 20.4733 21.7205 20.5919L21.4171 20.6784C21.0819 20.774 20.7402 20.8452 20.3947 20.8916L20.3036 20.9038M24.3905 18.8053L25.0321 17.7951C25.1746 17.5708 25.2807 17.3254 25.3465 17.068L25.3748 16.9569C25.3896 16.8992 25.409 16.8427 25.4329 16.7881V16.7881C25.4795 16.6814 25.509 16.568 25.5202 16.4521L25.6105 15.5202M24.3905 18.8053L23.8817 18.554C23.4491 18.3404 22.999 18.1641 22.5363 18.027V18.027C21.7162 17.7842 20.8641 17.6669 20.0089 17.6791L19.4739 17.6868L18.8511 17.6759C18.2772 17.6658 17.7049 17.7391 17.152 17.8934V17.8934C16.7331 18.0104 16.3283 18.1731 15.9449 18.3787L14.8442 18.9688M15.683 13.7634L16.5217 13.927L18.3212 14.2432L19.4739 14.3652M15.683 13.7634V14.9898V15.2521C15.683 15.7481 15.7346 16.2429 15.837 16.7283V16.7283C15.9676 17.3471 16.1796 17.9459 16.4677 18.509L16.5217 18.6145L16.7343 19.0051C16.9567 19.4136 17.251 19.7786 17.603 20.0827V20.0827C17.857 20.3021 18.1385 20.4875 18.4404 20.6343L19.163 20.9855M19.163 20.9855L18.3212 20.822L17.6732 20.6517C17.072 20.4937 16.4999 20.241 15.9782 19.903V19.903C15.6904 19.7166 15.4196 19.5053 15.1688 19.2715L14.8442 18.9688M19.163 20.9855H19.4739M20.3036 20.9038L19.6936 20.9855H19.4739M14.8442 18.9688V18.9688C14.561 18.7338 14.3131 18.4594 14.1079 18.1539L14.0053 18.0009C13.8532 17.7745 13.7217 17.535 13.6123 17.2852L13.5557 17.1559C13.3394 16.662 13.2278 16.1286 13.2278 15.5894V15.5894V15.343M19.4739 20.9855V14.3652M25.6105 15.5202L13.2278 15.343" stroke="#006389"/>
<path d="M29.928 24.2666C32.2527 25.67 31.7052 26.4979 29.6979 27.939H9.14999C8.9218 27.939 8.69825 27.8612 8.52452 27.7133C6.85958 26.2956 6.90258 25.4886 8.54439 24.3077C8.70689 24.1908 8.90439 24.1312 9.10456 24.1312H28.5205H29.4311C29.6059 24.1312 29.7783 24.1762 29.928 24.2666Z" fill="#A3E0FB"/>
<path d="M29.928 24.2666L30.1864 23.8385L30.1864 23.8385L29.928 24.2666ZM29.6979 27.939V28.439H29.8588L29.9895 28.3451L29.6979 27.939ZM8.52452 27.7133L8.20036 28.094L8.20036 28.094L8.52452 27.7133ZM8.54439 24.3077L8.25243 23.9018L8.25243 23.9018L8.54439 24.3077ZM11.5165 25.0093C11.2403 25.0093 11.0165 25.2331 11.0165 25.5093C11.0165 25.7854 11.2403 26.0093 11.5165 26.0093V25.0093ZM26.4106 26.0093C26.6868 26.0093 26.9106 25.7854 26.9106 25.5093C26.9106 25.2331 26.6868 25.0093 26.4106 25.0093V26.0093ZM27.8528 24.8828L27.479 24.5507L27.479 24.5507L27.8528 24.8828ZM27.533 26.3584L27.0552 26.5058L27.0552 26.5059L27.533 26.3584ZM27.5382 26.3753L28.016 26.2278L28.016 26.2278L27.5382 26.3753ZM28.1583 27.2206L28.4424 26.8091L28.4424 26.8091L28.1583 27.2206ZM28.3187 27.3313L28.6028 26.9198V26.9198L28.3187 27.3313ZM28.7483 27.5612L28.5635 28.0258L28.5635 28.0258L28.7483 27.5612ZM29.2762 27.0175C29.531 27.1241 29.8239 27.0041 29.9305 26.7493C30.0372 26.4946 29.9171 26.2017 29.6624 26.095L29.2762 27.0175ZM29.0514 26.3813L29.2444 25.9201L29.2444 25.9201L29.0514 26.3813ZM29.1133 25.2643L28.9724 24.7846L29.1133 25.2643ZM29.6102 25.6395C29.8752 25.5617 30.0269 25.2838 29.9491 25.0189C29.8712 24.7539 29.5934 24.6022 29.3284 24.68L29.6102 25.6395ZM10.0958 26.0093C10.3719 26.0093 10.5958 25.7854 10.5958 25.5093C10.5958 25.2331 10.3719 25.0093 10.0958 25.0093V26.0093ZM9.28817 25.0093C9.01203 25.0093 8.78817 25.2331 8.78817 25.5093C8.78817 25.7854 9.01203 26.0093 9.28817 26.0093V25.0093ZM27.5137 25.5184L27.9977 25.6439L27.9977 25.6439L27.5137 25.5184ZM29.6696 24.6946C30.2337 25.0352 30.5781 25.3151 30.7686 25.5471C30.9479 25.7655 30.9621 25.903 30.9448 26.0035C30.922 26.1355 30.8225 26.3281 30.5512 26.6039C30.2854 26.8741 29.9039 27.1756 29.4063 27.5328L29.9895 28.3451C30.4957 27.9818 30.9353 27.6394 31.2641 27.3052C31.5873 26.9766 31.8558 26.6043 31.9302 26.1738C32.01 25.7118 31.8507 25.2891 31.5415 24.9125C31.2435 24.5496 30.7846 24.1997 30.1864 23.8385L29.6696 24.6946ZM29.6979 27.439H9.14999V28.439H29.6979V27.439ZM8.84867 27.3326C8.44651 26.9902 8.17369 26.706 8.00461 26.4633C7.83755 26.2235 7.7925 26.0542 7.79437 25.9291C7.79619 25.8073 7.84355 25.6549 8.00654 25.449C8.17369 25.2378 8.44158 24.9975 8.83634 24.7136L8.25243 23.9018C7.82629 24.2083 7.47313 24.5117 7.22249 24.8283C6.96769 25.1501 6.80052 25.5095 6.79448 25.9142C6.78849 26.3157 6.94225 26.6878 7.18408 27.0349C7.4239 27.3792 7.77005 27.7276 8.20036 28.094L8.84867 27.3326ZM11.5165 26.0093H26.4106V25.0093H11.5165V26.0093ZM9.10456 24.6312H28.5205V23.6312H9.10456V24.6312ZM28.5205 24.6312H29.4311V23.6312H28.5205V24.6312ZM28.1467 23.7991L27.479 24.5507L28.2266 25.2148L28.8943 24.4633L28.1467 23.7991ZM27.0552 26.5059L27.0605 26.5229L28.016 26.2278L28.0107 26.2108L27.0552 26.5059ZM27.8742 27.632L28.0346 27.7427L28.6028 26.9198L28.4424 26.8091L27.8742 27.632ZM28.5635 28.0258L29.5131 28.4036L29.8827 27.4744L28.9331 27.0966L28.5635 28.0258ZM29.6624 26.095L29.2444 25.9201L28.8583 26.8425L29.2762 27.0175L29.6624 26.095ZM29.2542 25.7441L29.6102 25.6395L29.3284 24.68L28.9724 24.7846L29.2542 25.7441ZM10.0958 25.0093H9.28817V26.0093H10.0958V25.0093ZM29.187 25.8338C29.187 25.7923 29.2144 25.7558 29.2542 25.7441L28.9724 24.7846C28.5068 24.9214 28.187 25.3486 28.187 25.8338H29.187ZM28.0346 27.7427C28.1997 27.8567 28.3771 27.9517 28.5635 28.0258L28.9331 27.0966C28.8167 27.0503 28.7059 26.991 28.6028 26.9198L28.0346 27.7427ZM27.0605 26.5228C27.1996 26.9734 27.4862 27.3641 27.8742 27.632L28.4424 26.8091C28.2391 26.6687 28.0889 26.464 28.016 26.2278L27.0605 26.5228ZM27.479 24.5507C27.2647 24.7919 27.1107 25.0806 27.0297 25.393L27.9977 25.6439C28.039 25.4848 28.1174 25.3377 28.2266 25.2148L27.479 24.5507ZM27.0297 25.393C26.9348 25.7591 26.9436 26.1444 27.0552 26.5058L28.0107 26.2109C27.9539 26.0267 27.9494 25.8304 27.9977 25.6439L27.0297 25.393ZM9.14999 27.439C9.03378 27.439 8.9269 27.3992 8.84867 27.3326L8.20036 28.094C8.46959 28.3232 8.80982 28.439 9.14999 28.439V27.439ZM29.2444 25.9201C29.2097 25.9055 29.187 25.8715 29.187 25.8338H28.187C28.187 26.2746 28.4517 26.6723 28.8583 26.8425L29.2444 25.9201ZM30.1864 23.8385C29.954 23.6982 29.6912 23.6312 29.4311 23.6312V24.6312C29.5206 24.6312 29.6027 24.6543 29.6696 24.6946L30.1864 23.8385ZM8.83634 24.7136C8.90837 24.6618 9.00229 24.6312 9.10456 24.6312V23.6312C8.80649 23.6312 8.5054 23.7198 8.25243 23.9018L8.83634 24.7136Z" fill="#006389"/>
</svg>
