<svg width="174" height="208" viewBox="0 0 174 208" fill="none" xmlns="http://www.w3.org/2000/svg">
<path d="M22.7557 127.613C22.0357 127.653 21.5057 127.733 21.1657 127.853C20.8457 127.973 20.6257 128.203 20.5057 128.543C20.3857 128.883 20.3257 129.433 20.3257 130.193V145.073C20.3257 145.833 20.3857 146.383 20.5057 146.723C20.6257 147.063 20.8457 147.293 21.1657 147.413C21.5057 147.533 22.0357 147.613 22.7557 147.653V148.253C21.9157 148.193 20.6357 148.163 18.9157 148.163C17.2957 148.163 16.0257 148.193 15.1057 148.253V147.653C15.8257 147.613 16.3457 147.533 16.6657 147.413C17.0057 147.293 17.2357 147.063 17.3557 146.723C17.4757 146.383 17.5357 145.833 17.5357 145.073V137.873H7.78566V145.073C7.78566 145.833 7.84566 146.383 7.96566 146.723C8.08566 147.063 8.30566 147.293 8.62566 147.413C8.96566 147.533 9.49566 147.613 10.2157 147.653V148.253C9.29566 148.193 8.02566 148.163 6.40566 148.163C4.68566 148.163 3.40566 148.193 2.56566 148.253V147.653C3.28566 147.613 3.80566 147.533 4.12566 147.413C4.46566 147.293 4.69566 147.063 4.81566 146.723C4.93566 146.383 4.99566 145.833 4.99566 145.073V130.193C4.99566 129.433 4.93566 128.883 4.81566 128.543C4.69566 128.203 4.46566 127.973 4.12566 127.853C3.80566 127.733 3.28566 127.653 2.56566 127.613V127.013C3.40566 127.073 4.68566 127.103 6.40566 127.103C8.00566 127.103 9.27566 127.073 10.2157 127.013V127.613C9.49566 127.653 8.96566 127.733 8.62566 127.853C8.30566 127.973 8.08566 128.203 7.96566 128.543C7.84566 128.883 7.78566 129.433 7.78566 130.193V137.273H17.5357V130.193C17.5357 129.433 17.4757 128.883 17.3557 128.543C17.2357 128.203 17.0057 127.973 16.6657 127.853C16.3457 127.733 15.8257 127.653 15.1057 127.613V127.013C16.0257 127.073 17.2957 127.103 18.9157 127.103C20.6357 127.103 21.9157 127.073 22.7557 127.013V127.613ZM28.3007 125.303C28.8207 125.303 29.2707 125.493 29.6507 125.873C30.0307 126.253 30.2207 126.703 30.2207 127.223C30.2207 127.743 30.0307 128.193 29.6507 128.573C29.2707 128.953 28.8207 129.143 28.3007 129.143C27.7807 129.143 27.3307 128.953 26.9507 128.573C26.5707 128.193 26.3807 127.743 26.3807 127.223C26.3807 126.703 26.5707 126.253 26.9507 125.873C27.3307 125.493 27.7807 125.303 28.3007 125.303ZM29.8607 145.463C29.8607 146.283 30.0307 146.853 30.3707 147.173C30.7107 147.473 31.3007 147.623 32.1407 147.623V148.253C30.3007 148.173 29.0907 148.133 28.5107 148.133C27.9307 148.133 26.7207 148.173 24.8807 148.253V147.623C25.7207 147.623 26.3107 147.473 26.6507 147.173C26.9907 146.853 27.1607 146.283 27.1607 145.463V136.073C27.1607 135.153 26.9907 134.483 26.6507 134.063C26.3107 133.643 25.7207 133.433 24.8807 133.433V132.803C25.5207 132.863 26.1407 132.893 26.7407 132.893C28.0007 132.893 29.0407 132.753 29.8607 132.473V145.463ZM46.9298 135.503C46.5698 135.503 46.2598 135.383 45.9998 135.143C45.7598 134.903 45.6398 134.553 45.6398 134.093C45.6398 133.693 45.7398 133.233 45.9398 132.713C45.4198 132.933 45.0098 133.183 44.7098 133.463C44.4098 133.723 44.1398 134.053 43.8998 134.453C44.3598 135.153 44.5898 136.043 44.5898 137.123C44.5898 138.703 44.1098 139.893 43.1498 140.693C42.1898 141.473 40.9198 141.863 39.3398 141.863H39.3098C38.6498 142.243 38.1498 142.593 37.8098 142.913C37.4698 143.233 37.2998 143.593 37.2998 143.993C37.2998 144.633 37.7798 144.953 38.7398 144.953H42.4898C43.8498 144.953 44.9698 145.253 45.8498 145.853C46.7498 146.433 47.1998 147.313 47.1998 148.493C47.1998 149.453 46.8898 150.343 46.2698 151.163C45.6498 151.983 44.7398 152.643 43.5398 153.143C42.3398 153.643 40.8898 153.893 39.1898 153.893C37.4498 153.893 35.9898 153.623 34.8098 153.083C33.6498 152.563 33.0698 151.783 33.0698 150.743C33.0698 150.063 33.3398 149.473 33.8798 148.973C34.4398 148.473 35.2098 148.083 36.1898 147.803L36.3698 148.283C35.9298 148.423 35.5798 148.703 35.3198 149.123C35.0598 149.543 34.9298 150.013 34.9298 150.533C34.9298 151.453 35.3398 152.153 36.1598 152.633C36.9998 153.133 38.1198 153.383 39.5198 153.383C41.0598 153.383 42.3798 153.083 43.4798 152.483C44.5798 151.903 45.1298 150.993 45.1298 149.753C45.1298 149.033 44.8698 148.473 44.3498 148.073C43.8498 147.673 42.9498 147.473 41.6498 147.473H39.4298C38.2498 147.473 37.2998 147.323 36.5798 147.023C35.8798 146.723 35.5298 146.123 35.5298 145.223C35.5298 144.603 35.7498 144.013 36.1898 143.453C36.6498 142.893 37.3998 142.343 38.4398 141.803C37.1198 141.663 36.0598 141.203 35.2598 140.423C34.4798 139.643 34.0898 138.543 34.0898 137.123C34.0898 135.543 34.5698 134.363 35.5298 133.583C36.4898 132.783 37.7598 132.383 39.3398 132.383C41.2198 132.383 42.6098 132.903 43.5098 133.943C43.8898 133.403 44.3698 132.963 44.9498 132.623C45.5298 132.263 46.1098 132.083 46.6898 132.083C47.2098 132.083 47.6298 132.233 47.9498 132.533C48.2698 132.833 48.4298 133.263 48.4298 133.823C48.4298 134.383 48.2698 134.803 47.9498 135.083C47.6498 135.363 47.3098 135.503 46.9298 135.503ZM39.3398 141.323C40.1398 141.323 40.7398 141.013 41.1398 140.393C41.5598 139.753 41.7698 138.663 41.7698 137.123C41.7698 135.583 41.5598 134.503 41.1398 133.883C40.7398 133.243 40.1398 132.923 39.3398 132.923C38.5398 132.923 37.9298 133.243 37.5098 133.883C37.1098 134.503 36.9098 135.583 36.9098 137.123C36.9098 138.663 37.1098 139.753 37.5098 140.393C37.9298 141.013 38.5398 141.323 39.3398 141.323ZM54.2294 135.983C54.7294 134.723 55.4194 133.813 56.2994 133.253C57.1994 132.673 58.2094 132.383 59.3294 132.383C60.7294 132.383 61.7894 132.763 62.5094 133.523C62.8894 133.923 63.1594 134.423 63.3194 135.023C63.4794 135.623 63.5594 136.433 63.5594 137.453V145.463C63.5594 146.283 63.7294 146.853 64.0694 147.173C64.4094 147.473 64.9994 147.623 65.8394 147.623V148.253C63.9994 148.173 62.7994 148.133 62.2394 148.133C61.6794 148.133 60.5594 148.173 58.8794 148.253V147.623C59.6194 147.623 60.1294 147.473 60.4094 147.173C60.7094 146.853 60.8594 146.283 60.8594 145.463V136.793C60.8594 135.673 60.6994 134.823 60.3794 134.243C60.0594 133.643 59.4094 133.343 58.4294 133.343C57.6094 133.343 56.8794 133.573 56.2394 134.033C55.6194 134.493 55.1294 135.143 54.7694 135.983C54.4094 136.803 54.2294 137.733 54.2294 138.773V145.463C54.2294 146.283 54.3694 146.853 54.6494 147.173C54.9494 147.473 55.4694 147.623 56.2094 147.623V148.253C54.5294 148.173 53.4094 148.133 52.8494 148.133C52.2894 148.133 51.0894 148.173 49.2494 148.253V147.623C50.0894 147.623 50.6794 147.473 51.0194 147.173C51.3594 146.853 51.5294 146.283 51.5294 145.463V128.363C51.5294 127.443 51.3594 126.773 51.0194 126.353C50.6794 125.933 50.0894 125.723 49.2494 125.723V125.093C49.8894 125.153 50.5094 125.183 51.1094 125.183C52.3694 125.183 53.4094 125.043 54.2294 124.763V135.983ZM78.8639 141.053H68.0339V139.313H78.8639V141.053ZM95.4246 151.193C95.4246 151.893 95.5646 152.373 95.8446 152.633C96.1446 152.913 96.6646 153.053 97.4046 153.053V153.683C95.7246 153.603 94.6446 153.563 94.1646 153.563C93.6046 153.563 92.3946 153.593 90.5346 153.653L89.8446 153.683V153.053C90.8046 153.053 91.5246 152.893 92.0046 152.573C92.4846 152.273 92.7246 151.713 92.7246 150.893V145.733C92.3246 146.673 91.7546 147.403 91.0146 147.923C90.2946 148.423 89.4646 148.673 88.5246 148.673C87.3446 148.673 86.2846 148.373 85.3446 147.773C84.4246 147.173 83.6946 146.263 83.1546 145.043C82.6146 143.823 82.3446 142.323 82.3446 140.543C82.3446 138.783 82.6246 137.293 83.1846 136.073C83.7446 134.833 84.5046 133.913 85.4646 133.313C86.4446 132.693 87.5446 132.383 88.7646 132.383C89.7846 132.383 90.6346 132.563 91.3146 132.923C91.9946 133.263 92.5546 133.813 92.9946 134.573L95.1246 132.323L95.6346 132.533C95.4946 133.033 95.4246 133.613 95.4246 134.273V151.193ZM89.3946 147.773C90.1346 147.773 90.8046 147.473 91.4046 146.873C92.0246 146.273 92.4646 145.423 92.7246 144.323V135.053C92.3446 134.393 91.8346 133.903 91.1946 133.583C90.5546 133.243 89.8246 133.073 89.0046 133.073C87.8046 133.073 86.8746 133.693 86.2146 134.933C85.5746 136.173 85.2546 138.043 85.2546 140.543C85.2546 142.943 85.6046 144.753 86.3046 145.973C87.0246 147.173 88.0546 147.773 89.3946 147.773ZM112.329 145.013C112.329 145.933 112.499 146.603 112.839 147.023C113.179 147.443 113.769 147.653 114.609 147.653V148.283C113.989 148.223 113.369 148.193 112.749 148.193C111.489 148.193 110.449 148.333 109.629 148.613V145.073C109.149 146.313 108.469 147.223 107.589 147.803C106.709 148.383 105.749 148.673 104.709 148.673C103.349 148.673 102.309 148.293 101.589 147.533C101.229 147.133 100.969 146.623 100.809 146.003C100.669 145.383 100.599 144.583 100.599 143.603V136.073C100.599 135.153 100.429 134.483 100.089 134.063C99.7489 133.643 99.1589 133.433 98.3189 133.433V132.803C98.9389 132.863 99.5589 132.893 100.179 132.893C101.439 132.893 102.479 132.753 103.299 132.473V144.263C103.299 145.023 103.339 145.643 103.419 146.123C103.519 146.583 103.729 146.963 104.049 147.263C104.389 147.563 104.899 147.713 105.579 147.713C106.339 147.713 107.029 147.473 107.649 146.993C108.269 146.513 108.749 145.863 109.089 145.043C109.449 144.203 109.629 143.283 109.629 142.283V136.073C109.629 135.153 109.459 134.483 109.119 134.063C108.779 133.643 108.189 133.433 107.349 133.433V132.803C107.969 132.863 108.589 132.893 109.209 132.893C110.469 132.893 111.509 132.753 112.329 132.473V145.013ZM120.161 148.463C118.901 148.463 117.961 148.153 117.341 147.533C116.741 146.893 116.441 146.013 116.441 144.893C116.441 143.993 116.681 143.253 117.161 142.673C117.661 142.093 118.241 141.633 118.901 141.293C119.581 140.953 120.471 140.593 121.571 140.213C122.691 139.833 123.521 139.483 124.061 139.163C124.601 138.843 124.871 138.413 124.871 137.873V136.013C124.871 134.853 124.621 134.063 124.121 133.643C123.641 133.203 122.961 132.983 122.081 132.983C120.681 132.983 119.691 133.343 119.111 134.063C119.511 134.163 119.841 134.373 120.101 134.693C120.381 135.013 120.521 135.413 120.521 135.893C120.521 136.393 120.361 136.793 120.041 137.093C119.721 137.373 119.311 137.513 118.811 137.513C118.251 137.513 117.831 137.343 117.551 137.003C117.271 136.643 117.131 136.213 117.131 135.713C117.131 135.233 117.241 134.833 117.461 134.513C117.701 134.193 118.051 133.873 118.511 133.553C118.991 133.213 119.601 132.933 120.341 132.713C121.081 132.493 121.891 132.383 122.771 132.383C124.331 132.383 125.511 132.753 126.311 133.493C126.811 133.953 127.141 134.513 127.301 135.173C127.481 135.813 127.571 136.663 127.571 137.723V146.063C127.571 146.563 127.641 146.923 127.781 147.143C127.921 147.363 128.161 147.473 128.501 147.473C128.741 147.473 128.961 147.423 129.161 147.323C129.381 147.203 129.611 147.043 129.851 146.843L130.181 147.353C129.661 147.753 129.211 148.043 128.831 148.223C128.471 148.383 128.011 148.463 127.451 148.463C126.491 148.463 125.821 148.223 125.441 147.743C125.061 147.263 124.871 146.613 124.871 145.793C124.271 146.793 123.581 147.493 122.801 147.893C122.021 148.273 121.141 148.463 120.161 148.463ZM121.481 147.263C122.801 147.263 123.931 146.503 124.871 144.983V139.103C124.691 139.383 124.441 139.613 124.121 139.793C123.801 139.973 123.311 140.213 122.651 140.513C121.891 140.833 121.271 141.143 120.791 141.443C120.331 141.723 119.931 142.113 119.591 142.613C119.251 143.113 119.081 143.753 119.081 144.533C119.081 145.433 119.301 146.113 119.741 146.573C120.181 147.033 120.761 147.263 121.481 147.263ZM135.852 145.463C135.852 146.283 136.022 146.853 136.362 147.173C136.702 147.473 137.292 147.623 138.132 147.623V148.253C136.292 148.173 135.082 148.133 134.502 148.133C133.922 148.133 132.712 148.173 130.872 148.253V147.623C131.712 147.623 132.302 147.473 132.642 147.173C132.982 146.853 133.152 146.283 133.152 145.463V128.333C133.152 127.413 132.982 126.743 132.642 126.323C132.302 125.903 131.712 125.693 130.872 125.693V125.063C131.492 125.123 132.112 125.153 132.732 125.153C133.992 125.153 135.032 125.013 135.852 124.733V145.463ZM143.086 125.303C143.606 125.303 144.056 125.493 144.436 125.873C144.816 126.253 145.006 126.703 145.006 127.223C145.006 127.743 144.816 128.193 144.436 128.573C144.056 128.953 143.606 129.143 143.086 129.143C142.566 129.143 142.116 128.953 141.736 128.573C141.356 128.193 141.166 127.743 141.166 127.223C141.166 126.703 141.356 126.253 141.736 125.873C142.116 125.493 142.566 125.303 143.086 125.303ZM144.646 145.463C144.646 146.283 144.816 146.853 145.156 147.173C145.496 147.473 146.086 147.623 146.926 147.623V148.253C145.086 148.173 143.876 148.133 143.296 148.133C142.716 148.133 141.506 148.173 139.666 148.253V147.623C140.506 147.623 141.096 147.473 141.436 147.173C141.776 146.853 141.946 146.283 141.946 145.463V136.073C141.946 135.153 141.776 134.483 141.436 134.063C141.096 133.643 140.506 133.433 139.666 133.433V132.803C140.306 132.863 140.926 132.893 141.526 132.893C142.786 132.893 143.826 132.753 144.646 132.473V145.463ZM153.285 132.833H157.725V133.433H153.285V145.043C153.285 145.943 153.445 146.593 153.765 146.993C154.105 147.393 154.585 147.593 155.205 147.593C155.825 147.593 156.355 147.343 156.795 146.843C157.235 146.343 157.605 145.523 157.905 144.383L158.505 144.533C158.005 147.293 156.705 148.673 154.605 148.673C153.925 148.673 153.365 148.593 152.925 148.433C152.485 148.273 152.095 148.023 151.755 147.683C151.315 147.243 151.005 146.703 150.825 146.063C150.665 145.423 150.585 144.563 150.585 143.483V133.433H147.705V132.833H150.585V128.243C151.705 128.203 152.605 128.063 153.285 127.823V132.833ZM170.73 132.893C171.61 132.893 172.37 132.863 173.01 132.803V133.403C172.61 133.443 172.25 133.623 171.93 133.943C171.63 134.263 171.34 134.783 171.06 135.503L166.14 148.403L165.12 151.013C164.74 151.993 164.31 152.693 163.83 153.113C163.53 153.393 163.17 153.593 162.75 153.713C162.33 153.833 161.91 153.893 161.49 153.893C160.89 153.893 160.4 153.733 160.02 153.413C159.64 153.093 159.45 152.653 159.45 152.093C159.45 151.613 159.59 151.223 159.87 150.923C160.15 150.643 160.54 150.503 161.04 150.503C161.48 150.503 161.84 150.623 162.12 150.863C162.42 151.123 162.57 151.473 162.57 151.913C162.57 152.513 162.3 152.963 161.76 153.263C161.8 153.283 161.86 153.293 161.94 153.293C163.04 153.293 163.89 152.513 164.49 150.953L165.54 148.223L160.11 135.113C159.77 134.433 159.43 133.983 159.09 133.763C158.75 133.543 158.41 133.433 158.07 133.433V132.803C158.93 132.923 159.91 132.983 161.01 132.983C162.01 132.983 163.31 132.923 164.91 132.803V133.433C164.19 133.433 163.66 133.493 163.32 133.613C163 133.733 162.84 134.023 162.84 134.483C162.84 134.903 162.96 135.393 163.2 135.953L166.8 144.893L170.13 136.223C170.35 135.623 170.46 135.163 170.46 134.843C170.46 134.383 170.28 134.043 169.92 133.823C169.56 133.603 168.99 133.463 168.21 133.403V132.803C169.27 132.863 170.11 132.893 170.73 132.893ZM54.703 185.463C54.703 186.283 54.873 186.853 55.213 187.173C55.553 187.473 56.143 187.623 56.983 187.623V188.253C55.143 188.173 53.943 188.133 53.383 188.133C52.823 188.133 51.703 188.173 50.023 188.253V187.623C50.763 187.623 51.273 187.473 51.553 187.173C51.853 186.853 52.003 186.283 52.003 185.463V176.793C52.003 176.033 51.953 175.423 51.853 174.963C51.773 174.483 51.563 174.093 51.223 173.793C50.903 173.493 50.403 173.343 49.723 173.343C48.963 173.343 48.273 173.583 47.653 174.063C47.033 174.543 46.543 175.203 46.183 176.043C45.843 176.863 45.673 177.773 45.673 178.773V185.463C45.673 186.283 45.843 186.853 46.183 187.173C46.523 187.473 47.113 187.623 47.953 187.623V188.253C46.113 188.173 44.913 188.133 44.353 188.133C43.793 188.133 42.673 188.173 40.993 188.253V187.623C41.733 187.623 42.243 187.473 42.523 187.173C42.823 186.853 42.973 186.283 42.973 185.463V176.793C42.973 176.033 42.923 175.423 42.823 174.963C42.743 174.483 42.533 174.093 42.193 173.793C41.873 173.493 41.373 173.343 40.693 173.343C39.933 173.343 39.243 173.583 38.623 174.063C38.003 174.543 37.513 175.203 37.153 176.043C36.813 176.883 36.643 177.803 36.643 178.803V185.463C36.643 186.283 36.783 186.853 37.063 187.173C37.363 187.473 37.883 187.623 38.623 187.623V188.253C36.943 188.173 35.823 188.133 35.263 188.133C34.703 188.133 33.503 188.173 31.663 188.253V187.623C32.503 187.623 33.093 187.473 33.433 187.173C33.773 186.853 33.943 186.283 33.943 185.463V176.073C33.943 175.153 33.773 174.483 33.433 174.063C33.093 173.643 32.503 173.433 31.663 173.433V172.803C32.303 172.863 32.923 172.893 33.523 172.893C34.783 172.893 35.823 172.753 36.643 172.473V176.013C37.123 174.773 37.803 173.863 38.683 173.283C39.563 172.683 40.523 172.383 41.563 172.383C42.923 172.383 43.963 172.763 44.683 173.523C45.183 174.043 45.493 174.843 45.613 175.923C46.113 174.663 46.803 173.763 47.683 173.223C48.563 172.663 49.533 172.383 50.593 172.383C51.953 172.383 52.993 172.763 53.713 173.523C54.073 173.923 54.323 174.433 54.463 175.053C54.623 175.673 54.703 176.473 54.703 177.453V185.463ZM62.3138 188.463C61.0538 188.463 60.1138 188.153 59.4938 187.533C58.8938 186.893 58.5938 186.013 58.5938 184.893C58.5938 183.993 58.8338 183.253 59.3138 182.673C59.8138 182.093 60.3938 181.633 61.0538 181.293C61.7338 180.953 62.6238 180.593 63.7238 180.213C64.8438 179.833 65.6738 179.483 66.2138 179.163C66.7538 178.843 67.0238 178.413 67.0238 177.873V176.013C67.0238 174.853 66.7738 174.063 66.2738 173.643C65.7938 173.203 65.1138 172.983 64.2338 172.983C62.8338 172.983 61.8438 173.343 61.2638 174.063C61.6638 174.163 61.9938 174.373 62.2538 174.693C62.5338 175.013 62.6738 175.413 62.6738 175.893C62.6738 176.393 62.5138 176.793 62.1938 177.093C61.8738 177.373 61.4638 177.513 60.9638 177.513C60.4038 177.513 59.9838 177.343 59.7038 177.003C59.4238 176.643 59.2838 176.213 59.2838 175.713C59.2838 175.233 59.3938 174.833 59.6138 174.513C59.8538 174.193 60.2038 173.873 60.6638 173.553C61.1438 173.213 61.7538 172.933 62.4938 172.713C63.2338 172.493 64.0438 172.383 64.9238 172.383C66.4838 172.383 67.6638 172.753 68.4638 173.493C68.9638 173.953 69.2938 174.513 69.4538 175.173C69.6338 175.813 69.7238 176.663 69.7238 177.723V186.063C69.7238 186.563 69.7938 186.923 69.9338 187.143C70.0738 187.363 70.3138 187.473 70.6538 187.473C70.8938 187.473 71.1138 187.423 71.3138 187.323C71.5338 187.203 71.7638 187.043 72.0038 186.843L72.3338 187.353C71.8138 187.753 71.3638 188.043 70.9838 188.223C70.6238 188.383 70.1638 188.463 69.6038 188.463C68.6438 188.463 67.9738 188.223 67.5938 187.743C67.2138 187.263 67.0238 186.613 67.0238 185.793C66.4238 186.793 65.7338 187.493 64.9538 187.893C64.1738 188.273 63.2938 188.463 62.3138 188.463ZM63.6338 187.263C64.9538 187.263 66.0838 186.503 67.0238 184.983V179.103C66.8438 179.383 66.5938 179.613 66.2738 179.793C65.9538 179.973 65.4638 180.213 64.8038 180.513C64.0438 180.833 63.4238 181.143 62.9438 181.443C62.4838 181.723 62.0838 182.113 61.7438 182.613C61.4038 183.113 61.2338 183.753 61.2338 184.533C61.2338 185.433 61.4538 186.113 61.8938 186.573C62.3338 187.033 62.9138 187.263 63.6338 187.263ZM78.0652 172.833H82.5052V173.433H78.0652V185.043C78.0652 185.943 78.2252 186.593 78.5452 186.993C78.8852 187.393 79.3652 187.593 79.9852 187.593C80.6052 187.593 81.1352 187.343 81.5752 186.843C82.0152 186.343 82.3852 185.523 82.6852 184.383L83.2852 184.533C82.7852 187.293 81.4852 188.673 79.3852 188.673C78.7052 188.673 78.1452 188.593 77.7052 188.433C77.2652 188.273 76.8752 188.023 76.5352 187.683C76.0952 187.243 75.7852 186.703 75.6052 186.063C75.4452 185.423 75.3652 184.563 75.3652 183.483V173.433H72.4852V172.833H75.3652V168.243C76.4852 168.203 77.3852 168.063 78.0652 167.823V172.833ZM96.8607 184.653C96.5007 185.753 95.8207 186.703 94.8207 187.503C93.8407 188.283 92.6507 188.673 91.2507 188.673C89.8307 188.673 88.6007 188.353 87.5607 187.713C86.5207 187.053 85.7207 186.143 85.1607 184.983C84.6207 183.803 84.3507 182.443 84.3507 180.903C84.3507 179.163 84.6307 177.653 85.1907 176.373C85.7507 175.093 86.5407 174.113 87.5607 173.433C88.5807 172.733 89.7707 172.383 91.1307 172.383C92.9307 172.383 94.3107 172.933 95.2707 174.033C96.2507 175.113 96.7407 176.763 96.7407 178.983H87.3507C87.2907 179.543 87.2607 180.183 87.2607 180.903C87.2607 182.223 87.4707 183.373 87.8907 184.353C88.3307 185.333 88.9007 186.093 89.6007 186.633C90.3207 187.153 91.0707 187.413 91.8507 187.413C92.8107 187.413 93.6607 187.183 94.4007 186.723C95.1407 186.263 95.7607 185.493 96.2607 184.413L96.8607 184.653ZM91.0107 172.953C90.0707 172.953 89.2607 173.413 88.5807 174.333C87.9007 175.253 87.4807 176.613 87.3207 178.413H93.8607C93.9007 176.853 93.6707 175.553 93.1707 174.513C92.6907 173.473 91.9707 172.953 91.0107 172.953ZM108.346 172.383C109.146 172.383 109.796 172.613 110.296 173.073C110.816 173.533 111.076 174.093 111.076 174.753C111.076 175.273 110.916 175.723 110.596 176.103C110.296 176.463 109.886 176.643 109.366 176.643C108.926 176.643 108.546 176.503 108.226 176.223C107.926 175.943 107.776 175.563 107.776 175.083C107.776 174.423 108.116 173.883 108.796 173.463C108.656 173.263 108.446 173.163 108.166 173.163C107.386 173.163 106.676 173.473 106.036 174.093C105.396 174.693 104.896 175.433 104.536 176.313C104.176 177.193 103.996 178.023 103.996 178.803V185.163C103.996 186.083 104.256 186.723 104.776 187.083C105.316 187.443 106.116 187.623 107.176 187.623V188.253L106.456 188.223C104.416 188.163 103.116 188.133 102.556 188.133C102.036 188.133 100.856 188.173 99.0165 188.253V187.623C99.8565 187.623 100.446 187.473 100.786 187.173C101.126 186.853 101.296 186.283 101.296 185.463V176.073C101.296 175.153 101.126 174.483 100.786 174.063C100.446 173.643 99.8565 173.433 99.0165 173.433V172.803C99.6565 172.863 100.276 172.893 100.876 172.893C102.136 172.893 103.176 172.753 103.996 172.473V176.223C104.356 175.223 104.926 174.333 105.706 173.553C106.506 172.773 107.386 172.383 108.346 172.383ZM115.796 165.303C116.316 165.303 116.766 165.493 117.146 165.873C117.526 166.253 117.716 166.703 117.716 167.223C117.716 167.743 117.526 168.193 117.146 168.573C116.766 168.953 116.316 169.143 115.796 169.143C115.276 169.143 114.826 168.953 114.446 168.573C114.066 168.193 113.876 167.743 113.876 167.223C113.876 166.703 114.066 166.253 114.446 165.873C114.826 165.493 115.276 165.303 115.796 165.303ZM117.356 185.463C117.356 186.283 117.526 186.853 117.866 187.173C118.206 187.473 118.796 187.623 119.636 187.623V188.253C117.796 188.173 116.586 188.133 116.006 188.133C115.426 188.133 114.216 188.173 112.376 188.253V187.623C113.216 187.623 113.806 187.473 114.146 187.173C114.486 186.853 114.656 186.283 114.656 185.463V176.073C114.656 175.153 114.486 174.483 114.146 174.063C113.806 173.643 113.216 173.433 112.376 173.433V172.803C113.016 172.863 113.636 172.893 114.236 172.893C115.496 172.893 116.536 172.753 117.356 172.473V185.463ZM125.185 188.463C123.925 188.463 122.985 188.153 122.365 187.533C121.765 186.893 121.465 186.013 121.465 184.893C121.465 183.993 121.705 183.253 122.185 182.673C122.685 182.093 123.265 181.633 123.925 181.293C124.605 180.953 125.495 180.593 126.595 180.213C127.715 179.833 128.545 179.483 129.085 179.163C129.625 178.843 129.895 178.413 129.895 177.873V176.013C129.895 174.853 129.645 174.063 129.145 173.643C128.665 173.203 127.985 172.983 127.105 172.983C125.705 172.983 124.715 173.343 124.135 174.063C124.535 174.163 124.865 174.373 125.125 174.693C125.405 175.013 125.545 175.413 125.545 175.893C125.545 176.393 125.385 176.793 125.065 177.093C124.745 177.373 124.335 177.513 123.835 177.513C123.275 177.513 122.855 177.343 122.575 177.003C122.295 176.643 122.155 176.213 122.155 175.713C122.155 175.233 122.265 174.833 122.485 174.513C122.725 174.193 123.075 173.873 123.535 173.553C124.015 173.213 124.625 172.933 125.365 172.713C126.105 172.493 126.915 172.383 127.795 172.383C129.355 172.383 130.535 172.753 131.335 173.493C131.835 173.953 132.165 174.513 132.325 175.173C132.505 175.813 132.595 176.663 132.595 177.723V186.063C132.595 186.563 132.665 186.923 132.805 187.143C132.945 187.363 133.185 187.473 133.525 187.473C133.765 187.473 133.985 187.423 134.185 187.323C134.405 187.203 134.635 187.043 134.875 186.843L135.205 187.353C134.685 187.753 134.235 188.043 133.855 188.223C133.495 188.383 133.035 188.463 132.475 188.463C131.515 188.463 130.845 188.223 130.465 187.743C130.085 187.263 129.895 186.613 129.895 185.793C129.295 186.793 128.605 187.493 127.825 187.893C127.045 188.273 126.165 188.463 125.185 188.463ZM126.505 187.263C127.825 187.263 128.955 186.503 129.895 184.983V179.103C129.715 179.383 129.465 179.613 129.145 179.793C128.825 179.973 128.335 180.213 127.675 180.513C126.915 180.833 126.295 181.143 125.815 181.443C125.355 181.723 124.955 182.113 124.615 182.613C124.275 183.113 124.105 183.753 124.105 184.533C124.105 185.433 124.325 186.113 124.765 186.573C125.205 187.033 125.785 187.263 126.505 187.263ZM140.876 185.463C140.876 186.283 141.046 186.853 141.386 187.173C141.726 187.473 142.316 187.623 143.156 187.623V188.253C141.316 188.173 140.106 188.133 139.526 188.133C138.946 188.133 137.736 188.173 135.896 188.253V187.623C136.736 187.623 137.326 187.473 137.666 187.173C138.006 186.853 138.176 186.283 138.176 185.463V168.333C138.176 167.413 138.006 166.743 137.666 166.323C137.326 165.903 136.736 165.693 135.896 165.693V165.063C136.516 165.123 137.136 165.153 137.756 165.153C139.016 165.153 140.056 165.013 140.876 164.733V185.463Z" fill="white"/>
<path d="M49.5547 10.9821C49.113 11.3136 49.0236 11.9404 49.3551 12.3822C49.6866 12.8239 50.3134 12.9133 50.7552 12.5818L49.5547 10.9821ZM55.7271 9.2784C56.2039 8.99968 56.3645 8.38722 56.0858 7.91042C55.8071 7.43362 55.1946 7.27304 54.7178 7.55176L55.7271 9.2784ZM50.7552 12.5818C52.3442 11.3892 54.004 10.2857 55.7271 9.2784L54.7178 7.55176C52.9283 8.59782 51.2047 9.74384 49.5547 10.9821L50.7552 12.5818Z" fill="#006389"/>
<path d="M58.9691 5.43128C58.4688 5.66534 58.2531 6.2606 58.4871 6.76083C58.7212 7.26107 59.3165 7.47685 59.8167 7.24279L58.9691 5.43128ZM65.5334 4.97222C66.0579 4.7993 66.343 4.23392 66.17 3.7094C65.9971 3.18488 65.4317 2.89986 64.9072 3.07278L65.5334 4.97222ZM59.8167 7.24279C61.6654 6.37776 63.5736 5.61832 65.5334 4.97222L64.9072 3.07278C62.8714 3.74393 60.8893 4.5328 58.9691 5.43128L59.8167 7.24279Z" fill="#006389"/>
<path d="M69.6388 1.7006C69.0936 1.78906 68.7234 2.3027 68.8119 2.84785C68.9003 3.39301 69.414 3.76324 69.9591 3.67478L69.6388 1.7006ZM75.7823 3.06547C76.334 3.03907 76.7598 2.57046 76.7334 2.01881C76.707 1.46716 76.2384 1.04135 75.6867 1.06775L75.7823 3.06547ZM69.9591 3.67478C71.8702 3.36471 73.8135 3.15968 75.7823 3.06547L75.6867 1.06775C73.6422 1.16559 71.6239 1.37851 69.6388 1.7006L69.9591 3.67478Z" fill="#006389"/>
<path d="M80.4963 0.736357C79.9445 0.759235 79.5165 1.22515 79.5402 1.777C79.5639 2.32886 80.0303 2.75768 80.5821 2.7348L80.4963 0.736357ZM85.654 2.77015C86.2054 2.80056 86.6764 2.37814 86.706 1.82665C86.7356 1.27516 86.3126 0.803437 85.7611 0.773026L85.654 2.77015ZM80.5821 2.7348C82.2549 2.66543 83.9469 2.67601 85.654 2.77015L85.7611 0.773026C83.9897 0.675337 82.2333 0.664327 80.4963 0.736357L80.5821 2.7348Z" fill="#006389"/>
<path d="M91.7188 1.6277C91.1754 1.52865 90.654 1.88865 90.5544 2.4318C90.4547 2.97495 90.8144 3.49555 91.3578 3.5946L91.7188 1.6277ZM96.2983 4.74462C96.8296 4.89555 97.3831 4.58739 97.5347 4.05632C97.6863 3.52525 97.3786 2.97237 96.8473 2.82144L96.2983 4.74462ZM91.3578 3.5946C93.0053 3.89493 94.6537 4.27738 96.2983 4.74462L96.8473 2.82144C95.1407 2.33659 93.4296 1.93955 91.7188 1.6277L91.3578 3.5946Z" fill="#006389"/>
<path d="M101.718 4.54234C101.204 4.33977 100.622 4.59169 100.419 5.10502C100.215 5.61835 100.467 6.19871 100.981 6.40128L101.718 4.54234ZM105.603 8.48642C106.095 8.73745 106.698 8.54256 106.95 8.0511C107.202 7.55965 107.007 6.95774 106.515 6.70671L105.603 8.48642ZM100.981 6.40128C102.538 7.01519 104.081 7.70967 105.603 8.48642L106.515 6.70671C104.936 5.9007 103.335 5.17979 101.718 4.54234L100.981 6.40128Z" fill="#006389"/>
<path d="M112.08 10.1037C111.626 9.78943 111.002 9.90216 110.687 10.3555C110.371 10.8089 110.484 11.4312 110.938 11.7455L112.08 10.1037ZM114.962 14.827C115.384 15.1836 116.015 15.1313 116.373 14.7103C116.73 14.2894 116.678 13.6591 116.256 13.3026L114.962 14.827ZM110.938 11.7455C112.315 12.6975 113.657 13.7245 114.962 14.827L116.256 13.3026C114.903 12.1585 113.509 11.0923 112.08 10.1037L110.938 11.7455Z" fill="#006389"/>
<path d="M119.348 16.1424C118.95 15.7594 118.316 15.7708 117.932 16.1679C117.549 16.5649 117.56 17.1972 117.958 17.5802L119.348 16.1424ZM121.435 21.265C121.794 21.6844 122.426 21.7341 122.846 21.3758C123.267 21.0176 123.316 20.3871 122.957 19.9676L121.435 21.265ZM117.958 17.5802C119.164 18.7398 120.324 19.9682 121.435 21.265L122.957 19.9676C121.804 18.6219 120.6 17.3466 119.348 16.1424L117.958 17.5802Z" fill="#006389"/>
<path d="M134.265 44.1034C134.166 43.5599 133.646 43.1989 133.102 43.297C132.559 43.3952 132.198 43.9154 132.296 44.4588L134.265 44.1034ZM132.955 49.4759C133.001 50.0263 133.484 50.4359 134.034 50.3907C134.585 50.3455 134.994 49.8626 134.949 49.3122L132.955 49.4759ZM132.296 44.4588C132.594 46.1027 132.815 47.7762 132.955 49.4759L134.949 49.3122C134.803 47.5481 134.574 45.8106 134.265 44.1034L132.296 44.4588Z" fill="#006389"/>
<path d="M131.794 33.9855C131.611 33.4644 131.04 33.1899 130.519 33.3724C129.998 33.5549 129.724 34.1253 129.907 34.6464L131.794 33.9855ZM131.351 39.4969C131.483 40.0332 132.025 40.3615 132.562 40.2301C133.098 40.0988 133.426 39.5576 133.294 39.0213L131.351 39.4969ZM129.907 34.6464C130.461 36.2228 130.944 37.8406 131.351 39.4969L133.294 39.0213C132.871 37.3022 132.37 35.6226 131.794 33.9855L129.907 34.6464Z" fill="#006389"/>
<path d="M127.09 24.737C126.791 24.2724 126.172 24.1373 125.707 24.4352C125.242 24.7331 125.107 25.3512 125.406 25.8157L127.09 24.737ZM127.936 30.2014C128.189 30.6925 128.792 30.8866 129.284 30.635C129.775 30.3833 129.969 29.7811 129.717 29.29L127.936 30.2014ZM125.406 25.8157C126.311 27.2215 127.156 28.684 127.936 30.2014L129.717 29.29C128.907 27.7152 128.029 26.1969 127.09 24.737L125.406 25.8157Z" fill="#006389"/>
<path d="M135.124 54.2357C135.134 53.6835 134.694 53.2284 134.141 53.2191C133.589 53.2098 133.134 53.6499 133.124 54.2021L135.124 54.2357ZM132.791 59.2511C132.728 59.7998 133.122 60.2954 133.671 60.3579C134.22 60.4205 134.715 60.0264 134.778 59.4777L132.791 59.2511ZM133.124 54.2021C133.095 55.8723 132.985 57.5567 132.791 59.2511L134.778 59.4777C134.98 57.7191 135.094 55.9703 135.124 54.2357L133.124 54.2021Z" fill="#006389"/>
<path d="M134.021 64.6768C134.132 64.1359 133.784 63.6078 133.242 63.4974C132.701 63.387 132.172 63.7359 132.061 64.2769L134.021 64.6768ZM130.804 69.1789C130.641 69.7066 130.937 70.2659 131.465 70.428C131.993 70.5902 132.553 70.2938 132.716 69.7661L130.804 69.1789ZM132.061 64.2769C131.725 65.9133 131.307 67.5489 130.804 69.1789L132.716 69.7661C133.238 68.0744 133.672 66.3763 134.021 64.6768L132.061 64.2769Z" fill="#006389"/>
<path d="M131.151 73.902C131.354 73.3883 131.101 72.8084 130.587 72.6067C130.072 72.405 129.491 72.6579 129.289 73.1715L131.151 73.902ZM127.205 77.785C126.954 78.2768 127.149 78.8785 127.642 79.1288C128.134 79.3792 128.737 79.1834 128.988 78.6916L127.205 77.785ZM129.289 73.1715C128.676 74.726 127.982 76.2655 127.205 77.785L128.988 78.6916C129.794 77.1146 130.514 75.5163 131.151 73.902L129.289 73.1715Z" fill="#006389"/>
<path d="M126.184 83.3567C126.491 82.8975 126.367 82.2774 125.907 81.9717C125.446 81.666 124.825 81.7904 124.518 82.2497L126.184 83.3567ZM121.505 86.3204C121.156 86.748 121.22 87.3772 121.648 87.7257C122.076 88.0743 122.707 88.0102 123.057 87.5826L121.505 86.3204ZM124.518 82.2497C123.59 83.64 122.586 84.9986 121.505 86.3204L123.057 87.5826C124.178 86.211 125.22 84.8005 126.184 83.3567L124.518 82.2497Z" fill="#006389"/>
<path d="M119.436 91.5343C119.826 91.1435 119.824 90.511 119.432 90.1217C119.04 89.7324 118.406 89.7336 118.016 90.1244L119.436 91.5343ZM114.268 93.5335C113.842 93.885 113.782 94.5146 114.135 94.9398C114.487 95.3649 115.118 95.4247 115.544 95.0731L114.268 93.5335ZM118.016 90.1244C116.835 91.3083 115.585 92.4464 114.268 93.5335L115.544 95.0731C116.911 93.9451 118.209 92.7636 119.436 91.5343L118.016 90.1244Z" fill="#006389"/>
<path d="M111.003 98.2861C111.458 97.9724 111.571 97.3501 111.256 96.8961C110.942 96.4421 110.318 96.3283 109.864 96.642L111.003 98.2861ZM105.557 99.3163C105.075 99.5848 104.902 100.193 105.172 100.675C105.441 101.157 106.051 101.331 106.533 101.062L105.557 99.3163ZM109.864 96.642C108.487 97.5924 107.051 98.4856 105.557 99.3163L106.533 101.062C108.083 100.2 109.573 99.273 111.003 98.2861L109.864 96.642Z" fill="#006389"/>
<path d="M100.432 103.656C100.945 103.452 101.195 102.87 100.99 102.357C100.785 101.844 100.203 101.594 99.6896 101.798L100.432 103.656ZM94.892 103.444C94.3616 103.598 94.0569 104.153 94.2115 104.683C94.366 105.213 94.9213 105.518 95.4517 105.364L94.892 103.444ZM99.6896 101.798C98.134 102.418 96.534 102.968 94.892 103.444L95.4517 105.364C97.1556 104.87 98.8165 104.299 100.432 103.656L99.6896 101.798Z" fill="#006389"/>
<path d="M89.0642 106.483C89.6111 106.407 89.9924 105.901 89.9158 105.354C89.8392 104.807 89.3338 104.426 88.7868 104.502L89.0642 106.483ZM83.7353 104.961C83.1835 104.984 82.7552 105.451 82.7788 106.003C82.8023 106.554 83.2687 106.983 83.8205 106.959L83.7353 104.961ZM88.7868 104.502C87.1284 104.734 85.4434 104.889 83.7353 104.961L83.8205 106.959C85.593 106.884 87.3422 106.724 89.0642 106.483L88.7868 104.502Z" fill="#006389"/>
<path d="M77.8153 106.796C78.3665 106.832 78.8422 106.413 78.8778 105.862C78.9134 105.311 78.4955 104.836 77.9443 104.801L77.8153 106.796ZM72.9036 104.233C72.3584 104.145 71.8446 104.515 71.7561 105.06C71.6675 105.605 72.0377 106.119 72.5829 106.207L72.9036 104.233ZM77.9443 104.801C76.273 104.694 74.5913 104.506 72.9036 104.233L72.5829 106.207C74.3343 106.49 76.0799 106.686 77.8153 106.796L77.9443 104.801Z" fill="#006389"/>
<path d="M64.9035 103.758C65.4213 103.95 65.9977 103.686 66.1909 103.169C66.384 102.652 66.1208 102.077 65.603 101.884L64.9035 103.758ZM60.9403 99.8916C60.4435 99.6504 59.8445 99.8573 59.6024 100.354C59.3603 100.85 59.5668 101.448 60.0636 101.689L60.9403 99.8916ZM65.603 101.884C64.0336 101.301 62.4777 100.638 60.9403 99.8916L60.0636 101.689C61.6589 102.464 63.2739 103.152 64.9035 103.758L65.603 101.884Z" fill="#006389"/>
<path d="M53.6242 98.3303C54.0953 98.6188 54.7118 98.4714 55.0012 98.0012C55.2906 97.5309 55.1433 96.9159 54.6723 96.6274L53.6242 98.3303ZM50.4828 93.7746C50.0417 93.4422 49.4139 93.5296 49.0805 93.9699C48.747 94.4101 48.8343 95.0365 49.2753 95.369L50.4828 93.7746ZM54.6723 96.6274C53.2451 95.7535 51.8469 94.8028 50.4828 93.7746L49.2753 95.369C50.6908 96.4359 52.1423 97.4228 53.6242 98.3303L54.6723 96.6274Z" fill="#006389"/>
<path d="M44.9524 91.5091C45.3485 91.8943 45.9823 91.8863 46.3681 91.4913C46.754 91.0964 46.7458 90.464 46.3497 90.0788L44.9524 91.5091ZM42.8932 86.3755C42.5362 85.9541 41.9045 85.9011 41.4823 86.2571C41.0601 86.6131 41.0072 87.2433 41.3641 87.6647L42.8932 86.3755ZM46.3497 90.0788C45.1507 88.9128 43.9967 87.6782 42.8932 86.3755L41.3641 87.6647C42.5093 89.0166 43.7073 90.2982 44.9524 91.5091L46.3497 90.0788Z" fill="#006389"/>
<path d="M37.7468 82.896C38.0517 83.3567 38.6726 83.4838 39.1336 83.1799C39.5947 82.876 39.7213 82.2563 39.4164 81.7956L37.7468 82.896ZM36.8298 77.443C36.5708 76.9552 35.965 76.7689 35.4767 77.0269C34.9884 77.2849 34.8025 77.8895 35.0614 78.3773L36.8298 77.443ZM39.4164 81.7956C38.4938 80.4016 37.6299 78.9502 36.8298 77.443L35.0614 78.3773C35.8918 79.9415 36.7887 81.4483 37.7468 82.896L39.4164 81.7956Z" fill="#006389"/>
<path d="M33.0777 73.7778C33.2984 74.2842 33.888 74.5163 34.3945 74.2963C34.901 74.0763 35.1326 73.4875 34.9119 72.9812L33.0777 73.7778ZM33.1164 68.2488C32.9456 67.7236 32.3812 67.4357 31.8558 67.6058C31.3303 67.7758 31.0428 68.3395 31.2136 68.8647L33.1164 68.2488ZM34.9119 72.9812C34.2441 71.4493 33.644 69.8711 33.1164 68.2488L31.2136 68.8647C31.7612 70.5484 32.3842 72.1869 33.0777 73.7778L34.9119 72.9812Z" fill="#006389"/>
<path d="M29.9287 63.5989C30.0439 64.1391 30.5751 64.4839 31.1153 64.3691C31.6555 64.2542 32.0001 63.7232 31.8849 63.1831L29.9287 63.5989ZM31.0714 58.1886C31.009 57.6399 30.5135 57.2454 29.9647 57.3075C29.4159 57.3696 29.0217 57.8648 29.0841 58.4136L31.0714 58.1886ZM31.8849 63.1831C31.5367 61.5491 31.2641 59.8832 31.0714 58.1886L29.0841 58.4136C29.2841 60.1724 29.5671 61.902 29.9287 63.5989L31.8849 63.1831Z" fill="#006389"/>
<path d="M28.8766 52.5286C28.8819 53.0808 29.3339 53.524 29.8862 53.5185C30.4385 53.513 30.8819 53.0609 30.8766 52.5086L28.8766 52.5286ZM31.0735 47.4525C31.1216 46.9023 30.7145 46.4175 30.1643 46.3696C29.6141 46.3218 29.1291 46.729 29.081 47.2792L31.0735 47.4525ZM30.8766 52.5086C30.8606 50.8382 30.925 49.1515 31.0735 47.4525L29.081 47.2792C28.9269 49.0426 28.86 50.7938 28.8766 52.5286L30.8766 52.5086Z" fill="#006389"/>
<path d="M30.4053 40.3966C30.3021 40.939 30.6584 41.4619 31.2012 41.5645C31.7439 41.667 32.2676 41.3104 32.3708 40.7679L30.4053 40.3966ZM33.5564 35.848C33.7115 35.318 33.4074 34.7631 32.8771 34.6087C32.3469 34.4542 31.7913 34.7587 31.6361 35.2888L33.5564 35.848ZM32.3708 40.7679C32.6829 39.1267 33.0773 37.4852 33.5564 35.848L31.6361 35.2888C31.1389 36.9879 30.7295 38.6921 30.4053 40.3966L32.3708 40.7679Z" fill="#006389"/>
<path d="M34.4294 28.7796C34.1787 29.2716 34.3749 29.8729 34.8677 30.1227C35.3604 30.3724 35.963 30.176 36.2137 29.684L34.4294 28.7796ZM38.7279 25.2892C39.0249 24.8236 38.8877 24.2062 38.4215 23.9102C37.9552 23.6142 37.3365 23.7516 37.0395 24.2173L38.7279 25.2892ZM36.2137 29.684C36.9724 28.1948 37.81 26.7281 38.7279 25.2892L37.0395 24.2173C36.0869 25.7105 35.2172 27.2331 34.4294 28.7796L36.2137 29.684Z" fill="#006389"/>
<path d="M41.4558 17.9071C41.0879 18.3189 41.1243 18.9503 41.5371 19.3173C41.9499 19.6844 42.5828 19.6482 42.9507 19.2364L41.4558 17.9071ZM46.5048 15.6261C46.9108 15.2517 46.9355 14.6197 46.5601 14.2147C46.1846 13.8096 45.5512 13.7848 45.1453 14.1593L46.5048 15.6261ZM42.9507 19.2364C44.0648 17.9893 45.2496 16.7841 46.5048 15.6261L45.1453 14.1593C43.8427 15.361 42.6127 16.6121 41.4558 17.9071L42.9507 19.2364Z" fill="#006389"/>
<ellipse cx="82.1411" cy="53.0337" rx="50.243" ry="50.1245" fill="#D6BAA4"/>
<path d="M65.4608 49.7547C70.2125 41.8289 74.8839 36.4058 82.0115 27.5107L96.5413 46.7134C99.3305 50.3996 100.84 54.8957 100.84 59.5182C100.84 60.6011 100.757 61.6823 100.592 62.7525L100.383 64.1045C100.085 66.0382 99.4948 67.9154 98.6325 69.6718C97.6937 71.584 96.4449 73.3278 94.9368 74.8323L94.0844 75.6827C93.2282 76.5369 92.2822 77.296 91.2628 77.9469C88.5653 79.6692 85.4315 80.5844 82.2309 80.5844H81.9199C79.896 80.5844 77.8869 80.2402 75.9785 79.5665L75.3638 79.3495C72.8176 78.4506 70.4988 77.0059 68.5698 75.1165C66.4016 72.9926 64.7885 70.3684 63.8727 67.4747L63.6521 66.7777C62.4854 63.0911 62.3415 59.1386 63.2271 55.3747C63.6908 53.4042 64.4199 51.4909 65.4608 49.7547Z" fill="#A3E0FB"/>
<path d="M82.0115 27.5107L82.8089 26.9074L82.0341 25.8833L81.2311 26.8854L82.0115 27.5107ZM65.4608 49.7547L66.3185 50.2689L65.4608 49.7547ZM63.6521 66.7777L62.6987 67.0794H62.6987L63.6521 66.7777ZM63.8727 67.4747L64.8261 67.1729H64.8261L63.8727 67.4747ZM75.3638 79.3495L75.0309 80.2924L75.3638 79.3495ZM75.9785 79.5665L76.3114 78.6235L75.9785 79.5665ZM94.0844 75.6827L94.7907 76.3906L94.0844 75.6827ZM94.9368 74.8323L95.6431 75.5403V75.5403L94.9368 74.8323ZM100.383 64.1045L99.3951 63.9521L100.383 64.1045ZM100.592 62.7525L99.6035 62.6001L99.6035 62.6001L100.592 62.7525ZM70.7909 52.8718C71.0546 52.3865 70.875 51.7794 70.3898 51.5157C69.9045 51.252 69.2973 51.4316 69.0336 51.9168L70.7909 52.8718ZM69.2203 53.6676L70.099 54.1451L69.2203 53.6676ZM73.4762 72.5811L72.9766 73.4473L73.4762 72.5811ZM76.6631 75.5736C77.1415 75.8495 77.753 75.6853 78.0289 75.2069C78.3049 74.7285 78.1407 74.117 77.6623 73.8411L76.6631 75.5736ZM96.5413 46.7134L97.3387 46.11L96.5413 46.7134ZM68.2969 66.7418L69.2166 66.3491H69.2166L68.2969 66.7418ZM98.6325 69.6718L99.5302 70.1125L98.6325 69.6718ZM91.2628 77.9469L90.7247 77.104L91.2628 77.9469ZM68.5698 75.1165L67.8701 75.8309H67.8701L68.5698 75.1165ZM63.2271 55.3747L62.2537 55.1456L63.2271 55.3747ZM81.2311 26.8854C74.1275 35.7506 69.3991 41.241 64.6031 49.2405L66.3185 50.2689C71.026 42.4169 75.6403 37.061 82.7918 28.1361L81.2311 26.8854ZM62.6987 67.0794L62.9193 67.7764L64.8261 67.1729L64.6055 66.4759L62.6987 67.0794ZM75.0309 80.2924L75.6456 80.5094L76.3114 78.6235L75.6967 78.4065L75.0309 80.2924ZM81.9199 81.5844H82.2309V79.5844H81.9199V81.5844ZM94.7907 76.3906L95.6431 75.5403L94.2305 74.1244L93.3782 74.9747L94.7907 76.3906ZM101.372 64.2569L101.58 62.9049L99.6035 62.6001L99.3951 63.9521L101.372 64.2569ZM69.0336 51.9168L68.3417 53.1902L70.099 54.1451L70.7909 52.8718L69.0336 51.9168ZM66.3067 61.1971V61.9006H68.3067V61.1971H66.3067ZM72.9766 73.4473L76.6631 75.5736L77.6623 73.8411L73.9758 71.7148L72.9766 73.4473ZM97.3387 46.11L82.8089 26.9074L81.214 28.1141L95.7438 47.3168L97.3387 46.11ZM101.84 59.5182C101.84 54.6779 100.259 49.9699 97.3387 46.11L95.7438 47.3168C98.4016 50.8293 99.8398 55.1135 99.8398 59.5182H101.84ZM67.3772 67.1344C68.5108 69.7896 70.4757 72.0049 72.9766 73.4473L73.9758 71.7148C71.8502 70.4889 70.18 68.6059 69.2166 66.3491L67.3772 67.1344ZM66.3067 61.9006C66.3067 63.6996 66.6708 65.4799 67.3772 67.1344L69.2166 66.3491C68.6162 64.9429 68.3067 63.4297 68.3067 61.9006H66.3067ZM101.58 62.9049C101.753 61.7843 101.84 60.6521 101.84 59.5182H99.8398C99.8398 60.55 99.7608 61.5804 99.6035 62.6001L101.58 62.9049ZM99.5302 70.1125C100.437 68.2652 101.058 66.2908 101.372 64.2569L99.3951 63.9521C99.1123 65.7857 98.5525 67.5657 97.7349 69.2311L99.5302 70.1125ZM95.6431 75.5403C97.2293 73.9578 98.5427 72.1238 99.5302 70.1125L97.7349 69.2311C96.8447 71.0443 95.6606 72.6977 94.2305 74.1244L95.6431 75.5403ZM91.801 78.7897C92.8811 78.1001 93.8835 77.2957 94.7907 76.3906L93.3782 74.9747C92.573 75.778 91.6833 76.4919 90.7247 77.104L91.801 78.7897ZM82.2309 81.5844C85.6222 81.5844 88.9427 80.6147 91.801 78.7897L90.7247 77.104C88.1879 78.7238 85.2408 79.5844 82.2309 79.5844V81.5844ZM75.6456 80.5094C77.661 81.2209 79.7826 81.5844 81.9199 81.5844V79.5844C80.0094 79.5844 78.1129 79.2594 76.3114 78.6235L75.6456 80.5094ZM67.8701 75.8309C69.9032 77.8223 72.3473 79.3451 75.0309 80.2924L75.6967 78.4065C73.288 77.5562 71.0944 76.1895 69.2696 74.4021L67.8701 75.8309ZM62.9193 67.7764C63.8846 70.8264 65.5847 73.5923 67.8701 75.8309L69.2696 74.4021C67.2184 72.3929 65.6925 69.9104 64.8261 67.1729L62.9193 67.7764ZM62.2537 55.1456C61.327 59.0842 61.4773 63.2201 62.6987 67.0794L64.6055 66.4759C63.4934 62.9622 63.3559 59.1931 64.2005 55.6037L62.2537 55.1456ZM68.3417 53.1902C67.0062 55.6477 66.3067 58.4002 66.3067 61.1971H68.3067C68.3067 58.7337 68.9228 56.3095 70.099 54.1451L68.3417 53.1902ZM64.6031 49.2405C63.5019 51.0773 62.7375 53.0894 62.2537 55.1456L64.2005 55.6037C64.644 53.7189 65.3379 51.9044 66.3185 50.2689L64.6031 49.2405Z" fill="#006389"/>
<path d="M105.085 54.3161L104.959 54.9155C104.757 55.8776 104.349 56.7845 103.763 57.5737C102.871 58.7758 101.607 59.6498 100.167 60.0602L99.5546 60.2347C97.7879 60.7383 95.9069 60.6681 94.1825 60.0343L93.2965 59.7087C92.7875 59.5216 92.2987 59.2835 91.8377 58.998L91.4033 58.729C90.0132 57.8682 88.9864 56.5282 88.5167 54.9621C88.2503 54.0739 88.1715 53.14 88.2852 52.2198L88.3788 51.4621C88.5763 49.8626 89.1456 48.3315 90.0411 46.9915L92.7576 42.9263L96.8359 36.8232L103.048 45.7192C103.587 46.4917 104.033 47.3254 104.376 48.2029L104.63 48.8513C105.31 50.5899 105.468 52.489 105.085 54.3161Z" fill="#4696E6"/>
<path d="M104.959 54.9155L105.938 55.1208L104.959 54.9155ZM105.085 54.3161L106.064 54.5214L105.085 54.3161ZM104.63 48.8513L103.699 49.2156V49.2156L104.63 48.8513ZM104.376 48.2029L105.308 47.8387L105.308 47.8386L104.376 48.2029ZM103.048 45.7192L103.868 45.1466V45.1466L103.048 45.7192ZM96.8359 36.8232L97.6558 36.2507L96.8178 35.0506L96.0045 36.2676L96.8359 36.8232ZM88.3788 51.4621L89.3712 51.5847L88.3788 51.4621ZM88.2852 52.2198L87.2927 52.0972L88.2852 52.2198ZM91.4033 58.729L90.8768 59.5792L91.4033 58.729ZM91.8377 58.998L91.3112 59.8482H91.3112L91.8377 58.998ZM93.2965 59.7087L92.9515 60.6473L92.9515 60.6473L93.2965 59.7087ZM94.1825 60.0343L94.5275 59.0957H94.5275L94.1825 60.0343ZM99.5546 60.2347L99.2805 59.273L99.5546 60.2347ZM100.167 60.0602L100.441 61.0219L100.167 60.0602ZM92.7576 42.9263L91.9261 42.3707L91.9261 42.3707L92.7576 42.9263ZM90.0411 46.9915L89.2097 46.4358L90.0411 46.9915ZM93.3754 55.7161L93.917 54.8754H93.917L93.3754 55.7161ZM93.2937 56.853C93.7579 57.1521 94.3768 57.0182 94.6759 56.5539C94.975 56.0896 94.8411 55.4708 94.3768 55.1717L93.2937 56.853ZM93.4735 50.1547C93.6581 49.6342 93.3857 49.0626 92.8651 48.8781C92.3446 48.6935 91.773 48.9659 91.5885 49.4864L93.4735 50.1547ZM92.1346 50.9387L91.1921 50.6046L91.1921 50.6046L92.1346 50.9387ZM88.5167 54.9621L89.4746 54.6749L88.5167 54.9621ZM92.1291 54.2515L93.0455 53.8513L93.0455 53.8513L92.1291 54.2515ZM103.763 57.5737L102.96 56.9776L103.763 57.5737ZM105.938 55.1208L106.064 54.5214L104.106 54.1108L103.98 54.7102L105.938 55.1208ZM105.561 48.487L105.308 47.8387L103.445 48.5672L103.699 49.2156L105.561 48.487ZM103.868 45.1466L97.6558 36.2507L96.016 37.3958L102.228 46.2917L103.868 45.1466ZM87.3863 51.3395L87.2927 52.0972L89.2776 52.3423L89.3712 51.5847L87.3863 51.3395ZM90.8768 59.5792L91.3112 59.8482L92.3641 58.1478L91.9297 57.8788L90.8768 59.5792ZM92.9515 60.6473L93.8375 60.9729L94.5275 59.0957L93.6414 58.77L92.9515 60.6473ZM99.8287 61.1964L100.441 61.0219L99.8927 59.0985L99.2805 59.273L99.8287 61.1964ZM96.0045 36.2676L91.9261 42.3707L93.589 43.4819L97.6674 37.3788L96.0045 36.2676ZM91.9261 42.3707L89.2097 46.4358L90.8725 47.5471L93.589 43.4819L91.9261 42.3707ZM92.8339 56.5567L93.2937 56.853L94.3768 55.1717L93.917 54.8754L92.8339 56.5567ZM91.5885 49.4864L91.1921 50.6046L93.0771 51.2729L93.4735 50.1547L91.5885 49.4864ZM90.8513 52.5859V52.9211H92.8513V52.5859H90.8513ZM91.1921 50.6046C90.9665 51.2408 90.8513 51.9109 90.8513 52.5859H92.8513C92.8513 52.1386 92.9277 51.6945 93.0771 51.2729L91.1921 50.6046ZM93.8375 60.9729C95.7606 61.6798 97.8584 61.758 99.8287 61.1964L99.2805 59.273C97.7174 59.7185 96.0531 59.6565 94.5275 59.0957L93.8375 60.9729ZM91.3112 59.8482C91.8296 60.1692 92.3792 60.4369 92.9515 60.6473L93.6414 58.77C93.1958 58.6062 92.7678 58.3977 92.3641 58.1478L91.3112 59.8482ZM87.5588 55.2494C88.0987 57.0495 89.279 58.5898 90.8768 59.5792L91.9297 57.8788C90.7474 57.1467 89.874 56.0069 89.4746 54.6749L87.5588 55.2494ZM87.2927 52.0972C87.162 53.155 87.2527 54.2284 87.5588 55.2494L89.4746 54.6749C89.248 53.9194 89.1809 53.1251 89.2776 52.3423L87.2927 52.0972ZM105.308 47.8386C104.936 46.8876 104.452 45.984 103.868 45.1466L102.228 46.2917C102.722 46.9994 103.131 47.7633 103.445 48.5672L105.308 47.8386ZM91.2126 54.6516C91.5536 55.4325 92.1176 56.0953 92.8339 56.5567L93.917 54.8754C93.532 54.6274 93.2288 54.2711 93.0455 53.8513L91.2126 54.6516ZM106.064 54.5214C106.487 52.5039 106.312 50.4068 105.561 48.487L103.699 49.2156C104.308 50.7729 104.45 52.4742 104.106 54.1108L106.064 54.5214ZM93.0455 53.8513C92.9174 53.5579 92.8513 53.2412 92.8513 52.9211H90.8513C90.8513 53.5166 90.9743 54.1058 91.2126 54.6516L93.0455 53.8513ZM104.566 58.1698C105.238 57.2646 105.706 56.2243 105.938 55.1208L103.98 54.7102C103.808 55.5308 103.46 56.3044 102.96 56.9776L104.566 58.1698ZM89.3712 51.5847C89.5496 50.1401 90.0638 48.7573 90.8725 47.5471L89.2097 46.4358C88.2275 47.9057 87.603 49.585 87.3863 51.3395L89.3712 51.5847ZM102.96 56.9776C102.199 58.0029 101.121 58.7484 99.8927 59.0985L100.441 61.0219C102.092 60.5511 103.542 59.5486 104.566 58.1698L102.96 56.9776Z" fill="#006389"/>
<ellipse cx="81.7546" cy="75.8875" rx="1.39767" ry="1.39438" fill="#006389"/>
<ellipse cx="97.5795" cy="57.2268" rx="1.04278" ry="1.04032" fill="#006389"/>
</svg>
