<svg width="172" height="200" viewBox="0 0 172 200" fill="none" xmlns="http://www.w3.org/2000/svg">
<path d="M16.8159 130.403C16.6759 131.823 16.6059 133.103 16.6059 134.243C16.6059 135.243 16.6359 136.063 16.6959 136.703H16.0059C15.8459 135.163 15.6459 134.023 15.4059 133.283C15.1659 132.523 14.7459 131.973 14.1459 131.633C13.5459 131.273 12.6259 131.093 11.3859 131.093H9.49594C8.77594 131.093 8.24594 131.153 7.90594 131.273C7.58594 131.373 7.36594 131.593 7.24594 131.933C7.12594 132.273 7.06594 132.823 7.06594 133.583V140.963H9.25594C9.95594 140.963 10.4959 140.803 10.8759 140.483C11.2559 140.143 11.5059 139.753 11.6259 139.313C11.7659 138.853 11.8759 138.283 11.9559 137.603L12.0459 137.003H12.7359C12.6759 137.843 12.6459 138.783 12.6459 139.823V141.263C12.6459 142.283 12.7059 143.703 12.8259 145.523H12.1359C12.1159 145.383 12.0559 144.903 11.9559 144.083C11.8559 143.243 11.5759 142.613 11.1159 142.193C10.6759 141.773 10.0559 141.563 9.25594 141.563H7.06594V148.463C7.06594 149.223 7.14594 149.773 7.30594 150.113C7.46594 150.453 7.74594 150.683 8.14594 150.803C8.54594 150.923 9.19594 151.003 10.0959 151.043V151.643C9.05594 151.583 7.58594 151.553 5.68594 151.553C3.96594 151.553 2.68594 151.583 1.84594 151.643V151.043C2.56594 151.003 3.08594 150.923 3.40594 150.803C3.74594 150.683 3.97594 150.453 4.09594 150.113C4.21594 149.773 4.27594 149.223 4.27594 148.463V133.583C4.27594 132.823 4.21594 132.273 4.09594 131.933C3.97594 131.593 3.74594 131.363 3.40594 131.243C3.08594 131.123 2.56594 131.043 1.84594 131.003V130.403C3.80594 130.463 6.70594 130.493 10.5459 130.493C13.4859 130.493 15.5759 130.463 16.8159 130.403ZM22.1459 151.853C20.8859 151.853 19.9459 151.543 19.3259 150.923C18.7259 150.283 18.4259 149.403 18.4259 148.283C18.4259 147.383 18.6659 146.643 19.1459 146.063C19.6459 145.483 20.2259 145.023 20.8859 144.683C21.5659 144.343 22.4559 143.983 23.5559 143.603C24.6759 143.223 25.5059 142.873 26.0459 142.553C26.5859 142.233 26.8559 141.803 26.8559 141.263V139.403C26.8559 138.243 26.6059 137.453 26.1059 137.033C25.6259 136.593 24.9459 136.373 24.0659 136.373C22.6659 136.373 21.6759 136.733 21.0959 137.453C21.4959 137.553 21.8259 137.763 22.0859 138.083C22.3659 138.403 22.5059 138.803 22.5059 139.283C22.5059 139.783 22.3459 140.183 22.0259 140.483C21.7059 140.763 21.2959 140.903 20.7959 140.903C20.2359 140.903 19.8159 140.733 19.5359 140.393C19.2559 140.033 19.1159 139.603 19.1159 139.103C19.1159 138.623 19.2259 138.223 19.4459 137.903C19.6859 137.583 20.0359 137.263 20.4959 136.943C20.9759 136.603 21.5859 136.323 22.3259 136.103C23.0659 135.883 23.8759 135.773 24.7559 135.773C26.3159 135.773 27.4959 136.143 28.2959 136.883C28.7959 137.343 29.1259 137.903 29.2859 138.563C29.4659 139.203 29.5559 140.053 29.5559 141.113V149.453C29.5559 149.953 29.6259 150.313 29.7659 150.533C29.9059 150.753 30.1459 150.863 30.4859 150.863C30.7259 150.863 30.9459 150.813 31.1459 150.713C31.3659 150.593 31.5959 150.433 31.8359 150.233L32.1659 150.743C31.6459 151.143 31.1959 151.433 30.8159 151.613C30.4559 151.773 29.9959 151.853 29.4359 151.853C28.4759 151.853 27.8059 151.613 27.4259 151.133C27.0459 150.653 26.8559 150.003 26.8559 149.183C26.2559 150.183 25.5659 150.883 24.7859 151.283C24.0059 151.663 23.1259 151.853 22.1459 151.853ZM23.4659 150.653C24.7859 150.653 25.9159 149.893 26.8559 148.373V142.493C26.6759 142.773 26.4259 143.003 26.1059 143.183C25.7859 143.363 25.2959 143.603 24.6359 143.903C23.8759 144.223 23.2559 144.533 22.7759 144.833C22.3159 145.113 21.9159 145.503 21.5759 146.003C21.2359 146.503 21.0659 147.143 21.0659 147.923C21.0659 148.823 21.2859 149.503 21.7259 149.963C22.1659 150.423 22.7459 150.653 23.4659 150.653ZM36.4873 128.693C37.0073 128.693 37.4573 128.883 37.8373 129.263C38.2173 129.643 38.4073 130.093 38.4073 130.613C38.4073 131.133 38.2173 131.583 37.8373 131.963C37.4573 132.343 37.0073 132.533 36.4873 132.533C35.9673 132.533 35.5173 132.343 35.1373 131.963C34.7573 131.583 34.5673 131.133 34.5673 130.613C34.5673 130.093 34.7573 129.643 35.1373 129.263C35.5173 128.883 35.9673 128.693 36.4873 128.693ZM38.0473 148.853C38.0473 149.673 38.2173 150.243 38.5573 150.563C38.8973 150.863 39.4873 151.013 40.3273 151.013V151.643C38.4873 151.563 37.2773 151.523 36.6973 151.523C36.1173 151.523 34.9073 151.563 33.0673 151.643V151.013C33.9073 151.013 34.4973 150.863 34.8373 150.563C35.1773 150.243 35.3473 149.673 35.3473 148.853V139.463C35.3473 138.543 35.1773 137.873 34.8373 137.453C34.4973 137.033 33.9073 136.823 33.0673 136.823V136.193C33.7073 136.253 34.3273 136.283 34.9273 136.283C36.1873 136.283 37.2273 136.143 38.0473 135.863V148.853ZM51.1863 135.773C51.9863 135.773 52.6363 136.003 53.1363 136.463C53.6563 136.923 53.9163 137.483 53.9163 138.143C53.9163 138.663 53.7563 139.113 53.4363 139.493C53.1363 139.853 52.7263 140.033 52.2063 140.033C51.7663 140.033 51.3863 139.893 51.0663 139.613C50.7663 139.333 50.6163 138.953 50.6163 138.473C50.6163 137.813 50.9563 137.273 51.6363 136.853C51.4963 136.653 51.2863 136.553 51.0063 136.553C50.2263 136.553 49.5163 136.863 48.8763 137.483C48.2363 138.083 47.7363 138.823 47.3763 139.703C47.0163 140.583 46.8363 141.413 46.8363 142.193V148.553C46.8363 149.473 47.0963 150.113 47.6163 150.473C48.1563 150.833 48.9563 151.013 50.0163 151.013V151.643L49.2963 151.613C47.2563 151.553 45.9563 151.523 45.3963 151.523C44.8763 151.523 43.6963 151.563 41.8563 151.643V151.013C42.6963 151.013 43.2863 150.863 43.6263 150.563C43.9663 150.243 44.1363 149.673 44.1363 148.853V139.463C44.1363 138.543 43.9663 137.873 43.6263 137.453C43.2863 137.033 42.6963 136.823 41.8563 136.823V136.193C42.4963 136.253 43.1163 136.283 43.7163 136.283C44.9763 136.283 46.0163 136.143 46.8363 135.863V139.613C47.1963 138.613 47.7663 137.723 48.5463 136.943C49.3463 136.163 50.2263 135.773 51.1863 135.773ZM81.1109 136.283C81.9909 136.283 82.7509 136.253 83.3909 136.193V136.793C82.9709 136.853 82.6009 137.043 82.2809 137.363C81.9609 137.663 81.6809 138.173 81.4409 138.893L77.0909 151.793H76.5809L71.8409 139.733L67.5509 151.793H67.0409L62.1209 138.503C61.8409 137.803 61.5509 137.353 61.2509 137.153C60.9709 136.933 60.6809 136.823 60.3809 136.823V136.193C61.1609 136.313 62.0409 136.373 63.0209 136.373C64.0209 136.373 65.3209 136.313 66.9209 136.193V136.823C66.1809 136.823 65.6409 136.883 65.3009 137.003C64.9809 137.123 64.8209 137.433 64.8209 137.933C64.8209 138.293 64.9209 138.763 65.1209 139.343L68.1209 147.983L72.4409 136.073H73.1309L77.7209 148.193L80.5409 139.613C80.7209 139.073 80.8109 138.623 80.8109 138.263C80.8109 137.783 80.6409 137.433 80.3009 137.213C79.9609 136.993 79.3909 136.853 78.5909 136.793V136.193C79.6509 136.253 80.4909 136.283 81.1109 136.283ZM91.4231 135.773C93.4631 135.773 95.1031 136.453 96.3431 137.813C97.6031 139.153 98.2331 141.193 98.2331 143.933C98.2331 146.673 97.6031 148.713 96.3431 150.053C95.1031 151.393 93.4631 152.063 91.4231 152.063C89.3831 152.063 87.7331 151.393 86.4731 150.053C85.2331 148.713 84.6131 146.673 84.6131 143.933C84.6131 141.193 85.2331 139.153 86.4731 137.813C87.7331 136.453 89.3831 135.773 91.4231 135.773ZM91.4231 136.373C90.2231 136.373 89.2731 136.993 88.5731 138.233C87.8731 139.453 87.5231 141.353 87.5231 143.933C87.5231 146.513 87.8731 148.413 88.5731 149.633C89.2731 150.853 90.2231 151.463 91.4231 151.463C92.6231 151.463 93.5731 150.853 94.2731 149.633C94.9731 148.413 95.3231 146.513 95.3231 143.933C95.3231 141.353 94.9731 139.453 94.2731 138.233C93.5731 136.993 92.6231 136.373 91.4231 136.373ZM109.839 135.773C110.639 135.773 111.289 136.003 111.789 136.463C112.309 136.923 112.569 137.483 112.569 138.143C112.569 138.663 112.409 139.113 112.089 139.493C111.789 139.853 111.379 140.033 110.859 140.033C110.419 140.033 110.039 139.893 109.719 139.613C109.419 139.333 109.269 138.953 109.269 138.473C109.269 137.813 109.609 137.273 110.289 136.853C110.149 136.653 109.939 136.553 109.659 136.553C108.879 136.553 108.169 136.863 107.529 137.483C106.889 138.083 106.389 138.823 106.029 139.703C105.669 140.583 105.489 141.413 105.489 142.193V148.553C105.489 149.473 105.749 150.113 106.269 150.473C106.809 150.833 107.609 151.013 108.669 151.013V151.643L107.949 151.613C105.909 151.553 104.609 151.523 104.049 151.523C103.529 151.523 102.349 151.563 100.509 151.643V151.013C101.349 151.013 101.939 150.863 102.279 150.563C102.619 150.243 102.789 149.673 102.789 148.853V139.463C102.789 138.543 102.619 137.873 102.279 137.453C101.939 137.033 101.349 136.823 100.509 136.823V136.193C101.149 136.253 101.769 136.283 102.369 136.283C103.629 136.283 104.669 136.143 105.489 135.863V139.613C105.849 138.613 106.419 137.723 107.199 136.943C107.999 136.163 108.879 135.773 109.839 135.773ZM126.602 149.453C126.982 149.953 127.322 150.323 127.622 150.563C127.922 150.803 128.282 150.953 128.702 151.013V151.643C127.502 151.563 126.692 151.523 126.272 151.523C125.732 151.523 124.622 151.563 122.942 151.643V151.013C123.222 151.013 123.442 150.963 123.602 150.863C123.782 150.743 123.872 150.603 123.872 150.443C123.872 150.283 123.812 150.133 123.692 149.993L120.242 144.953C119.902 144.453 119.572 144.123 119.252 143.963C118.952 143.783 118.532 143.673 117.992 143.633V148.853C117.992 149.673 118.132 150.243 118.412 150.563C118.712 150.863 119.232 151.013 119.972 151.013V151.643C118.292 151.563 117.182 151.523 116.642 151.523C116.062 151.523 114.852 151.563 113.012 151.643V151.013C113.852 151.013 114.442 150.863 114.782 150.563C115.122 150.243 115.292 149.673 115.292 148.853V131.723C115.292 130.803 115.122 130.133 114.782 129.713C114.442 129.293 113.852 129.083 113.012 129.083V128.453C113.652 128.513 114.272 128.543 114.872 128.543C116.132 128.543 117.172 128.403 117.992 128.123V143.003C118.572 142.923 119.052 142.793 119.432 142.613C119.832 142.413 120.212 142.133 120.572 141.773L122.792 139.463C123.432 138.803 123.752 138.253 123.752 137.813C123.752 137.473 123.542 137.223 123.122 137.063C122.722 136.883 122.192 136.793 121.532 136.793V136.193C122.932 136.273 124.062 136.313 124.922 136.313C125.862 136.313 126.732 136.273 127.532 136.193V136.793C126.552 136.873 125.652 137.343 124.832 138.203L121.172 142.043L126.602 149.453ZM133.196 128.693C133.716 128.693 134.166 128.883 134.546 129.263C134.926 129.643 135.116 130.093 135.116 130.613C135.116 131.133 134.926 131.583 134.546 131.963C134.166 132.343 133.716 132.533 133.196 132.533C132.676 132.533 132.226 132.343 131.846 131.963C131.466 131.583 131.276 131.133 131.276 130.613C131.276 130.093 131.466 129.643 131.846 129.263C132.226 128.883 132.676 128.693 133.196 128.693ZM134.756 148.853C134.756 149.673 134.926 150.243 135.266 150.563C135.606 150.863 136.196 151.013 137.036 151.013V151.643C135.196 151.563 133.986 151.523 133.406 151.523C132.826 151.523 131.616 151.563 129.776 151.643V151.013C130.616 151.013 131.206 150.863 131.546 150.563C131.886 150.243 132.056 149.673 132.056 148.853V139.463C132.056 138.543 131.886 137.873 131.546 137.453C131.206 137.033 130.616 136.823 129.776 136.823V136.193C130.416 136.253 131.036 136.283 131.636 136.283C132.896 136.283 133.936 136.143 134.756 135.863V148.853ZM148.645 135.773C150.045 135.773 151.105 136.153 151.825 136.913C152.205 137.313 152.475 137.813 152.635 138.413C152.795 139.013 152.875 139.823 152.875 140.843V148.853C152.875 149.673 153.045 150.243 153.385 150.563C153.725 150.863 154.315 151.013 155.155 151.013V151.643C153.315 151.563 152.115 151.523 151.555 151.523C150.995 151.523 149.875 151.563 148.195 151.643V151.013C148.935 151.013 149.445 150.863 149.725 150.563C150.025 150.243 150.175 149.673 150.175 148.853V140.183C150.175 139.063 150.015 138.213 149.695 137.633C149.375 137.033 148.725 136.733 147.745 136.733C146.925 136.733 146.195 136.973 145.555 137.453C144.915 137.933 144.415 138.593 144.055 139.433C143.715 140.253 143.545 141.173 143.545 142.193V148.853C143.545 149.673 143.685 150.243 143.965 150.563C144.265 150.863 144.785 151.013 145.525 151.013V151.643C143.845 151.563 142.725 151.523 142.165 151.523C141.605 151.523 140.405 151.563 138.565 151.643V151.013C139.405 151.013 139.995 150.863 140.335 150.563C140.675 150.243 140.845 149.673 140.845 148.853V139.463C140.845 138.543 140.675 137.873 140.335 137.453C139.995 137.033 139.405 136.823 138.565 136.823V136.193C139.205 136.253 139.825 136.283 140.425 136.283C141.685 136.283 142.725 136.143 143.545 135.863V139.403C144.045 138.123 144.735 137.203 145.615 136.643C146.515 136.063 147.525 135.773 148.645 135.773ZM169.433 138.893C169.073 138.893 168.763 138.773 168.503 138.533C168.263 138.293 168.143 137.943 168.143 137.483C168.143 137.083 168.243 136.623 168.443 136.103C167.923 136.323 167.513 136.573 167.213 136.853C166.913 137.113 166.643 137.443 166.403 137.843C166.863 138.543 167.093 139.433 167.093 140.513C167.093 142.093 166.613 143.283 165.653 144.083C164.693 144.863 163.423 145.253 161.843 145.253H161.813C161.153 145.633 160.653 145.983 160.313 146.303C159.973 146.623 159.803 146.983 159.803 147.383C159.803 148.023 160.283 148.343 161.243 148.343H164.993C166.353 148.343 167.473 148.643 168.353 149.243C169.253 149.823 169.703 150.703 169.703 151.883C169.703 152.843 169.393 153.733 168.773 154.553C168.153 155.373 167.243 156.033 166.043 156.533C164.843 157.033 163.393 157.283 161.693 157.283C159.953 157.283 158.493 157.013 157.313 156.473C156.153 155.953 155.573 155.173 155.573 154.133C155.573 153.453 155.843 152.863 156.383 152.363C156.943 151.863 157.713 151.473 158.693 151.193L158.873 151.673C158.433 151.813 158.083 152.093 157.823 152.513C157.563 152.933 157.433 153.403 157.433 153.923C157.433 154.843 157.843 155.543 158.663 156.023C159.503 156.523 160.623 156.773 162.023 156.773C163.563 156.773 164.883 156.473 165.983 155.873C167.083 155.293 167.633 154.383 167.633 153.143C167.633 152.423 167.373 151.863 166.853 151.463C166.353 151.063 165.453 150.863 164.153 150.863H161.933C160.753 150.863 159.803 150.713 159.083 150.413C158.383 150.113 158.033 149.513 158.033 148.613C158.033 147.993 158.253 147.403 158.693 146.843C159.153 146.283 159.903 145.733 160.943 145.193C159.623 145.053 158.563 144.593 157.763 143.813C156.983 143.033 156.593 141.933 156.593 140.513C156.593 138.933 157.073 137.753 158.033 136.973C158.993 136.173 160.263 135.773 161.843 135.773C163.723 135.773 165.113 136.293 166.013 137.333C166.393 136.793 166.873 136.353 167.453 136.013C168.033 135.653 168.613 135.473 169.193 135.473C169.713 135.473 170.133 135.623 170.453 135.923C170.773 136.223 170.933 136.653 170.933 137.213C170.933 137.773 170.773 138.193 170.453 138.473C170.153 138.753 169.813 138.893 169.433 138.893ZM161.843 144.713C162.643 144.713 163.243 144.403 163.643 143.783C164.063 143.143 164.273 142.053 164.273 140.513C164.273 138.973 164.063 137.893 163.643 137.273C163.243 136.633 162.643 136.313 161.843 136.313C161.043 136.313 160.433 136.633 160.013 137.273C159.613 137.893 159.413 138.973 159.413 140.513C159.413 142.053 159.613 143.143 160.013 143.783C160.433 144.403 161.043 144.713 161.843 144.713ZM26.827 175.773C28.167 175.773 29.327 176.093 30.307 176.733C31.247 177.353 31.717 178.123 31.717 179.043C31.717 179.563 31.567 179.973 31.267 180.273C30.967 180.573 30.587 180.723 30.127 180.723C29.667 180.723 29.277 180.593 28.957 180.333C28.637 180.053 28.477 179.683 28.477 179.223C28.477 178.803 28.597 178.453 28.837 178.173C29.077 177.873 29.377 177.673 29.737 177.573C29.537 177.213 29.177 176.913 28.657 176.673C28.157 176.433 27.617 176.313 27.037 176.313C26.297 176.313 25.607 176.553 24.967 177.033C24.327 177.493 23.797 178.273 23.377 179.373C22.957 180.453 22.747 181.883 22.747 183.663C22.747 186.143 23.147 187.953 23.947 189.093C24.747 190.213 25.787 190.773 27.067 190.773C27.927 190.773 28.737 190.523 29.497 190.023C30.277 189.523 30.917 188.743 31.417 187.683L31.987 187.893C31.647 189.033 31.007 190.013 30.067 190.833C29.147 191.653 27.947 192.063 26.467 192.063C25.227 192.063 24.097 191.743 23.077 191.103C22.077 190.463 21.287 189.543 20.707 188.343C20.127 187.123 19.837 185.713 19.837 184.113C19.837 182.493 20.127 181.053 20.707 179.793C21.307 178.533 22.137 177.553 23.197 176.853C24.257 176.133 25.467 175.773 26.827 175.773ZM41.2669 175.773C43.3069 175.773 44.9469 176.453 46.1869 177.813C47.4469 179.153 48.0769 181.193 48.0769 183.933C48.0769 186.673 47.4469 188.713 46.1869 190.053C44.9469 191.393 43.3069 192.063 41.2669 192.063C39.2269 192.063 37.5769 191.393 36.3169 190.053C35.0769 188.713 34.4569 186.673 34.4569 183.933C34.4569 181.193 35.0769 179.153 36.3169 177.813C37.5769 176.453 39.2269 175.773 41.2669 175.773ZM41.2669 176.373C40.0669 176.373 39.1169 176.993 38.4169 178.233C37.7169 179.453 37.3669 181.353 37.3669 183.933C37.3669 186.513 37.7169 188.413 38.4169 189.633C39.1169 190.853 40.0669 191.463 41.2669 191.463C42.4669 191.463 43.4169 190.853 44.1169 189.633C44.8169 188.413 45.1669 186.513 45.1669 183.933C45.1669 181.353 44.8169 179.453 44.1169 178.233C43.4169 176.993 42.4669 176.373 41.2669 176.373ZM60.4324 175.773C61.8324 175.773 62.8924 176.153 63.6124 176.913C63.9924 177.313 64.2624 177.813 64.4224 178.413C64.5824 179.013 64.6624 179.823 64.6624 180.843V188.853C64.6624 189.673 64.8324 190.243 65.1724 190.563C65.5124 190.863 66.1024 191.013 66.9424 191.013V191.643C65.1024 191.563 63.9024 191.523 63.3424 191.523C62.7824 191.523 61.6624 191.563 59.9824 191.643V191.013C60.7224 191.013 61.2324 190.863 61.5124 190.563C61.8124 190.243 61.9624 189.673 61.9624 188.853V180.183C61.9624 179.063 61.8024 178.213 61.4824 177.633C61.1624 177.033 60.5124 176.733 59.5324 176.733C58.7124 176.733 57.9824 176.973 57.3424 177.453C56.7024 177.933 56.2024 178.593 55.8424 179.433C55.5024 180.253 55.3324 181.173 55.3324 182.193V188.853C55.3324 189.673 55.4724 190.243 55.7524 190.563C56.0524 190.863 56.5724 191.013 57.3124 191.013V191.643C55.6324 191.563 54.5124 191.523 53.9524 191.523C53.3924 191.523 52.1924 191.563 50.3524 191.643V191.013C51.1924 191.013 51.7824 190.863 52.1224 190.563C52.4624 190.243 52.6324 189.673 52.6324 188.853V179.463C52.6324 178.543 52.4624 177.873 52.1224 177.453C51.7824 177.033 51.1924 176.823 50.3524 176.823V176.193C50.9924 176.253 51.6124 176.283 52.2124 176.283C53.4724 176.283 54.5124 176.143 55.3324 175.863V179.403C55.8324 178.123 56.5224 177.203 57.4024 176.643C58.3024 176.063 59.3124 175.773 60.4324 175.773ZM81.9028 188.373C81.9028 189.293 82.0728 189.963 82.4128 190.383C82.7528 190.803 83.3428 191.013 84.1828 191.013V191.643C83.5628 191.583 82.9428 191.553 82.3228 191.553C81.0628 191.553 80.0228 191.693 79.2028 191.973V189.303C78.8428 190.203 78.3028 190.893 77.5828 191.373C76.8628 191.833 75.9828 192.063 74.9428 192.063C73.0228 192.063 71.5128 191.373 70.4128 189.993C69.3328 188.613 68.8028 186.593 68.8228 183.933C68.8228 182.193 69.1228 180.713 69.7228 179.493C70.3428 178.253 71.1628 177.323 72.1828 176.703C73.2228 176.083 74.3628 175.773 75.6028 175.773C76.3628 175.773 77.0528 175.923 77.6728 176.223C78.3128 176.503 78.8228 176.943 79.2028 177.543V171.723C79.2028 170.803 79.0328 170.133 78.6928 169.713C78.3528 169.293 77.7628 169.083 76.9228 169.083V168.453C77.5628 168.513 78.1828 168.543 78.7828 168.543C80.0428 168.543 81.0828 168.403 81.9028 168.123V188.373ZM75.8128 191.163C76.5928 191.163 77.2928 190.863 77.9128 190.263C78.5328 189.663 78.9628 188.813 79.2028 187.713V178.773C78.6628 177.233 77.5428 176.463 75.8428 176.463C74.6028 176.463 73.6028 177.103 72.8428 178.383C72.0828 179.643 71.7128 181.493 71.7328 183.933C71.7128 186.333 72.0528 188.143 72.7528 189.363C73.4528 190.563 74.4728 191.163 75.8128 191.163ZM89.1045 168.693C89.6245 168.693 90.0745 168.883 90.4545 169.263C90.8345 169.643 91.0245 170.093 91.0245 170.613C91.0245 171.133 90.8345 171.583 90.4545 171.963C90.0745 172.343 89.6245 172.533 89.1045 172.533C88.5845 172.533 88.1345 172.343 87.7545 171.963C87.3745 171.583 87.1845 171.133 87.1845 170.613C87.1845 170.093 87.3745 169.643 87.7545 169.263C88.1345 168.883 88.5845 168.693 89.1045 168.693ZM90.6645 188.853C90.6645 189.673 90.8345 190.243 91.1745 190.563C91.5145 190.863 92.1045 191.013 92.9445 191.013V191.643C91.1045 191.563 89.8945 191.523 89.3145 191.523C88.7345 191.523 87.5245 191.563 85.6845 191.643V191.013C86.5245 191.013 87.1145 190.863 87.4545 190.563C87.7945 190.243 87.9645 189.673 87.9645 188.853V179.463C87.9645 178.543 87.7945 177.873 87.4545 177.453C87.1145 177.033 86.5245 176.823 85.6845 176.823V176.193C86.3245 176.253 86.9445 176.283 87.5445 176.283C88.8045 176.283 89.8445 176.143 90.6645 175.863V188.853ZM99.3035 176.223H103.744V176.823H99.3035V188.433C99.3035 189.333 99.4635 189.983 99.7835 190.383C100.124 190.783 100.604 190.983 101.224 190.983C101.844 190.983 102.374 190.733 102.814 190.233C103.254 189.733 103.624 188.913 103.924 187.773L104.524 187.923C104.024 190.683 102.724 192.063 100.624 192.063C99.9435 192.063 99.3835 191.983 98.9435 191.823C98.5035 191.663 98.1135 191.413 97.7735 191.073C97.3335 190.633 97.0235 190.093 96.8435 189.453C96.6835 188.813 96.6035 187.953 96.6035 186.873V176.823H93.7235V176.223H96.6035V171.633C97.7235 171.593 98.6235 171.453 99.3035 171.213V176.223ZM108.499 168.693C109.019 168.693 109.469 168.883 109.849 169.263C110.229 169.643 110.419 170.093 110.419 170.613C110.419 171.133 110.229 171.583 109.849 171.963C109.469 172.343 109.019 172.533 108.499 172.533C107.979 172.533 107.529 172.343 107.149 171.963C106.769 171.583 106.579 171.133 106.579 170.613C106.579 170.093 106.769 169.643 107.149 169.263C107.529 168.883 107.979 168.693 108.499 168.693ZM110.059 188.853C110.059 189.673 110.229 190.243 110.569 190.563C110.909 190.863 111.499 191.013 112.339 191.013V191.643C110.499 191.563 109.289 191.523 108.709 191.523C108.129 191.523 106.919 191.563 105.079 191.643V191.013C105.919 191.013 106.509 190.863 106.849 190.563C107.189 190.243 107.359 189.673 107.359 188.853V179.463C107.359 178.543 107.189 177.873 106.849 177.453C106.509 177.033 105.919 176.823 105.079 176.823V176.193C105.719 176.253 106.339 176.283 106.939 176.283C108.199 176.283 109.239 176.143 110.059 175.863V188.853ZM121.218 175.773C123.258 175.773 124.898 176.453 126.138 177.813C127.398 179.153 128.028 181.193 128.028 183.933C128.028 186.673 127.398 188.713 126.138 190.053C124.898 191.393 123.258 192.063 121.218 192.063C119.178 192.063 117.528 191.393 116.268 190.053C115.028 188.713 114.408 186.673 114.408 183.933C114.408 181.193 115.028 179.153 116.268 177.813C117.528 176.453 119.178 175.773 121.218 175.773ZM121.218 176.373C120.018 176.373 119.068 176.993 118.368 178.233C117.668 179.453 117.318 181.353 117.318 183.933C117.318 186.513 117.668 188.413 118.368 189.633C119.068 190.853 120.018 191.463 121.218 191.463C122.418 191.463 123.368 190.853 124.068 189.633C124.768 188.413 125.118 186.513 125.118 183.933C125.118 181.353 124.768 179.453 124.068 178.233C123.368 176.993 122.418 176.373 121.218 176.373ZM140.384 175.773C141.784 175.773 142.844 176.153 143.564 176.913C143.944 177.313 144.214 177.813 144.374 178.413C144.534 179.013 144.614 179.823 144.614 180.843V188.853C144.614 189.673 144.784 190.243 145.124 190.563C145.464 190.863 146.054 191.013 146.894 191.013V191.643C145.054 191.563 143.854 191.523 143.294 191.523C142.734 191.523 141.614 191.563 139.934 191.643V191.013C140.674 191.013 141.184 190.863 141.464 190.563C141.764 190.243 141.914 189.673 141.914 188.853V180.183C141.914 179.063 141.754 178.213 141.434 177.633C141.114 177.033 140.464 176.733 139.484 176.733C138.664 176.733 137.934 176.973 137.294 177.453C136.654 177.933 136.154 178.593 135.794 179.433C135.454 180.253 135.284 181.173 135.284 182.193V188.853C135.284 189.673 135.424 190.243 135.704 190.563C136.004 190.863 136.524 191.013 137.264 191.013V191.643C135.584 191.563 134.464 191.523 133.904 191.523C133.344 191.523 132.144 191.563 130.304 191.643V191.013C131.144 191.013 131.734 190.863 132.074 190.563C132.414 190.243 132.584 189.673 132.584 188.853V179.463C132.584 178.543 132.414 177.873 132.074 177.453C131.734 177.033 131.144 176.823 130.304 176.823V176.193C130.944 176.253 131.564 176.283 132.164 176.283C133.424 176.283 134.464 176.143 135.284 175.863V179.403C135.784 178.123 136.474 177.203 137.354 176.643C138.254 176.063 139.264 175.773 140.384 175.773ZM153.574 175.773C154.294 175.773 154.934 175.883 155.494 176.103C156.054 176.323 156.504 176.583 156.844 176.883C157.064 177.043 157.244 177.123 157.384 177.123C157.744 177.123 157.964 176.683 158.044 175.803H158.734C158.654 176.783 158.614 178.483 158.614 180.903H157.924C157.704 179.583 157.274 178.493 156.634 177.633C156.014 176.773 155.084 176.343 153.844 176.343C153.124 176.343 152.534 176.553 152.074 176.973C151.614 177.373 151.384 177.933 151.384 178.653C151.384 179.353 151.624 179.943 152.104 180.423C152.584 180.883 153.354 181.443 154.414 182.103C154.594 182.203 154.864 182.373 155.224 182.613C156.144 183.213 156.884 183.743 157.444 184.203C158.004 184.663 158.454 185.193 158.794 185.793C159.154 186.393 159.334 187.083 159.334 187.863C159.334 189.183 158.834 190.213 157.834 190.953C156.854 191.693 155.644 192.063 154.204 192.063C153.304 192.063 152.514 191.923 151.834 191.643C151.394 191.423 150.984 191.153 150.604 190.833C150.524 190.753 150.434 190.713 150.334 190.713C150.194 190.713 150.064 190.813 149.944 191.013C149.844 191.213 149.764 191.493 149.704 191.853H149.014C149.094 190.713 149.134 188.713 149.134 185.853H149.824C150.044 187.733 150.444 189.143 151.024 190.083C151.604 191.003 152.594 191.463 153.994 191.463C154.694 191.463 155.314 191.233 155.854 190.773C156.394 190.313 156.664 189.593 156.664 188.613C156.664 187.833 156.394 187.173 155.854 186.633C155.334 186.093 154.474 185.443 153.274 184.683C152.294 184.063 151.534 183.553 150.994 183.153C150.474 182.753 150.034 182.263 149.674 181.683C149.314 181.103 149.134 180.423 149.134 179.643C149.134 178.383 149.554 177.423 150.394 176.763C151.234 176.103 152.294 175.773 153.574 175.773Z" fill="white"/>
<circle cx="81.6558" cy="53.3093" r="50.2427" fill="#D6BAA4"/>
<path d="M46.0033 76.9905V76.8253C46.0033 75.7208 46.8987 74.8253 48.0033 74.8253H89.1478L92.5566 57.3371C92.7829 56.1763 91.958 55.0737 90.7805 54.9632L57.4976 51.8385V56.0019C57.4976 56.5542 57.0499 57.0019 56.4976 57.0019H56.0472V58.9484C56.0472 60.5222 55.3062 62.0041 54.0472 62.9484L53.7142 63.1981L53.4291 62.9202C52.4639 61.9791 51.9196 60.6882 51.9196 59.3402V57.0019H51.8345C51.2822 57.0019 50.8344 56.5542 50.8344 56.0019V54.0034V39.5222C50.8344 38.9699 51.2822 38.5222 51.8344 38.5222H52.3233V36.0587C52.3233 35.765 52.4224 35.48 52.6045 35.2496C52.852 34.9365 53.2291 34.7538 53.6282 34.7538H54.1823C54.5709 34.7538 54.9424 34.9135 55.2098 35.1955C55.4594 35.4586 55.5985 35.8074 55.5985 36.1701V38.5222H56.4976C57.0499 38.5222 57.4976 38.9699 57.4976 39.5222V41.2581L92.541 38.0366L97.317 37.7053V33.885H95.1167C94.8406 33.885 94.6167 33.6611 94.6167 33.385V24.7388C94.6167 24.5201 94.7588 24.3257 94.9692 24.2658C96.6597 23.7843 97.7409 23.8429 99.2749 24.2679C99.488 24.3269 99.6332 24.5227 99.6332 24.7438V33.385C99.6332 33.6611 99.4093 33.885 99.1332 33.885H97.317V37.7053L104.296 37.2212C106.031 37.1009 107.504 38.4754 107.504 40.214V46.5137H112.088V37.881C112.088 37.7087 112.176 37.547 112.326 37.4617C113.896 36.5676 115.311 36.66 117.239 37.4745C117.421 37.5512 117.537 37.731 117.537 37.9281V58.5721C117.537 58.7613 117.43 58.9356 117.258 59.0163C115.468 59.8602 114.353 59.8234 112.39 59.0094C112.207 58.9332 112.088 58.752 112.088 58.5529V50.3193H107.504V74.8253H110.969C112.074 74.8253 112.969 75.7208 112.969 76.8253V76.9905C112.969 78.0951 112.074 78.9905 110.969 78.9905H48.0033C46.8987 78.9905 46.0033 78.0951 46.0033 76.9905Z" fill="#A3E0FB"/>
<path d="M92.5566 57.3371L91.5751 57.1457H91.5751L92.5566 57.3371ZM90.7805 54.9632L90.874 53.9676L90.7805 54.9632ZM53.4291 62.9202L52.731 63.6362L53.4291 62.9202ZM54.0472 62.9484L54.6472 63.7484H54.6472L54.0472 62.9484ZM52.7142 69.569C52.7142 70.1213 53.1619 70.569 53.7142 70.569C54.2665 70.569 54.7142 70.1213 54.7142 69.569H52.7142ZM92.541 38.0366L92.4718 37.039L92.4606 37.0397L92.4494 37.0408L92.541 38.0366ZM112.326 37.4617L111.831 36.5928V36.5928L112.326 37.4617ZM117.239 37.4745L117.628 36.5533L117.628 36.5533L117.239 37.4745ZM117.258 59.0163L117.685 59.9208L117.685 59.9208L117.258 59.0163ZM112.39 59.0094L112.007 59.9331H112.007L112.39 59.0094ZM104.296 37.2212L104.227 36.2236L104.296 37.2212ZM94.9692 24.2658L95.2431 25.2275V25.2275L94.9692 24.2658ZM99.2749 24.2679L99.5419 23.3042V23.3042L99.2749 24.2679ZM55.2098 35.1955L55.9354 34.5073L55.9354 34.5073L55.2098 35.1955ZM52.6045 35.2496L51.82 34.6295H51.82L52.6045 35.2496ZM45.0033 76.8253V76.9905H47.0033V76.8253H45.0033ZM48.0033 79.9905H110.969V77.9905H48.0033V79.9905ZM113.969 76.9905V76.8253H111.969V76.9905H113.969ZM89.1478 73.8253H48.0033V75.8253H89.1478V73.8253ZM90.1293 75.0167L93.5382 57.5284L91.5751 57.1457L88.1663 74.634L90.1293 75.0167ZM90.874 53.9676L57.5911 50.8429L57.4042 52.8341L90.687 55.9588L90.874 53.9676ZM56.4976 51.8385V56.0019H58.4976V51.8385H56.4976ZM51.8344 56.0019V54.0034H49.8344V56.0019H51.8344ZM51.9196 56.0019H51.8345V58.0019H51.9196V56.0019ZM50.9196 57.0019V59.3402H52.9196V57.0019H50.9196ZM52.731 63.6362L53.0161 63.9141L54.4123 62.4821L54.1272 62.2042L52.731 63.6362ZM54.3142 63.9981L54.6472 63.7484L53.4472 62.1484L53.1142 62.3981L54.3142 63.9981ZM56.4976 56.0019H56.0472V58.0019H56.4976V56.0019ZM56.0472 56.0019H51.9196V58.0019H56.0472V56.0019ZM57.0472 58.9484V57.0019H55.0472V58.9484H57.0472ZM52.7142 63.1981V69.569H54.7142V63.1981H52.7142ZM49.8344 39.5222V54.0034H51.8344V39.5222H49.8344ZM52.3233 37.5222H51.8344V39.5222H52.3233V37.5222ZM53.3233 38.5222V36.0587H51.3233V38.5222H53.3233ZM53.6282 35.7538H54.1823V33.7538H53.6282V35.7538ZM56.4976 37.5222H55.5985V39.5222H56.4976V37.5222ZM55.5985 37.5222H52.3233V39.5222H55.5985V37.5222ZM54.5985 36.1701V38.5222H56.5985V36.1701H54.5985ZM58.4976 51.8385V41.2581H56.4976V51.8385H58.4976ZM58.4976 41.2581V39.5222H56.4976V41.2581H58.4976ZM92.4494 37.0408L57.4061 40.2623L57.5892 42.2539L92.6325 39.0324L92.4494 37.0408ZM112.821 38.3307C113.469 37.9617 114.04 37.8174 114.632 37.8272C115.244 37.8374 115.946 38.014 116.85 38.3957L117.628 36.5533C116.604 36.1205 115.634 35.8436 114.665 35.8275C113.674 35.811 112.753 36.0676 111.831 36.5928L112.821 38.3307ZM116.537 37.9281V58.5721H118.537V37.9281H116.537ZM116.832 58.1117C116.015 58.4968 115.442 58.6386 114.896 58.6346C114.337 58.6305 113.708 58.4731 112.774 58.0857L112.007 59.9331C113.036 60.3597 113.945 60.6277 114.882 60.6346C115.832 60.6415 116.711 60.3797 117.685 59.9208L116.832 58.1117ZM110.969 73.8253H107.504V75.8253H110.969V73.8253ZM107.504 73.8253H89.1478V75.8253H107.504V73.8253ZM104.227 36.2236L97.2478 36.7077L97.3862 38.7029L104.365 38.2188L104.227 36.2236ZM97.2478 36.7077L92.4718 37.039L92.6101 39.0342L97.3862 38.7029L97.2478 36.7077ZM98.317 37.7053V33.885H96.317V37.7053H98.317ZM97.317 32.885H95.1167V34.885H97.317V32.885ZM95.6167 33.385V24.7388H93.6167V33.385H95.6167ZM95.2431 25.2275C96.0216 25.0058 96.6162 24.9206 97.1695 24.9268C97.7252 24.9331 98.2875 25.032 99.0079 25.2316L99.5419 23.3042C98.7282 23.0788 97.983 22.9359 97.192 22.927C96.3986 22.918 95.6073 23.0442 94.6953 23.304L95.2431 25.2275ZM98.6332 24.7438V33.385H100.633V24.7438H98.6332ZM99.1332 32.885H97.317V34.885H99.1332V32.885ZM108.504 46.5137V40.214H106.504V46.5137H108.504ZM113.088 46.5137V37.881H111.088V46.5137H113.088ZM107.504 47.5137H112.088V45.5137H107.504V47.5137ZM108.504 74.8253V50.3193H106.504V74.8253H108.504ZM108.504 50.3193V46.5137H106.504V50.3193H108.504ZM113.088 58.5529V50.3193H111.088V58.5529H113.088ZM113.088 50.3193V46.5137H111.088V50.3193H113.088ZM107.504 51.3193H112.088V49.3193H107.504V51.3193ZM98.6332 33.385C98.6332 33.1089 98.857 32.885 99.1332 32.885V34.885C99.9616 34.885 100.633 34.2134 100.633 33.385H98.6332ZM95.6167 24.7388C95.6167 24.9519 95.4767 25.161 95.2431 25.2275L94.6953 23.304C94.041 23.4904 93.6167 24.0883 93.6167 24.7388H95.6167ZM112.774 58.0857C112.97 58.1674 113.088 58.3556 113.088 58.5529H111.088C111.088 59.1484 111.443 59.699 112.007 59.9331L112.774 58.0857ZM116.85 38.3957C116.651 38.3118 116.537 38.1219 116.537 37.9281H118.537C118.537 37.34 118.19 36.7907 117.628 36.5533L116.85 38.3957ZM54.4843 35.8836C54.5576 35.961 54.5985 36.0635 54.5985 36.1701H56.5985C56.5985 35.5514 56.3612 34.9562 55.9354 34.5073L54.4843 35.8836ZM54.1823 35.7538C54.2965 35.7538 54.4057 35.8008 54.4843 35.8836L55.9354 34.5073C55.4791 34.0263 54.8453 33.7538 54.1823 33.7538V35.7538ZM53.389 35.8697C53.4469 35.7965 53.535 35.7538 53.6282 35.7538V33.7538C52.9233 33.7538 52.2571 34.0764 51.82 34.6295L53.389 35.8697ZM53.3233 36.0587C53.3233 35.9901 53.3465 35.9235 53.389 35.8697L51.82 34.6295C51.4983 35.0364 51.3233 35.54 51.3233 36.0587H53.3233ZM51.8344 39.5222V39.5222V37.5222C50.7299 37.5222 49.8344 38.4176 49.8344 39.5222H51.8344ZM104.365 38.2188C105.522 38.1386 106.504 39.0549 106.504 40.214H108.504C108.504 37.8959 106.54 36.0631 104.227 36.2236L104.365 38.2188ZM49.8344 56.0019C49.8344 57.1065 50.7299 58.0019 51.8345 58.0019V56.0019H51.8344H49.8344ZM56.4976 56.0019H56.4976V58.0019C57.6022 58.0019 58.4976 57.1065 58.4976 56.0019H56.4976ZM111.831 36.5928C111.35 36.8668 111.088 37.3721 111.088 37.881H113.088C113.088 38.0453 113.003 38.2271 112.821 38.3307L111.831 36.5928ZM110.969 79.9905C112.626 79.9905 113.969 78.6473 113.969 76.9905H111.969C111.969 77.5428 111.522 77.9905 110.969 77.9905V79.9905ZM99.0079 25.2316C98.7766 25.1675 98.6332 24.9604 98.6332 24.7438H100.633C100.633 24.085 100.199 23.4864 99.5419 23.3042L99.0079 25.2316ZM54.6472 63.7484C56.158 62.6153 57.0472 60.8369 57.0472 58.9484H55.0472C55.0472 60.2074 54.4544 61.393 53.4472 62.1484L54.6472 63.7484ZM45.0033 76.9905C45.0033 78.6474 46.3464 79.9905 48.0033 79.9905V77.9905C47.451 77.9905 47.0033 77.5428 47.0033 76.9905H45.0033ZM47.0033 76.8253C47.0033 76.2731 47.451 75.8253 48.0033 75.8253V73.8253C46.3464 73.8253 45.0033 75.1685 45.0033 76.8253H47.0033ZM56.4976 39.5222H56.4976H58.4976C58.4976 38.4176 57.6022 37.5222 56.4976 37.5222V39.5222ZM116.537 58.5721C116.537 58.3864 116.642 58.2013 116.832 58.1117L117.685 59.9208C118.217 59.6699 118.537 59.1362 118.537 58.5721H116.537ZM93.5382 57.5284C93.8776 55.7872 92.6402 54.1334 90.874 53.9676L90.687 55.9588C91.2758 56.0141 91.6882 56.5653 91.5751 57.1457L93.5382 57.5284ZM95.1167 32.885C95.3929 32.885 95.6167 33.1089 95.6167 33.385H93.6167C93.6167 34.2134 94.2883 34.885 95.1167 34.885V32.885ZM50.9196 59.3402C50.9196 60.9578 51.5727 62.5069 52.731 63.6362L54.1272 62.2042C53.355 61.4513 52.9196 60.4186 52.9196 59.3402H50.9196ZM113.969 76.8253C113.969 75.1685 112.626 73.8253 110.969 73.8253V75.8253C111.522 75.8253 111.969 76.2731 111.969 76.8253H113.969Z" fill="#006389"/>
<circle cx="98.7862" cy="56.3539" r="2.9262" stroke="#006389" stroke-width="1.7"/>
<circle cx="98.7862" cy="66.6502" r="2.9262" stroke="#006389" stroke-width="1.7"/>
<path d="M49.0689 11.1642C48.6275 11.4962 48.5389 12.1232 48.8709 12.5645C49.2029 13.0059 49.8298 13.0945 50.2712 12.7625L49.0689 11.1642ZM55.2431 9.45136C55.7196 9.17216 55.8795 8.55953 55.6003 8.08302C55.3211 7.60651 54.7085 7.44656 54.232 7.72576L55.2431 9.45136ZM50.2712 12.7625C51.8602 11.5672 53.52 10.461 55.2431 9.45136L54.232 7.72576C52.4425 8.7743 50.7189 9.92303 49.0689 11.1642L50.2712 12.7625Z" fill="#006389"/>
<path d="M58.4797 5.60008C57.9797 5.8346 57.7644 6.43005 57.9989 6.93008C58.2334 7.4301 58.8289 7.64534 59.3289 7.41082L58.4797 5.60008ZM65.0455 5.13496C65.5699 4.96167 65.8545 4.39609 65.6812 3.8717C65.5079 3.3473 64.9423 3.06267 64.4179 3.23596L65.0455 5.13496ZM59.3289 7.41082C61.1776 6.54378 63.0857 5.78257 65.0455 5.13496L64.4179 3.23596C62.3821 3.90872 60.3999 4.69947 58.4797 5.60008L59.3289 7.41082Z" fill="#006389"/>
<path d="M69.1521 1.85818C68.607 1.94692 68.2371 2.46076 68.3258 3.00587C68.4145 3.55098 68.9284 3.92093 69.4735 3.83219L69.1521 1.85818ZM75.2967 3.22043C75.8483 3.19387 76.274 2.72515 76.2474 2.1735C76.2209 1.62186 75.7522 1.19619 75.2005 1.22275L75.2967 3.22043ZM69.4735 3.83219C71.3846 3.52106 73.3279 3.31521 75.2967 3.22043L75.2005 1.22275C73.1559 1.32118 71.1374 1.53497 69.1521 1.85818L69.4735 3.83219Z" fill="#006389"/>
<path d="M80.0135 0.892711C79.4617 0.915998 79.0333 1.38219 79.0566 1.93399C79.0799 2.48578 79.5461 2.91422 80.0979 2.89093L80.0135 0.892711ZM85.1701 2.9225C85.7216 2.9525 86.193 2.52976 86.223 1.97829C86.253 1.42682 85.8302 0.955452 85.2787 0.925454L85.1701 2.9225ZM80.0979 2.89093C81.7709 2.82032 83.463 2.82964 85.1701 2.9225L85.2787 0.925454C83.5073 0.829092 81.7508 0.819392 80.0135 0.892711L80.0979 2.89093Z" fill="#006389"/>
<path d="M91.2352 1.78584C90.692 1.68647 90.171 2.04632 90.0716 2.58959C89.9723 3.13287 90.3321 3.65383 90.8754 3.7532L91.2352 1.78584ZM95.8149 4.9062C96.3461 5.05746 96.8993 4.74949 97.0506 4.21833C97.2019 3.68716 96.8939 3.13394 96.3627 2.98268L95.8149 4.9062ZM90.8754 3.7532C92.5226 4.0545 94.1707 4.43794 95.8149 4.9062L96.3627 2.98268C94.6564 2.49677 92.9457 2.0987 91.2352 1.78584L90.8754 3.7532Z" fill="#006389"/>
<path d="M101.231 4.70899C100.717 4.50604 100.136 4.7579 99.9331 5.27155C99.7301 5.78519 99.982 6.3661 100.496 6.56905L101.231 4.70899ZM105.117 8.65907C105.609 8.91058 106.212 8.71587 106.463 8.22417C106.715 7.73248 106.52 7.13 106.028 6.87849L105.117 8.65907ZM100.496 6.56905C102.053 7.1844 103.595 7.88051 105.117 8.65907L106.028 6.87849C104.449 6.07057 102.848 5.34795 101.231 4.70899L100.496 6.56905Z" fill="#006389"/>
<path d="M111.594 10.2818C111.14 9.96706 110.517 10.0798 110.202 10.5337C109.888 10.9875 110.001 11.6105 110.454 11.9253L111.594 10.2818ZM114.478 15.0141C114.899 15.3711 115.53 15.3189 115.887 14.8975C116.244 14.4761 116.192 13.8451 115.771 13.4881L114.478 15.0141ZM110.454 11.9253C111.83 12.8795 113.173 13.909 114.478 15.0141L115.771 13.4881C114.417 12.3413 113.023 11.2727 111.594 10.2818L110.454 11.9253Z" fill="#006389"/>
<path d="M118.862 16.3363C118.464 15.953 117.831 15.9645 117.448 16.362C117.065 16.7595 117.076 17.3926 117.474 17.776L118.862 16.3363ZM120.95 21.4695C121.309 21.8894 121.94 21.939 122.36 21.5803C122.78 21.2215 122.829 20.5903 122.471 20.1704L120.95 21.4695ZM117.474 17.776C118.679 18.9384 119.84 20.1697 120.95 21.4695L122.471 20.1704C121.318 18.8215 120.114 17.5433 118.862 16.3363L117.474 17.776Z" fill="#006389"/>
<path d="M133.782 44.3574C133.684 43.8139 133.164 43.4529 132.62 43.551C132.077 43.6492 131.716 44.1693 131.814 44.7128L133.782 44.3574ZM132.473 49.7422C132.518 50.2926 133.001 50.7021 133.552 50.6568C134.102 50.6115 134.511 50.1285 134.466 49.5781L132.473 49.7422ZM131.814 44.7128C132.112 46.3607 132.333 48.0383 132.473 49.7422L134.466 49.5781C134.321 47.81 134.091 46.0685 133.782 44.3574L131.814 44.7128Z" fill="#006389"/>
<path d="M131.309 34.2201C131.127 33.6989 130.556 33.4246 130.035 33.6073C129.514 33.79 129.239 34.3606 129.422 34.8818L131.309 34.2201ZM130.867 39.7441C130.998 40.2805 131.54 40.6086 132.076 40.4769C132.612 40.3453 132.941 39.8038 132.809 39.2674L130.867 39.7441ZM129.422 34.8818C129.976 36.462 130.459 38.0837 130.867 39.7441L132.809 39.2674C132.386 37.5444 131.885 35.861 131.309 34.2201L129.422 34.8818Z" fill="#006389"/>
<path d="M126.608 24.9495C126.309 24.4847 125.691 24.3497 125.226 24.648C124.761 24.9464 124.626 25.565 124.925 26.0298L126.608 24.9495ZM127.455 30.426C127.707 30.9174 128.31 31.1113 128.801 30.8592C129.292 30.6071 129.486 30.0043 129.234 29.513L127.455 30.426ZM124.925 26.0298C125.829 27.439 126.674 28.905 127.455 30.426L129.234 29.513C128.424 27.9345 127.547 26.4128 126.608 24.9495L124.925 26.0298Z" fill="#006389"/>
<path d="M134.639 54.5165C134.649 53.9643 134.209 53.5089 133.656 53.4994C133.104 53.4898 132.649 53.9297 132.639 54.4819L134.639 54.5165ZM132.306 59.5433C132.244 60.0921 132.638 60.5877 133.186 60.6504C133.735 60.7132 134.231 60.3192 134.293 59.7705L132.306 59.5433ZM132.639 54.4819C132.61 56.1562 132.501 57.8447 132.306 59.5433L134.293 59.7705C134.495 58.0078 134.609 56.2551 134.639 54.5165L132.639 54.4819Z" fill="#006389"/>
<path d="M133.535 64.9823C133.646 64.4412 133.297 63.9128 132.756 63.8019C132.215 63.691 131.687 64.0397 131.576 64.5808L133.535 64.9823ZM130.318 69.4947C130.156 70.0226 130.452 70.5822 130.98 70.7447C131.508 70.9072 132.067 70.611 132.23 70.0832L130.318 69.4947ZM131.576 64.5808C131.24 66.2212 130.821 67.8608 130.318 69.4947L132.23 70.0832C132.752 68.3876 133.186 66.6857 133.535 64.9823L131.576 64.5808Z" fill="#006389"/>
<path d="M130.667 74.2287C130.869 73.7147 130.616 73.1342 130.102 72.9319C129.588 72.7297 129.008 72.9824 128.805 73.4963L130.667 74.2287ZM126.722 78.121C126.471 78.613 126.667 79.2152 127.159 79.4661C127.651 79.7169 128.253 79.5213 128.504 79.0293L126.722 78.121ZM128.805 73.4963C128.192 75.0546 127.498 76.5978 126.722 78.121L128.504 79.0293C129.309 77.4487 130.03 75.8467 130.667 74.2287L128.805 73.4963Z" fill="#006389"/>
<path d="M125.699 83.7048C126.005 83.2452 125.881 82.6243 125.421 82.3182C124.962 82.012 124.341 82.1364 124.035 82.596L125.699 83.7048ZM121.021 86.6765C120.672 87.1045 120.736 87.7344 121.164 88.0835C121.592 88.4325 122.222 88.3685 122.571 87.9405L121.021 86.6765ZM124.035 82.596C123.106 83.9897 122.102 85.3516 121.021 86.6765L122.571 87.9405C123.693 86.5657 124.735 85.1519 125.699 83.7048L124.035 82.596Z" fill="#006389"/>
<path d="M118.948 91.9008C119.338 91.5094 119.337 90.8763 118.945 90.4866C118.554 90.0969 117.921 90.0983 117.531 90.4897L118.948 91.9008ZM113.782 93.9068C113.357 94.2588 113.297 94.8892 113.649 95.3147C114.001 95.7403 114.632 95.8 115.057 95.448L113.782 93.9068ZM117.531 90.4897C116.349 91.6763 115.1 92.8172 113.782 93.9068L115.057 95.448C116.424 94.3172 117.721 93.133 118.948 91.9008L117.531 90.4897Z" fill="#006389"/>
<path d="M110.519 98.669C110.973 98.3547 111.087 97.7318 110.773 97.2776C110.458 96.8234 109.835 96.71 109.381 97.0242L110.519 98.669ZM105.075 99.7048C104.593 99.9738 104.42 100.583 104.689 101.065C104.958 101.548 105.567 101.721 106.049 101.452L105.075 99.7048ZM109.381 97.0242C108.004 97.9769 106.568 98.8721 105.075 99.7048L106.049 101.452C107.599 100.588 109.089 99.6582 110.519 98.669L109.381 97.0242Z" fill="#006389"/>
<path d="M99.9472 104.049C100.46 103.844 100.71 103.263 100.506 102.75C100.301 102.237 99.7192 101.987 99.2062 102.191L99.9472 104.049ZM94.4094 103.84C93.8791 103.994 93.5742 104.549 93.7284 105.08C93.8826 105.61 94.4376 105.915 94.9679 105.761L94.4094 103.84ZM99.2062 102.191C97.6508 102.812 96.0511 103.363 94.4094 103.84L94.9679 105.761C96.6714 105.265 98.3321 104.693 99.9472 104.049L99.2062 102.191Z" fill="#006389"/>
<path d="M88.5807 106.885C89.1276 106.808 89.509 106.303 89.4324 105.756C89.3559 105.209 88.8504 104.828 88.3035 104.904L88.5807 106.885ZM83.252 105.363C82.7002 105.387 82.2719 105.853 82.2954 106.405C82.3188 106.957 82.7852 107.385 83.337 107.361L83.252 105.363ZM88.3035 104.904C86.6451 105.136 84.9601 105.291 83.252 105.363L83.337 107.361C85.1095 107.286 86.8586 107.126 88.5807 106.885L88.3035 104.904Z" fill="#006389"/>
<path d="M77.3328 107.2C77.884 107.235 78.3595 106.817 78.3949 106.266C78.4303 105.715 78.0122 105.239 77.4611 105.204L77.3328 107.2ZM72.4208 104.634C71.8757 104.546 71.3621 104.916 71.2737 105.461C71.1854 106.006 71.5557 106.52 72.1009 106.608L72.4208 104.634ZM77.4611 105.204C75.79 105.096 74.1085 104.908 72.4208 104.634L72.1009 106.608C73.8521 106.892 75.5976 107.088 77.3328 107.2L77.4611 105.204Z" fill="#006389"/>
<path d="M64.4182 104.155C64.9357 104.348 65.5115 104.084 65.7042 103.567C65.8968 103.049 65.6334 102.473 65.1158 102.281L64.4182 104.155ZM60.4533 100.283C59.9567 100.042 59.3582 100.248 59.1165 100.745C58.8749 101.242 59.0816 101.84 59.5782 102.082L60.4533 100.283ZM65.1158 102.281C63.5465 101.696 61.9906 101.031 60.4533 100.283L59.5782 102.082C61.1735 102.858 62.7886 103.548 64.4182 104.155L65.1158 102.281Z" fill="#006389"/>
<path d="M53.1431 98.7124C53.6138 99.0013 54.2296 98.854 54.5185 98.3833C54.8074 97.9126 54.6601 97.2968 54.1894 97.0079L53.1431 98.7124ZM49.9999 94.1484C49.5592 93.8154 48.9321 93.9028 48.5992 94.3434C48.2663 94.7841 48.3536 95.4112 48.7942 95.7441L49.9999 94.1484ZM54.1894 97.0079C52.7622 96.1319 51.364 95.179 49.9999 94.1484L48.7942 95.7441C50.2098 96.8136 51.6612 97.8028 53.1431 98.7124L54.1894 97.0079Z" fill="#006389"/>
<path d="M44.4702 91.8754C44.8656 92.2609 45.4987 92.2528 45.8843 91.8574C46.2698 91.4619 46.2617 90.8288 45.8662 90.4433L44.4702 91.8754ZM42.4096 86.7311C42.0531 86.3092 41.4221 86.2563 41.0003 86.6128C40.5785 86.9693 40.5255 87.6002 40.882 88.022L42.4096 86.7311ZM45.8662 90.4433C44.6671 89.2744 43.5131 88.0369 42.4096 86.7311L40.882 88.022C42.0271 89.3771 43.225 90.6617 44.4702 91.8754L45.8662 90.4433Z" fill="#006389"/>
<path d="M37.2638 83.2421C37.5681 83.703 38.1884 83.8299 38.6493 83.5256C39.1101 83.2213 39.2371 82.601 38.9328 82.1401L37.2638 83.2421ZM36.346 77.7769C36.0875 77.2888 35.4823 77.1027 34.9942 77.3612C34.5062 77.6197 34.3201 78.2249 34.5785 78.7129L36.346 77.7769ZM38.9328 82.1401C38.0101 80.7427 37.1461 79.2878 36.346 77.7769L34.5785 78.7129C35.4089 80.2808 36.3057 81.791 37.2638 83.2421L38.9328 82.1401Z" fill="#006389"/>
<path d="M32.5939 74.1016C32.8142 74.608 33.4033 74.84 33.9097 74.6198C34.4162 74.3995 34.6482 73.8104 34.4279 73.3039L32.5939 74.1016ZM32.6324 68.56C32.4619 68.0347 31.8979 67.747 31.3726 67.9174C30.8472 68.0879 30.5595 68.6519 30.73 69.1772L32.6324 68.56ZM34.4279 73.3039C33.7601 71.7683 33.16 70.1862 32.6324 68.56L30.73 69.1772C31.2775 70.8648 31.9004 72.5071 32.5939 74.1016L34.4279 73.3039Z" fill="#006389"/>
<path d="M29.4446 63.9003C29.5594 64.4405 30.0905 64.7854 30.6307 64.6705C31.1709 64.5556 31.5157 64.0246 31.4008 63.4844L29.4446 63.9003ZM30.5872 58.4777C30.525 57.929 30.0296 57.5346 29.4808 57.5968C28.9321 57.6591 28.5377 58.1545 28.6 58.7032L30.5872 58.4777ZM31.4008 63.4844C31.0526 61.8465 30.78 60.1765 30.5872 58.4777L28.6 58.7032C28.8 60.466 29.0829 62.1996 29.4446 63.9003L31.4008 63.4844Z" fill="#006389"/>
<path d="M28.3923 52.8056C28.3976 53.3578 28.8495 53.8012 29.4018 53.796C29.9541 53.7907 30.3975 53.3387 30.3922 52.7864L28.3923 52.8056ZM30.5891 47.7179C30.6371 47.1677 30.2299 46.6828 29.6797 46.6349C29.1295 46.5869 28.6446 46.994 28.5967 47.5442L30.5891 47.7179ZM30.3922 52.7864C30.3762 51.112 30.4406 49.4211 30.5891 47.7179L28.5967 47.5442C28.4426 49.3116 28.3756 51.0669 28.3923 52.8056L30.3922 52.7864Z" fill="#006389"/>
<path d="M29.9217 40.6445C29.8188 41.1871 30.1752 41.7104 30.7178 41.8134C31.2604 41.9163 31.7837 41.5599 31.8867 41.0173L29.9217 40.6445ZM33.0723 36.0855C33.2271 35.5554 32.9228 35.0001 32.3927 34.8454C31.8625 34.6906 31.3073 34.9949 31.1525 35.525L33.0723 36.0855ZM31.8867 41.0173C32.1989 39.3722 32.5932 37.7267 33.0723 36.0855L31.1525 35.525C30.6553 37.2281 30.2459 38.9362 29.9217 40.6445L31.8867 41.0173Z" fill="#006389"/>
<path d="M33.9435 29.0007C33.6933 29.4931 33.8896 30.095 34.3819 30.3453C34.8743 30.5955 35.4762 30.3992 35.7265 29.9069L33.9435 29.0007ZM38.2408 25.5016C38.5373 25.0357 38.4 24.4176 37.934 24.121C37.4681 23.8245 36.85 23.9619 36.5535 24.4278L38.2408 25.5016ZM35.7265 29.9069C36.4852 28.4141 37.3229 26.9439 38.2408 25.5016L36.5535 24.4278C35.601 25.9245 34.7314 27.4506 33.9435 29.0007L35.7265 29.9069Z" fill="#006389"/>
<path d="M40.9718 18.1029C40.6044 18.5152 40.6407 19.1474 41.053 19.5148C41.4653 19.8823 42.0974 19.846 42.4649 19.4337L40.9718 18.1029ZM46.0191 15.8148C46.4246 15.4398 46.4493 14.8072 46.0744 14.4017C45.6994 13.9962 45.0667 13.9714 44.6612 14.3464L46.0191 15.8148ZM42.4649 19.4337C43.5791 18.1836 44.7638 16.9755 46.0191 15.8148L44.6612 14.3464C43.3587 15.5509 42.1288 16.8049 40.9718 18.1029L42.4649 19.4337Z" fill="#006389"/>
</svg>
