<svg width="42" height="42" viewBox="0 0 42 42" fill="none" xmlns="http://www.w3.org/2000/svg">
<path d="M8.91752 4.3341C8.69685 4.5001 8.65253 4.81357 8.81853 5.03424C8.98453 5.25492 9.298 5.29924 9.51867 5.13324L8.91752 4.3341ZM11.3905 3.88665C11.6288 3.74704 11.7087 3.44073 11.5691 3.20247C11.4295 2.96422 11.1232 2.88424 10.885 3.02384L11.3905 3.88665ZM9.51867 5.13324C10.1169 4.68321 10.7418 4.26675 11.3905 3.88665L10.885 3.02384C10.203 3.42341 9.54625 3.86114 8.91752 4.3341L9.51867 5.13324Z" fill="#006389"/>
<path d="M12.5058 2.21335C12.2558 2.3306 12.1482 2.62833 12.2655 2.87834C12.3827 3.12835 12.6804 3.23597 12.9305 3.11872L12.5058 2.21335ZM15.0825 2.26193C15.3447 2.17529 15.487 1.8925 15.4004 1.6303C15.3138 1.3681 15.031 1.22579 14.7688 1.31243L15.0825 2.26193ZM12.9305 3.11872C13.6264 2.7923 14.3448 2.50573 15.0825 2.26193L14.7688 1.31243C13.9929 1.56881 13.2376 1.87015 12.5058 2.21335L12.9305 3.11872Z" fill="#006389"/>
<path d="M16.5805 0.785553C16.3079 0.829925 16.1229 1.08685 16.1673 1.3594C16.2117 1.63195 16.4686 1.81693 16.7411 1.77256L16.5805 0.785553ZM18.9334 1.54225C19.2092 1.52897 19.4221 1.29461 19.4088 1.01879C19.3955 0.742963 19.1611 0.530129 18.8853 0.543407L18.9334 1.54225ZM16.7411 1.77256C17.4606 1.65543 18.1922 1.57793 18.9334 1.54225L18.8853 0.543407C18.1062 0.580916 17.337 0.662385 16.5805 0.785553L16.7411 1.77256Z" fill="#006389"/>
<path d="M20.7088 0.418772C20.4329 0.430415 20.2187 0.663513 20.2303 0.93941C20.242 1.21531 20.4751 1.42953 20.751 1.41788L20.7088 0.418772ZM22.6607 1.42977C22.9364 1.44477 23.1721 1.2334 23.1871 0.957666C23.2021 0.681931 22.9908 0.446245 22.715 0.431246L22.6607 1.42977ZM20.751 1.41788C21.3808 1.3913 22.0179 1.39481 22.6607 1.42977L22.715 0.431246C22.04 0.394531 21.3708 0.390833 20.7088 0.418772L20.751 1.41788Z" fill="#006389"/>
<path d="M24.9865 0.759664C24.7149 0.709978 24.4544 0.889904 24.4047 1.16154C24.355 1.43318 24.535 1.69366 24.8066 1.74334L24.9865 0.759664ZM26.6664 2.17746C26.932 2.25309 27.2086 2.09911 27.2842 1.83352C27.3599 1.56794 27.2059 1.29133 26.9403 1.2157L26.6664 2.17746ZM24.8066 1.74334C25.4268 1.85678 26.0473 2.00115 26.6664 2.17746L26.9403 1.2157C26.2902 1.03056 25.6383 0.87888 24.9865 0.759664L24.8066 1.74334Z" fill="#006389"/>
<path d="M28.7965 1.8725C28.5397 1.77102 28.2492 1.89696 28.1477 2.15378C28.0463 2.4106 28.1722 2.70106 28.429 2.80253L28.7965 1.8725ZM30.1691 3.58945C30.415 3.7152 30.7162 3.61784 30.842 3.372C30.9677 3.12615 30.8704 2.82491 30.6245 2.69915L30.1691 3.58945ZM28.429 2.80253C29.0153 3.03421 29.596 3.29629 30.1691 3.58945L30.6245 2.69915C30.0227 2.39132 29.4127 2.11598 28.7965 1.8725L28.429 2.80253Z" fill="#006389"/>
<path d="M32.7466 3.99651C32.5197 3.83914 32.2082 3.89552 32.0508 4.12244C31.8935 4.34935 31.9498 4.66088 32.1768 4.81824L32.7466 3.99651ZM33.6916 5.98123C33.9023 6.15973 34.2178 6.13363 34.3963 5.92294C34.5748 5.71224 34.5487 5.39674 34.338 5.21824L33.6916 5.98123ZM32.1768 4.81824C32.6948 5.17751 33.2004 5.56511 33.6916 5.98123L34.338 5.21824C33.8223 4.78129 33.2911 4.37409 32.7466 3.99651L32.1768 4.81824Z" fill="#006389"/>
<path d="M35.5149 6.30308C35.3161 6.11139 34.9995 6.11713 34.8079 6.31591C34.6162 6.51468 34.6219 6.83121 34.8207 7.0229L35.5149 6.30308ZM36.1296 8.41356C36.309 8.62351 36.6246 8.6483 36.8346 8.46892C37.0445 8.28955 37.0693 7.97394 36.8899 7.76399L36.1296 8.41356ZM34.8207 7.0229C35.2745 7.46053 35.7115 7.92412 36.1296 8.41356L36.8899 7.76399C36.4508 7.25005 35.9918 6.76301 35.5149 6.30308L34.8207 7.0229Z" fill="#006389"/>
<path d="M41.2018 16.9842C41.1527 16.7124 40.8926 16.5319 40.6209 16.581C40.3491 16.6301 40.1686 16.8901 40.2177 17.1619L41.2018 16.9842ZM40.4657 19.0555C40.4884 19.3307 40.7299 19.5354 41.0051 19.5128C41.2803 19.4901 41.485 19.2487 41.4624 18.9735L40.4657 19.0555ZM40.2177 17.1619C40.3297 17.7823 40.4129 18.4139 40.4657 19.0555L41.4624 18.9735C41.4069 18.2998 41.3195 17.6362 41.2018 16.9842L40.2177 17.1619Z" fill="#006389"/>
<path d="M40.2605 13.1242C40.1691 12.8636 39.8838 12.7264 39.6232 12.8178C39.3626 12.9091 39.2255 13.1944 39.3168 13.455L40.2605 13.1242ZM39.8607 15.2857C39.9265 15.5539 40.1973 15.718 40.4654 15.6521C40.7336 15.5863 40.8977 15.3156 40.8319 15.0474L39.8607 15.2857ZM39.3168 13.455C39.5254 14.05 39.7073 14.6605 39.8607 15.2857L40.8319 15.0474C40.6708 14.3909 40.4797 13.7495 40.2605 13.1242L39.3168 13.455Z" fill="#006389"/>
<path d="M38.4669 9.58735C38.3177 9.35495 38.0084 9.28748 37.776 9.43664C37.5436 9.5858 37.4761 9.89511 37.6253 10.1275L38.4669 9.58735ZM38.5779 11.7827C38.704 12.0284 39.0053 12.1254 39.251 11.9993C39.4967 11.8733 39.5937 11.5719 39.4676 11.3262L38.5779 11.7827ZM37.6253 10.1275C37.9658 10.6581 38.284 11.21 38.5779 11.7827L39.4676 11.3262C39.159 10.7248 38.8248 10.1449 38.4669 9.58735L37.6253 10.1275Z" fill="#006389"/>
<path d="M41.5279 20.8551C41.5327 20.579 41.3128 20.3513 41.0367 20.3466C40.7605 20.3418 40.5329 20.5617 40.5281 20.8378L41.5279 20.8551ZM40.4027 22.7435C40.3713 23.0179 40.5683 23.2657 40.8427 23.2971C41.117 23.3284 41.3649 23.1314 41.3962 22.8571L40.4027 22.7435ZM40.5281 20.8378C40.5172 21.4682 40.4758 22.1039 40.4027 22.7435L41.3962 22.8571C41.473 22.1855 41.5165 21.5176 41.5279 20.8551L40.5281 20.8378Z" fill="#006389"/>
<path d="M41.1074 24.8428C41.1629 24.5723 40.9885 24.3081 40.718 24.2526C40.4475 24.1972 40.1832 24.3716 40.1278 24.6421L41.1074 24.8428ZM39.6543 26.4922C39.5731 26.7562 39.7212 27.036 39.9851 27.1172C40.249 27.1985 40.5288 27.0504 40.6101 26.7865L39.6543 26.4922ZM40.1278 24.6421C40.0012 25.2597 39.8437 25.877 39.6543 26.4922L40.6101 26.7865C40.8089 26.1404 40.9744 25.4919 41.1074 24.8428L40.1278 24.6421Z" fill="#006389"/>
<path d="M40.0148 28.3657C40.1159 28.1087 39.9896 27.8185 39.7326 27.7174C39.4756 27.6162 39.1854 27.7426 39.0842 27.9995L40.0148 28.3657ZM38.2998 29.7408C38.1744 29.9868 38.2721 30.2879 38.5182 30.4133C38.7642 30.5387 39.0653 30.4409 39.1907 30.1949L38.2998 29.7408ZM39.0842 27.9995C38.8534 28.5862 38.5921 29.1673 38.2998 29.7408L39.1907 30.1949C39.4977 29.5927 39.7722 28.9823 40.0148 28.3657L39.0842 27.9995Z" fill="#006389"/>
<path d="M38.1213 31.9773C38.2744 31.7475 38.2122 31.4371 37.9824 31.284C37.7526 31.1309 37.4422 31.1931 37.2891 31.4229L38.1213 31.9773ZM36.1546 32.9592C35.9801 33.1732 36.0121 33.4882 36.2261 33.6627C36.4401 33.8372 36.7551 33.8052 36.9296 33.5912L36.1546 32.9592ZM37.2891 31.4229C36.9396 31.9476 36.5615 32.4604 36.1546 32.9592L36.9296 33.5912C37.3568 33.0674 37.754 32.5287 38.1213 31.9773L37.2891 31.4229Z" fill="#006389"/>
<path d="M35.5477 35.1008C35.7425 34.9051 35.7419 34.5886 35.5462 34.3937C35.3505 34.1989 35.0339 34.1996 34.8391 34.3953L35.5477 35.1008ZM33.4277 35.6818C33.2149 35.8578 33.1851 36.173 33.3611 36.3858C33.5371 36.5986 33.8522 36.6284 34.065 36.4524L33.4277 35.6818ZM34.8391 34.3953C34.3942 34.842 33.9237 35.2716 33.4277 35.6818L34.065 36.4524C34.5859 36.0216 35.0802 35.5704 35.5477 35.1008L34.8391 34.3953Z" fill="#006389"/>
<path d="M32.3377 37.6781C32.5648 37.521 32.6215 37.2096 32.4644 36.9825C32.3073 36.7554 31.9959 36.6987 31.7688 36.8558L32.3377 37.6781ZM30.1475 37.865C29.9063 37.9995 29.8198 38.3041 29.9543 38.5452C30.0888 38.7864 30.3933 38.8729 30.6345 38.7384L30.1475 37.865ZM31.7688 36.8558C31.2503 37.2144 30.7097 37.5515 30.1475 37.865L30.6345 38.7384C31.2249 38.4092 31.7928 38.0551 32.3377 37.6781L31.7688 36.8558Z" fill="#006389"/>
<path d="M28.3092 39.7302C28.5657 39.6279 28.6907 39.3371 28.5884 39.0806C28.4861 38.8241 28.1952 38.6991 27.9387 38.8014L28.3092 39.7302ZM26.1327 39.4223C25.8675 39.4994 25.7151 39.7768 25.7922 40.042C25.8693 40.3072 26.1468 40.4596 26.4119 40.3825L26.1327 39.4223ZM27.9387 38.8014C27.3531 39.035 26.7508 39.2425 26.1327 39.4223L26.4119 40.3825C27.061 40.1937 27.6938 39.9757 28.3092 39.7302L27.9387 38.8014Z" fill="#006389"/>
<path d="M23.9758 40.812C24.2493 40.7738 24.44 40.521 24.4017 40.2476C24.3634 39.9741 24.1107 39.7834 23.8372 39.8217L23.9758 40.812ZM21.9353 39.9945C21.6594 40.0063 21.4452 40.2394 21.457 40.5153C21.4687 40.7912 21.7019 41.0054 21.9778 40.9936L21.9353 39.9945ZM23.8372 39.8217C23.2129 39.9091 22.5784 39.9672 21.9353 39.9945L21.9778 40.9936C22.6531 40.9649 23.3196 40.9039 23.9758 40.812L23.8372 39.8217Z" fill="#006389"/>
<path d="M19.6903 40.9314C19.9659 40.9491 20.2036 40.74 20.2213 40.4645C20.239 40.1889 20.03 39.9512 19.7544 39.9334L19.6903 40.9314ZM17.8567 39.7189C17.5841 39.6748 17.3273 39.8599 17.2831 40.1325C17.239 40.4051 17.4241 40.6619 17.6967 40.7061L17.8567 39.7189ZM19.7544 39.9334C19.1253 39.893 18.4921 39.8219 17.8567 39.7189L17.6967 40.7061C18.364 40.8142 19.0291 40.8889 19.6903 40.9314L19.7544 39.9334Z" fill="#006389"/>
<path d="M14.763 39.7714C15.0218 39.8677 15.3097 39.736 15.406 39.4772C15.5024 39.2184 15.3707 38.9305 15.1119 38.8342L14.763 39.7714ZM13.3564 38.0822C13.1081 37.9613 12.8088 38.0647 12.688 38.313C12.5672 38.5613 12.6705 38.8605 12.9188 38.9814L13.3564 38.0822ZM15.1119 38.8342C14.521 38.6142 13.9352 38.3638 13.3564 38.0822L12.9188 38.9814C13.5267 39.2771 14.1421 39.5402 14.763 39.7714L15.1119 38.8342Z" fill="#006389"/>
<path d="M10.4711 37.6993C10.7065 37.8438 11.0144 37.7701 11.1588 37.5348C11.3033 37.2994 11.2296 36.9915 10.9942 36.8471L10.4711 37.6993ZM9.41687 35.7704C9.19654 35.604 8.88298 35.6476 8.71652 35.868C8.55005 36.0883 8.59371 36.4018 8.81404 36.5683L9.41687 35.7704ZM10.9942 36.8471C10.4569 36.5173 9.93049 36.1585 9.41687 35.7704L8.81404 36.5683C9.35338 36.9758 9.90643 37.3527 10.4711 37.6993L10.9942 36.8471Z" fill="#006389"/>
<path d="M7.16433 35.0929C7.36207 35.2857 7.67863 35.2816 7.87138 35.0839C8.06414 34.8861 8.06009 34.5696 7.86235 34.3768L7.16433 35.0929ZM6.5609 32.9791C6.38266 32.7682 6.06718 32.7417 5.85627 32.92C5.64536 33.0982 5.61888 33.4137 5.79712 33.6246L6.5609 32.9791ZM7.86235 34.3768C7.4109 33.9368 6.97642 33.4708 6.5609 32.9791L5.79712 33.6246C6.23344 34.1409 6.68988 34.6304 7.16433 35.0929L7.86235 34.3768Z" fill="#006389"/>
<path d="M4.41891 31.8013C4.57107 32.0317 4.88122 32.0952 5.11166 31.9431C5.34211 31.7909 5.40557 31.4807 5.25342 31.2503L4.41891 31.8013ZM4.27947 29.6075C4.15023 29.3635 3.84763 29.2704 3.6036 29.3997C3.35957 29.5289 3.26651 29.8315 3.39575 30.0755L4.27947 29.6075ZM5.25342 31.2503C4.90604 30.7242 4.58075 30.1764 4.27947 29.6075L3.39575 30.0755C3.71211 30.6729 4.05383 31.2484 4.41891 31.8013L5.25342 31.2503Z" fill="#006389"/>
<path d="M2.63962 28.3199C2.74976 28.5731 3.04432 28.6891 3.29755 28.579C3.55078 28.4689 3.66678 28.1743 3.55665 27.9211L2.63962 28.3199ZM2.88059 26.135C2.79537 25.8723 2.51336 25.7284 2.2507 25.8137C1.98803 25.8989 1.84418 26.1809 1.9294 26.4436L2.88059 26.135ZM3.55665 27.9211C3.3052 27.3429 3.07925 26.7473 2.88059 26.135L1.9294 26.4436C2.138 27.0865 2.37536 27.7123 2.63962 28.3199L3.55665 27.9211Z" fill="#006389"/>
<path d="M1.43875 24.4329C1.49618 24.703 1.7617 24.8754 2.0318 24.818C2.30191 24.7605 2.47431 24.495 2.41688 24.2249L1.43875 24.4329ZM2.11054 22.3398C2.07941 22.0655 1.83174 21.8683 1.55736 21.8994C1.28298 21.9305 1.08579 22.1782 1.11692 22.4526L2.11054 22.3398ZM2.41688 24.2249C2.28576 23.6082 2.18312 22.9795 2.11054 22.3398L1.11692 22.4526C1.19313 23.1242 1.30095 23.7848 1.43875 24.4329L2.41688 24.2249Z" fill="#006389"/>
<path d="M1.03758 20.2058C1.04022 20.4819 1.26621 20.7036 1.54234 20.701C1.81847 20.6984 2.04018 20.4724 2.03753 20.1962L1.03758 20.2058ZM2.11168 18.2879C2.13566 18.0128 1.93209 17.7703 1.65699 17.7464C1.38189 17.7224 1.13944 17.9259 1.11546 18.201L2.11168 18.2879ZM2.03753 20.1962C2.0315 19.5658 2.05578 18.9292 2.11168 18.2879L1.11546 18.201C1.05676 18.8745 1.03124 19.5433 1.03758 20.2058L2.03753 20.1962Z" fill="#006389"/>
<path d="M1.61944 15.5751C1.56796 15.8464 1.74616 16.1081 2.01746 16.1596C2.28876 16.211 2.55043 16.0329 2.60191 15.7616L1.61944 15.5751ZM3.04833 13.9047C3.12572 13.6396 2.97357 13.362 2.70849 13.2846C2.44341 13.2072 2.16579 13.3593 2.0884 13.6244L3.04833 13.9047ZM2.60191 15.7616C2.71945 15.1422 2.86792 14.5226 3.04833 13.9047L2.0884 13.6244C1.89896 14.2733 1.74297 14.9242 1.61944 15.5751L2.60191 15.7616Z" fill="#006389"/>
<path d="M3.15289 11.1331C3.02778 11.3793 3.12591 11.6803 3.37208 11.8054C3.61825 11.9305 3.91924 11.8324 4.04436 11.5862L3.15289 11.1331ZM4.99103 9.92759C5.13929 9.69462 5.07062 9.38557 4.83765 9.23731C4.60469 9.08905 4.29564 9.15772 4.14738 9.39069L4.99103 9.92759ZM4.04436 11.5862C4.33001 11.0242 4.64541 10.4707 4.99103 9.92759L4.14738 9.39069C3.78446 9.96097 3.4531 10.5425 3.15289 11.1331L4.04436 11.5862Z" fill="#006389"/>
<path d="M5.8329 6.97799C5.64916 7.18413 5.66733 7.50019 5.87348 7.68393C6.07962 7.86766 6.39568 7.8495 6.57942 7.64335L5.8329 6.97799ZM7.91761 6.28081C8.12036 6.09333 8.13274 5.77699 7.94526 5.57424C7.75778 5.3715 7.44144 5.35912 7.23869 5.5466L7.91761 6.28081ZM6.57942 7.64335C6.99889 7.17271 7.44497 6.71786 7.91761 6.28081L7.23869 5.5466C6.74239 6.00553 6.27375 6.48336 5.8329 6.97799L6.57942 7.64335Z" fill="#006389"/>
<circle cx="21.3363" cy="20.3957" r="19.0327" fill="#DFB08A"/>
<path d="M15.0166 19.1513C16.8165 16.1423 18.586 14.0831 21.2857 10.7059L26.7882 17.9953C27.8459 19.3964 28.4181 21.1041 28.4181 22.8597C28.4181 23.2707 28.3867 23.6811 28.3242 24.0873L28.2451 24.602C28.1322 25.3355 27.9087 26.0477 27.5823 26.7142C27.2264 27.4407 26.7529 28.1034 26.1809 28.6754L25.8583 28.998C25.5345 29.3218 25.1766 29.6097 24.7909 29.8565C23.7687 30.5107 22.5805 30.8584 21.3668 30.8584H21.2512C20.4844 30.8584 19.7233 30.7277 19.0005 30.472L18.7704 30.3906C17.804 30.0486 16.9241 29.4992 16.1926 28.781C15.372 27.9753 14.7618 26.9805 14.4156 25.8839L14.3305 25.6146C13.8888 24.2155 13.8345 22.7152 14.1698 21.2869C14.3455 20.5384 14.6219 19.8111 15.0166 19.1513Z" fill="#A3E0FB"/>
<path d="M21.2857 10.7059L21.6848 10.4047L21.297 9.89103L20.8952 10.3937L21.2857 10.7059ZM15.0166 19.1513L15.4457 19.4079L15.0166 19.1513ZM14.3305 25.6146L13.8537 25.7651H13.8537L14.3305 25.6146ZM14.4156 25.8839L14.8924 25.7333L14.4156 25.8839ZM18.7704 30.3906L18.6036 30.8619H18.6036L18.7704 30.3906ZM19.0005 30.472L19.1673 30.0006L19.0005 30.472ZM25.8583 28.998L25.5048 28.6444H25.5048L25.8583 28.998ZM26.1809 28.6754L26.5344 29.029H26.5344L26.1809 28.6754ZM28.2451 24.602L27.7509 24.526L28.2451 24.602ZM28.3242 24.0873L28.8184 24.1634L28.8184 24.1634L28.3242 24.0873ZM17.142 20.3927C17.2736 20.15 17.1835 19.8465 16.9407 19.7149C16.6979 19.5832 16.3944 19.6734 16.2628 19.9161L17.142 20.3927ZM16.4407 20.6371L16.0011 20.3988H16.0011L16.4407 20.6371ZM18.0553 27.8212L18.3056 27.3883H18.3056L18.0553 27.8212ZM19.1987 29.0597C19.4377 29.1979 19.7436 29.1162 19.8818 28.8771C20.02 28.638 19.9383 28.3322 19.6992 28.194L19.1987 29.0597ZM26.7882 17.9953L26.3892 18.2965L26.7882 17.9953ZM16.09 25.6012L16.55 25.4053L16.09 25.6012ZM27.5823 26.7142L27.1333 26.4943L27.5823 26.7142ZM24.7909 29.8565L24.5213 29.4354L24.7909 29.8565ZM16.1926 28.781L15.8423 29.1378L15.8423 29.1378L16.1926 28.781ZM14.1698 21.2869L13.683 21.1726H13.683L14.1698 21.2869ZM20.8952 10.3937C18.2074 13.756 16.4094 15.8487 14.5875 18.8946L15.4457 19.4079C17.2235 16.4358 18.9646 14.4103 21.6763 11.0181L20.8952 10.3937ZM13.8537 25.7651L13.9388 26.0344L14.8924 25.7333L14.8073 25.464L13.8537 25.7651ZM18.6036 30.8619L18.8337 30.9433L19.1673 30.0006L18.9372 29.9192L18.6036 30.8619ZM21.2512 31.3584H21.3668V30.3584H21.2512V31.3584ZM26.2119 29.3515L26.5344 29.029L25.8273 28.3219L25.5048 28.6444L26.2119 29.3515ZM28.7392 24.678L28.8184 24.1634L27.83 24.0113L27.7509 24.526L28.7392 24.678ZM16.2628 19.9161L16.0011 20.3988L16.8803 20.8754L17.142 20.3927L16.2628 19.9161ZM15.2154 23.497V23.7655H16.2154V23.497H15.2154ZM17.8051 28.254L19.1987 29.0597L19.6992 28.194L18.3056 27.3883L17.8051 28.254ZM27.1873 17.6941L21.6848 10.4047L20.8866 11.0072L26.3892 18.2965L27.1873 17.6941ZM28.9181 22.8597C28.9181 20.9954 28.3105 19.182 27.1873 17.6941L26.3892 18.2965C27.3814 19.6109 27.9181 21.2128 27.9181 22.8597H28.9181ZM15.63 25.7972C16.0699 26.83 16.8332 27.6922 17.8051 28.254L18.3056 27.3883C17.5211 26.9348 16.9051 26.2389 16.55 25.4053L15.63 25.7972ZM15.2154 23.7655C15.2154 24.4637 15.3564 25.1548 15.63 25.7972L16.55 25.4053C16.3292 24.8868 16.2154 24.3291 16.2154 23.7655H15.2154ZM28.8184 24.1634C28.8848 23.732 28.9181 23.2961 28.9181 22.8597H27.9181C27.9181 23.2452 27.8887 23.6302 27.83 24.0113L28.8184 24.1634ZM28.0313 26.9341C28.38 26.2222 28.6187 25.4615 28.7392 24.678L27.7509 24.526C27.6457 25.2095 27.4375 25.8732 27.1333 26.4943L28.0313 26.9341ZM26.5344 29.029C27.1454 28.418 27.6512 27.7101 28.0313 26.9341L27.1333 26.4943C26.8017 27.1713 26.3604 27.7888 25.8273 28.3219L26.5344 29.029ZM25.0604 30.2777C25.4765 30.0114 25.8626 29.7008 26.2119 29.3515L25.5048 28.6444C25.2064 28.9428 24.8767 29.208 24.5213 29.4354L25.0604 30.2777ZM21.3668 31.3584C22.676 31.3584 23.9577 30.9834 25.0604 30.2777L24.5213 29.4354C23.5796 30.0381 22.4849 30.3584 21.3668 30.3584V31.3584ZM18.8337 30.9433C19.6101 31.218 20.4276 31.3584 21.2512 31.3584V30.3584C20.5413 30.3584 19.8365 30.2374 19.1673 30.0006L18.8337 30.9433ZM15.8423 29.1378C16.6259 29.9071 17.5684 30.4956 18.6036 30.8619L18.9372 29.9192C18.0396 29.6016 17.2224 29.0913 16.5429 28.4242L15.8423 29.1378ZM13.9388 26.0344C14.3097 27.2091 14.9633 28.2747 15.8423 29.1378L16.5429 28.4242C15.7807 27.6759 15.214 26.7519 14.8924 25.7333L13.9388 26.0344ZM13.683 21.1726C13.3273 22.688 13.3848 24.2798 13.8537 25.7651L14.8073 25.464C14.3928 24.1512 14.3417 22.7424 14.6565 21.4012L13.683 21.1726ZM16.0011 20.3988C15.4854 21.3501 15.2154 22.415 15.2154 23.497H16.2154C16.2154 22.5814 16.4439 21.6803 16.8803 20.8754L16.0011 20.3988ZM14.5875 18.8946C14.1628 19.6047 13.8687 20.3814 13.683 21.1726L14.6565 21.4012C14.8222 20.6954 15.0811 20.0175 15.4457 19.4079L14.5875 18.8946Z" fill="#006389"/>
<path d="M30.0268 20.884L29.9789 21.1131C29.9026 21.4776 29.7483 21.8213 29.5266 22.1206C29.1882 22.5774 28.7085 22.9097 28.1618 23.0659L27.9326 23.1314C27.2629 23.3227 26.5497 23.2961 25.8961 23.0553L25.5618 22.9321C25.3686 22.8609 25.1831 22.7704 25.0081 22.6618L24.8457 22.561C24.318 22.2334 23.9284 21.7241 23.7504 21.129C23.6496 20.7921 23.6197 20.438 23.6627 20.089L23.6983 19.8008C23.7731 19.1933 23.9889 18.6117 24.3285 18.1023L25.357 16.5595L26.902 14.2421L29.2547 17.6195C29.4593 17.9131 29.6284 18.23 29.7586 18.5635L29.8545 18.8094C30.1121 19.4695 30.172 20.1904 30.0268 20.884Z" fill="#4696E6"/>
<path d="M29.9789 21.1131L30.4683 21.2155L29.9789 21.1131ZM30.0268 20.884L29.5375 20.7815L29.5374 20.7815L30.0268 20.884ZM29.8545 18.8094L29.3887 18.9912L29.8545 18.8094ZM29.7586 18.5635L30.2243 18.3817V18.3817L29.7586 18.5635ZM29.2547 17.6195L29.665 17.3336L29.2547 17.6195ZM26.902 14.2421L27.3122 13.9563L26.8929 13.3544L26.4859 13.9648L26.902 14.2421ZM23.6983 19.8008L23.202 19.7397L23.6983 19.8008ZM23.6627 20.089L24.159 20.1501L23.6627 20.089ZM24.8457 22.561L25.1094 22.1362H25.1094L24.8457 22.561ZM25.0081 22.6618L24.7444 23.0866L24.7445 23.0866L25.0081 22.6618ZM25.5618 22.9321L25.3889 23.4013H25.3889L25.5618 22.9321ZM25.8961 23.0553L26.069 22.5861H26.069L25.8961 23.0553ZM27.9326 23.1314L28.07 23.6122L28.07 23.6122L27.9326 23.1314ZM28.1618 23.0659L28.0244 22.5852L28.0244 22.5852L28.1618 23.0659ZM25.357 16.5595L24.941 16.2822V16.2822L25.357 16.5595ZM24.3285 18.1023L23.9125 17.825H23.9125L24.3285 18.1023ZM25.5917 21.4163L25.3205 21.8363L25.5917 21.4163ZM25.494 21.9484C25.726 22.0982 26.0355 22.0316 26.1853 21.7996C26.3351 21.5676 26.2685 21.2581 26.0365 21.1083L25.494 21.9484ZM25.7426 19.344C25.8347 19.0837 25.6983 18.798 25.4379 18.7059C25.1776 18.6139 24.8919 18.7503 24.7998 19.0106L25.7426 19.344ZM25.1211 19.6018L24.6497 19.4351L24.6497 19.4351L25.1211 19.6018ZM23.7504 21.129L23.2713 21.2723L23.2713 21.2724L23.7504 21.129ZM25.1188 20.8595L24.6604 21.0592L25.1188 20.8595ZM29.5266 22.1206L29.9284 22.4182L29.9284 22.4182L29.5266 22.1206ZM30.4683 21.2155L30.5162 20.9864L29.5374 20.7815L29.4895 21.0107L30.4683 21.2155ZM30.3203 18.6276L30.2243 18.3817L29.2928 18.7452L29.3887 18.9912L30.3203 18.6276ZM29.665 17.3336L27.3122 13.9563L26.4917 14.5279L28.8444 17.9053L29.665 17.3336ZM23.202 19.7397L23.1665 20.0278L24.159 20.1501L24.1945 19.862L23.202 19.7397ZM24.5821 22.9858L24.7444 23.0866L25.2718 22.237L25.1094 22.1362L24.5821 22.9858ZM25.3889 23.4013L25.7233 23.5245L26.069 22.5861L25.7346 22.4629L25.3889 23.4013ZM28.07 23.6122L28.2992 23.5467L28.0244 22.5852L27.7953 22.6506L28.07 23.6122ZM26.4859 13.9648L24.941 16.2822L25.7731 16.8369L27.318 14.5195L26.4859 13.9648ZM24.941 16.2822L23.9125 17.825L24.7445 18.3797L25.7731 16.8369L24.941 16.2822ZM25.3205 21.8363L25.494 21.9484L26.0365 21.1083L25.863 20.9963L25.3205 21.8363ZM24.7998 19.0106L24.6497 19.4351L25.5925 19.7685L25.7426 19.344L24.7998 19.0106ZM24.5137 20.2273V20.355H25.5137V20.2273H24.5137ZM24.6497 19.4351C24.5597 19.6895 24.5137 19.9575 24.5137 20.2273H25.5137C25.5137 20.071 25.5403 19.9159 25.5925 19.7685L24.6497 19.4351ZM25.7233 23.5245C26.4764 23.8019 27.2983 23.8327 28.07 23.6122L27.7953 22.6506C27.2276 22.8128 26.623 22.7902 26.069 22.5861L25.7233 23.5245ZM24.7445 23.0866C24.9481 23.213 25.164 23.3184 25.3889 23.4013L25.7346 22.4629C25.5731 22.4034 25.418 22.3277 25.2718 22.237L24.7445 23.0866ZM23.2713 21.2724C23.4844 21.9844 23.9506 22.5939 24.5821 22.9858L25.1094 22.1362C24.6854 21.873 24.3724 21.4638 24.2294 20.9857L23.2713 21.2724ZM23.1665 20.0278C23.115 20.4455 23.1507 20.8692 23.2713 21.2723L24.2294 20.9857C24.1484 20.7151 24.1244 20.4305 24.159 20.1501L23.1665 20.0278ZM30.2243 18.3817C30.0799 18.0115 29.8921 17.6597 29.665 17.3336L28.8444 17.9053C29.0265 18.1666 29.177 18.4485 29.2928 18.7452L30.2243 18.3817ZM24.6604 21.0592C24.7991 21.3776 25.0287 21.6479 25.3205 21.8363L25.863 20.9963C25.7367 20.9147 25.6373 20.7977 25.5772 20.6598L24.6604 21.0592ZM30.5162 20.9864C30.6813 20.1978 30.6132 19.3782 30.3203 18.6276L29.3887 18.9912C29.6111 19.5609 29.6627 20.183 29.5375 20.7815L30.5162 20.9864ZM25.5772 20.6598C25.5353 20.5637 25.5137 20.4599 25.5137 20.355H24.5137C24.5137 20.5973 24.5637 20.837 24.6604 21.0592L25.5772 20.6598ZM29.9284 22.4182C30.193 22.061 30.3772 21.6507 30.4683 21.2155L29.4895 21.0107C29.428 21.3046 29.3036 21.5817 29.1249 21.823L29.9284 22.4182ZM24.1945 19.862C24.2598 19.3318 24.4482 18.8242 24.7445 18.3797L23.9125 17.825C23.5297 18.3992 23.2864 19.0548 23.202 19.7397L24.1945 19.862ZM29.1249 21.823C28.852 22.1913 28.4652 22.4592 28.0244 22.5852L28.2992 23.5467C28.9517 23.3602 29.5245 22.9635 29.9284 22.4182L29.1249 21.823Z" fill="#006389"/>
<circle cx="21.1895" cy="29.0752" r="0.529456" fill="#006389"/>
<circle cx="27.1835" cy="21.9906" r="0.395018" fill="#006389"/>
</svg>
