<svg width="42" height="42" viewBox="0 0 42 42" fill="none" xmlns="http://www.w3.org/2000/svg">
<path d="M8.29057 4.32238C8.0699 4.48838 8.02557 4.80185 8.19158 5.02252C8.35758 5.2432 8.67104 5.28752 8.89172 5.12152L8.29057 4.32238ZM10.7636 3.87493C11.0018 3.73532 11.0818 3.42901 10.9422 3.19075C10.8026 2.9525 10.4963 2.87252 10.258 3.01213L10.7636 3.87493ZM8.89172 5.12152C9.48997 4.67149 10.1148 4.25503 10.7636 3.87493L10.258 3.01213C9.57609 3.41169 8.9193 3.84942 8.29057 4.32238L8.89172 5.12152Z" fill="#006389"/>
<path d="M11.8789 2.20163C11.6289 2.31888 11.5212 2.61661 11.6385 2.86662C11.7558 3.11664 12.0535 3.22425 12.3035 3.107L11.8789 2.20163ZM14.4556 2.25022C14.7178 2.16357 14.8601 1.88078 14.7734 1.61858C14.6868 1.35639 14.404 1.21407 14.1418 1.30072L14.4556 2.25022ZM12.3035 3.107C12.9995 2.78058 13.7178 2.49401 14.4556 2.25022L14.1418 1.30072C13.366 1.55709 12.6106 1.85843 11.8789 2.20163L12.3035 3.107Z" fill="#006389"/>
<path d="M15.9535 0.773834C15.681 0.818207 15.496 1.07513 15.5403 1.34768C15.5847 1.62023 15.8416 1.80521 16.1142 1.76084L15.9535 0.773834ZM18.3065 1.53053C18.5823 1.51725 18.7951 1.28289 18.7818 1.00707C18.7686 0.731244 18.5342 0.51841 18.2584 0.531689L18.3065 1.53053ZM16.1142 1.76084C16.8336 1.64371 17.5652 1.56622 18.3065 1.53053L18.2584 0.531689C17.4792 0.569198 16.7101 0.650667 15.9535 0.773834L16.1142 1.76084Z" fill="#006389"/>
<path d="M20.0818 0.407053C19.8059 0.418697 19.5917 0.651794 19.6034 0.927691C19.615 1.20359 19.8481 1.41781 20.124 1.40616L20.0818 0.407053ZM22.0337 1.41805C22.3095 1.43305 22.5452 1.22168 22.5602 0.945947C22.5752 0.670213 22.3638 0.434526 22.0881 0.419528L22.0337 1.41805ZM20.124 1.40616C20.7539 1.37958 21.391 1.38309 22.0337 1.41805L22.0881 0.419528C21.4131 0.382812 20.7438 0.379114 20.0818 0.407053L20.124 1.40616Z" fill="#006389"/>
<path d="M24.3596 0.747945C24.0879 0.698259 23.8275 0.878186 23.7778 1.14982C23.7281 1.42146 23.908 1.68194 24.1797 1.73162L24.3596 0.747945ZM26.0394 2.16574C26.305 2.24137 26.5816 2.08739 26.6573 1.8218C26.7329 1.55622 26.5789 1.27961 26.3133 1.20398L26.0394 2.16574ZM24.1797 1.73162C24.7998 1.84506 25.4203 1.98943 26.0394 2.16574L26.3133 1.20398C25.6632 1.01884 25.0113 0.867161 24.3596 0.747945L24.1797 1.73162Z" fill="#006389"/>
<path d="M28.1695 1.86078C27.9127 1.7593 27.6223 1.88524 27.5208 2.14206C27.4193 2.39888 27.5452 2.68934 27.8021 2.79081L28.1695 1.86078ZM29.5422 3.57773C29.788 3.70348 30.0893 3.60612 30.215 3.36028C30.3408 3.11443 30.2434 2.81319 29.9976 2.68744L29.5422 3.57773ZM27.8021 2.79081C28.3884 3.02249 28.9691 3.28457 29.5422 3.57773L29.9976 2.68744C29.3958 2.37961 28.7858 2.10426 28.1695 1.86078L27.8021 2.79081Z" fill="#006389"/>
<path d="M32.1197 3.98479C31.8928 3.82742 31.5812 3.8838 31.4239 4.11072C31.2665 4.33764 31.3229 4.64916 31.5498 4.80652L32.1197 3.98479ZM33.0647 5.96951C33.2753 6.14801 33.5909 6.12191 33.7694 5.91122C33.9479 5.70052 33.9218 5.38502 33.7111 5.20652L33.0647 5.96951ZM31.5498 4.80652C32.0679 5.1658 32.5735 5.55339 33.0647 5.96951L33.7111 5.20652C33.1953 4.76957 32.6641 4.36237 32.1197 3.98479L31.5498 4.80652Z" fill="#006389"/>
<path d="M34.8879 6.29136C34.6891 6.09967 34.3726 6.10542 34.1809 6.30419C33.9892 6.50296 33.995 6.81949 34.1937 7.01118L34.8879 6.29136ZM35.5027 8.40184C35.6821 8.61179 35.9977 8.63658 36.2076 8.4572C36.4176 8.27783 36.4424 7.96222 36.263 7.75227L35.5027 8.40184ZM34.1937 7.01118C34.6475 7.44881 35.0845 7.91241 35.5027 8.40184L36.263 7.75227C35.8239 7.23833 35.3648 6.75129 34.8879 6.29136L34.1937 7.01118Z" fill="#006389"/>
<path d="M40.5748 16.9725C40.5257 16.7007 40.2657 16.5202 39.9939 16.5693C39.7222 16.6183 39.5417 16.8784 39.5907 17.1502L40.5748 16.9725ZM39.8388 19.0438C39.8614 19.319 40.1029 19.5237 40.3781 19.5011C40.6533 19.4784 40.8581 19.2369 40.8354 18.9617L39.8388 19.0438ZM39.5907 17.1502C39.7028 17.7706 39.786 18.4022 39.8388 19.0438L40.8354 18.9617C40.7799 18.288 40.6926 17.6245 40.5748 16.9725L39.5907 17.1502Z" fill="#006389"/>
<path d="M39.6335 13.1125C39.5422 12.8519 39.2569 12.7147 38.9963 12.806C38.7357 12.8974 38.5985 13.1827 38.6899 13.4433L39.6335 13.1125ZM39.2337 15.274C39.2995 15.5422 39.5703 15.7062 39.8385 15.6404C40.1067 15.5746 40.2707 15.3038 40.2049 15.0357L39.2337 15.274ZM38.6899 13.4433C38.8984 14.0382 39.0803 14.6488 39.2337 15.274L40.2049 15.0357C40.0438 14.3792 39.8527 13.7377 39.6335 13.1125L38.6899 13.4433Z" fill="#006389"/>
<path d="M37.8399 9.57563C37.6908 9.34323 37.3814 9.27576 37.1491 9.42492C36.9167 9.57408 36.8492 9.88339 36.9983 10.1158L37.8399 9.57563ZM37.951 11.771C38.077 12.0167 38.3784 12.1137 38.6241 11.9876C38.8698 11.8615 38.9667 11.5602 38.8407 11.3145L37.951 11.771ZM36.9983 10.1158C37.3389 10.6463 37.6571 11.1983 37.951 11.771L38.8407 11.3145C38.5321 10.7131 38.1978 10.1332 37.8399 9.57563L36.9983 10.1158Z" fill="#006389"/>
<path d="M40.901 20.8434C40.9058 20.5673 40.6858 20.3396 40.4097 20.3348C40.1336 20.3301 39.9059 20.55 39.9011 20.8261L40.901 20.8434ZM39.7758 22.7318C39.7444 23.0061 39.9414 23.254 40.2157 23.2853C40.4901 23.3167 40.7379 23.1197 40.7693 22.8454L39.7758 22.7318ZM39.9011 20.8261C39.8902 21.4565 39.8489 22.0922 39.7758 22.7318L40.7693 22.8454C40.8461 22.1738 40.8895 21.5059 40.901 20.8434L39.9011 20.8261Z" fill="#006389"/>
<path d="M40.4805 24.8311C40.5359 24.5606 40.3616 24.2964 40.0911 24.2409C39.8205 24.1855 39.5563 24.3598 39.5009 24.6304L40.4805 24.8311ZM39.0274 26.4805C38.9461 26.7444 39.0942 27.0243 39.3581 27.1055C39.622 27.1868 39.9019 27.0387 39.9831 26.7748L39.0274 26.4805ZM39.5009 24.6304C39.3743 25.248 39.2168 25.8653 39.0274 26.4805L39.9831 26.7748C40.182 26.1287 40.3475 25.4802 40.4805 24.8311L39.5009 24.6304Z" fill="#006389"/>
<path d="M39.3878 28.354C39.4889 28.097 39.3626 27.8068 39.1056 27.7056C38.8487 27.6045 38.5584 27.7309 38.4573 27.9878L39.3878 28.354ZM37.6728 29.7291C37.5474 29.9751 37.6452 30.2762 37.8912 30.4016C38.1372 30.527 38.4383 30.4292 38.5637 30.1832L37.6728 29.7291ZM38.4573 27.9878C38.2264 28.5745 37.9652 29.1555 37.6728 29.7291L38.5637 30.1832C38.8707 29.581 39.1452 28.9706 39.3878 28.354L38.4573 27.9878Z" fill="#006389"/>
<path d="M37.4944 31.9656C37.6475 31.7357 37.5853 31.4253 37.3555 31.2722C37.1256 31.1191 36.8152 31.1813 36.6621 31.4112L37.4944 31.9656ZM35.5277 32.9475C35.3532 33.1615 35.3852 33.4765 35.5991 33.651C35.8131 33.8255 36.1281 33.7935 36.3026 33.5795L35.5277 32.9475ZM36.6621 31.4112C36.3126 31.9359 35.9345 32.4486 35.5277 32.9475L36.3026 33.5795C36.7299 33.0557 37.1271 32.517 37.4944 31.9656L36.6621 31.4112Z" fill="#006389"/>
<path d="M34.9208 35.0891C35.1156 34.8934 35.1149 34.5768 34.9192 34.382C34.7235 34.1872 34.4069 34.1879 34.2121 34.3835L34.9208 35.0891ZM32.8007 35.6701C32.5879 35.8461 32.5581 36.1613 32.7341 36.3741C32.9101 36.5869 33.2253 36.6167 33.4381 36.4407L32.8007 35.6701ZM34.2121 34.3835C33.7673 34.8303 33.2968 35.2598 32.8007 35.6701L33.4381 36.4407C33.959 36.0099 34.4533 35.5586 34.9208 35.0891L34.2121 34.3835Z" fill="#006389"/>
<path d="M31.7108 37.6664C31.9379 37.5093 31.9946 37.1979 31.8375 36.9708C31.6804 36.7437 31.3689 36.6869 31.1418 36.844L31.7108 37.6664ZM29.5205 37.8533C29.2793 37.9878 29.1929 38.2923 29.3273 38.5335C29.4618 38.7747 29.7664 38.8612 30.0075 38.7267L29.5205 37.8533ZM31.1418 36.844C30.6234 37.2027 30.0828 37.5398 29.5205 37.8533L30.0075 38.7267C30.5979 38.3975 31.1659 38.0434 31.7108 37.6664L31.1418 36.844Z" fill="#006389"/>
<path d="M27.6823 39.7185C27.9387 39.6162 28.0637 39.3254 27.9614 39.0689C27.8591 38.8124 27.5683 38.6874 27.3118 38.7897L27.6823 39.7185ZM25.5057 39.4106C25.2406 39.4877 25.0881 39.7651 25.1652 40.0303C25.2423 40.2954 25.5198 40.4479 25.785 40.3708L25.5057 39.4106ZM27.3118 38.7897C26.7262 39.0232 26.1239 39.2308 25.5057 39.4106L25.785 40.3708C26.434 40.182 27.0668 39.964 27.6823 39.7185L27.3118 38.7897Z" fill="#006389"/>
<path d="M23.3489 40.8003C23.6223 40.762 23.813 40.5093 23.7747 40.2358C23.7365 39.9624 23.4837 39.7717 23.2103 39.81L23.3489 40.8003ZM21.3083 39.9828C21.0324 39.9946 20.8183 40.2277 20.83 40.5036C20.8418 40.7795 21.0749 40.9937 21.3508 40.9819L21.3083 39.9828ZM23.2103 39.81C22.5859 39.8973 21.9515 39.9555 21.3083 39.9828L21.3508 40.9819C22.0262 40.9532 22.6927 40.8921 23.3489 40.8003L23.2103 39.81Z" fill="#006389"/>
<path d="M19.0633 40.9197C19.3389 40.9374 19.5767 40.7283 19.5944 40.4528C19.6121 40.1772 19.403 39.9394 19.1274 39.9217L19.0633 40.9197ZM17.2297 39.7072C16.9572 39.663 16.7004 39.8482 16.6562 40.1208C16.612 40.3934 16.7972 40.6502 17.0698 40.6943L17.2297 39.7072ZM19.1274 39.9217C18.4983 39.8813 17.8652 39.8102 17.2297 39.7072L17.0698 40.6943C17.737 40.8025 18.4021 40.8772 19.0633 40.9197L19.1274 39.9217Z" fill="#006389"/>
<path d="M14.1361 39.7596C14.3949 39.856 14.6828 39.7243 14.7791 39.4655C14.8754 39.2067 14.7437 38.9188 14.4849 38.8224L14.1361 39.7596ZM12.7294 38.0704C12.4811 37.9496 12.1819 38.053 12.0611 38.3013C11.9402 38.5496 12.0436 38.8488 12.2919 38.9696L12.7294 38.0704ZM14.4849 38.8224C13.8941 38.6025 13.3083 38.3521 12.7294 38.0704L12.2919 38.9696C12.8997 39.2654 13.5151 39.5285 14.1361 39.7596L14.4849 38.8224Z" fill="#006389"/>
<path d="M9.84416 37.6876C10.0795 37.8321 10.3874 37.7584 10.5319 37.5231C10.6763 37.2877 10.6026 36.9798 10.3673 36.8354L9.84416 37.6876ZM8.78991 35.7587C8.56959 35.5923 8.25603 35.6359 8.08956 35.8562C7.9231 36.0766 7.96676 36.3901 8.18709 36.5566L8.78991 35.7587ZM10.3673 36.8354C9.82999 36.5056 9.30353 36.1468 8.78991 35.7587L8.18709 36.5566C8.72642 36.9641 9.27948 37.341 9.84416 37.6876L10.3673 36.8354Z" fill="#006389"/>
<path d="M6.53738 35.0812C6.73512 35.2739 7.05168 35.2699 7.24443 35.0722C7.43718 34.8744 7.43314 34.5579 7.2354 34.3651L6.53738 35.0812ZM5.93395 32.9674C5.7557 32.7565 5.44023 32.73 5.22932 32.9083C5.01841 33.0865 4.99192 33.402 5.17017 33.6129L5.93395 32.9674ZM7.2354 34.3651C6.78395 33.925 6.34946 33.4591 5.93395 32.9674L5.17017 33.6129C5.60649 34.1292 6.06292 34.6187 6.53738 35.0812L7.2354 34.3651Z" fill="#006389"/>
<path d="M3.79196 31.7896C3.94411 32.02 4.25427 32.0835 4.48471 31.9313C4.71515 31.7792 4.77862 31.469 4.62646 31.2386L3.79196 31.7896ZM3.65252 29.5958C3.52328 29.3518 3.22068 29.2587 2.97665 29.388C2.73262 29.5172 2.63956 29.8198 2.76879 30.0638L3.65252 29.5958ZM4.62646 31.2386C4.27909 30.7125 3.95379 30.1647 3.65252 29.5958L2.76879 30.0638C3.08516 30.6612 3.42688 31.2367 3.79196 31.7896L4.62646 31.2386Z" fill="#006389"/>
<path d="M2.01267 28.3082C2.1228 28.5614 2.41737 28.6774 2.6706 28.5673C2.92383 28.4572 3.03983 28.1626 2.92969 27.9094L2.01267 28.3082ZM2.25364 26.1232C2.16842 25.8606 1.88641 25.7167 1.62374 25.8019C1.36108 25.8872 1.21723 26.1692 1.30245 26.4318L2.25364 26.1232ZM2.92969 27.9094C2.67825 27.3312 2.4523 26.7356 2.25364 26.1232L1.30245 26.4318C1.51105 27.0748 1.74841 27.7006 2.01267 28.3082L2.92969 27.9094Z" fill="#006389"/>
<path d="M0.811794 24.4212C0.869224 24.6913 1.13474 24.8637 1.40485 24.8062C1.67495 24.7488 1.84736 24.4833 1.78993 24.2132L0.811794 24.4212ZM1.48359 22.3281C1.45246 22.0537 1.20479 21.8566 0.930409 21.8877C0.656027 21.9188 0.458835 22.1665 0.489967 22.4409L1.48359 22.3281ZM1.78993 24.2132C1.65881 23.5965 1.55617 22.9678 1.48359 22.3281L0.489967 22.4409C0.566177 23.1125 0.673995 23.7731 0.811794 24.4212L1.78993 24.2132Z" fill="#006389"/>
<path d="M0.410626 20.1941C0.413268 20.4702 0.639257 20.6919 0.915387 20.6893C1.19152 20.6866 1.41322 20.4606 1.41058 20.1845L0.410626 20.1941ZM1.48473 18.2762C1.50871 18.0011 1.30514 17.7586 1.03004 17.7346C0.754939 17.7107 0.512486 17.9142 0.488505 18.1893L1.48473 18.2762ZM1.41058 20.1845C1.40455 19.5541 1.42882 18.9175 1.48473 18.2762L0.488505 18.1893C0.429803 18.8627 0.404286 19.5315 0.410626 20.1941L1.41058 20.1845Z" fill="#006389"/>
<path d="M0.992489 15.5634C0.941006 15.8347 1.1192 16.0964 1.3905 16.1478C1.66181 16.1993 1.92347 16.0211 1.97496 15.7498L0.992489 15.5634ZM2.42138 13.893C2.49876 13.6279 2.34661 13.3503 2.08154 13.2729C1.81646 13.1955 1.53884 13.3476 1.46145 13.6127L2.42138 13.893ZM1.97496 15.7498C2.09249 15.1304 2.24097 14.5109 2.42138 13.893L1.46145 13.6127C1.27201 14.2616 1.11602 14.9124 0.992489 15.5634L1.97496 15.7498Z" fill="#006389"/>
<path d="M2.52594 11.1214C2.40082 11.3676 2.49895 11.6686 2.74513 11.7937C2.9913 11.9188 3.29229 11.8207 3.4174 11.5745L2.52594 11.1214ZM4.36408 9.91587C4.51234 9.6829 4.44367 9.37385 4.2107 9.2256C3.97773 9.07734 3.66869 9.146 3.52043 9.37897L4.36408 9.91587ZM3.4174 11.5745C3.70305 11.0125 4.01846 10.459 4.36408 9.91587L3.52043 9.37897C3.1575 9.94925 2.82615 10.5308 2.52594 11.1214L3.4174 11.5745Z" fill="#006389"/>
<path d="M5.20594 6.96627C5.02221 7.17241 5.04038 7.48847 5.24652 7.67221C5.45267 7.85594 5.76873 7.83778 5.95246 7.63163L5.20594 6.96627ZM7.29066 6.26909C7.49341 6.08161 7.50578 5.76527 7.3183 5.56253C7.13082 5.35978 6.81448 5.3474 6.61174 5.53488L7.29066 6.26909ZM5.95246 7.63163C6.37194 7.16099 6.81802 6.70614 7.29066 6.26909L6.61174 5.53488C6.11544 5.99381 5.6468 6.47164 5.20594 6.96627L5.95246 7.63163Z" fill="#006389"/>
<circle cx="20.7093" cy="20.3839" r="19.0327" fill="#DFB08A"/>
<path d="M20.4732 22.8232C21.2504 23.9661 21.6457 25.3479 21.8074 27.3262C21.8483 25.3909 22.2371 24.1675 23.331 23.1614C23.1554 22.5529 23.0697 22.096 23.1417 21.4055C23.2165 20.6873 23.3602 20.0896 23.748 19.4805C24.788 17.8471 27.2169 17.7634 29.1533 17.7634H31.0946L30.8487 19.4027C30.647 20.7476 30.123 22.2598 29.2227 23.2792C28.0097 24.6526 26.0847 25.43 24.4984 24.5129C24.013 24.2323 23.6596 23.7979 23.331 23.1614C22.2371 24.1675 21.8483 25.3909 21.8074 27.3262C21.6457 25.3479 21.2504 23.9661 20.4732 22.8232C19.6049 23.9651 18.8638 24.5718 17.5067 24.63C16.0161 24.6939 14.5469 24.2225 13.4037 23.2637C12.2455 22.2922 11.7245 20.7133 11.415 19.2336C11.0338 17.4108 10.9596 15.8453 11.2332 13.4417C13.5592 13.4923 15.1971 13.7548 17.1204 14.4897C18.996 15.2063 20.9742 16.2045 21.5661 18.1231C21.8651 19.0921 21.8335 20.2198 21.5535 21.1944C21.3504 21.9015 21.0296 22.3551 20.4732 22.8232Z" fill="#16A029"/>
<path d="M21.8074 27.3262L21.3091 27.367L22.3073 27.3368L21.8074 27.3262ZM17.0079 19.2658C16.7712 19.1235 16.464 19.2 16.3217 19.4367C16.1795 19.6734 16.256 19.9806 16.4927 20.1228L17.0079 19.2658ZM21.5535 21.1944L22.0341 21.3324V21.3324L21.5535 21.1944ZM17.1204 14.4897L16.942 14.9567L17.1204 14.4897ZM11.2332 13.4417L11.2441 12.9418L10.788 12.9318L10.7364 13.3851L11.2332 13.4417ZM11.415 19.2336L11.9045 19.1312L11.415 19.2336ZM17.5067 24.63L17.5281 25.1296H17.5281L17.5067 24.63ZM26.4233 21.8986C26.6758 21.7869 26.79 21.4916 26.6783 21.2391C26.5665 20.9866 26.2713 20.8724 26.0187 20.9841L26.4233 21.8986ZM23.1417 21.4055L22.6444 21.3537V21.3537L23.1417 21.4055ZM31.0946 17.7634L31.5891 17.8375L31.6752 17.2634H31.0946V17.7634ZM30.8487 19.4027L31.3432 19.4768L30.8487 19.4027ZM24.4984 24.5129L24.7486 24.0801L24.7486 24.0801L24.4984 24.5129ZM29.2227 23.2792L28.848 22.9482L29.2227 23.2792ZM23.748 19.4805L23.3262 19.2119L23.748 19.4805ZM13.4037 23.2637L13.0824 23.6468L13.4037 23.2637ZM21.5661 18.1231L22.0439 17.9757L21.5661 18.1231ZM22.3058 27.2855C22.1403 25.2615 21.7311 23.7838 20.8867 22.542L20.0597 23.1043C20.7697 24.1484 21.1511 25.4343 21.3091 27.367L22.3058 27.2855ZM20.8867 22.542C20.0318 21.2848 18.7658 20.3226 17.0079 19.2658L16.4927 20.1228C18.2191 21.1607 19.3305 22.0319 20.0597 23.1043L20.8867 22.542ZM20.7951 23.2058C21.4184 22.6814 21.8004 22.1459 22.0341 21.3324L21.0729 21.0563C20.9004 21.6571 20.6409 22.0287 20.1513 22.4406L20.7951 23.2058ZM17.2989 14.0226C15.3095 13.2625 13.6124 12.9934 11.2441 12.9418L11.2223 13.9415C13.506 13.9913 15.0846 14.2471 16.942 14.9567L17.2989 14.0226ZM10.7364 13.3851C10.4577 15.8337 10.5319 17.4536 10.9256 19.3359L11.9045 19.1312C11.5357 17.3681 11.4615 15.8569 11.73 13.4982L10.7364 13.3851ZM17.5281 25.1296C18.2848 25.0971 18.8985 24.9085 19.4461 24.552C19.9817 24.2034 20.4255 23.712 20.8712 23.1258L20.0752 22.5205C19.6527 23.0762 19.2918 23.4592 18.9005 23.714C18.5211 23.9609 18.0858 24.1047 17.4853 24.1305L17.5281 25.1296ZM22.3073 27.3368C22.3467 25.4717 22.7158 24.4066 23.6695 23.5294L22.9925 22.7934C21.7585 23.9285 21.3499 25.3102 21.3075 27.3157L22.3073 27.3368ZM23.6695 23.5294C24.2799 22.9679 25.1564 22.459 26.4233 21.8986L26.0187 20.9841C24.7189 21.5591 23.7237 22.1208 22.9925 22.7934L23.6695 23.5294ZM23.8114 23.0227C23.6464 22.4511 23.5759 22.0623 23.639 21.4573L22.6444 21.3537C22.5635 22.1297 22.6643 22.6546 22.8506 23.3L23.8114 23.0227ZM29.1533 18.2634H31.0946V17.2634H29.1533V18.2634ZM30.6001 17.6892L30.3542 19.3285L31.3432 19.4768L31.5891 17.8375L30.6001 17.6892ZM24.7486 24.0801C24.3766 23.865 24.0796 23.5215 23.7753 22.932L22.8867 23.3907C23.2395 24.0742 23.6493 24.5996 24.2481 24.9458L24.7486 24.0801ZM28.848 22.9482C27.7113 24.2352 26.0386 24.8258 24.7486 24.0801L24.2481 24.9458C26.1308 26.0342 28.3081 25.07 29.5975 23.6102L28.848 22.9482ZM30.3542 19.3285C30.1604 20.6207 29.6609 22.0278 28.848 22.9482L29.5975 23.6102C30.5851 22.4919 31.1335 20.8746 31.3432 19.4768L30.3542 19.3285ZM24.1698 19.749C24.5902 19.0886 25.3106 18.7072 26.2265 18.4967C27.1441 18.2858 28.1834 18.2634 29.1533 18.2634V17.2634C28.1868 17.2634 27.0434 17.2828 26.0025 17.5221C24.9599 17.7618 23.9458 18.2389 23.3262 19.2119L24.1698 19.749ZM13.0824 23.6468C14.3261 24.69 15.9192 25.1985 17.5281 25.1296L17.4853 24.1305C16.1129 24.1893 14.7676 23.7551 13.725 22.8806L13.0824 23.6468ZM10.9256 19.3359C11.238 20.8296 11.7851 22.5587 13.0824 23.6468L13.725 22.8806C12.7058 22.0257 12.211 20.5971 11.9045 19.1312L10.9256 19.3359ZM23.639 21.4573C23.7094 20.7815 23.839 20.2685 24.1698 19.749L23.3262 19.2119C22.8814 19.9106 22.7236 20.5931 22.6444 21.3537L23.639 21.4573ZM22.0439 17.9757C21.373 15.8011 19.1583 14.7331 17.2989 14.0226L16.942 14.9567C18.8337 15.6796 20.5754 16.608 21.0884 18.2705L22.0439 17.9757ZM22.0341 21.3324C22.3368 20.2784 22.3755 19.0506 22.0439 17.9757L21.0884 18.2705C21.3546 19.1336 21.3301 20.1611 21.0729 21.0563L22.0341 21.3324Z" fill="#006389"/>
</svg>
