<svg width="202" height="204" viewBox="0 0 202 204" fill="none" xmlns="http://www.w3.org/2000/svg">
<path d="M17.2509 140.413C17.2509 141.553 17.3209 142.833 17.4609 144.253C16.1009 144.193 13.8109 144.163 10.5909 144.163C6.75086 144.163 3.85086 144.193 1.89086 144.253V143.653C2.61086 143.613 3.13086 143.533 3.45086 143.413C3.79086 143.293 4.02086 143.063 4.14086 142.723C4.26086 142.383 4.32086 141.833 4.32086 141.073V126.193C4.32086 125.433 4.26086 124.883 4.14086 124.543C4.02086 124.203 3.79086 123.973 3.45086 123.853C3.13086 123.733 2.61086 123.653 1.89086 123.613V123.013C3.85086 123.073 6.75086 123.103 10.5909 123.103C13.5309 123.103 15.6209 123.073 16.8609 123.013C16.7209 124.333 16.6509 125.513 16.6509 126.553C16.6509 127.333 16.6809 127.953 16.7409 128.413H16.0509C15.9109 127.113 15.7309 126.153 15.5109 125.533C15.2909 124.893 14.9209 124.433 14.4009 124.153C13.8809 123.853 13.0909 123.703 12.0309 123.703H9.54086C8.82086 123.703 8.29086 123.763 7.95086 123.883C7.63086 123.983 7.41086 124.203 7.29086 124.543C7.17086 124.883 7.11086 125.433 7.11086 126.193V133.273H9.09086C9.79086 133.273 10.3309 133.113 10.7109 132.793C11.0909 132.453 11.3409 132.063 11.4609 131.623C11.6009 131.163 11.7109 130.593 11.7909 129.913L11.8809 129.313H12.5709C12.5109 130.153 12.4809 131.093 12.4809 132.133V133.573C12.4809 134.593 12.5409 136.013 12.6609 137.833H11.9709C11.9509 137.693 11.8909 137.213 11.7909 136.393C11.6909 135.553 11.4109 134.923 10.9509 134.503C10.5109 134.083 9.89086 133.873 9.09086 133.873H7.11086V141.073C7.11086 141.833 7.17086 142.383 7.29086 142.723C7.41086 143.063 7.63086 143.293 7.95086 143.413C8.29086 143.513 8.82086 143.563 9.54086 143.563H11.7309C12.9709 143.563 13.9109 143.403 14.5509 143.083C15.2109 142.743 15.6909 142.213 15.9909 141.493C16.2909 140.753 16.5109 139.673 16.6509 138.253H17.3409C17.2809 138.793 17.2509 139.513 17.2509 140.413ZM29.8621 128.383C31.2621 128.383 32.3221 128.763 33.0421 129.523C33.4221 129.923 33.6921 130.423 33.8521 131.023C34.0121 131.623 34.0921 132.433 34.0921 133.453V141.463C34.0921 142.283 34.2621 142.853 34.6021 143.173C34.9421 143.473 35.5321 143.623 36.3721 143.623V144.253C34.5321 144.173 33.3321 144.133 32.7721 144.133C32.2121 144.133 31.0921 144.173 29.4121 144.253V143.623C30.1521 143.623 30.6621 143.473 30.9421 143.173C31.2421 142.853 31.3921 142.283 31.3921 141.463V132.793C31.3921 131.673 31.2321 130.823 30.9121 130.243C30.5921 129.643 29.9421 129.343 28.9621 129.343C28.1421 129.343 27.4121 129.583 26.7721 130.063C26.1321 130.543 25.6321 131.203 25.2721 132.043C24.9321 132.863 24.7621 133.783 24.7621 134.803V141.463C24.7621 142.283 24.9021 142.853 25.1821 143.173C25.4821 143.473 26.0021 143.623 26.7421 143.623V144.253C25.0621 144.173 23.9421 144.133 23.3821 144.133C22.8221 144.133 21.6221 144.173 19.7821 144.253V143.623C20.6221 143.623 21.2121 143.473 21.5521 143.173C21.8921 142.853 22.0621 142.283 22.0621 141.463V132.073C22.0621 131.153 21.8921 130.483 21.5521 130.063C21.2121 129.643 20.6221 129.433 19.7821 129.433V128.803C20.4221 128.863 21.0421 128.893 21.6421 128.893C22.9021 128.893 23.9421 128.753 24.7621 128.473V132.013C25.2621 130.733 25.9521 129.813 26.8321 129.253C27.7321 128.673 28.7421 128.383 29.8621 128.383ZM48.8488 128.893C49.7288 128.893 50.4888 128.863 51.1288 128.803V129.403C50.7288 129.443 50.3688 129.623 50.0488 129.943C49.7488 130.263 49.4588 130.783 49.1788 131.503L44.2588 144.403H43.7488L38.2288 131.113C37.9288 130.433 37.6388 129.983 37.3588 129.763C37.0788 129.543 36.7888 129.433 36.4888 129.433V128.803C37.5288 128.883 38.4088 128.923 39.1288 128.923C40.6688 128.923 41.9688 128.883 43.0288 128.803V129.433C42.2888 129.433 41.7488 129.493 41.4088 129.613C41.0688 129.713 40.8988 129.993 40.8988 130.453C40.8988 130.733 41.0088 131.173 41.2288 131.773L44.9188 140.893L48.2188 132.223C48.4388 131.623 48.5488 131.153 48.5488 130.813C48.5488 130.353 48.3688 130.023 48.0088 129.823C47.6688 129.603 47.1088 129.463 46.3288 129.403V128.803C47.3688 128.863 48.2088 128.893 48.8488 128.893ZM55.5166 121.303C56.0366 121.303 56.4866 121.493 56.8666 121.873C57.2466 122.253 57.4366 122.703 57.4366 123.223C57.4366 123.743 57.2466 124.193 56.8666 124.573C56.4866 124.953 56.0366 125.143 55.5166 125.143C54.9966 125.143 54.5466 124.953 54.1666 124.573C53.7866 124.193 53.5966 123.743 53.5966 123.223C53.5966 122.703 53.7866 122.253 54.1666 121.873C54.5466 121.493 54.9966 121.303 55.5166 121.303ZM57.0766 141.463C57.0766 142.283 57.2466 142.853 57.5866 143.173C57.9266 143.473 58.5166 143.623 59.3566 143.623V144.253C57.5166 144.173 56.3066 144.133 55.7266 144.133C55.1466 144.133 53.9366 144.173 52.0966 144.253V143.623C52.9366 143.623 53.5266 143.473 53.8666 143.173C54.2066 142.853 54.3766 142.283 54.3766 141.463V132.073C54.3766 131.153 54.2066 130.483 53.8666 130.063C53.5266 129.643 52.9366 129.433 52.0966 129.433V128.803C52.7366 128.863 53.3566 128.893 53.9566 128.893C55.2166 128.893 56.2566 128.753 57.0766 128.473V141.463ZM70.2156 128.383C71.0156 128.383 71.6656 128.613 72.1656 129.073C72.6856 129.533 72.9456 130.093 72.9456 130.753C72.9456 131.273 72.7856 131.723 72.4656 132.103C72.1656 132.463 71.7556 132.643 71.2356 132.643C70.7956 132.643 70.4156 132.503 70.0956 132.223C69.7956 131.943 69.6456 131.563 69.6456 131.083C69.6456 130.423 69.9856 129.883 70.6656 129.463C70.5256 129.263 70.3156 129.163 70.0356 129.163C69.2556 129.163 68.5456 129.473 67.9056 130.093C67.2656 130.693 66.7656 131.433 66.4056 132.313C66.0456 133.193 65.8656 134.023 65.8656 134.803V141.163C65.8656 142.083 66.1256 142.723 66.6456 143.083C67.1856 143.443 67.9856 143.623 69.0456 143.623V144.253L68.3256 144.223C66.2856 144.163 64.9856 144.133 64.4256 144.133C63.9056 144.133 62.7256 144.173 60.8856 144.253V143.623C61.7256 143.623 62.3156 143.473 62.6556 143.173C62.9956 142.853 63.1656 142.283 63.1656 141.463V132.073C63.1656 131.153 62.9956 130.483 62.6556 130.063C62.3156 129.643 61.7256 129.433 60.8856 129.433V128.803C61.5256 128.863 62.1456 128.893 62.7456 128.893C64.0056 128.893 65.0456 128.753 65.8656 128.473V132.223C66.2256 131.223 66.7956 130.333 67.5756 129.553C68.3756 128.773 69.2556 128.383 70.2156 128.383ZM81.0091 128.383C83.0491 128.383 84.6891 129.063 85.9291 130.423C87.1891 131.763 87.8191 133.803 87.8191 136.543C87.8191 139.283 87.1891 141.323 85.9291 142.663C84.6891 144.003 83.0491 144.673 81.0091 144.673C78.9691 144.673 77.3191 144.003 76.0591 142.663C74.8191 141.323 74.1991 139.283 74.1991 136.543C74.1991 133.803 74.8191 131.763 76.0591 130.423C77.3191 129.063 78.9691 128.383 81.0091 128.383ZM81.0091 128.983C79.8091 128.983 78.8591 129.603 78.1591 130.843C77.4591 132.063 77.1091 133.963 77.1091 136.543C77.1091 139.123 77.4591 141.023 78.1591 142.243C78.8591 143.463 79.8091 144.073 81.0091 144.073C82.2091 144.073 83.1591 143.463 83.8591 142.243C84.5591 141.023 84.9091 139.123 84.9091 136.543C84.9091 133.963 84.5591 132.063 83.8591 130.843C83.1591 129.603 82.2091 128.983 81.0091 128.983ZM100.175 128.383C101.575 128.383 102.635 128.763 103.355 129.523C103.735 129.923 104.005 130.423 104.165 131.023C104.325 131.623 104.405 132.433 104.405 133.453V141.463C104.405 142.283 104.575 142.853 104.915 143.173C105.255 143.473 105.845 143.623 106.685 143.623V144.253C104.845 144.173 103.645 144.133 103.085 144.133C102.525 144.133 101.405 144.173 99.7246 144.253V143.623C100.465 143.623 100.975 143.473 101.255 143.173C101.555 142.853 101.705 142.283 101.705 141.463V132.793C101.705 131.673 101.545 130.823 101.225 130.243C100.905 129.643 100.255 129.343 99.2746 129.343C98.4546 129.343 97.7246 129.583 97.0846 130.063C96.4446 130.543 95.9446 131.203 95.5846 132.043C95.2446 132.863 95.0746 133.783 95.0746 134.803V141.463C95.0746 142.283 95.2146 142.853 95.4946 143.173C95.7946 143.473 96.3146 143.623 97.0546 143.623V144.253C95.3746 144.173 94.2546 144.133 93.6946 144.133C93.1346 144.133 91.9346 144.173 90.0946 144.253V143.623C90.9346 143.623 91.5246 143.473 91.8646 143.173C92.2046 142.853 92.3746 142.283 92.3746 141.463V132.073C92.3746 131.153 92.2046 130.483 91.8646 130.063C91.5246 129.643 90.9346 129.433 90.0946 129.433V128.803C90.7346 128.863 91.3546 128.893 91.9546 128.893C93.2146 128.893 94.2546 128.753 95.0746 128.473V132.013C95.5746 130.733 96.2646 129.813 97.1446 129.253C98.0446 128.673 99.0546 128.383 100.175 128.383ZM131.035 141.463C131.035 142.283 131.205 142.853 131.545 143.173C131.885 143.473 132.475 143.623 133.315 143.623V144.253C131.475 144.173 130.275 144.133 129.715 144.133C129.155 144.133 128.035 144.173 126.355 144.253V143.623C127.095 143.623 127.605 143.473 127.885 143.173C128.185 142.853 128.335 142.283 128.335 141.463V132.793C128.335 132.033 128.285 131.423 128.185 130.963C128.105 130.483 127.895 130.093 127.555 129.793C127.235 129.493 126.735 129.343 126.055 129.343C125.295 129.343 124.605 129.583 123.985 130.063C123.365 130.543 122.875 131.203 122.515 132.043C122.175 132.863 122.005 133.773 122.005 134.773V141.463C122.005 142.283 122.175 142.853 122.515 143.173C122.855 143.473 123.445 143.623 124.285 143.623V144.253C122.445 144.173 121.245 144.133 120.685 144.133C120.125 144.133 119.005 144.173 117.325 144.253V143.623C118.065 143.623 118.575 143.473 118.855 143.173C119.155 142.853 119.305 142.283 119.305 141.463V132.793C119.305 132.033 119.255 131.423 119.155 130.963C119.075 130.483 118.865 130.093 118.525 129.793C118.205 129.493 117.705 129.343 117.025 129.343C116.265 129.343 115.575 129.583 114.955 130.063C114.335 130.543 113.845 131.203 113.485 132.043C113.145 132.883 112.975 133.803 112.975 134.803V141.463C112.975 142.283 113.115 142.853 113.395 143.173C113.695 143.473 114.215 143.623 114.955 143.623V144.253C113.275 144.173 112.155 144.133 111.595 144.133C111.035 144.133 109.835 144.173 107.995 144.253V143.623C108.835 143.623 109.425 143.473 109.765 143.173C110.105 142.853 110.275 142.283 110.275 141.463V132.073C110.275 131.153 110.105 130.483 109.765 130.063C109.425 129.643 108.835 129.433 107.995 129.433V128.803C108.635 128.863 109.255 128.893 109.855 128.893C111.115 128.893 112.155 128.753 112.975 128.473V132.013C113.455 130.773 114.135 129.863 115.015 129.283C115.895 128.683 116.855 128.383 117.895 128.383C119.255 128.383 120.295 128.763 121.015 129.523C121.515 130.043 121.825 130.843 121.945 131.923C122.445 130.663 123.135 129.763 124.015 129.223C124.895 128.663 125.865 128.383 126.925 128.383C128.285 128.383 129.325 128.763 130.045 129.523C130.405 129.923 130.655 130.433 130.795 131.053C130.955 131.673 131.035 132.473 131.035 133.453V141.463ZM147.646 140.653C147.286 141.753 146.606 142.703 145.606 143.503C144.626 144.283 143.436 144.673 142.036 144.673C140.616 144.673 139.386 144.353 138.346 143.713C137.306 143.053 136.506 142.143 135.946 140.983C135.406 139.803 135.136 138.443 135.136 136.903C135.136 135.163 135.416 133.653 135.976 132.373C136.536 131.093 137.326 130.113 138.346 129.433C139.366 128.733 140.556 128.383 141.916 128.383C143.716 128.383 145.096 128.933 146.056 130.033C147.036 131.113 147.526 132.763 147.526 134.983H138.136C138.076 135.543 138.046 136.183 138.046 136.903C138.046 138.223 138.256 139.373 138.676 140.353C139.116 141.333 139.686 142.093 140.386 142.633C141.106 143.153 141.856 143.413 142.636 143.413C143.596 143.413 144.446 143.183 145.186 142.723C145.926 142.263 146.546 141.493 147.046 140.413L147.646 140.653ZM141.796 128.953C140.856 128.953 140.046 129.413 139.366 130.333C138.686 131.253 138.266 132.613 138.106 134.413H144.646C144.686 132.853 144.456 131.553 143.956 130.513C143.476 129.473 142.756 128.953 141.796 128.953ZM159.882 128.383C161.282 128.383 162.342 128.763 163.062 129.523C163.442 129.923 163.712 130.423 163.872 131.023C164.032 131.623 164.112 132.433 164.112 133.453V141.463C164.112 142.283 164.282 142.853 164.622 143.173C164.962 143.473 165.552 143.623 166.392 143.623V144.253C164.552 144.173 163.352 144.133 162.792 144.133C162.232 144.133 161.112 144.173 159.432 144.253V143.623C160.172 143.623 160.682 143.473 160.962 143.173C161.262 142.853 161.412 142.283 161.412 141.463V132.793C161.412 131.673 161.252 130.823 160.932 130.243C160.612 129.643 159.962 129.343 158.982 129.343C158.162 129.343 157.432 129.583 156.792 130.063C156.152 130.543 155.652 131.203 155.292 132.043C154.952 132.863 154.782 133.783 154.782 134.803V141.463C154.782 142.283 154.922 142.853 155.202 143.173C155.502 143.473 156.022 143.623 156.762 143.623V144.253C155.082 144.173 153.962 144.133 153.402 144.133C152.842 144.133 151.642 144.173 149.802 144.253V143.623C150.642 143.623 151.232 143.473 151.572 143.173C151.912 142.853 152.082 142.283 152.082 141.463V132.073C152.082 131.153 151.912 130.483 151.572 130.063C151.232 129.643 150.642 129.433 149.802 129.433V128.803C150.442 128.863 151.062 128.893 151.662 128.893C152.922 128.893 153.962 128.753 154.782 128.473V132.013C155.282 130.733 155.972 129.813 156.852 129.253C157.752 128.673 158.762 128.383 159.882 128.383ZM172.532 128.833H176.972V129.433H172.532V141.043C172.532 141.943 172.692 142.593 173.012 142.993C173.352 143.393 173.832 143.593 174.452 143.593C175.072 143.593 175.602 143.343 176.042 142.843C176.482 142.343 176.852 141.523 177.152 140.383L177.752 140.533C177.252 143.293 175.952 144.673 173.852 144.673C173.172 144.673 172.612 144.593 172.172 144.433C171.732 144.273 171.342 144.023 171.002 143.683C170.562 143.243 170.252 142.703 170.072 142.063C169.912 141.423 169.832 140.563 169.832 139.483V129.433H166.952V128.833H169.832V124.243C170.952 124.203 171.852 124.063 172.532 123.823V128.833ZM182.328 144.463C181.068 144.463 180.128 144.153 179.508 143.533C178.908 142.893 178.608 142.013 178.608 140.893C178.608 139.993 178.848 139.253 179.328 138.673C179.828 138.093 180.408 137.633 181.068 137.293C181.748 136.953 182.638 136.593 183.738 136.213C184.858 135.833 185.688 135.483 186.228 135.163C186.768 134.843 187.038 134.413 187.038 133.873V132.013C187.038 130.853 186.788 130.063 186.288 129.643C185.808 129.203 185.128 128.983 184.248 128.983C182.848 128.983 181.858 129.343 181.278 130.063C181.678 130.163 182.008 130.373 182.268 130.693C182.548 131.013 182.688 131.413 182.688 131.893C182.688 132.393 182.528 132.793 182.208 133.093C181.888 133.373 181.478 133.513 180.978 133.513C180.418 133.513 179.998 133.343 179.718 133.003C179.438 132.643 179.298 132.213 179.298 131.713C179.298 131.233 179.408 130.833 179.628 130.513C179.868 130.193 180.218 129.873 180.678 129.553C181.158 129.213 181.768 128.933 182.508 128.713C183.248 128.493 184.058 128.383 184.938 128.383C186.498 128.383 187.678 128.753 188.478 129.493C188.978 129.953 189.308 130.513 189.468 131.173C189.648 131.813 189.738 132.663 189.738 133.723V142.063C189.738 142.563 189.808 142.923 189.948 143.143C190.088 143.363 190.328 143.473 190.668 143.473C190.908 143.473 191.128 143.423 191.328 143.323C191.548 143.203 191.778 143.043 192.018 142.843L192.348 143.353C191.828 143.753 191.378 144.043 190.998 144.223C190.638 144.383 190.178 144.463 189.618 144.463C188.658 144.463 187.988 144.223 187.608 143.743C187.228 143.263 187.038 142.613 187.038 141.793C186.438 142.793 185.748 143.493 184.968 143.893C184.188 144.273 183.308 144.463 182.328 144.463ZM183.648 143.263C184.968 143.263 186.098 142.503 187.038 140.983V135.103C186.858 135.383 186.608 135.613 186.288 135.793C185.968 135.973 185.478 136.213 184.818 136.513C184.058 136.833 183.438 137.143 182.958 137.443C182.498 137.723 182.098 138.113 181.758 138.613C181.418 139.113 181.248 139.753 181.248 140.533C181.248 141.433 181.468 142.113 181.908 142.573C182.348 143.033 182.928 143.263 183.648 143.263ZM198.019 141.463C198.019 142.283 198.189 142.853 198.529 143.173C198.869 143.473 199.459 143.623 200.299 143.623V144.253C198.459 144.173 197.249 144.133 196.669 144.133C196.089 144.133 194.879 144.173 193.039 144.253V143.623C193.879 143.623 194.469 143.473 194.809 143.173C195.149 142.853 195.319 142.283 195.319 141.463V124.333C195.319 123.413 195.149 122.743 194.809 122.323C194.469 121.903 193.879 121.693 193.039 121.693V121.063C193.659 121.123 194.279 121.153 194.899 121.153C196.159 121.153 197.199 121.013 198.019 120.733V141.463ZM61.4842 181.463C61.4842 182.283 61.6542 182.853 61.9942 183.173C62.3342 183.473 62.9242 183.623 63.7642 183.623V184.253C61.9242 184.173 60.7242 184.133 60.1642 184.133C59.6042 184.133 58.4842 184.173 56.8042 184.253V183.623C57.5442 183.623 58.0542 183.473 58.3342 183.173C58.6342 182.853 58.7842 182.283 58.7842 181.463V172.793C58.7842 172.033 58.7342 171.423 58.6342 170.963C58.5542 170.483 58.3442 170.093 58.0042 169.793C57.6842 169.493 57.1842 169.343 56.5042 169.343C55.7442 169.343 55.0542 169.583 54.4342 170.063C53.8142 170.543 53.3242 171.203 52.9642 172.043C52.6242 172.863 52.4542 173.773 52.4542 174.773V181.463C52.4542 182.283 52.6242 182.853 52.9642 183.173C53.3042 183.473 53.8942 183.623 54.7342 183.623V184.253C52.8942 184.173 51.6942 184.133 51.1342 184.133C50.5742 184.133 49.4542 184.173 47.7742 184.253V183.623C48.5142 183.623 49.0242 183.473 49.3042 183.173C49.6042 182.853 49.7542 182.283 49.7542 181.463V172.793C49.7542 172.033 49.7042 171.423 49.6042 170.963C49.5242 170.483 49.3142 170.093 48.9742 169.793C48.6542 169.493 48.1542 169.343 47.4742 169.343C46.7142 169.343 46.0242 169.583 45.4042 170.063C44.7842 170.543 44.2942 171.203 43.9342 172.043C43.5942 172.883 43.4242 173.803 43.4242 174.803V181.463C43.4242 182.283 43.5642 182.853 43.8442 183.173C44.1442 183.473 44.6642 183.623 45.4042 183.623V184.253C43.7242 184.173 42.6042 184.133 42.0442 184.133C41.4842 184.133 40.2842 184.173 38.4442 184.253V183.623C39.2842 183.623 39.8742 183.473 40.2142 183.173C40.5542 182.853 40.7242 182.283 40.7242 181.463V172.073C40.7242 171.153 40.5542 170.483 40.2142 170.063C39.8742 169.643 39.2842 169.433 38.4442 169.433V168.803C39.0842 168.863 39.7042 168.893 40.3042 168.893C41.5642 168.893 42.6042 168.753 43.4242 168.473V172.013C43.9042 170.773 44.5842 169.863 45.4642 169.283C46.3442 168.683 47.3042 168.383 48.3442 168.383C49.7042 168.383 50.7442 168.763 51.4642 169.523C51.9642 170.043 52.2742 170.843 52.3942 171.923C52.8942 170.663 53.5842 169.763 54.4642 169.223C55.3442 168.663 56.3142 168.383 57.3742 168.383C58.7342 168.383 59.7742 168.763 60.4942 169.523C60.8542 169.923 61.1042 170.433 61.2442 171.053C61.4042 171.673 61.4842 172.473 61.4842 173.453V181.463ZM69.0951 184.463C67.8351 184.463 66.8951 184.153 66.2751 183.533C65.6751 182.893 65.3751 182.013 65.3751 180.893C65.3751 179.993 65.6151 179.253 66.0951 178.673C66.5951 178.093 67.1751 177.633 67.8351 177.293C68.5151 176.953 69.4051 176.593 70.5051 176.213C71.6251 175.833 72.4551 175.483 72.9951 175.163C73.5351 174.843 73.8051 174.413 73.8051 173.873V172.013C73.8051 170.853 73.5551 170.063 73.0551 169.643C72.5751 169.203 71.8951 168.983 71.0151 168.983C69.6151 168.983 68.6251 169.343 68.0451 170.063C68.4451 170.163 68.7751 170.373 69.0351 170.693C69.3151 171.013 69.4551 171.413 69.4551 171.893C69.4551 172.393 69.2951 172.793 68.9751 173.093C68.6551 173.373 68.2451 173.513 67.7451 173.513C67.1851 173.513 66.7651 173.343 66.4851 173.003C66.2051 172.643 66.0651 172.213 66.0651 171.713C66.0651 171.233 66.1751 170.833 66.3951 170.513C66.6351 170.193 66.9851 169.873 67.4451 169.553C67.9251 169.213 68.5351 168.933 69.2751 168.713C70.0151 168.493 70.8251 168.383 71.7051 168.383C73.2651 168.383 74.4451 168.753 75.2451 169.493C75.7451 169.953 76.0751 170.513 76.2351 171.173C76.4151 171.813 76.5051 172.663 76.5051 173.723V182.063C76.5051 182.563 76.5751 182.923 76.7151 183.143C76.8551 183.363 77.0951 183.473 77.4351 183.473C77.6751 183.473 77.8951 183.423 78.0951 183.323C78.3151 183.203 78.5451 183.043 78.7851 182.843L79.1151 183.353C78.5951 183.753 78.1451 184.043 77.7651 184.223C77.4051 184.383 76.9451 184.463 76.3851 184.463C75.4251 184.463 74.7551 184.223 74.3751 183.743C73.9951 183.263 73.8051 182.613 73.8051 181.793C73.2051 182.793 72.5151 183.493 71.7351 183.893C70.9551 184.273 70.0751 184.463 69.0951 184.463ZM70.4151 183.263C71.7351 183.263 72.8651 182.503 73.8051 180.983V175.103C73.6251 175.383 73.3751 175.613 73.0551 175.793C72.7351 175.973 72.2451 176.213 71.5851 176.513C70.8251 176.833 70.2051 177.143 69.7251 177.443C69.2651 177.723 68.8651 178.113 68.5251 178.613C68.1851 179.113 68.0151 179.753 68.0151 180.533C68.0151 181.433 68.2351 182.113 68.6751 182.573C69.1151 183.033 69.6951 183.263 70.4151 183.263ZM84.8465 168.833H89.2865V169.433H84.8465V181.043C84.8465 181.943 85.0065 182.593 85.3265 182.993C85.6665 183.393 86.1465 183.593 86.7665 183.593C87.3865 183.593 87.9165 183.343 88.3565 182.843C88.7965 182.343 89.1665 181.523 89.4665 180.383L90.0665 180.533C89.5665 183.293 88.2665 184.673 86.1665 184.673C85.4865 184.673 84.9265 184.593 84.4865 184.433C84.0465 184.273 83.6565 184.023 83.3165 183.683C82.8765 183.243 82.5665 182.703 82.3865 182.063C82.2265 181.423 82.1465 180.563 82.1465 179.483V169.433H79.2665V168.833H82.1465V164.243C83.2665 164.203 84.1665 164.063 84.8465 163.823V168.833ZM103.642 180.653C103.282 181.753 102.602 182.703 101.602 183.503C100.622 184.283 99.432 184.673 98.032 184.673C96.612 184.673 95.382 184.353 94.342 183.713C93.302 183.053 92.502 182.143 91.942 180.983C91.402 179.803 91.132 178.443 91.132 176.903C91.132 175.163 91.412 173.653 91.972 172.373C92.532 171.093 93.322 170.113 94.342 169.433C95.362 168.733 96.552 168.383 97.912 168.383C99.712 168.383 101.092 168.933 102.052 170.033C103.032 171.113 103.522 172.763 103.522 174.983H94.132C94.072 175.543 94.042 176.183 94.042 176.903C94.042 178.223 94.252 179.373 94.672 180.353C95.112 181.333 95.682 182.093 96.382 182.633C97.102 183.153 97.852 183.413 98.632 183.413C99.592 183.413 100.442 183.183 101.182 182.723C101.922 182.263 102.542 181.493 103.042 180.413L103.642 180.653ZM97.792 168.953C96.852 168.953 96.042 169.413 95.362 170.333C94.682 171.253 94.262 172.613 94.102 174.413H100.642C100.682 172.853 100.452 171.553 99.952 170.513C99.472 169.473 98.752 168.953 97.792 168.953ZM115.128 168.383C115.928 168.383 116.578 168.613 117.078 169.073C117.598 169.533 117.858 170.093 117.858 170.753C117.858 171.273 117.698 171.723 117.378 172.103C117.078 172.463 116.668 172.643 116.148 172.643C115.708 172.643 115.328 172.503 115.008 172.223C114.708 171.943 114.558 171.563 114.558 171.083C114.558 170.423 114.898 169.883 115.578 169.463C115.438 169.263 115.228 169.163 114.948 169.163C114.168 169.163 113.458 169.473 112.818 170.093C112.178 170.693 111.678 171.433 111.318 172.313C110.958 173.193 110.778 174.023 110.778 174.803V181.163C110.778 182.083 111.038 182.723 111.558 183.083C112.098 183.443 112.898 183.623 113.958 183.623V184.253L113.238 184.223C111.198 184.163 109.898 184.133 109.338 184.133C108.818 184.133 107.638 184.173 105.798 184.253V183.623C106.638 183.623 107.228 183.473 107.568 183.173C107.908 182.853 108.078 182.283 108.078 181.463V172.073C108.078 171.153 107.908 170.483 107.568 170.063C107.228 169.643 106.638 169.433 105.798 169.433V168.803C106.438 168.863 107.058 168.893 107.658 168.893C108.918 168.893 109.958 168.753 110.778 168.473V172.223C111.138 171.223 111.708 170.333 112.488 169.553C113.288 168.773 114.168 168.383 115.128 168.383ZM122.577 161.303C123.097 161.303 123.547 161.493 123.927 161.873C124.307 162.253 124.497 162.703 124.497 163.223C124.497 163.743 124.307 164.193 123.927 164.573C123.547 164.953 123.097 165.143 122.577 165.143C122.057 165.143 121.607 164.953 121.227 164.573C120.847 164.193 120.657 163.743 120.657 163.223C120.657 162.703 120.847 162.253 121.227 161.873C121.607 161.493 122.057 161.303 122.577 161.303ZM124.137 181.463C124.137 182.283 124.307 182.853 124.647 183.173C124.987 183.473 125.577 183.623 126.417 183.623V184.253C124.577 184.173 123.367 184.133 122.787 184.133C122.207 184.133 120.997 184.173 119.157 184.253V183.623C119.997 183.623 120.587 183.473 120.927 183.173C121.267 182.853 121.437 182.283 121.437 181.463V172.073C121.437 171.153 121.267 170.483 120.927 170.063C120.587 169.643 119.997 169.433 119.157 169.433V168.803C119.797 168.863 120.417 168.893 121.017 168.893C122.277 168.893 123.317 168.753 124.137 168.473V181.463ZM131.966 184.463C130.706 184.463 129.766 184.153 129.146 183.533C128.546 182.893 128.246 182.013 128.246 180.893C128.246 179.993 128.486 179.253 128.966 178.673C129.466 178.093 130.046 177.633 130.706 177.293C131.386 176.953 132.276 176.593 133.376 176.213C134.496 175.833 135.326 175.483 135.866 175.163C136.406 174.843 136.676 174.413 136.676 173.873V172.013C136.676 170.853 136.426 170.063 135.926 169.643C135.446 169.203 134.766 168.983 133.886 168.983C132.486 168.983 131.496 169.343 130.916 170.063C131.316 170.163 131.646 170.373 131.906 170.693C132.186 171.013 132.326 171.413 132.326 171.893C132.326 172.393 132.166 172.793 131.846 173.093C131.526 173.373 131.116 173.513 130.616 173.513C130.056 173.513 129.636 173.343 129.356 173.003C129.076 172.643 128.936 172.213 128.936 171.713C128.936 171.233 129.046 170.833 129.266 170.513C129.506 170.193 129.856 169.873 130.316 169.553C130.796 169.213 131.406 168.933 132.146 168.713C132.886 168.493 133.696 168.383 134.576 168.383C136.136 168.383 137.316 168.753 138.116 169.493C138.616 169.953 138.946 170.513 139.106 171.173C139.286 171.813 139.376 172.663 139.376 173.723V182.063C139.376 182.563 139.446 182.923 139.586 183.143C139.726 183.363 139.966 183.473 140.306 183.473C140.546 183.473 140.766 183.423 140.966 183.323C141.186 183.203 141.416 183.043 141.656 182.843L141.986 183.353C141.466 183.753 141.016 184.043 140.636 184.223C140.276 184.383 139.816 184.463 139.256 184.463C138.296 184.463 137.626 184.223 137.246 183.743C136.866 183.263 136.676 182.613 136.676 181.793C136.076 182.793 135.386 183.493 134.606 183.893C133.826 184.273 132.946 184.463 131.966 184.463ZM133.286 183.263C134.606 183.263 135.736 182.503 136.676 180.983V175.103C136.496 175.383 136.246 175.613 135.926 175.793C135.606 175.973 135.116 176.213 134.456 176.513C133.696 176.833 133.076 177.143 132.596 177.443C132.136 177.723 131.736 178.113 131.396 178.613C131.056 179.113 130.886 179.753 130.886 180.533C130.886 181.433 131.106 182.113 131.546 182.573C131.986 183.033 132.566 183.263 133.286 183.263ZM147.658 181.463C147.658 182.283 147.828 182.853 148.168 183.173C148.508 183.473 149.098 183.623 149.938 183.623V184.253C148.098 184.173 146.888 184.133 146.308 184.133C145.728 184.133 144.518 184.173 142.678 184.253V183.623C143.518 183.623 144.108 183.473 144.448 183.173C144.788 182.853 144.958 182.283 144.958 181.463V164.333C144.958 163.413 144.788 162.743 144.448 162.323C144.108 161.903 143.518 161.693 142.678 161.693V161.063C143.298 161.123 143.918 161.153 144.538 161.153C145.798 161.153 146.838 161.013 147.658 160.733V181.463ZM156.842 168.383C157.562 168.383 158.202 168.493 158.762 168.713C159.322 168.933 159.772 169.193 160.112 169.493C160.332 169.653 160.512 169.733 160.652 169.733C161.012 169.733 161.232 169.293 161.312 168.413H162.002C161.922 169.393 161.882 171.093 161.882 173.513H161.192C160.972 172.193 160.542 171.103 159.902 170.243C159.282 169.383 158.352 168.953 157.112 168.953C156.392 168.953 155.802 169.163 155.342 169.583C154.882 169.983 154.652 170.543 154.652 171.263C154.652 171.963 154.892 172.553 155.372 173.033C155.852 173.493 156.622 174.053 157.682 174.713C157.862 174.813 158.132 174.983 158.492 175.223C159.412 175.823 160.152 176.353 160.712 176.813C161.272 177.273 161.722 177.803 162.062 178.403C162.422 179.003 162.602 179.693 162.602 180.473C162.602 181.793 162.102 182.823 161.102 183.563C160.122 184.303 158.912 184.673 157.472 184.673C156.572 184.673 155.782 184.533 155.102 184.253C154.662 184.033 154.252 183.763 153.872 183.443C153.792 183.363 153.702 183.323 153.602 183.323C153.462 183.323 153.332 183.423 153.212 183.623C153.112 183.823 153.032 184.103 152.972 184.463H152.282C152.362 183.323 152.402 181.323 152.402 178.463H153.092C153.312 180.343 153.712 181.753 154.292 182.693C154.872 183.613 155.862 184.073 157.262 184.073C157.962 184.073 158.582 183.843 159.122 183.383C159.662 182.923 159.932 182.203 159.932 181.223C159.932 180.443 159.662 179.783 159.122 179.243C158.602 178.703 157.742 178.053 156.542 177.293C155.562 176.673 154.802 176.163 154.262 175.763C153.742 175.363 153.302 174.873 152.942 174.293C152.582 173.713 152.402 173.033 152.402 172.253C152.402 170.993 152.822 170.033 153.662 169.373C154.502 168.713 155.562 168.383 156.842 168.383Z" fill="white"/>
<path d="M69.8102 10.3676C69.3689 10.6996 69.2802 11.3266 69.6122 11.7679C69.9442 12.2093 70.5712 12.2979 71.0125 11.9659L69.8102 10.3676ZM75.9844 8.65479C76.4609 8.37559 76.6208 7.76296 76.3416 7.28645C76.0624 6.80993 75.4498 6.64999 74.9733 6.92919L75.9844 8.65479ZM71.0125 11.9659C72.6015 10.7706 74.2613 9.66441 75.9844 8.65479L74.9733 6.92919C73.1838 7.97773 71.4602 9.12645 69.8102 10.3676L71.0125 11.9659Z" fill="#006389"/>
<path d="M79.2265 4.80234C78.7265 5.03686 78.5112 5.63232 78.7458 6.13234C78.9803 6.63236 79.5757 6.8476 80.0757 6.61308L79.2265 4.80234ZM85.7922 4.33723C86.3166 4.16394 86.6013 3.59836 86.428 3.07396C86.2547 2.54957 85.6891 2.26494 85.1647 2.43823L85.7922 4.33723ZM80.0757 6.61308C81.9244 5.74604 83.8325 4.98483 85.7922 4.33723L85.1647 2.43823C83.1288 3.11099 81.1467 3.90173 79.2265 4.80234L80.0757 6.61308Z" fill="#006389"/>
<path d="M89.8941 1.06063C89.349 1.14937 88.979 1.66321 89.0677 2.20832C89.1565 2.75343 89.6703 3.12338 90.2154 3.03464L89.8941 1.06063ZM96.0386 2.42288C96.5902 2.39633 97.0159 1.9276 96.9893 1.37595C96.9628 0.824308 96.494 0.398639 95.9424 0.425197L96.0386 2.42288ZM90.2154 3.03464C92.1265 2.72351 94.0698 2.51766 96.0386 2.42288L95.9424 0.425197C93.8978 0.523629 91.8793 0.73742 89.8941 1.06063L90.2154 3.03464Z" fill="#006389"/>
<path d="M100.755 0.0957516C100.203 0.118706 99.7752 0.584672 99.7988 1.13652C99.8224 1.68836 100.289 2.11711 100.841 2.09416L100.755 0.0957516ZM105.912 2.12881C106.464 2.15914 106.935 1.73666 106.965 1.18517C106.994 0.633687 106.571 0.162027 106.02 0.131693L105.912 2.12881ZM100.841 2.09416C102.513 2.02456 104.205 2.0349 105.912 2.12881L106.02 0.131693C104.248 0.0342492 102.492 0.0234826 100.755 0.0957516L100.841 2.09416Z" fill="#006389"/>
<path d="M111.976 0.988843C111.433 0.889471 110.912 1.24932 110.813 1.7926C110.713 2.33587 111.073 2.85683 111.616 2.9562L111.976 0.988843ZM116.556 4.1092C117.087 4.26046 117.64 3.95249 117.792 3.42132C117.943 2.89016 117.635 2.33694 117.104 2.18567L116.556 4.1092ZM111.616 2.9562C113.264 3.2575 114.912 3.64094 116.556 4.1092L117.104 2.18567C115.398 1.69977 113.687 1.3017 111.976 0.988843L111.616 2.9562Z" fill="#006389"/>
<path d="M121.971 3.91144C121.457 3.70849 120.876 3.96035 120.673 4.474C120.47 4.98764 120.722 5.56856 121.236 5.77151L121.971 3.91144ZM125.857 7.86152C126.349 8.11302 126.952 7.91831 127.203 7.42662C127.455 6.93492 127.26 6.33244 126.768 6.08093L125.857 7.86152ZM121.236 5.77151C122.793 6.38686 124.335 7.08296 125.857 7.86152L126.768 6.08093C125.189 5.27302 123.588 4.5504 121.971 3.91144L121.236 5.77151Z" fill="#006389"/>
<path d="M132.337 9.48613C131.883 9.1714 131.26 9.28416 130.945 9.738C130.63 10.1918 130.743 10.8149 131.197 11.1296L132.337 9.48613ZM135.22 14.2185C135.642 14.5755 136.273 14.5233 136.63 14.1019C136.987 13.6805 136.935 13.0495 136.513 12.6925L135.22 14.2185ZM131.197 11.1296C132.573 12.0839 133.916 13.1133 135.22 14.2185L136.513 12.6925C135.16 11.5457 133.766 10.477 132.337 9.48613L131.197 11.1296Z" fill="#006389"/>
<path d="M139.602 15.5384C139.204 15.155 138.571 15.1665 138.188 15.564C137.805 15.9616 137.816 16.5946 138.214 16.978L139.602 15.5384ZM141.69 20.6715C142.049 21.0915 142.68 21.141 143.1 20.7823C143.52 20.4235 143.569 19.7923 143.211 19.3724L141.69 20.6715ZM138.214 16.978C139.419 18.1404 140.58 19.3717 141.69 20.6715L143.211 19.3724C142.058 18.0235 140.854 16.7454 139.602 15.5384L138.214 16.978Z" fill="#006389"/>
<path d="M154.523 43.5605C154.425 43.017 153.905 42.6559 153.361 42.7541C152.818 42.8522 152.457 43.3724 152.555 43.9159L154.523 43.5605ZM153.214 48.9452C153.259 49.4957 153.742 49.9051 154.292 49.8598C154.843 49.8145 155.252 49.3316 155.207 48.7811L153.214 48.9452ZM152.555 43.9159C152.853 45.5638 153.073 47.2413 153.214 48.9452L155.207 48.7811C155.061 47.013 154.832 45.2716 154.523 43.5605L152.555 43.9159Z" fill="#006389"/>
<path d="M152.05 33.4247C151.867 32.9035 151.296 32.6291 150.775 32.8119C150.254 32.9946 149.98 33.5652 150.162 34.0864L152.05 33.4247ZM151.607 38.9487C151.739 39.485 152.28 39.8131 152.816 39.6815C153.353 39.5499 153.681 39.0083 153.549 38.472L151.607 38.9487ZM150.162 34.0864C150.716 35.6666 151.199 37.2883 151.607 38.9487L153.549 38.472C153.126 36.749 152.625 35.0656 152.05 33.4247L150.162 34.0864Z" fill="#006389"/>
<path d="M147.35 24.1505C147.052 23.6857 146.433 23.5508 145.968 23.8491C145.503 24.1474 145.369 24.766 145.667 25.2308L147.35 24.1505ZM148.197 29.6271C148.449 30.1184 149.052 30.3124 149.543 30.0602C150.035 29.8081 150.228 29.2054 149.976 28.714L148.197 29.6271ZM145.667 25.2308C146.571 26.64 147.416 28.106 148.197 29.6271L149.976 28.714C149.166 27.1356 148.289 25.6138 147.35 24.1505L145.667 25.2308Z" fill="#006389"/>
<path d="M155.382 53.7185C155.391 53.1663 154.951 52.711 154.399 52.7014C153.847 52.6919 153.392 53.1318 153.382 53.684L155.382 53.7185ZM153.049 58.7453C152.986 59.2941 153.38 59.7897 153.929 59.8524C154.478 59.9152 154.973 59.5212 155.036 58.9725L153.049 58.7453ZM153.382 53.684C153.353 55.3582 153.243 57.0468 153.049 58.7453L155.036 58.9725C155.238 57.2098 155.352 55.4571 155.382 53.7185L153.382 53.684Z" fill="#006389"/>
<path d="M154.276 64.1852C154.387 63.6442 154.038 63.1157 153.497 63.0048C152.956 62.8939 152.427 63.2427 152.317 63.7837L154.276 64.1852ZM151.059 68.6977C150.897 69.2255 151.193 69.7851 151.721 69.9476C152.248 70.1101 152.808 69.814 152.97 69.2861L151.059 68.6977ZM152.317 63.7837C151.98 65.4241 151.562 67.0637 151.059 68.6977L152.97 69.2861C153.492 67.5906 153.927 65.8886 154.276 64.1852L152.317 63.7837Z" fill="#006389"/>
<path d="M151.406 73.432C151.608 72.918 151.355 72.3375 150.841 72.1352C150.327 71.933 149.747 72.1857 149.545 72.6996L151.406 73.432ZM147.461 77.3243C147.21 77.8163 147.406 78.4185 147.898 78.6693C148.39 78.9202 148.992 78.7246 149.243 78.2326L147.461 77.3243ZM149.545 72.6996C148.931 74.2579 148.238 75.8011 147.461 77.3243L149.243 78.2326C150.049 76.652 150.769 75.05 151.406 73.432L149.545 72.6996Z" fill="#006389"/>
<path d="M146.44 82.906C146.746 82.4464 146.622 81.8256 146.162 81.5194C145.703 81.2132 145.082 81.3376 144.776 81.7972L146.44 82.906ZM141.763 85.8777C141.414 86.3057 141.478 86.9356 141.906 87.2847C142.334 87.6337 142.964 87.5697 143.313 87.1417L141.763 85.8777ZM144.776 81.7972C143.847 83.1909 142.843 84.5528 141.763 85.8777L143.313 87.1417C144.434 85.7669 145.476 84.3532 146.44 82.906L144.776 81.7972Z" fill="#006389"/>
<path d="M139.689 91.1048C140.079 90.7134 140.078 90.0803 139.686 89.6906C139.295 89.3009 138.662 89.3023 138.272 89.6937L139.689 91.1048ZM134.524 93.1108C134.098 93.4628 134.038 94.0931 134.39 94.5187C134.742 94.9443 135.373 95.0039 135.798 94.6519L134.524 93.1108ZM138.272 89.6937C137.091 90.8803 135.841 92.0211 134.524 93.1108L135.798 94.6519C137.165 93.5212 138.463 92.337 139.689 91.1048L138.272 89.6937Z" fill="#006389"/>
<path d="M131.261 97.8699C131.715 97.5557 131.829 96.9328 131.514 96.4786C131.2 96.0244 130.577 95.9109 130.123 96.2251L131.261 97.8699ZM125.817 98.9057C125.335 99.1747 125.162 99.7838 125.431 100.266C125.7 100.748 126.309 100.921 126.791 100.652L125.817 98.9057ZM130.123 96.2251C128.746 97.1778 127.31 98.0731 125.817 98.9057L126.791 100.652C128.341 99.7884 129.831 98.8591 131.261 97.8699L130.123 96.2251Z" fill="#006389"/>
<path d="M120.689 103.252C121.202 103.047 121.452 102.465 121.247 101.952C121.042 101.439 120.461 101.189 119.948 101.394L120.689 103.252ZM115.151 103.043C114.621 103.197 114.316 103.752 114.47 104.282C114.624 104.813 115.179 105.118 115.709 104.963L115.151 103.043ZM119.948 101.394C118.392 102.014 116.793 102.566 115.151 103.043L115.709 104.963C117.413 104.468 119.074 103.896 120.689 103.252L119.948 101.394Z" fill="#006389"/>
<path d="M109.321 106.089C109.868 106.012 110.25 105.507 110.173 104.96C110.097 104.413 109.591 104.031 109.044 104.108L109.321 106.089ZM103.993 104.567C103.441 104.591 103.013 105.057 103.036 105.609C103.06 106.16 103.526 106.589 104.078 106.565L103.993 104.567ZM109.044 104.108C107.386 104.34 105.701 104.494 103.993 104.567L104.078 106.565C105.85 106.49 107.599 106.33 109.321 106.089L109.044 104.108Z" fill="#006389"/>
<path d="M98.0753 106.402C98.6264 106.437 99.1019 106.019 99.1373 105.468C99.1727 104.917 98.7546 104.441 98.2035 104.406L98.0753 106.402ZM93.1633 103.836C92.6181 103.748 92.1046 104.118 92.0162 104.663C91.9278 105.209 92.2982 105.722 92.8433 105.811L93.1633 103.836ZM98.2035 104.406C96.5324 104.299 94.8509 104.11 93.1633 103.836L92.8433 105.811C94.5946 106.094 96.3401 106.29 98.0753 106.402L98.2035 104.406Z" fill="#006389"/>
<path d="M85.1588 103.357C85.6763 103.55 86.2521 103.286 86.4448 102.769C86.6374 102.251 86.374 101.675 85.8564 101.483L85.1588 103.357ZM81.1939 99.4855C80.6973 99.2438 80.0988 99.4505 79.8572 99.9472C79.6156 100.444 79.8223 101.042 80.3189 101.284L81.1939 99.4855ZM85.8564 101.483C84.2871 100.899 82.7312 100.233 81.1939 99.4855L80.3189 101.284C81.9141 102.06 83.5292 102.751 85.1588 103.357L85.8564 101.483Z" fill="#006389"/>
<path d="M73.8854 97.9146C74.3561 98.2035 74.9719 98.0562 75.2608 97.5855C75.5497 97.1148 75.4024 96.499 74.9317 96.2101L73.8854 97.9146ZM70.7422 93.3506C70.3016 93.0177 69.6745 93.105 69.3415 93.5456C69.0086 93.9863 69.0959 94.6134 69.5366 94.9463L70.7422 93.3506ZM74.9317 96.2101C73.5046 95.3341 72.1063 94.3812 70.7422 93.3506L69.5366 94.9463C70.9521 96.0158 72.4035 97.005 73.8854 97.9146L74.9317 96.2101Z" fill="#006389"/>
<path d="M65.212 91.0781C65.6075 91.4636 66.2406 91.4555 66.6261 91.06C67.0116 90.6645 67.0035 90.0314 66.608 89.6459L65.212 91.0781ZM63.1514 85.9337C62.7949 85.5119 62.164 85.4589 61.7422 85.8154C61.3203 86.1719 61.2674 86.8029 61.6239 87.2247L63.1514 85.9337ZM66.608 89.6459C65.4089 88.477 64.2549 87.2395 63.1514 85.9337L61.6239 87.2247C62.769 88.5797 63.9669 89.8643 65.212 91.0781L66.608 89.6459Z" fill="#006389"/>
<path d="M58.0056 82.4454C58.3099 82.9063 58.9302 83.0332 59.3911 82.7289C59.852 82.4246 59.9789 81.8043 59.6746 81.3434L58.0056 82.4454ZM57.0878 76.9802C56.8294 76.4922 56.2242 76.306 55.7361 76.5645C55.248 76.823 55.0619 77.4282 55.3204 77.9163L57.0878 76.9802ZM59.6746 81.3434C58.7519 79.946 57.888 78.4911 57.0878 76.9802L55.3204 77.9163C56.1507 79.4841 57.0475 80.9943 58.0056 82.4454L59.6746 81.3434Z" fill="#006389"/>
<path d="M53.3374 73.3036C53.5577 73.81 54.1468 74.042 54.6533 73.8217C55.1597 73.6015 55.3917 73.0123 55.1715 72.5059L53.3374 73.3036ZM53.3759 67.762C53.2055 67.2367 52.6414 66.949 52.1161 67.1194C51.5908 67.2899 51.3031 67.8539 51.4735 68.3792L53.3759 67.762ZM55.1715 72.5059C54.5036 70.9703 53.9035 69.3882 53.3759 67.762L51.4735 68.3792C52.021 70.0667 52.6439 71.709 53.3374 73.3036L55.1715 72.5059Z" fill="#006389"/>
<path d="M50.185 63.1008C50.2999 63.641 50.8309 63.9859 51.3712 63.871C51.9114 63.7561 52.2562 63.2251 52.1413 62.6849L50.185 63.1008ZM51.3277 57.6783C51.2654 57.1295 50.7701 56.7351 50.2213 56.7974C49.6726 56.8596 49.2782 57.355 49.3405 57.9037L51.3277 57.6783ZM52.1413 62.6849C51.7931 61.047 51.5204 59.377 51.3277 57.6783L49.3405 57.9037C49.5405 59.6665 49.8234 61.4001 50.185 63.1008L52.1413 62.6849Z" fill="#006389"/>
<path d="M49.1345 52.0067C49.1397 52.559 49.5917 53.0024 50.144 52.9971C50.6962 52.9918 51.1396 52.5399 51.1344 51.9876L49.1345 52.0067ZM51.3313 46.9191C51.3793 46.3689 50.9721 45.884 50.4219 45.8361C49.8717 45.7881 49.3868 46.1952 49.3388 46.7454L51.3313 46.9191ZM51.1344 51.9876C51.1183 50.3132 51.1828 48.6223 51.3313 46.9191L49.3388 46.7454C49.1848 48.5128 49.1178 50.268 49.1345 52.0067L51.1344 51.9876Z" fill="#006389"/>
<path d="M50.6629 39.8471C50.56 40.3897 50.9164 40.913 51.459 41.016C52.0016 41.119 52.5249 40.7626 52.6279 40.22L50.6629 39.8471ZM53.8135 35.2882C53.9683 34.758 53.664 34.2028 53.1339 34.048C52.6037 33.8932 52.0485 34.1975 51.8937 34.7277L53.8135 35.2882ZM52.6279 40.22C52.9401 38.5748 53.3344 36.9293 53.8135 35.2882L51.8937 34.7277C51.3965 36.4307 50.9871 38.1388 50.6629 39.8471L52.6279 40.22Z" fill="#006389"/>
<path d="M54.6862 28.2029C54.436 28.6952 54.6322 29.2972 55.1246 29.5474C55.6169 29.7977 56.2189 29.6014 56.4691 29.109L54.6862 28.2029ZM58.9834 24.7038C59.28 24.2378 59.1426 23.6197 58.6767 23.3232C58.2108 23.0267 57.5927 23.164 57.2962 23.63L58.9834 24.7038ZM56.4691 29.109C57.2279 27.6163 58.0655 26.1461 58.9834 24.7038L57.2962 23.63C56.3436 25.1267 55.474 26.6528 54.6862 28.2029L56.4691 29.109Z" fill="#006389"/>
<path d="M61.7142 17.3053C61.3467 17.7176 61.383 18.3497 61.7953 18.7172C62.2076 19.0846 62.8397 19.0483 63.2072 18.636L61.7142 17.3053ZM66.7614 15.0171C67.1669 14.6422 67.1916 14.0095 66.8166 13.604C66.4417 13.1985 65.809 13.1738 65.4035 13.5487L66.7614 15.0171ZM63.2072 18.636C64.3214 17.3859 65.5061 16.1779 66.7614 15.0171L65.4035 13.5487C64.101 14.7532 62.8711 16.0072 61.7142 17.3053L63.2072 18.636Z" fill="#006389"/>
<ellipse cx="102.398" cy="52.511" rx="50.2422" ry="50.2425" fill="#D6BAA4"/>
<path d="M101.776 58.9499C103.827 61.9671 104.871 65.6147 105.298 70.8371C105.405 65.7283 106.432 62.4988 109.32 59.8426C108.835 58.1645 108.61 56.9233 108.848 54.9593C109.057 53.2322 109.52 51.506 110.47 50.0486C110.639 49.7897 110.82 49.5422 111.019 49.3038C114.002 45.7167 119.348 45.593 124.013 45.593H129.814L129.165 49.9205C128.632 53.4709 127.249 57.4628 124.872 60.1537C121.67 63.7792 116.589 65.8315 112.401 63.4106C111.12 62.6698 110.187 61.5229 109.32 59.8426C106.432 62.4988 105.405 65.7283 105.298 70.8371C104.871 65.6147 103.827 61.9671 101.776 58.9499C99.1721 62.3738 97.0018 63.9752 92.3898 63.7019C89.4899 63.5301 86.6373 62.5968 84.2369 60.9606C83.3714 60.3708 82.6019 59.7202 81.8694 58.9202C79.8817 56.7492 78.8823 53.8779 78.207 51.0129C76.9087 45.5046 76.586 41.1949 77.3839 34.1846C84.5307 34.3403 89.2165 35.2533 95.4941 38.0088C98.6606 39.3988 101.802 41.2326 103.6 44.1865C104.307 45.3471 104.761 46.5751 105.027 48.0819C105.331 49.8017 105.266 51.5723 104.944 53.2888C104.439 55.9829 103.573 57.4377 101.776 58.9499Z" fill="#16A029"/>
<path d="M105.298 70.8371L104.301 70.9185L106.297 70.8582L105.298 70.8371ZM92.463 49.8332C91.9897 49.5487 91.3753 49.7017 91.0907 50.1751C90.8062 50.6484 90.9592 51.2628 91.4326 51.5474L92.463 49.8332ZM104.944 53.2888L103.961 53.1046L104.944 53.2888ZM105.027 48.0819L104.042 48.2556L105.027 48.0819ZM103.6 44.1865L104.454 43.6665V43.6665L103.6 44.1865ZM95.4941 38.0088L95.0921 38.9245L95.4941 38.0088ZM77.3839 34.1846L77.4057 33.1848L76.4935 33.1649L76.3903 34.0715L77.3839 34.1846ZM78.207 51.0129L77.2337 51.2424H77.2337L78.207 51.0129ZM81.8694 58.9202L82.607 58.2449H82.607L81.8694 58.9202ZM84.2369 60.9606L83.6736 61.7869H83.6736L84.2369 60.9606ZM92.3898 63.7019L92.3307 64.7002L92.3898 63.7019ZM117.353 56.2167C117.858 55.9933 118.086 55.4028 117.863 54.8977C117.64 54.3926 117.049 54.1643 116.544 54.3877L117.353 56.2167ZM108.848 54.9593L109.84 55.0794V55.0794L108.848 54.9593ZM110.47 50.0486L109.632 49.5025V49.5025L110.47 50.0486ZM111.019 49.3038L110.25 48.6644L110.25 48.6644L111.019 49.3038ZM129.814 45.593L130.803 45.7414L130.975 44.593H129.814V45.593ZM129.165 49.9205L130.154 50.0688V50.0688L129.165 49.9205ZM112.401 63.4106L111.901 64.2763V64.2763L112.401 63.4106ZM124.872 60.1537L125.622 60.8157V60.8157L124.872 60.1537ZM106.294 70.7556C105.86 65.442 104.789 61.6025 102.602 58.3876L100.949 59.5122C102.866 62.3317 103.882 65.7874 104.301 70.9185L106.294 70.7556ZM102.602 58.3876C100.386 55.128 97.0936 52.6169 92.463 49.8332L91.4326 51.5474C96.0001 54.2931 98.9834 56.6222 100.949 59.5122L102.602 58.3876ZM102.419 59.7151C103.382 58.9055 104.136 58.0757 104.714 57.0558C105.29 56.0404 105.662 54.8888 105.927 53.4731L103.961 53.1046C103.722 54.3829 103.407 55.3057 102.975 56.0694C102.544 56.8284 101.967 57.4821 101.132 58.1847L102.419 59.7151ZM106.012 47.9081C105.727 46.2907 105.232 44.9433 104.454 43.6665L102.746 44.7064C103.382 45.7509 103.796 46.8594 104.042 48.2556L106.012 47.9081ZM95.896 37.0932C89.483 34.2782 84.6655 33.343 77.4057 33.1848L77.3621 35.1843C84.3959 35.3376 88.95 36.2284 95.0921 38.9245L95.896 37.0932ZM76.3903 34.0715C75.5802 41.1896 75.9075 45.6154 77.2337 51.2424L79.1804 50.7835C77.91 45.3937 77.5919 41.2002 78.3775 34.2976L76.3903 34.0715ZM81.1319 59.5955C81.9207 60.457 82.7499 61.1573 83.6736 61.7869L84.8001 60.1343C83.9929 59.5842 83.2831 58.9833 82.607 58.2449L81.1319 59.5955ZM92.3307 64.7002C94.7676 64.8446 96.664 64.4978 98.3177 63.5886C99.9483 62.6922 101.244 61.3008 102.572 59.5552L100.98 58.3447C99.7034 60.023 98.6125 61.1442 97.3541 61.8361C96.1188 62.5152 94.624 62.8325 92.449 62.7037L92.3307 64.7002ZM106.297 70.8582C106.402 65.8898 107.389 62.9769 109.997 60.5786L108.643 59.1067C105.475 62.0206 104.409 65.5668 104.298 70.816L106.297 70.8582ZM109.997 60.5786C111.646 59.061 113.998 57.7007 117.353 56.2167L116.544 54.3877C113.123 55.9009 110.534 57.3668 108.643 59.1067L109.997 60.5786ZM110.28 59.5653C109.82 57.9695 109.624 56.8692 109.84 55.0794L107.855 54.8391C107.596 56.9774 107.851 58.3595 108.359 60.12L110.28 59.5653ZM111.308 50.5947C111.457 50.3666 111.615 50.1504 111.787 49.9432L110.25 48.6644C110.026 48.934 109.821 49.2128 109.632 49.5025L111.308 50.5947ZM124.013 46.593H129.814V44.593H124.013V46.593ZM128.825 45.4447L128.176 49.7722L130.154 50.0688L130.803 45.7414L128.825 45.4447ZM112.902 62.5448C111.847 61.9351 111.027 60.9702 110.208 59.384L108.431 60.3013C109.347 62.0755 110.392 63.4044 111.901 64.2763L112.902 62.5448ZM124.123 59.4917C121.074 62.9444 116.497 64.6231 112.902 62.5448L111.901 64.2763C116.681 67.0399 122.267 64.6141 125.622 60.8157L124.123 59.4917ZM128.176 49.7722C127.659 53.217 126.325 56.9987 124.123 59.4917L125.622 60.8157C128.173 57.927 129.605 53.7248 130.154 50.0688L128.176 49.7722ZM111.787 49.9432C113.083 48.3851 114.924 47.5349 117.09 47.0821C119.267 46.6268 121.672 46.593 124.013 46.593V44.593C121.689 44.593 119.088 44.6211 116.68 45.1244C114.261 45.6303 111.937 46.6355 110.25 48.6644L111.787 49.9432ZM83.6736 61.7869C86.2308 63.5299 89.2593 64.5182 92.3307 64.7002L92.449 62.7037C89.7204 62.5421 87.0439 61.6637 84.8001 60.1343L83.6736 61.7869ZM77.2337 51.2424C77.9198 54.1532 78.967 57.231 81.1319 59.5955L82.607 58.2449C80.7965 56.2675 79.8448 53.6027 79.1804 50.7835L77.2337 51.2424ZM109.84 55.0794C110.039 53.4379 110.471 51.8776 111.308 50.5947L109.632 49.5025C108.569 51.1344 108.074 53.0264 107.855 54.8391L109.84 55.0794ZM104.454 43.6665C102.489 40.4373 99.1023 38.5006 95.896 37.0932L95.0921 38.9245C98.2188 40.2969 101.116 42.0279 102.746 44.7064L104.454 43.6665ZM105.927 53.4731C106.267 51.6604 106.34 49.7667 106.012 47.9081L104.042 48.2556C104.321 49.8368 104.265 51.4843 103.961 53.1046L105.927 53.4731Z" fill="#006389"/>
</svg>
