<svg width="41" height="42" viewBox="0 0 41 42" fill="none" xmlns="http://www.w3.org/2000/svg">
<circle cx="20.5316" cy="20.4738" r="19.0327" fill="#DFB08A"/>
<path d="M31.6056 30.2026H7.81564C7.37994 30.2026 7.02673 29.8494 7.02673 29.4137C7.02673 28.978 7.37994 28.6248 7.81564 28.6248H23.3705L24.3994 23.3464C24.6256 22.1856 23.8007 21.083 22.6233 20.9725L11.381 19.917V21.3236C11.381 21.627 11.135 21.873 10.8315 21.873V22.4527C10.8315 23.1481 10.5041 23.803 9.94773 24.2202C9.51304 23.7964 9.2679 23.215 9.2679 22.6079V21.873C9.04088 21.873 8.85685 21.689 8.85685 21.462V20.7372V15.4366C8.85685 15.1251 9.10936 14.8726 9.42086 14.8726V13.9394C9.42086 13.8282 9.45839 13.7202 9.52737 13.6329C9.62111 13.5143 9.76398 13.4451 9.91516 13.4451H10.125C10.2723 13.4451 10.413 13.5056 10.5143 13.6124C10.6088 13.7121 10.6615 13.8442 10.6615 13.9816V14.8726C11.0589 14.8726 11.381 15.1947 11.381 15.592V15.909L24.6559 14.6887L26.4651 14.5632V13.116H25.9422C25.6661 13.116 25.4422 12.8921 25.4422 12.616V9.87963C25.4422 9.66092 25.5837 9.46362 25.7969 9.41516C26.238 9.31492 26.5774 9.32433 26.9824 9.41602C27.1981 9.46484 27.3425 9.66356 27.3425 9.88467V12.616C27.3425 12.8921 27.1187 13.116 26.8425 13.116H26.4651V14.5632L27.1165 14.518C28.8509 14.3977 30.3241 15.7722 30.3241 17.5108V17.8999H32.0605V14.8017C32.0605 14.6294 32.1472 14.4649 32.3031 14.3917C32.7881 14.1642 33.2476 14.1863 33.8251 14.4014C34.0099 14.4702 34.1247 14.6517 34.1247 14.8489V22.2761C34.1247 22.4653 34.0192 22.6418 33.8441 22.7134C33.3194 22.9281 32.9335 22.919 32.3643 22.708C32.1777 22.6388 32.0605 22.456 32.0605 22.2569V19.3415H30.3241V28.6248H31.6056C32.0413 28.6248 32.3945 28.978 32.3945 29.4137C32.3945 29.8494 32.0413 30.2026 31.6056 30.2026Z" fill="#A3E0FB"/>
<path d="M24.3994 23.3464L24.8902 23.442L24.3994 23.3464ZM22.6233 20.9725L22.67 20.4747L22.6233 20.9725ZM9.44773 26.6336C9.44773 26.9098 9.67159 27.1336 9.94773 27.1336C10.2239 27.1336 10.4477 26.9098 10.4477 26.6336H9.44773ZM24.6559 14.6887L24.6213 14.1897L24.6101 14.1908L24.6559 14.6887ZM32.3031 14.3917L32.5155 14.8444L32.5155 14.8444L32.3031 14.3917ZM33.8251 14.4014L33.6507 14.8699H33.6507L33.8251 14.4014ZM33.8441 22.7134L34.0334 23.1762L34.0334 23.1762L33.8441 22.7134ZM32.3643 22.708L32.5381 22.2392L32.3643 22.708ZM27.1165 14.518L27.1511 15.0168L27.1165 14.518ZM25.7969 9.41516L25.9077 9.90273V9.90273L25.7969 9.41516ZM26.9824 9.41602L26.872 9.90368V9.90368L26.9824 9.41602ZM10.5143 13.6124L10.8771 13.2683L10.8771 13.2683L10.5143 13.6124ZM9.52737 13.6329L9.91963 13.943L9.91963 13.943L9.52737 13.6329ZM7.81564 30.7026H31.6056V29.7026H7.81564V30.7026ZM23.3705 28.1248H7.81564V29.1248H23.3705V28.1248ZM23.8613 28.7205L24.8902 23.442L23.9086 23.2507L22.8797 28.5291L23.8613 28.7205ZM22.67 20.4747L11.4277 19.4192L11.3342 20.4149L22.5765 21.4703L22.67 20.4747ZM10.881 19.917V21.3236H11.881V19.917H10.881ZM9.35685 21.462V20.7372H8.35685V21.462H9.35685ZM8.7679 21.873V22.6079H9.7679V21.873H8.7679ZM10.8315 21.373H9.2679V22.373H10.8315V21.373ZM11.3315 22.4527V21.873H10.3315V22.4527H11.3315ZM9.44773 24.2202V26.6336H10.4477V24.2202H9.44773ZM8.35685 15.4366V20.7372H9.35685V15.4366H8.35685ZM9.92086 14.8726V13.9394H8.92086V14.8726H9.92086ZM9.91516 13.9451H10.125V12.9451H9.91516V13.9451ZM10.6615 14.3726H9.42086V15.3726H10.6615V14.3726ZM10.1615 13.9816V14.8726H11.1615V13.9816H10.1615ZM11.881 19.917V15.909H10.881V19.917H11.881ZM11.881 15.909V15.592H10.881V15.909H11.881ZM24.6101 14.1908L11.3352 15.4111L11.4267 16.4069L24.7017 15.1866L24.6101 14.1908ZM32.5155 14.8444C32.844 14.6903 33.1577 14.6864 33.6507 14.8699L33.9996 13.9328C33.3376 13.6863 32.7321 13.6382 32.0908 13.939L32.5155 14.8444ZM33.6247 14.8489V22.2761H34.6247V14.8489H33.6247ZM33.6548 22.2507C33.4368 22.3398 33.2756 22.3715 33.1248 22.3703C32.9702 22.3691 32.7917 22.3331 32.5381 22.2392L32.1906 23.1769C32.5062 23.2938 32.8053 23.3679 33.117 23.3703C33.4326 23.3728 33.7267 23.3017 34.0334 23.1762L33.6548 22.2507ZM31.6056 28.1248H30.3241V29.1248H31.6056V28.1248ZM30.3241 28.1248H23.3705V29.1248H30.3241V28.1248ZM27.0819 14.0192L26.4305 14.0644L26.4997 15.062L27.1511 15.0168L27.0819 14.0192ZM26.4305 14.0644L24.6213 14.1899L24.6905 15.1875L26.4997 15.062L26.4305 14.0644ZM26.9651 14.5632V13.116H25.9651V14.5632H26.9651ZM26.4651 12.616H25.9422V13.616H26.4651V12.616ZM25.9422 12.616V9.87963H24.9422V12.616H25.9422ZM25.9077 9.90273C26.2714 9.8201 26.535 9.82738 26.872 9.90368L27.0928 8.92836C26.6198 8.82129 26.2047 8.80974 25.6861 8.92759L25.9077 9.90273ZM26.8425 9.88467V12.616H27.8425V9.88467H26.8425ZM26.8425 12.616H26.4651V13.616H26.8425V12.616ZM30.8241 17.8999V17.5108H29.8241V17.8999H30.8241ZM32.5605 17.8999V14.8017H31.5605V17.8999H32.5605ZM30.3241 18.3999H32.0605V17.3999H30.3241V18.3999ZM30.8241 28.6248V19.3415H29.8241V28.6248H30.8241ZM30.8241 19.3415V17.8999H29.8241V19.3415H30.8241ZM32.5605 22.2569V19.3415H31.5605V22.2569H32.5605ZM32.5605 19.3415V17.8999H31.5605V19.3415H32.5605ZM30.3241 19.8415H32.0605V18.8415H30.3241V19.8415ZM26.8425 12.616V12.616V13.616C27.3948 13.616 27.8425 13.1683 27.8425 12.616H26.8425ZM25.9422 9.87963C25.9422 9.87751 25.9431 9.87893 25.9397 9.88348C25.9377 9.88608 25.9341 9.88999 25.9282 9.89391C25.922 9.89801 25.9148 9.90112 25.9077 9.90273L25.6861 8.92759C25.2205 9.03341 24.9422 9.45384 24.9422 9.87963H25.9422ZM32.5381 22.2392C32.5431 22.241 32.5478 22.2438 32.5517 22.2469C32.5555 22.2499 32.5577 22.2528 32.559 22.2546C32.5612 22.2579 32.5605 22.2587 32.5605 22.2569H31.5605C31.5605 22.6471 31.7915 23.0289 32.1906 23.1769L32.5381 22.2392ZM33.6507 14.8699C33.645 14.8678 33.6395 14.8647 33.6351 14.861C33.6307 14.8575 33.6281 14.8542 33.6266 14.852C33.624 14.848 33.6247 14.8469 33.6247 14.8489H34.6247C34.6247 14.4633 34.3986 14.0814 33.9996 13.9328L33.6507 14.8699ZM10.1515 13.9565C10.158 13.9633 10.1615 13.9723 10.1615 13.9816H11.1615C11.1615 13.7162 11.0597 13.4609 10.8771 13.2683L10.1515 13.9565ZM10.125 13.9451C10.1351 13.9451 10.1446 13.9492 10.1515 13.9565L10.8771 13.2683C10.6814 13.062 10.4094 12.9451 10.125 12.9451V13.9451ZM9.91963 13.943C9.91855 13.9443 9.9169 13.9451 9.91516 13.9451V12.9451C9.61106 12.9451 9.32368 13.0843 9.13511 13.3229L9.91963 13.943ZM9.92086 13.9394C9.92086 13.9407 9.92043 13.9419 9.91963 13.943L9.13511 13.3229C8.99635 13.4984 8.92086 13.7156 8.92086 13.9394H9.92086ZM9.35685 15.4366C9.35685 15.4013 9.38551 15.3726 9.42086 15.3726V14.3726C8.83322 14.3726 8.35685 14.849 8.35685 15.4366H9.35685ZM27.1511 15.0168C28.5964 14.9165 29.8241 16.062 29.8241 17.5108H30.8241C30.8241 15.4824 29.1053 13.8788 27.0819 14.0192L27.1511 15.0168ZM8.35685 21.462C8.35685 21.9651 8.76474 22.373 9.2679 22.373V21.373C9.31702 21.373 9.35685 21.4128 9.35685 21.462H8.35685ZM10.881 21.3236C10.881 21.3509 10.8588 21.373 10.8315 21.373V22.373C11.4111 22.373 11.881 21.9031 11.881 21.3236H10.881ZM32.0908 13.939C31.7278 14.1093 31.5605 14.473 31.5605 14.8017H32.5605C32.5605 14.798 32.5617 14.8002 32.5572 14.8081C32.5518 14.8176 32.5385 14.8336 32.5155 14.8444L32.0908 13.939ZM31.6056 30.7026C32.3174 30.7026 32.8945 30.1256 32.8945 29.4137H31.8945C31.8945 29.5733 31.7651 29.7026 31.6056 29.7026V30.7026ZM26.872 9.90368C26.8659 9.90229 26.8596 9.8996 26.8543 9.89606C26.8492 9.89269 26.8461 9.88938 26.8445 9.88726C26.8417 9.88361 26.8425 9.88263 26.8425 9.88467H27.8425C27.8425 9.45316 27.5582 9.03371 27.0928 8.92836L26.872 9.90368ZM10.2477 24.6202C10.93 24.1086 11.3315 23.3055 11.3315 22.4527H10.3315C10.3315 22.9908 10.0782 23.4974 9.64773 23.8202L10.2477 24.6202ZM6.52673 29.4137C6.52673 30.1256 7.1038 30.7026 7.81564 30.7026V29.7026C7.65608 29.7026 7.52673 29.5733 7.52673 29.4137H6.52673ZM7.52673 29.4137C7.52673 29.2542 7.65608 29.1248 7.81564 29.1248V28.1248C7.1038 28.1248 6.52673 28.7019 6.52673 29.4137H7.52673ZM10.6615 15.3726C10.7827 15.3726 10.881 15.4709 10.881 15.592H11.881C11.881 14.9186 11.335 14.3726 10.6615 14.3726V15.3726ZM33.6247 22.2761C33.6247 22.2786 33.6238 22.2774 33.6268 22.2727C33.6304 22.2669 33.6396 22.2569 33.6548 22.2507L34.0334 23.1762C34.4181 23.0188 34.6247 22.6438 34.6247 22.2761H33.6247ZM24.8902 23.442C25.173 21.9911 24.1418 20.6129 22.67 20.4747L22.5765 21.4703C23.4596 21.5532 24.0783 22.3801 23.9086 23.2507L24.8902 23.442ZM25.9422 12.616H24.9422C24.9422 13.1683 25.3899 13.616 25.9422 13.616V12.616ZM8.7679 22.6079C8.7679 23.3498 9.06747 24.0603 9.59868 24.5782L10.2968 23.8622C9.95861 23.5325 9.7679 23.0802 9.7679 22.6079H8.7679ZM32.8945 29.4137C32.8945 28.7019 32.3174 28.1248 31.6056 28.1248V29.1248C31.7651 29.1248 31.8945 29.2542 31.8945 29.4137H32.8945Z" fill="#006389"/>
<circle cx="27.0207" cy="21.627" r="1.03048" stroke="#006389" stroke-width="0.8"/>
<circle cx="27.0213" cy="25.5287" r="1.03048" stroke="#006389" stroke-width="0.8"/>
<path d="M8.11284 4.41222C7.89216 4.57823 7.84784 4.89169 8.01384 5.11237C8.17984 5.33304 8.49331 5.37736 8.71398 5.21136L8.11284 4.41222ZM10.5858 3.96477C10.8241 3.82517 10.9041 3.51885 10.7645 3.2806C10.6249 3.04234 10.3185 2.96237 10.0803 3.10197L10.5858 3.96477ZM8.71398 5.21136C9.31223 4.76133 9.93711 4.34487 10.5858 3.96477L10.0803 3.10197C9.39836 3.50153 8.74157 3.93926 8.11284 4.41222L8.71398 5.21136Z" fill="#006389"/>
<path d="M11.7011 2.29147C11.4511 2.40873 11.3435 2.70646 11.4608 2.95647C11.578 3.20648 11.8758 3.3141 12.1258 3.19684L11.7011 2.29147ZM14.2778 2.34006C14.54 2.25342 14.6824 1.97062 14.5957 1.70843C14.5091 1.44623 14.2263 1.30391 13.9641 1.39056L14.2778 2.34006ZM12.1258 3.19684C12.8217 2.87043 13.5401 2.58386 14.2778 2.34006L13.9641 1.39056C13.1882 1.64693 12.4329 1.94827 11.7011 2.29147L12.1258 3.19684Z" fill="#006389"/>
<path d="M15.7758 0.863678C15.5032 0.90805 15.3182 1.16497 15.3626 1.43752C15.407 1.71008 15.6639 1.89506 15.9365 1.85068L15.7758 0.863678ZM18.1287 1.62038C18.4045 1.6071 18.6174 1.37273 18.6041 1.09691C18.5908 0.821088 18.3565 0.608254 18.0806 0.621532L18.1287 1.62038ZM15.9365 1.85068C16.6559 1.73355 17.3875 1.65606 18.1287 1.62038L18.0806 0.621532C17.3015 0.659041 16.5323 0.74051 15.7758 0.863678L15.9365 1.85068Z" fill="#006389"/>
<path d="M19.9041 0.496897C19.6282 0.50854 19.414 0.741638 19.4256 1.01753C19.4373 1.29343 19.6704 1.50765 19.9463 1.49601L19.9041 0.496897ZM21.856 1.5079C22.1317 1.52289 22.3674 1.31153 22.3824 1.03579C22.3974 0.760056 22.1861 0.52437 21.9103 0.509371L21.856 1.5079ZM19.9463 1.49601C20.5762 1.46942 21.2132 1.47293 21.856 1.5079L21.9103 0.509371C21.2354 0.472656 20.5661 0.468958 19.9041 0.496897L19.9463 1.49601Z" fill="#006389"/>
<path d="M24.1818 0.837789C23.9102 0.788103 23.6497 0.968029 23.6 1.23967C23.5504 1.5113 23.7303 1.77178 24.0019 1.82147L24.1818 0.837789ZM25.8617 2.25559C26.1273 2.33122 26.4039 2.17723 26.4795 1.91165C26.5552 1.64607 26.4012 1.36946 26.1356 1.29382L25.8617 2.25559ZM24.0019 1.82147C24.6221 1.9349 25.2426 2.07927 25.8617 2.25559L26.1356 1.29382C25.4855 1.10868 24.8336 0.957005 24.1818 0.837789L24.0019 1.82147Z" fill="#006389"/>
<path d="M27.9918 1.95062C27.735 1.84915 27.4445 1.97508 27.343 2.2319C27.2416 2.48872 27.3675 2.77918 27.6243 2.88066L27.9918 1.95062ZM29.3645 3.66757C29.6103 3.79332 29.9115 3.69597 30.0373 3.45012C30.163 3.20427 30.0657 2.90303 29.8198 2.77728L29.3645 3.66757ZM27.6243 2.88066C28.2107 3.11233 28.7913 3.37442 29.3645 3.66757L29.8198 2.77728C29.218 2.46945 28.608 2.1941 27.9918 1.95062L27.6243 2.88066Z" fill="#006389"/>
<path d="M31.9419 4.07463C31.715 3.91727 31.4035 3.97365 31.2461 4.20056C31.0888 4.42748 31.1452 4.739 31.3721 4.89637L31.9419 4.07463ZM32.8869 6.05935C33.0976 6.23785 33.4131 6.21176 33.5916 6.00106C33.7701 5.79037 33.744 5.47486 33.5333 5.29636L32.8869 6.05935ZM31.3721 4.89637C31.8901 5.25564 32.3958 5.64324 32.8869 6.05935L33.5333 5.29636C33.0176 4.85941 32.4864 4.45221 31.9419 4.07463L31.3721 4.89637Z" fill="#006389"/>
<path d="M34.7102 6.3812C34.5114 6.18952 34.1949 6.19526 34.0032 6.39403C33.8115 6.5928 33.8172 6.90933 34.016 7.10102L34.7102 6.3812ZM35.3249 8.49168C35.5043 8.70163 35.8199 8.72642 36.0299 8.54705C36.2398 8.36767 36.2646 8.05206 36.0852 7.84211L35.3249 8.49168ZM34.016 7.10102C34.4698 7.53865 34.9068 8.00225 35.3249 8.49168L36.0852 7.84211C35.6462 7.32817 35.1871 6.84114 34.7102 6.3812L34.016 7.10102Z" fill="#006389"/>
<path d="M40.3971 17.0623C40.348 16.7906 40.0879 16.61 39.8162 16.6591C39.5444 16.7082 39.3639 16.9683 39.413 17.24L40.3971 17.0623ZM39.661 19.1336C39.6837 19.4088 39.9252 19.6136 40.2004 19.5909C40.4756 19.5683 40.6803 19.3268 40.6577 19.0516L39.661 19.1336ZM39.413 17.24C39.525 17.8604 39.6082 18.4921 39.661 19.1336L40.6577 19.0516C40.6022 18.3779 40.5148 17.7143 40.3971 17.0623L39.413 17.24Z" fill="#006389"/>
<path d="M39.4558 13.2023C39.3645 12.9417 39.0791 12.8045 38.8186 12.8959C38.558 12.9872 38.4208 13.2725 38.5121 13.5331L39.4558 13.2023ZM39.056 15.3638C39.1218 15.632 39.3926 15.7961 39.6608 15.7303C39.9289 15.6644 40.093 15.3937 40.0272 15.1255L39.056 15.3638ZM38.5121 13.5331C38.7207 14.1281 38.9026 14.7387 39.056 15.3638L40.0272 15.1255C39.8661 14.469 39.675 13.8276 39.4558 13.2023L38.5121 13.5331Z" fill="#006389"/>
<path d="M37.6622 9.66547C37.513 9.43308 37.2037 9.3656 36.9713 9.51476C36.7389 9.66392 36.6715 9.97323 36.8206 10.2056L37.6622 9.66547ZM37.7732 11.8609C37.8993 12.1066 38.2007 12.2035 38.4463 12.0775C38.692 11.9514 38.789 11.65 38.6629 11.4043L37.7732 11.8609ZM36.8206 10.2056C37.1612 10.7362 37.4793 11.2881 37.7732 11.8609L38.6629 11.4043C38.3543 10.8029 38.0201 10.2231 37.6622 9.66547L36.8206 10.2056Z" fill="#006389"/>
<path d="M40.7232 20.9333C40.728 20.6572 40.5081 20.4295 40.232 20.4247C39.9559 20.4199 39.7282 20.6399 39.7234 20.916L40.7232 20.9333ZM39.598 22.8216C39.5667 23.096 39.7636 23.3438 40.038 23.3752C40.3124 23.4065 40.5602 23.2095 40.5916 22.9352L39.598 22.8216ZM39.7234 20.916C39.7125 21.5463 39.6711 22.1821 39.598 22.8216L40.5916 22.9352C40.6683 22.2636 40.7118 21.5957 40.7232 20.9333L39.7234 20.916Z" fill="#006389"/>
<path d="M40.3028 24.921C40.3582 24.6504 40.1838 24.3862 39.9133 24.3308C39.6428 24.2753 39.3786 24.4497 39.3231 24.7202L40.3028 24.921ZM38.8496 26.5704C38.7684 26.8343 38.9165 27.1141 39.1804 27.1953C39.4443 27.2766 39.7241 27.1285 39.8054 26.8646L38.8496 26.5704ZM39.3231 24.7202C39.1965 25.3378 39.039 25.9551 38.8496 26.5704L39.8054 26.8646C40.0043 26.2186 40.1697 25.5701 40.3028 24.921L39.3231 24.7202Z" fill="#006389"/>
<path d="M39.2101 28.4438C39.3112 28.1869 39.1849 27.8966 38.9279 27.7955C38.6709 27.6944 38.3807 27.8207 38.2795 28.0777L39.2101 28.4438ZM37.4951 29.8189C37.3697 30.0649 37.4674 30.366 37.7135 30.4914C37.9595 30.6168 38.2606 30.5191 38.386 30.273L37.4951 29.8189ZM38.2795 28.0777C38.0487 28.6643 37.7874 29.2454 37.4951 29.8189L38.386 30.273C38.693 29.6708 38.9675 29.0604 39.2101 28.4438L38.2795 28.0777Z" fill="#006389"/>
<path d="M37.3166 32.0554C37.4697 31.8256 37.4075 31.5152 37.1777 31.3621C36.9479 31.209 36.6375 31.2712 36.4844 31.501L37.3166 32.0554ZM35.35 33.0373C35.1754 33.2513 35.2074 33.5663 35.4214 33.7408C35.6354 33.9154 35.9504 33.8834 36.1249 33.6694L35.35 33.0373ZM36.4844 31.501C36.1349 32.0257 35.7568 32.5385 35.35 33.0373L36.1249 33.6694C36.5521 33.1455 36.9493 32.6068 37.3166 32.0554L36.4844 31.501Z" fill="#006389"/>
<path d="M34.743 35.1789C34.9379 34.9833 34.9372 34.6667 34.7415 34.4718C34.5458 34.277 34.2292 34.2777 34.0344 34.4734L34.743 35.1789ZM32.623 35.76C32.4102 35.936 32.3804 36.2511 32.5564 36.4639C32.7324 36.6767 33.0476 36.7065 33.2603 36.5305L32.623 35.76ZM34.0344 34.4734C33.5896 34.9201 33.119 35.3497 32.623 35.76L33.2603 36.5305C33.7812 36.0997 34.2755 35.6485 34.743 35.1789L34.0344 34.4734Z" fill="#006389"/>
<path d="M31.533 37.7563C31.7601 37.5992 31.8169 37.2877 31.6598 37.0606C31.5026 36.8335 31.1912 36.7768 30.9641 36.9339L31.533 37.7563ZM29.3428 37.9432C29.1016 38.0776 29.0151 38.3822 29.1496 38.6234C29.2841 38.8645 29.5886 38.951 29.8298 38.8165L29.3428 37.9432ZM30.9641 36.9339C30.4456 37.2926 29.905 37.6296 29.3428 37.9432L29.8298 38.8165C30.4202 38.4873 30.9881 38.1332 31.533 37.7563L30.9641 36.9339Z" fill="#006389"/>
<path d="M27.5045 39.8084C27.761 39.7061 27.886 39.4152 27.7837 39.1587C27.6814 38.9022 27.3905 38.7772 27.134 38.8795L27.5045 39.8084ZM25.328 39.5004C25.0628 39.5775 24.9104 39.855 24.9875 40.1201C25.0646 40.3853 25.3421 40.5377 25.6072 40.4606L25.328 39.5004ZM27.134 38.8795C26.5485 39.1131 25.9461 39.3206 25.328 39.5004L25.6072 40.4606C26.2563 40.2719 26.8891 40.0538 27.5045 39.8084L27.134 38.8795Z" fill="#006389"/>
<path d="M23.1711 40.8901C23.4446 40.8519 23.6353 40.5992 23.597 40.3257C23.5587 40.0522 23.306 39.8615 23.0325 39.8998L23.1711 40.8901ZM21.1306 40.0727C20.8547 40.0844 20.6406 40.3176 20.6523 40.5935C20.664 40.8694 20.8972 41.0835 21.1731 41.0718L21.1306 40.0727ZM23.0325 39.8998C22.4082 39.9872 21.7737 40.0453 21.1306 40.0727L21.1731 41.0718C21.8485 41.043 22.5149 40.982 23.1711 40.8901L23.0325 39.8998Z" fill="#006389"/>
<path d="M18.8856 41.0095C19.1612 41.0272 19.3989 40.8182 19.4166 40.5426C19.4343 40.267 19.2253 40.0293 18.9497 40.0116L18.8856 41.0095ZM17.052 39.7971C16.7794 39.7529 16.5226 39.938 16.4785 40.2106C16.4343 40.4832 16.6194 40.74 16.892 40.7842L17.052 39.7971ZM18.9497 40.0116C18.3206 39.9712 17.6875 39.9 17.052 39.7971L16.892 40.7842C17.5593 40.8923 18.2244 40.967 18.8856 41.0095L18.9497 40.0116Z" fill="#006389"/>
<path d="M13.9583 39.8495C14.2171 39.9458 14.505 39.8141 14.6014 39.5553C14.6977 39.2965 14.566 39.0086 14.3072 38.9123L13.9583 39.8495ZM12.5517 38.1603C12.3034 38.0395 12.0041 38.1428 11.8833 38.3911C11.7625 38.6394 11.8658 38.9387 12.1142 39.0595L12.5517 38.1603ZM14.3072 38.9123C13.7163 38.6924 13.1305 38.4419 12.5517 38.1603L12.1142 39.0595C12.722 39.3552 13.3374 39.6183 13.9583 39.8495L14.3072 38.9123Z" fill="#006389"/>
<path d="M9.66643 37.7775C9.90177 37.9219 10.2097 37.8482 10.3541 37.6129C10.4986 37.3776 10.4249 37.0697 10.1896 36.9252L9.66643 37.7775ZM8.61218 35.8486C8.39185 35.6821 8.0783 35.7258 7.91183 35.9461C7.74536 36.1664 7.78903 36.48 8.00935 36.6464L8.61218 35.8486ZM10.1896 36.9252C9.65226 36.5954 9.1258 36.2366 8.61218 35.8486L8.00935 36.6464C8.54869 37.0539 9.10175 37.4308 9.66643 37.7775L10.1896 36.9252Z" fill="#006389"/>
<path d="M6.35965 35.171C6.55739 35.3638 6.87394 35.3597 7.0667 35.162C7.25945 34.9643 7.25541 34.6477 7.05767 34.4549L6.35965 35.171ZM5.75621 33.0573C5.57797 32.8464 5.2625 32.8199 5.05158 32.9981C4.84067 33.1764 4.81419 33.4918 4.99243 33.7027L5.75621 33.0573ZM7.05767 34.4549C6.60622 34.0149 6.17173 33.5489 5.75621 33.0573L4.99243 33.7027C5.42875 34.219 5.88519 34.7085 6.35965 35.171L7.05767 34.4549Z" fill="#006389"/>
<path d="M3.61422 31.8794C3.76638 32.1099 4.07653 32.1733 4.30698 32.0212C4.53742 31.869 4.60088 31.5589 4.44873 31.3284L3.61422 31.8794ZM3.47478 29.6857C3.34554 29.4416 3.04295 29.3486 2.79891 29.4778C2.55488 29.607 2.46182 29.9096 2.59106 30.1537L3.47478 29.6857ZM4.44873 31.3284C4.10135 30.8023 3.77606 30.2545 3.47478 29.6857L2.59106 30.1537C2.90742 30.751 3.24914 31.3265 3.61422 31.8794L4.44873 31.3284Z" fill="#006389"/>
<path d="M1.83493 28.398C1.94507 28.6513 2.23963 28.7673 2.49286 28.6571C2.74609 28.547 2.86209 28.2524 2.75196 27.9992L1.83493 28.398ZM2.0759 26.2131C1.99069 25.9504 1.70867 25.8066 1.44601 25.8918C1.18334 25.977 1.0395 26.259 1.12471 26.5217L2.0759 26.2131ZM2.75196 27.9992C2.50052 27.4211 2.27456 26.8254 2.0759 26.2131L1.12471 26.5217C1.33332 27.1647 1.57068 27.7904 1.83493 28.398L2.75196 27.9992Z" fill="#006389"/>
<path d="M0.634059 24.511C0.69149 24.7811 0.957009 24.9535 1.22711 24.8961C1.49722 24.8387 1.66962 24.5731 1.61219 24.303L0.634059 24.511ZM1.30586 22.418C1.27472 22.1436 1.02706 21.9464 0.752674 21.9775C0.478293 22.0087 0.2811 22.2563 0.312233 22.5307L1.30586 22.418ZM1.61219 24.303C1.48108 23.6864 1.37843 23.0576 1.30586 22.418L0.312233 22.5307C0.388443 23.2024 0.496261 23.8629 0.634059 24.511L1.61219 24.303Z" fill="#006389"/>
<path d="M0.232891 20.2839C0.235534 20.5601 0.461523 20.7818 0.737653 20.7791C1.01378 20.7765 1.23549 20.5505 1.23285 20.2744L0.232891 20.2839ZM1.30699 18.366C1.33097 18.0909 1.1274 17.8485 0.852303 17.8245C0.577204 17.8005 0.334752 18.0041 0.310771 18.2792L1.30699 18.366ZM1.23285 20.2744C1.22681 19.6439 1.25109 19.0073 1.30699 18.366L0.310771 18.2792C0.252068 18.9526 0.226551 19.6214 0.232891 20.2839L1.23285 20.2744Z" fill="#006389"/>
<path d="M0.814754 15.6532C0.763272 15.9245 0.941469 16.1862 1.21277 16.2377C1.48407 16.2892 1.74574 16.111 1.79722 15.8397L0.814754 15.6532ZM2.24364 13.9828C2.32103 13.7177 2.16888 13.4401 1.9038 13.3627C1.63873 13.2853 1.3611 13.4375 1.28371 13.7025L2.24364 13.9828ZM1.79722 15.8397C1.91476 15.2203 2.06323 14.6007 2.24364 13.9828L1.28371 13.7025C1.09427 14.3514 0.938282 15.0023 0.814754 15.6532L1.79722 15.8397Z" fill="#006389"/>
<path d="M2.34821 11.2113C2.22309 11.4574 2.32122 11.7584 2.56739 11.8835C2.81356 12.0087 3.11455 11.9105 3.23967 11.6644L2.34821 11.2113ZM4.18634 10.0057C4.3346 9.77274 4.26593 9.4637 4.03297 9.31544C3.8 9.16718 3.49095 9.23585 3.34269 9.46881L4.18634 10.0057ZM3.23967 11.6644C3.52532 11.1023 3.84072 10.5488 4.18634 10.0057L3.34269 9.46881C2.97977 10.0391 2.64842 10.6206 2.34821 11.2113L3.23967 11.6644Z" fill="#006389"/>
<path d="M5.02821 7.05611C4.84447 7.26226 4.86264 7.57832 5.06879 7.76205C5.27493 7.94579 5.59099 7.92762 5.77473 7.72148L5.02821 7.05611ZM7.11292 6.35894C7.31567 6.17146 7.32805 5.85512 7.14057 5.65237C6.95309 5.44962 6.63675 5.43725 6.434 5.62473L7.11292 6.35894ZM5.77473 7.72148C6.19421 7.25083 6.64029 6.79598 7.11292 6.35894L6.434 5.62473C5.9377 6.08366 5.46907 6.56148 5.02821 7.05611L5.77473 7.72148Z" fill="#006389"/>
</svg>
