<svg width="129" height="207" viewBox="0 0 129 207" fill="none" xmlns="http://www.w3.org/2000/svg">
<path d="M12.2352 125.593C13.4352 125.593 14.4552 125.763 15.2952 126.103C16.1352 126.443 16.9552 126.923 17.7552 127.543C17.9752 127.723 18.1652 127.813 18.3252 127.813C18.7252 127.813 18.9852 127.213 19.1052 126.013H19.7952C19.7152 127.313 19.6752 129.613 19.6752 132.913H18.9852C18.7652 131.613 18.5652 130.683 18.3852 130.123C18.2052 129.543 17.9052 128.993 17.4852 128.473C16.8852 127.693 16.1152 127.113 15.1752 126.733C14.2552 126.333 13.2552 126.133 12.1752 126.133C10.8752 126.133 9.73523 126.563 8.75523 127.423C7.79523 128.283 7.04523 129.513 6.50522 131.113C5.96522 132.693 5.69522 134.553 5.69522 136.693C5.69522 138.873 5.98522 140.743 6.56522 142.303C7.14522 143.863 7.94523 145.053 8.96523 145.873C10.0052 146.673 11.1752 147.073 12.4752 147.073C13.4752 147.073 14.4452 146.883 15.3852 146.503C16.3252 146.123 17.0652 145.553 17.6052 144.793C18.0052 144.233 18.2952 143.633 18.4752 142.993C18.6552 142.353 18.8252 141.373 18.9852 140.053H19.6752C19.6752 143.493 19.7152 145.893 19.7952 147.253H19.1052C19.0452 146.613 18.9552 146.163 18.8352 145.903C18.7352 145.623 18.5852 145.483 18.3852 145.483C18.2252 145.483 18.0152 145.563 17.7552 145.723C16.8552 146.363 15.9952 146.853 15.1752 147.193C14.3552 147.513 13.3652 147.673 12.2052 147.673C10.3052 147.673 8.63522 147.243 7.19522 146.383C5.77522 145.523 4.66522 144.283 3.86522 142.663C3.08522 141.023 2.69522 139.073 2.69522 136.813C2.69522 134.613 3.09522 132.663 3.89522 130.963C4.71522 129.263 5.84522 127.943 7.28523 127.003C8.74523 126.063 10.3952 125.593 12.2352 125.593ZM35.6495 143.653C35.2895 144.753 34.6095 145.703 33.6095 146.503C32.6295 147.283 31.4395 147.673 30.0395 147.673C28.6195 147.673 27.3895 147.353 26.3495 146.713C25.3095 146.053 24.5095 145.143 23.9495 143.983C23.4095 142.803 23.1395 141.443 23.1395 139.903C23.1395 138.163 23.4195 136.653 23.9795 135.373C24.5395 134.093 25.3295 133.113 26.3495 132.433C27.3695 131.733 28.5595 131.383 29.9195 131.383C31.7195 131.383 33.0995 131.933 34.0595 133.033C35.0395 134.113 35.5295 135.763 35.5295 137.983H26.1395C26.0795 138.543 26.0495 139.183 26.0495 139.903C26.0495 141.223 26.2595 142.373 26.6795 143.353C27.1195 144.333 27.6895 145.093 28.3895 145.633C29.1095 146.153 29.8595 146.413 30.6395 146.413C31.5995 146.413 32.4495 146.183 33.1895 145.723C33.9295 145.263 34.5495 144.493 35.0495 143.413L35.6495 143.653ZM29.7995 131.953C28.8595 131.953 28.0495 132.413 27.3695 133.333C26.6895 134.253 26.2695 135.613 26.1095 137.413H32.6495C32.6895 135.853 32.4595 134.553 31.9595 133.513C31.4795 132.473 30.7595 131.953 29.7995 131.953ZM47.1353 131.383C47.9353 131.383 48.5853 131.613 49.0853 132.073C49.6053 132.533 49.8653 133.093 49.8653 133.753C49.8653 134.273 49.7053 134.723 49.3853 135.103C49.0853 135.463 48.6753 135.643 48.1553 135.643C47.7153 135.643 47.3353 135.503 47.0153 135.223C46.7153 134.943 46.5653 134.563 46.5653 134.083C46.5653 133.423 46.9053 132.883 47.5853 132.463C47.4453 132.263 47.2353 132.163 46.9553 132.163C46.1753 132.163 45.4653 132.473 44.8253 133.093C44.1853 133.693 43.6853 134.433 43.3253 135.313C42.9653 136.193 42.7853 137.023 42.7853 137.803V144.163C42.7853 145.083 43.0453 145.723 43.5653 146.083C44.1053 146.443 44.9053 146.623 45.9653 146.623V147.253L45.2453 147.223C43.2053 147.163 41.9053 147.133 41.3453 147.133C40.8253 147.133 39.6453 147.173 37.8053 147.253V146.623C38.6453 146.623 39.2353 146.473 39.5753 146.173C39.9153 145.853 40.0853 145.283 40.0853 144.463V135.073C40.0853 134.153 39.9153 133.483 39.5753 133.063C39.2353 132.643 38.6453 132.433 37.8053 132.433V131.803C38.4453 131.863 39.0653 131.893 39.6653 131.893C40.9253 131.893 41.9653 131.753 42.7853 131.473V135.223C43.1453 134.223 43.7153 133.333 44.4953 132.553C45.2953 131.773 46.1753 131.383 47.1353 131.383ZM55.9947 131.833H60.4347V132.433H55.9947V144.043C55.9947 144.943 56.1547 145.593 56.4747 145.993C56.8147 146.393 57.2947 146.593 57.9147 146.593C58.5347 146.593 59.0647 146.343 59.5047 145.843C59.9447 145.343 60.3147 144.523 60.6147 143.383L61.2147 143.533C60.7147 146.293 59.4147 147.673 57.3147 147.673C56.6347 147.673 56.0747 147.593 55.6347 147.433C55.1947 147.273 54.8047 147.023 54.4647 146.683C54.0247 146.243 53.7147 145.703 53.5347 145.063C53.3747 144.423 53.2947 143.563 53.2947 142.483V132.433H50.4147V131.833H53.2947V127.243C54.4147 127.203 55.3147 127.063 55.9947 126.823V131.833ZM65.1901 124.303C65.7101 124.303 66.1601 124.493 66.5401 124.873C66.9201 125.253 67.1101 125.703 67.1101 126.223C67.1101 126.743 66.9201 127.193 66.5401 127.573C66.1601 127.953 65.7101 128.143 65.1901 128.143C64.6701 128.143 64.2201 127.953 63.8401 127.573C63.4601 127.193 63.2701 126.743 63.2701 126.223C63.2701 125.703 63.4601 125.253 63.8401 124.873C64.2201 124.493 64.6701 124.303 65.1901 124.303ZM66.7501 144.463C66.7501 145.283 66.9201 145.853 67.2601 146.173C67.6001 146.473 68.1901 146.623 69.0301 146.623V147.253C67.1901 147.173 65.9801 147.133 65.4001 147.133C64.8201 147.133 63.6101 147.173 61.7701 147.253V146.623C62.6101 146.623 63.2001 146.473 63.5401 146.173C63.8801 145.853 64.0501 145.283 64.0501 144.463V135.073C64.0501 134.153 63.8801 133.483 63.5401 133.063C63.2001 132.643 62.6101 132.433 61.7701 132.433V131.803C62.4101 131.863 63.0301 131.893 63.6301 131.893C64.8901 131.893 65.9301 131.753 66.7501 131.473V144.463ZM80.6392 123.793C81.4592 123.793 82.2192 123.873 82.9192 124.033C83.6392 124.193 84.2192 124.413 84.6592 124.693C85.3392 125.113 85.6792 125.663 85.6792 126.343C85.6792 126.883 85.4892 127.343 85.1092 127.723C84.7292 128.103 84.2792 128.293 83.7592 128.293C83.2392 128.293 82.7892 128.103 82.4092 127.723C82.0292 127.343 81.8392 126.893 81.8392 126.373C81.8392 126.013 81.9292 125.683 82.1092 125.383C82.2892 125.083 82.5292 124.853 82.8292 124.693C82.3692 124.393 81.6392 124.243 80.6392 124.243C78.6592 124.243 77.2392 125.013 76.3792 126.553C76.0792 127.073 75.8692 127.733 75.7492 128.533C75.6292 129.313 75.5692 130.413 75.5692 131.833H80.3992C81.6592 131.833 82.6392 131.813 83.3392 131.773C84.0592 131.713 84.7392 131.613 85.3792 131.473V144.463C85.3792 145.283 85.5492 145.853 85.8892 146.173C86.2292 146.473 86.8192 146.623 87.6592 146.623V147.253C85.8192 147.173 84.6092 147.133 84.0292 147.133C83.4492 147.133 82.2392 147.173 80.3992 147.253V146.623C81.2392 146.623 81.8292 146.473 82.1692 146.173C82.5092 145.853 82.6792 145.283 82.6792 144.463V135.073C82.6792 134.153 82.5092 133.483 82.1692 133.063C81.8292 132.643 81.2392 132.433 80.3992 132.433H75.5692V144.463C75.5692 145.283 75.7792 145.853 76.1992 146.173C76.6392 146.473 77.2892 146.623 78.1492 146.623V147.253L77.4892 147.223C75.7492 147.163 74.6592 147.133 74.2192 147.133C73.6392 147.133 72.4292 147.173 70.5892 147.253V146.623C71.4292 146.623 72.0192 146.473 72.3592 146.173C72.6992 145.853 72.8692 145.283 72.8692 144.463V132.433H70.4692V131.833H72.8692C72.8692 129.133 73.5892 127.103 75.0292 125.743C75.6492 125.163 76.4292 124.693 77.3692 124.333C78.3092 123.973 79.3992 123.793 80.6392 123.793ZM102.153 143.653C101.793 144.753 101.113 145.703 100.113 146.503C99.1334 147.283 97.9434 147.673 96.5434 147.673C95.1234 147.673 93.8934 147.353 92.8534 146.713C91.8134 146.053 91.0134 145.143 90.4534 143.983C89.9134 142.803 89.6434 141.443 89.6434 139.903C89.6434 138.163 89.9234 136.653 90.4834 135.373C91.0434 134.093 91.8334 133.113 92.8534 132.433C93.8734 131.733 95.0634 131.383 96.4234 131.383C98.2234 131.383 99.6034 131.933 100.563 133.033C101.543 134.113 102.033 135.763 102.033 137.983H92.6434C92.5834 138.543 92.5534 139.183 92.5534 139.903C92.5534 141.223 92.7634 142.373 93.1834 143.353C93.6234 144.333 94.1934 145.093 94.8934 145.633C95.6134 146.153 96.3634 146.413 97.1434 146.413C98.1034 146.413 98.9534 146.183 99.6934 145.723C100.433 145.263 101.053 144.493 101.553 143.413L102.153 143.653ZM96.3034 131.953C95.3634 131.953 94.5534 132.413 93.8734 133.333C93.1934 134.253 92.7734 135.613 92.6134 137.413H99.1534C99.1934 135.853 98.9634 134.553 98.4634 133.513C97.9834 132.473 97.2634 131.953 96.3034 131.953ZM117.959 143.983C117.959 144.903 118.129 145.573 118.469 145.993C118.809 146.413 119.399 146.623 120.239 146.623V147.253C119.619 147.193 118.999 147.163 118.379 147.163C117.119 147.163 116.079 147.303 115.259 147.583V144.913C114.899 145.813 114.359 146.503 113.639 146.983C112.919 147.443 112.039 147.673 110.999 147.673C109.079 147.673 107.569 146.983 106.469 145.603C105.389 144.223 104.859 142.203 104.879 139.543C104.879 137.803 105.179 136.323 105.779 135.103C106.399 133.863 107.219 132.933 108.239 132.313C109.279 131.693 110.419 131.383 111.659 131.383C112.419 131.383 113.109 131.533 113.729 131.833C114.369 132.113 114.879 132.553 115.259 133.153V127.333C115.259 126.413 115.089 125.743 114.749 125.323C114.409 124.903 113.819 124.693 112.979 124.693V124.063C113.619 124.123 114.239 124.153 114.839 124.153C116.099 124.153 117.139 124.013 117.959 123.733V143.983ZM111.869 146.773C112.649 146.773 113.349 146.473 113.969 145.873C114.589 145.273 115.019 144.423 115.259 143.323V134.383C114.719 132.843 113.599 132.073 111.899 132.073C110.659 132.073 109.659 132.713 108.899 133.993C108.139 135.253 107.769 137.103 107.789 139.543C107.769 141.943 108.109 143.753 108.809 144.973C109.509 146.173 110.529 146.773 111.869 146.773ZM27.5258 171.383C29.2258 171.383 30.5959 172.083 31.6359 173.483C32.6959 174.883 33.2259 176.903 33.2259 179.543C33.2259 181.283 32.9259 182.763 32.3259 183.983C31.7259 185.203 30.9159 186.123 29.8959 186.743C28.8959 187.363 27.7759 187.673 26.5358 187.673C25.7958 187.673 25.0759 187.523 24.3759 187.223C23.6958 186.923 23.0958 186.493 22.5759 185.933L20.4458 187.733L19.9358 187.523C20.0758 187.023 20.1458 186.443 20.1458 185.783V167.363C20.1458 166.443 19.9758 165.773 19.6358 165.353C19.2958 164.933 18.7058 164.723 17.8658 164.723V164.093C18.5058 164.153 19.1258 164.183 19.7258 164.183C20.9858 164.183 22.0258 164.043 22.8458 163.763V174.593C23.2858 173.573 23.9158 172.783 24.7358 172.223C25.5758 171.663 26.5058 171.383 27.5258 171.383ZM26.2959 186.983C27.6359 186.983 28.6359 186.383 29.2959 185.183C29.9759 183.963 30.3159 182.083 30.3159 179.543C30.3159 177.103 30.0159 175.283 29.4159 174.083C28.8159 172.883 27.8959 172.283 26.6559 172.283C25.8159 172.283 25.0459 172.613 24.3459 173.273C23.6458 173.913 23.1458 174.823 22.8458 176.003V185.513C23.3058 185.993 23.8358 186.363 24.4358 186.623C25.0359 186.863 25.6559 186.983 26.2959 186.983ZM44.8501 171.383C45.6501 171.383 46.3001 171.613 46.8001 172.073C47.3201 172.533 47.5801 173.093 47.5801 173.753C47.5801 174.273 47.4201 174.723 47.1001 175.103C46.8001 175.463 46.3901 175.643 45.8701 175.643C45.4301 175.643 45.0501 175.503 44.7301 175.223C44.4301 174.943 44.2801 174.563 44.2801 174.083C44.2801 173.423 44.6201 172.883 45.3001 172.463C45.1601 172.263 44.9501 172.163 44.6701 172.163C43.8901 172.163 43.1801 172.473 42.5401 173.093C41.9001 173.693 41.4001 174.433 41.0401 175.313C40.6801 176.193 40.5001 177.023 40.5001 177.803V184.163C40.5001 185.083 40.7601 185.723 41.2801 186.083C41.8201 186.443 42.6201 186.623 43.6801 186.623V187.253L42.9601 187.223C40.9201 187.163 39.6201 187.133 39.0601 187.133C38.5401 187.133 37.3601 187.173 35.5201 187.253V186.623C36.3601 186.623 36.9501 186.473 37.2901 186.173C37.6301 185.853 37.8001 185.283 37.8001 184.463V175.073C37.8001 174.153 37.6301 173.483 37.2901 173.063C36.9501 172.643 36.3601 172.433 35.5201 172.433V171.803C36.1601 171.863 36.7801 171.893 37.3801 171.893C38.6401 171.893 39.6801 171.753 40.5001 171.473V175.223C40.8601 174.223 41.4301 173.333 42.2101 172.553C43.0101 171.773 43.8901 171.383 44.8501 171.383ZM52.8995 187.463C51.6395 187.463 50.6995 187.153 50.0795 186.533C49.4795 185.893 49.1795 185.013 49.1795 183.893C49.1795 182.993 49.4195 182.253 49.8995 181.673C50.3995 181.093 50.9795 180.633 51.6395 180.293C52.3195 179.953 53.2095 179.593 54.3095 179.213C55.4295 178.833 56.2595 178.483 56.7995 178.163C57.3395 177.843 57.6095 177.413 57.6095 176.873V175.013C57.6095 173.853 57.3595 173.063 56.8595 172.643C56.3795 172.203 55.6995 171.983 54.8195 171.983C53.4195 171.983 52.4295 172.343 51.8495 173.063C52.2495 173.163 52.5795 173.373 52.8395 173.693C53.1195 174.013 53.2595 174.413 53.2595 174.893C53.2595 175.393 53.0995 175.793 52.7795 176.093C52.4595 176.373 52.0495 176.513 51.5495 176.513C50.9895 176.513 50.5695 176.343 50.2895 176.003C50.0095 175.643 49.8695 175.213 49.8695 174.713C49.8695 174.233 49.9795 173.833 50.1995 173.513C50.4395 173.193 50.7895 172.873 51.2495 172.553C51.7295 172.213 52.3395 171.933 53.0795 171.713C53.8195 171.493 54.6295 171.383 55.5095 171.383C57.0695 171.383 58.2495 171.753 59.0495 172.493C59.5495 172.953 59.8795 173.513 60.0395 174.173C60.2195 174.813 60.3095 175.663 60.3095 176.723V185.063C60.3095 185.563 60.3795 185.923 60.5195 186.143C60.6595 186.363 60.8995 186.473 61.2395 186.473C61.4795 186.473 61.6995 186.423 61.8995 186.323C62.1195 186.203 62.3495 186.043 62.5895 185.843L62.9195 186.353C62.3995 186.753 61.9495 187.043 61.5695 187.223C61.2095 187.383 60.7495 187.463 60.1895 187.463C59.2295 187.463 58.5595 187.223 58.1795 186.743C57.7995 186.263 57.6095 185.613 57.6095 184.793C57.0095 185.793 56.3195 186.493 55.5395 186.893C54.7595 187.273 53.8795 187.463 52.8995 187.463ZM54.2195 186.263C55.5395 186.263 56.6695 185.503 57.6095 183.983V178.103C57.4295 178.383 57.1795 178.613 56.8595 178.793C56.5395 178.973 56.0495 179.213 55.3895 179.513C54.6295 179.833 54.0095 180.143 53.5295 180.443C53.0695 180.723 52.6695 181.113 52.3295 181.613C51.9895 182.113 51.8195 182.753 51.8195 183.533C51.8195 184.433 52.0395 185.113 52.4795 185.573C52.9195 186.033 53.4995 186.263 54.2195 186.263ZM73.9009 171.383C75.3009 171.383 76.3609 171.763 77.0809 172.523C77.4609 172.923 77.7309 173.423 77.8909 174.023C78.0509 174.623 78.1309 175.433 78.1309 176.453V184.463C78.1309 185.283 78.3009 185.853 78.6409 186.173C78.9809 186.473 79.5709 186.623 80.4109 186.623V187.253C78.5709 187.173 77.3709 187.133 76.8109 187.133C76.2509 187.133 75.1309 187.173 73.4509 187.253V186.623C74.1909 186.623 74.7009 186.473 74.9809 186.173C75.2809 185.853 75.4309 185.283 75.4309 184.463V175.793C75.4309 174.673 75.2709 173.823 74.9509 173.243C74.6309 172.643 73.9809 172.343 73.0009 172.343C72.1809 172.343 71.4509 172.583 70.8109 173.063C70.1709 173.543 69.6709 174.203 69.3109 175.043C68.9709 175.863 68.8009 176.783 68.8009 177.803V184.463C68.8009 185.283 68.9409 185.853 69.2209 186.173C69.5209 186.473 70.0409 186.623 70.7809 186.623V187.253C69.1009 187.173 67.9809 187.133 67.4209 187.133C66.8609 187.133 65.6609 187.173 63.8209 187.253V186.623C64.6609 186.623 65.2509 186.473 65.5909 186.173C65.9309 185.853 66.1009 185.283 66.1009 184.463V175.073C66.1009 174.153 65.9309 173.483 65.5909 173.063C65.2509 172.643 64.6609 172.433 63.8209 172.433V171.803C64.4609 171.863 65.0809 171.893 65.6809 171.893C66.9409 171.893 67.9809 171.753 68.8009 171.473V175.013C69.3009 173.733 69.9909 172.813 70.8709 172.253C71.7709 171.673 72.7809 171.383 73.9009 171.383ZM95.3713 183.983C95.3713 184.903 95.5413 185.573 95.8813 185.993C96.2213 186.413 96.8113 186.623 97.6513 186.623V187.253C97.0313 187.193 96.4113 187.163 95.7913 187.163C94.5313 187.163 93.4913 187.303 92.6713 187.583V184.913C92.3113 185.813 91.7713 186.503 91.0513 186.983C90.3313 187.443 89.4513 187.673 88.4113 187.673C86.4913 187.673 84.9813 186.983 83.8813 185.603C82.8013 184.223 82.2713 182.203 82.2913 179.543C82.2913 177.803 82.5913 176.323 83.1913 175.103C83.8113 173.863 84.6313 172.933 85.6513 172.313C86.6913 171.693 87.8313 171.383 89.0713 171.383C89.8313 171.383 90.5213 171.533 91.1413 171.833C91.7813 172.113 92.2913 172.553 92.6713 173.153V167.333C92.6713 166.413 92.5013 165.743 92.1613 165.323C91.8213 164.903 91.2313 164.693 90.3913 164.693V164.063C91.0313 164.123 91.6513 164.153 92.2513 164.153C93.5113 164.153 94.5513 164.013 95.3713 163.733V183.983ZM89.2813 186.773C90.0613 186.773 90.7613 186.473 91.3813 185.873C92.0013 185.273 92.4313 184.423 92.6713 183.323V174.383C92.1313 172.843 91.0113 172.073 89.3113 172.073C88.0713 172.073 87.0713 172.713 86.3113 173.993C85.5513 175.253 85.1813 177.103 85.2013 179.543C85.1813 181.943 85.5213 183.753 86.2213 184.973C86.9213 186.173 87.9413 186.773 89.2813 186.773ZM104.523 171.383C105.243 171.383 105.883 171.493 106.443 171.713C107.003 171.933 107.453 172.193 107.793 172.493C108.013 172.653 108.193 172.733 108.333 172.733C108.693 172.733 108.913 172.293 108.993 171.413H109.683C109.603 172.393 109.563 174.093 109.563 176.513H108.873C108.653 175.193 108.223 174.103 107.583 173.243C106.963 172.383 106.033 171.953 104.793 171.953C104.073 171.953 103.483 172.163 103.023 172.583C102.563 172.983 102.333 173.543 102.333 174.263C102.333 174.963 102.573 175.553 103.053 176.033C103.533 176.493 104.303 177.053 105.363 177.713C105.543 177.813 105.813 177.983 106.173 178.223C107.093 178.823 107.833 179.353 108.393 179.813C108.953 180.273 109.403 180.803 109.743 181.403C110.103 182.003 110.283 182.693 110.283 183.473C110.283 184.793 109.783 185.823 108.783 186.563C107.803 187.303 106.593 187.673 105.153 187.673C104.253 187.673 103.463 187.533 102.783 187.253C102.343 187.033 101.933 186.763 101.553 186.443C101.473 186.363 101.383 186.323 101.283 186.323C101.143 186.323 101.013 186.423 100.893 186.623C100.793 186.823 100.713 187.103 100.653 187.463H99.963C100.043 186.323 100.083 184.323 100.083 181.463H100.773C100.993 183.343 101.393 184.753 101.973 185.693C102.553 186.613 103.543 187.073 104.943 187.073C105.643 187.073 106.263 186.843 106.803 186.383C107.343 185.923 107.613 185.203 107.613 184.223C107.613 183.443 107.343 182.783 106.803 182.243C106.283 181.703 105.423 181.053 104.223 180.293C103.243 179.673 102.483 179.163 101.943 178.763C101.423 178.363 100.983 177.873 100.623 177.293C100.263 176.713 100.083 176.033 100.083 175.253C100.083 173.993 100.503 173.033 101.343 172.373C102.183 171.713 103.243 171.383 104.523 171.383Z" fill="white"/>
<path d="M27.2928 10.9662C26.8514 11.2982 26.7628 11.9251 27.0948 12.3665C27.4268 12.8078 28.0537 12.8965 28.4951 12.5645L27.2928 10.9662ZM33.4684 9.25249C33.9449 8.97329 34.1048 8.36067 33.8256 7.88415C33.5464 7.40764 32.9338 7.24768 32.4573 7.52688L33.4684 9.25249ZM28.4951 12.5645C30.0845 11.3688 31.7448 10.2624 33.4684 9.25249L32.4573 7.52688C30.6673 8.57568 28.9432 9.72468 27.2928 10.9662L28.4951 12.5645Z" fill="#006389"/>
<path d="M36.7097 5.39668C36.2097 5.63118 35.9945 6.22664 36.229 6.72666C36.4635 7.22669 37.0589 7.44193 37.559 7.20743L36.7097 5.39668ZM43.2771 4.93098C43.8015 4.7577 44.0861 4.19212 43.9129 3.66772C43.7396 3.14333 43.174 2.85869 42.6496 3.03198L43.2771 4.93098ZM37.559 7.20743C39.4082 6.34016 41.3168 5.57876 43.2771 4.93098L42.6496 3.03198C40.6132 3.7049 38.6305 4.49584 36.7097 5.39668L37.559 7.20743Z" fill="#006389"/>
<path d="M47.3789 1.65363C46.8336 1.74225 46.4631 2.25598 46.5513 2.80107C46.6394 3.34616 47.1529 3.7162 47.6982 3.62757L47.3789 1.65363ZM53.5236 3.01612C54.0753 2.98952 54.5013 2.52079 54.4752 1.96918C54.4491 1.41758 53.9806 0.991975 53.4289 1.01858L53.5236 3.01612ZM47.6982 3.62757C49.61 3.31682 51.554 3.11108 53.5236 3.01612L53.4289 1.01858C51.3837 1.11718 49.3647 1.33084 47.3789 1.65363L47.6982 3.62757Z" fill="#006389"/>
<path d="M58.2446 0.690229C57.6928 0.713307 57.264 1.17933 57.2869 1.73113C57.3098 2.28292 57.7758 2.71153 58.3276 2.68845L58.2446 0.690229ZM63.4017 2.72061C63.9532 2.75053 64.4246 2.32773 64.4547 1.77626C64.4848 1.2248 64.0621 0.753496 63.5106 0.723582L63.4017 2.72061ZM58.3276 2.68845C60.0012 2.61845 61.6939 2.62798 63.4017 2.72061L63.5106 0.723582C61.7389 0.627473 59.9821 0.617563 58.2446 0.690229L58.3276 2.68845Z" fill="#006389"/>
<path d="M69.4662 1.58118C68.9229 1.48182 68.4012 1.84151 68.3011 2.38456C68.201 2.92762 68.5603 3.4484 69.1037 3.54776L69.4662 1.58118ZM74.0433 4.69871C74.5745 4.84959 75.1282 4.54139 75.2798 4.01034C75.4315 3.47928 75.1237 2.92647 74.5925 2.7756L74.0433 4.69871ZM69.1037 3.54776C70.7508 3.84896 72.3989 4.23174 74.0433 4.69871L74.5925 2.7756C72.8865 2.29113 71.1761 1.89387 69.4662 1.58118L69.1037 3.54776Z" fill="#006389"/>
<path d="M79.4648 4.5068C78.9512 4.30378 78.3702 4.55555 78.1672 5.06916C77.9642 5.58277 78.2159 6.16372 78.7296 6.36674L79.4648 4.5068ZM83.3503 8.45669C83.842 8.70819 84.4445 8.51347 84.696 8.02178C84.9475 7.53009 84.7528 6.92761 84.2611 6.67611L83.3503 8.45669ZM78.7296 6.36674C80.2865 6.9822 81.8285 7.67828 83.3503 8.45669L84.2611 6.67611C82.682 5.8684 81.0815 5.14584 79.4648 4.5068L78.7296 6.36674Z" fill="#006389"/>
<path d="M89.8258 10.076C89.372 9.76131 88.7489 9.87407 88.4342 10.3279C88.1194 10.7817 88.2322 11.4048 88.686 11.7195L89.8258 10.076ZM92.7106 14.8091C93.132 15.1661 93.763 15.1139 94.12 14.6925C94.477 14.2712 94.4248 13.6402 94.0034 13.2832L92.7106 14.8091ZM88.686 11.7195C90.0625 12.674 91.4057 13.7037 92.7106 14.8091L94.0034 13.2832C92.6494 12.1361 91.255 11.0672 89.8258 10.076L88.686 11.7195Z" fill="#006389"/>
<path d="M97.0926 16.1322C96.6951 15.7488 96.062 15.7603 95.6786 16.1578C95.2952 16.5554 95.3067 17.1884 95.7043 17.5718L97.0926 16.1322ZM99.1818 21.2663C99.5405 21.6862 100.172 21.7358 100.592 21.377C101.012 21.0183 101.061 20.3871 100.702 19.9672L99.1818 21.2663ZM95.7043 17.5718C96.91 18.7345 98.0709 19.9661 99.1818 21.2663L100.702 19.9672C99.5497 18.618 98.3446 17.3395 97.0926 16.1322L95.7043 17.5718Z" fill="#006389"/>
<path d="M112.014 44.1562C111.916 43.6127 111.396 43.2517 110.853 43.3498C110.309 43.4479 109.948 43.9681 110.046 44.5116L112.014 44.1562ZM110.705 49.5422C110.751 50.0927 111.234 50.5021 111.784 50.4568C112.334 50.4115 112.744 49.9286 112.699 49.3782L110.705 49.5422ZM110.046 44.5116C110.344 46.1599 110.565 47.8379 110.705 49.5422L112.699 49.3782C112.553 47.6096 112.323 45.8677 112.014 44.1562L110.046 44.5116Z" fill="#006389"/>
<path d="M109.542 34.0204C109.36 33.4993 108.789 33.2249 108.268 33.4076C107.747 33.5903 107.472 34.1609 107.655 34.6821L109.542 34.0204ZM109.1 39.5456C109.232 40.082 109.773 40.4101 110.31 40.2785C110.846 40.1468 111.174 39.6053 111.042 39.069L109.1 39.5456ZM107.655 34.6821C108.209 36.2627 108.692 37.8848 109.1 39.5456L111.042 39.069C110.619 37.3455 110.118 35.6617 109.542 34.0204L107.655 34.6821Z" fill="#006389"/>
<path d="M104.84 24.7502C104.541 24.2854 103.923 24.1504 103.458 24.4487C102.993 24.747 102.858 25.3657 103.156 25.8304L104.84 24.7502ZM105.687 30.2278C105.939 30.7192 106.542 30.9131 107.033 30.661C107.525 30.4089 107.719 29.8061 107.467 29.3148L105.687 30.2278ZM103.156 25.8304C104.061 27.24 104.906 28.7064 105.687 30.2278L107.467 29.3148C106.656 27.736 105.779 26.2138 104.84 24.7502L103.156 25.8304Z" fill="#006389"/>
<path d="M112.866 54.3181C112.876 53.7659 112.436 53.3106 111.883 53.301C111.331 53.2915 110.876 53.7314 110.866 54.2836L112.866 54.3181ZM110.533 59.3463C110.471 59.895 110.865 60.3906 111.413 60.4533C111.962 60.5161 112.458 60.1221 112.52 59.5734L110.533 59.3463ZM110.866 54.2836C110.837 55.9583 110.727 57.6472 110.533 59.3463L112.52 59.5734C112.722 57.8103 112.836 56.0571 112.866 54.3181L110.866 54.2836Z" fill="#006389"/>
<path d="M111.764 64.7828C111.874 64.2418 111.526 63.7133 110.985 63.6025C110.444 63.4916 109.915 63.8403 109.804 64.3813L111.764 64.7828ZM108.546 69.2966C108.384 69.8244 108.68 70.384 109.208 70.5465C109.736 70.709 110.295 70.4129 110.458 69.885L108.546 69.2966ZM109.804 64.3813C109.468 66.0222 109.05 67.6622 108.546 69.2966L110.458 69.885C110.98 68.189 111.414 66.4867 111.764 64.7828L109.804 64.3813Z" fill="#006389"/>
<path d="M108.894 74.0296C109.096 73.5157 108.843 72.9351 108.329 72.7329C107.815 72.5307 107.235 72.7833 107.032 73.2973L108.894 74.0296ZM104.948 77.9231C104.697 78.4151 104.893 79.0173 105.385 79.2682C105.877 79.519 106.479 79.3234 106.73 78.8314L104.948 77.9231ZM107.032 73.2973C106.419 74.8559 105.725 76.3995 104.948 77.9231L106.73 78.8314C107.536 77.2504 108.257 75.648 108.894 74.0296L107.032 73.2973Z" fill="#006389"/>
<path d="M103.925 83.4997C104.231 83.0401 104.107 82.4193 103.647 82.1131C103.188 81.8069 102.567 81.9313 102.261 82.391L103.925 83.4997ZM99.2469 86.4725C98.8978 86.9005 98.9618 87.5304 99.3898 87.8794C99.8178 88.2285 100.448 88.1645 100.797 87.7365L99.2469 86.4725ZM102.261 82.391C101.332 83.785 100.328 85.1472 99.2469 86.4725L100.797 87.7365C101.918 86.3613 102.961 84.9472 103.925 83.4997L102.261 82.391Z" fill="#006389"/>
<path d="M97.1762 91.7004C97.5659 91.3091 97.5645 90.6759 97.1731 90.2863C96.7817 89.8966 96.1485 89.898 95.7589 90.2893L97.1762 91.7004ZM92.0092 93.7073C91.5836 94.0593 91.524 94.6897 91.876 95.1152C92.228 95.5408 92.8584 95.6004 93.2839 95.2485L92.0092 93.7073ZM95.7589 90.2893C94.577 91.4763 93.327 92.6174 92.0092 93.7073L93.2839 95.2485C94.6514 94.1174 95.949 92.9329 97.1762 91.7004L95.7589 90.2893Z" fill="#006389"/>
<path d="M88.7441 98.4641C89.1983 98.1499 89.3119 97.5271 88.9977 97.0728C88.6836 96.6186 88.0607 96.505 87.6064 96.8192L88.7441 98.4641ZM83.3012 99.4987C82.8188 99.7677 82.6458 100.377 82.9148 100.859C83.1838 101.341 83.7929 101.514 84.2753 101.245L83.3012 99.4987ZM87.6064 96.8192C86.2295 97.7714 84.794 98.6663 83.3012 99.4987L84.2753 101.245C85.8243 100.382 87.3144 99.4528 88.7441 98.4641L87.6064 96.8192Z" fill="#006389"/>
<path d="M78.1726 103.849C78.6858 103.645 78.9361 103.063 78.7319 102.55C78.5276 102.037 77.946 101.787 77.4329 101.991L78.1726 103.849ZM72.6362 103.638C72.1059 103.792 71.801 104.347 71.9552 104.878C72.1094 105.408 72.6644 105.713 73.1947 105.559L72.6362 103.638ZM77.4329 101.991C75.8774 102.61 74.2777 103.161 72.6362 103.638L73.1947 105.559C74.8976 105.064 76.5578 104.492 78.1726 103.849L77.4329 101.991Z" fill="#006389"/>
<path d="M66.8052 106.684C67.3522 106.608 67.7338 106.102 67.6576 105.555C67.5813 105.008 67.0761 104.627 66.5291 104.703L66.8052 106.684ZM61.4756 105.161C60.9238 105.184 60.4955 105.651 60.519 106.202C60.5425 106.754 61.0088 107.183 61.5606 107.159L61.4756 105.161ZM66.5291 104.703C64.87 104.934 63.1844 105.088 61.4756 105.161L61.5606 107.159C63.3334 107.084 65.0829 106.924 66.8052 106.684L66.5291 104.703Z" fill="#006389"/>
<path d="M55.557 106.999C56.1081 107.035 56.5838 106.617 56.6195 106.066C56.6552 105.514 56.2374 105.039 55.6862 105.003L55.557 106.999ZM50.6448 104.432C50.0997 104.344 49.5861 104.714 49.4977 105.259C49.4094 105.804 49.7797 106.318 50.3249 106.406L50.6448 104.432ZM55.6862 105.003C54.0148 104.895 52.3329 104.705 50.6448 104.432L50.3249 106.406C52.0762 106.69 53.8218 106.886 55.557 106.999L55.6862 105.003Z" fill="#006389"/>
<path d="M42.6433 103.957C43.1608 104.15 43.7366 103.887 43.9294 103.369C44.1221 102.851 43.8588 102.276 43.3412 102.083L42.6433 103.957ZM38.6795 100.086C38.1829 99.8439 37.5844 100.051 37.3427 100.547C37.1011 101.044 37.3078 101.642 37.8044 101.884L38.6795 100.086ZM43.3412 102.083C41.7722 101.499 40.2166 100.833 38.6795 100.086L37.8044 101.884C39.3994 102.66 41.0141 103.35 42.6433 103.957L43.3412 102.083Z" fill="#006389"/>
<path d="M31.3724 98.5122C31.8431 98.8011 32.4589 98.6538 32.7478 98.1831C33.0367 97.7124 32.8894 97.0966 32.4187 96.8077L31.3724 98.5122ZM28.228 93.9475C27.7873 93.6145 27.1602 93.7019 26.8273 94.1425C26.4943 94.5832 26.5817 95.2103 27.0223 95.5432L28.228 93.9475ZM32.4187 96.8077C30.9911 95.9315 29.5925 94.9784 28.228 93.9475L27.0223 95.5432C28.4382 96.6129 29.8901 97.6024 31.3724 98.5122L32.4187 96.8077Z" fill="#006389"/>
<path d="M22.6993 91.6737C23.0948 92.0592 23.7279 92.0511 24.1134 91.6556C24.499 91.2602 24.4909 90.6271 24.0954 90.2416L22.6993 91.6737ZM20.6378 86.5284C20.2813 86.1066 19.6503 86.0537 19.2285 86.4101C18.8067 86.7666 18.7537 87.3976 19.1102 87.8194L20.6378 86.5284ZM24.0954 90.2416C22.8959 89.0724 21.7416 87.8346 20.6378 86.5284L19.1102 87.8194C20.2557 89.1747 21.4539 90.4597 22.6993 91.6737L24.0954 90.2416Z" fill="#006389"/>
<path d="M15.4894 83.0371C15.7937 83.498 16.414 83.6249 16.8749 83.3206C17.3358 83.0163 17.4627 82.396 17.1584 81.9352L15.4894 83.0371ZM14.5709 77.5709C14.3124 77.0828 13.7072 76.8967 13.2192 77.1552C12.7311 77.4136 12.545 78.0188 12.8034 78.5069L14.5709 77.5709ZM17.1584 81.9352C16.2355 80.5374 15.3713 79.0821 14.5709 77.5709L12.8034 78.5069C13.634 80.0751 14.5311 81.5857 15.4894 83.0371L17.1584 81.9352Z" fill="#006389"/>
<path d="M10.8199 73.8953C11.0402 74.4018 11.6293 74.6338 12.1358 74.4135C12.6422 74.1933 12.8742 73.6041 12.654 73.0977L10.8199 73.8953ZM10.8579 68.3526C10.6874 67.8272 10.1234 67.5395 9.59806 67.71C9.07273 67.8804 8.78503 68.4444 8.95547 68.9698L10.8579 68.3526ZM12.654 73.0977C11.9859 71.5617 11.3856 69.9792 10.8579 68.3526L8.95547 68.9698C9.50312 70.6577 10.1262 72.3004 10.8199 73.8953L12.654 73.0977Z" fill="#006389"/>
<path d="M7.67194 63.7004C7.7868 64.2407 8.31784 64.5855 8.85805 64.4706C9.39826 64.3557 9.74307 63.8247 9.62821 63.2845L7.67194 63.7004ZM8.81435 58.2766C8.75208 57.7278 8.25674 57.3334 7.70798 57.3957C7.15922 57.4579 6.76483 57.9533 6.8271 58.502L8.81435 58.2766ZM9.62821 63.2845C9.27985 61.6462 9.00715 59.9758 8.81435 58.2766L6.8271 58.502C7.02717 60.2653 7.31021 61.9992 7.67194 63.7004L9.62821 63.2845Z" fill="#006389"/>
<path d="M6.6189 52.6005C6.62419 53.1528 7.07617 53.5962 7.62843 53.5909C8.18069 53.5856 8.6241 53.1336 8.61881 52.5814L6.6189 52.6005ZM8.8158 47.5116C8.86376 46.9614 8.45662 46.4765 7.90642 46.4285C7.35622 46.3805 6.87132 46.7877 6.82335 47.3379L8.8158 47.5116ZM8.61881 52.5814C8.60278 50.9065 8.66728 49.2152 8.8158 47.5116L6.82335 47.3379C6.66924 49.1057 6.60226 50.8614 6.6189 52.6005L8.61881 52.5814Z" fill="#006389"/>
<path d="M8.14909 40.4428C8.04612 40.9854 8.40251 41.5088 8.94512 41.6117C9.48772 41.7147 10.0111 41.3583 10.114 40.8157L8.14909 40.4428ZM11.3 35.8826C11.4548 35.3525 11.1505 34.7972 10.6204 34.6425C10.0902 34.4877 9.53496 34.792 9.38018 35.3221L11.3 35.8826ZM10.114 40.8157C10.4263 39.1701 10.8208 37.5242 11.3 35.8826L9.38018 35.3221C8.88285 37.0256 8.47335 38.7341 8.14909 40.4428L10.114 40.8157Z" fill="#006389"/>
<path d="M12.1669 28.8006C11.9166 29.2929 12.1129 29.8949 12.6052 30.1451C13.0976 30.3953 13.6996 30.1991 13.9498 29.7067L12.1669 28.8006ZM16.4648 25.3003C16.7614 24.8344 16.624 24.2163 16.1581 23.9198C15.6922 23.6233 15.0741 23.7606 14.7775 24.2265L16.4648 25.3003ZM13.9498 29.7067C14.7087 28.2136 15.5467 26.743 16.4648 25.3003L14.7775 24.2265C13.8248 25.7236 12.9549 27.2501 12.1669 28.8006L13.9498 29.7067Z" fill="#006389"/>
<path d="M19.1986 17.8991C18.8312 18.3114 18.8675 18.9435 19.2798 19.3109C19.6921 19.6784 20.3242 19.6421 20.6917 19.2298L19.1986 17.8991ZM24.2469 15.61C24.6524 15.235 24.6772 14.6024 24.3022 14.1969C23.9272 13.7914 23.2945 13.7666 22.889 14.1416L24.2469 15.61ZM20.6917 19.2298C21.8062 17.9794 22.9913 16.771 24.2469 15.61L22.889 14.1416C21.5861 15.3464 20.3559 16.6007 19.1986 17.8991L20.6917 19.2298Z" fill="#006389"/>
<ellipse cx="59.8846" cy="53.1083" rx="50.2435" ry="50.2421" fill="#D6BAA4"/>
<path d="M60.1979 13.6162L84.2136 22.7859C84.3012 22.8193 84.2987 22.9442 84.2098 22.9741L83.1577 23.3279V35.5912L84.3174 35.9324C84.8337 36.0843 85.2579 36.4541 85.4789 36.9447C85.6335 37.288 85.6794 37.6704 85.6104 38.0406L85.5173 38.5398C85.4819 38.7293 85.4213 38.9131 85.3369 39.0864C84.9773 39.8248 84.2209 40.2933 83.3996 40.2933L86.0466 43.6898L83.4515 48.7273L80.8564 43.6898L83.3996 40.2933L82.9825 40.2249C82.3547 40.122 81.7951 39.7695 81.4312 39.2476L81.3696 39.1594C81.0417 38.6892 80.9199 38.1055 81.0323 37.5434C81.1618 36.8959 81.5878 36.3468 82.1828 36.0604L83.1577 35.5912V23.3279L76.6491 25.5172L76.7052 39.9821C77.1015 41.735 77.3015 43.5265 77.3015 45.3236V45.9417V47.5993L77.0484 50.5219C77.0176 50.878 76.9359 51.2278 76.806 51.5607C76.7389 51.7325 76.6846 51.909 76.6436 52.0887L76.565 52.4325C76.3804 53.2409 76.0787 54.018 75.6694 54.7391L73.8942 57.867L72.1456 59.7745C71.4397 60.5446 70.646 61.2293 69.7807 61.8146C68.7236 62.5297 67.5695 63.0898 66.3537 63.4778L65.6159 63.7132C64.6623 64.0176 63.6859 64.2451 62.6959 64.3935L62.4795 64.426L61.3827 64.5905C60.9787 64.6511 60.5707 64.6815 60.1622 64.6815H59.2939L56.9426 64.1705L55.2512 63.673C53.4955 63.1566 51.841 62.3438 50.3593 61.2696C49.5819 60.706 48.8567 60.0738 48.1923 59.3805L47.2316 58.3781C46.4405 57.6436 45.7572 56.801 45.2017 55.8753L44.9148 55.3971C44.4725 54.66 44.0927 53.887 43.7795 53.0865L43.6481 52.7508C43.0327 51.1782 42.7169 49.5044 42.7169 47.8156V47.0457C42.7169 45.0677 42.958 43.0971 43.435 41.1776L43.675 40.2115V25.5172L36.1142 22.9741C36.0253 22.9442 36.0227 22.8193 36.1104 22.7859L60.1265 13.6162C60.1495 13.6074 60.1749 13.6074 60.1979 13.6162Z" fill="#A3E0FB"/>
<path d="M83.1577 23.3279L84.2098 22.9741C84.2987 22.9442 84.3012 22.8193 84.2136 22.7859L60.1979 13.6162C60.1749 13.6074 60.1495 13.6074 60.1265 13.6162L36.1104 22.7859C36.0227 22.8193 36.0253 22.9442 36.1142 22.9741L43.675 25.5172M83.1577 23.3279V35.5912M83.1577 23.3279L76.6491 25.5172M83.1577 35.5912L82.1828 36.0604C81.5878 36.3468 81.1618 36.8959 81.0323 37.5434V37.5434C80.9199 38.1055 81.0417 38.6892 81.3696 39.1594L81.4312 39.2476C81.7951 39.7695 82.3547 40.122 82.9825 40.2249L83.3996 40.2933M83.1577 35.5912L84.3174 35.9324C84.8337 36.0843 85.2579 36.4541 85.4789 36.9447V36.9447C85.6335 37.288 85.6794 37.6704 85.6104 38.0406L85.5173 38.5398C85.4819 38.7293 85.4213 38.9131 85.3369 39.0864V39.0864C84.9773 39.8248 84.2209 40.2933 83.3996 40.2933V40.2933M83.3996 40.2933L80.8564 43.6898L83.4515 48.7273L86.0466 43.6898L83.3996 40.2933ZM43.675 25.5172L60.1303 31.052C60.151 31.0589 60.1734 31.0589 60.1941 31.052L76.6491 25.5172M43.675 25.5172V40.2115M43.675 40.2115L44.9976 40.7269C46.4847 41.3063 48.0149 41.7683 49.5742 42.1085V42.1085M43.675 40.2115L43.435 41.1776C42.958 43.0971 42.7169 45.0677 42.7169 47.0457V47.0457M70.6572 42.0233L66.3128 43.1307L63.5688 43.7111C62.4496 43.9479 61.3049 44.0414 60.1622 43.9894V43.9894M70.6572 42.0233L73.8942 41.0863L76.7052 39.9821M70.6572 42.0233V45.4556C70.6572 47.31 70.5096 49.1614 70.2157 50.9923L70.1064 51.6735C69.7366 53.977 69.0922 56.228 68.1869 58.3781V58.3781V58.3781C67.4916 60.0512 66.3613 61.5077 64.9131 62.5965L62.4795 64.426M76.7052 39.9821L76.6491 25.5172M76.7052 39.9821V39.9821C77.1015 41.735 77.3015 43.5265 77.3015 45.3236V45.9417V47.5993M73.8942 57.867L72.1456 59.7745C71.4397 60.5446 70.646 61.2293 69.7807 61.8146V61.8146C68.7236 62.5297 67.5695 63.0898 66.3537 63.4778L65.6159 63.7132C64.6623 64.0176 63.6859 64.2451 62.6959 64.3935L62.4795 64.426M73.8942 57.867L75.6694 54.7391C76.0787 54.018 76.3804 53.2409 76.565 52.4325L76.6436 52.0887C76.6846 51.909 76.7389 51.7325 76.806 51.5607V51.5607C76.9359 51.2278 77.0176 50.878 77.0484 50.5219L77.3015 47.5993M73.8942 57.867L72.4154 57.0499C71.2458 56.4035 70.0188 55.8667 68.7503 55.4463V55.4463C66.4398 54.6805 64.0169 54.3094 61.5831 54.3484L60.1622 54.3712L58.4763 54.3381C56.8399 54.3059 55.209 54.5383 53.6468 55.0265V55.0265C52.4975 55.3857 51.395 55.8802 50.3625 56.4997L47.2316 58.3781M49.5742 42.1085L51.9167 42.6196L56.9426 43.608L60.1622 43.9894M49.5742 42.1085V45.9417V46.7981C49.5742 48.325 49.7166 49.8485 49.9994 51.3489V51.3489C50.3676 53.302 50.9716 55.2033 51.7979 57.0109L51.9167 57.2708L52.5715 58.6166C53.1527 59.8113 53.9388 60.8949 54.894 61.8183V61.8183C55.6317 62.5313 56.4624 63.1413 57.3636 63.6315L59.2939 64.6815M59.2939 64.6815L56.9426 64.1705L55.2512 63.673C53.4955 63.1566 51.841 62.3438 50.3593 61.2696V61.2696C49.5819 60.706 48.8567 60.0738 48.1923 59.3805L47.2316 58.3781M59.2939 64.6815H60.1622M62.4795 64.426L61.3827 64.5905C60.9787 64.6511 60.5707 64.6815 60.1622 64.6815V64.6815M47.2316 58.3781V58.3781C46.4406 57.6436 45.7572 56.801 45.2017 55.8753L44.9148 55.3971C44.4725 54.66 44.0927 53.887 43.7795 53.0865L43.6481 52.7508C43.0327 51.1782 42.7169 49.5044 42.7169 47.8156V47.8156V47.0457M60.1622 64.6815V43.9894M77.3015 47.5993L42.7169 47.0457" stroke="#006389" stroke-width="2"/>
<path d="M88.9685 74.6796C95.9111 79.2254 94.4337 81.8256 88.7174 86.418H30.7269C30.4797 86.418 30.2376 86.3239 30.0555 86.1567C24.7746 81.3058 24.9026 78.7296 30.0727 74.7238C30.2453 74.59 30.461 74.5167 30.6794 74.5167H85.4287H88.4236C88.6154 74.5167 88.8081 74.5746 88.9685 74.6796Z" fill="#A3E0FB"/>
<path d="M88.9685 74.6796L88.4207 75.5162L88.4208 75.5162L88.9685 74.6796ZM88.7174 86.418V87.418H89.0693L89.3437 87.1976L88.7174 86.418ZM30.0555 86.1567L29.379 86.8931H29.379L30.0555 86.1567ZM30.0727 74.7238L29.4602 73.9333L29.4602 73.9333L30.0727 74.7238ZM37.9371 77.8239C37.3848 77.8239 36.9371 78.2716 36.9371 78.8239C36.9371 79.3762 37.3848 79.8239 37.9371 79.8239V77.8239ZM79.536 79.8239C80.0883 79.8239 80.536 79.3762 80.536 78.8239C80.536 78.2716 80.0883 77.8239 79.536 77.8239V79.8239ZM83.61 76.8078L82.8268 76.186V76.186L83.61 76.8078ZM84.5475 84.2732L85.1589 83.4819L85.1589 83.4819L84.5475 84.2732ZM84.8233 84.4863L84.2118 85.2776V85.2776L84.8233 84.4863ZM86.1278 85.2653L86.5344 84.3518V84.3518L86.1278 85.2653ZM87.6546 83.0018C88.1547 83.2362 88.7501 83.0207 88.9844 82.5205C89.2187 82.0204 89.0032 81.4251 88.5031 81.1908L87.6546 83.0018ZM87.0046 81.593L87.4289 80.6875V80.6875L87.0046 81.593ZM87.2206 78.0136L86.9084 77.0636L86.9084 77.0636L87.2206 78.0136ZM88.3911 78.6815C88.9158 78.5091 89.2013 77.9439 89.0289 77.4193C88.8564 76.8946 88.2913 76.6091 87.7666 76.7815L88.3911 78.6815ZM33.9692 79.8239C34.5215 79.8239 34.9692 79.3762 34.9692 78.8239C34.9692 78.2716 34.5215 77.8239 33.9692 77.8239V79.8239ZM31.7136 77.8239C31.1613 77.8239 30.7136 78.2716 30.7136 78.8239C30.7136 79.3762 31.1613 79.8239 31.7136 79.8239V77.8239ZM82.6666 81.4629L83.6306 81.197V81.197L82.6666 81.4629ZM82.6105 78.8805L81.6363 78.6549V78.6549L82.6105 78.8805ZM88.4208 75.5162C90.1214 76.6298 91.2255 77.5741 91.875 78.4027C92.507 79.2088 92.6654 79.8457 92.5972 80.4117C92.5238 81.0207 92.1667 81.7347 91.3893 82.6302C90.6169 83.52 89.5111 84.4976 88.091 85.6385L89.3437 87.1976C90.7818 86.0422 92.0043 84.9727 92.8996 83.9413C93.7901 82.9155 94.4402 81.8343 94.5828 80.651C94.7307 79.4247 94.314 78.2721 93.449 77.1688C92.6016 76.0878 91.287 75.0024 89.5163 73.843L88.4208 75.5162ZM88.7174 85.418H30.7269V87.418H88.7174V85.418ZM30.732 85.4202C29.4372 84.2309 28.523 83.2243 27.9383 82.3369C27.3576 81.4556 27.1385 80.7476 27.1449 80.1337C27.1577 78.9035 28.0936 77.5223 30.6852 75.5143L29.4602 73.9333C26.8818 75.9311 25.1686 77.8409 25.145 80.113C25.1332 81.2502 25.5492 82.3461 26.2682 83.4373C26.9832 84.5225 28.0333 85.657 29.379 86.8931L30.732 85.4202ZM37.9371 79.8239H79.536V77.8239H37.9371V79.8239ZM30.6794 75.5167H85.4287V73.5167H30.6794V75.5167ZM85.4287 75.5167H88.4236V73.5167H85.4287V75.5167ZM84.6455 73.8949L82.8268 76.186L84.3932 77.4295L86.212 75.1384L84.6455 73.8949ZM83.936 85.0645L84.2118 85.2776L85.4347 83.6951L85.1589 83.4819L83.936 85.0645ZM85.7211 86.1789L88.3107 87.3316L89.124 85.5045L86.5344 84.3518L85.7211 86.1789ZM88.5031 81.1908L87.4289 80.6875L86.5804 82.4986L87.6546 83.0018L88.5031 81.1908ZM87.5329 78.9636L88.3911 78.6815L87.7666 76.7815L86.9084 77.0636L87.5329 78.9636ZM33.9692 77.8239H31.7136V79.8239H33.9692V77.8239ZM86.894 79.8462C86.894 79.4449 87.1517 79.0889 87.5329 78.9636L86.9084 77.0636C85.7064 77.4587 84.894 78.5809 84.894 79.8462H86.894ZM84.2118 85.2776C84.6772 85.6372 85.1839 85.9398 85.7211 86.1789L86.5344 84.3518C86.143 84.1775 85.7738 83.957 85.4347 83.6951L84.2118 85.2776ZM81.7026 81.7289C82.066 83.0461 82.8507 84.2259 83.936 85.0645L85.1589 83.4819C84.4202 82.9111 83.8802 82.1019 83.6306 81.197L81.7026 81.7289ZM82.8268 76.186C82.2517 76.9105 81.8451 77.7538 81.6363 78.6549L83.5847 79.1062C83.7265 78.4943 84.0027 77.9215 84.3932 77.4295L82.8268 76.186ZM81.6363 78.6549C81.4017 79.6676 81.4272 80.7305 81.7026 81.7289L83.6306 81.197C83.4427 80.5158 83.4261 79.7909 83.5847 79.1062L81.6363 78.6549ZM30.7269 85.418C30.7298 85.418 30.7303 85.4185 30.7294 85.4181C30.7285 85.4178 30.7295 85.4179 30.732 85.4202L29.379 86.8931C29.746 87.2303 30.2297 87.418 30.7269 87.418V85.418ZM87.4289 80.6875C87.1025 80.5346 86.894 80.2066 86.894 79.8462H84.894C84.894 80.9826 85.5513 82.0165 86.5804 82.4986L87.4289 80.6875ZM89.5163 73.843C89.1944 73.6322 88.8115 73.5167 88.4236 73.5167V75.5167C88.4194 75.5167 88.419 75.5161 88.421 75.5167C88.423 75.5173 88.4231 75.5178 88.4207 75.5162L89.5163 73.843ZM30.6852 75.5143C30.6823 75.5165 30.6811 75.5167 30.6817 75.5165C30.6823 75.5163 30.6819 75.5167 30.6794 75.5167V73.5167C30.2405 73.5167 29.8091 73.663 29.4602 73.9333L30.6852 75.5143Z" fill="#006389"/>
</svg>
