<svg width="47" height="31" viewBox="0 0 47 31" fill="none" xmlns="http://www.w3.org/2000/svg">
<path d="M41.7101 2.09961C42.2624 2.09961 42.7101 1.65189 42.7101 1.09961C42.7101 0.547325 42.2624 0.0996094 41.7101 0.0996094V2.09961ZM41.7101 26.0175C42.2624 26.0175 42.7101 25.5698 42.7101 25.0175C42.7101 24.4652 42.2624 24.0175 41.7101 24.0175V26.0175ZM30.4368 5.8722C29.8845 5.8722 29.4368 6.31991 29.4368 6.8722C29.4368 7.42448 29.8845 7.8722 30.4368 7.8722V5.8722ZM43.4981 7.8722C44.0504 7.8722 44.4981 7.42448 44.4981 6.8722C44.4981 6.31991 44.0504 5.8722 43.4981 5.8722V7.8722ZM32.8428 11.515C32.2905 11.515 31.8428 11.9627 31.8428 12.515C31.8428 13.0673 32.2905 13.515 32.8428 13.515V11.515ZM45.8469 13.515C46.3992 13.515 46.8469 13.0673 46.8469 12.515C46.8469 11.9627 46.3992 11.515 45.8469 11.515V13.515ZM35.9936 16.9285C35.4413 16.9285 34.9936 17.3763 34.9936 17.9285C34.9936 18.4808 35.4413 18.9285 35.9936 18.9285V16.9285ZM43.4981 18.9285C44.0504 18.9285 44.4981 18.4808 44.4981 17.9285C44.4981 17.3763 44.0504 16.9285 43.4981 16.9285V18.9285ZM1.78887 15.3505L2.33398 16.1888L1.78887 15.3505ZM41.7101 0.0996094H20.6704V2.09961H41.7101V0.0996094ZM14.87 11.515H6.14964V13.515H14.87V11.515ZM5.60453 11.6766L1.24375 14.5121L2.33398 16.1888L6.69476 13.3534L5.60453 11.6766ZM0.333984 16.1888V24.0175H2.33398V16.1888H0.333984ZM2.33398 26.0175H7.85223V24.0175H2.33398V26.0175ZM16.87 3.89997V9.515H18.87V3.89997H16.87ZM17.87 2.89997H12.2246V4.89997H17.87V2.89997ZM8.62917 5.14709L5.25078 12.0768L7.04851 12.9532L10.4269 6.02353L8.62917 5.14709ZM27.0568 24.0175H17.87V26.0175H27.0568V24.0175ZM37.4258 26.0175H41.7101V24.0175H37.4258V26.0175ZM30.4368 7.8722H43.4981V5.8722H30.4368V7.8722ZM32.8428 13.515H45.8469V11.515H32.8428V13.515ZM35.9936 18.9285H43.4981V16.9285H35.9936V18.9285ZM12.2246 2.89997C10.6951 2.89997 9.29945 3.77223 8.62917 5.14709L10.4269 6.02353C10.762 5.3361 11.4599 4.89997 12.2246 4.89997V2.89997ZM0.333984 24.0175C0.333984 25.122 1.22942 26.0175 2.33398 26.0175V24.0175H0.333984ZM1.24375 14.5121C0.676313 14.8811 0.333984 15.512 0.333984 16.1888H2.33398H2.33398L1.24375 14.5121ZM14.87 13.515C17.0792 13.515 18.87 11.7241 18.87 9.515H16.87C16.87 10.6196 15.9746 11.515 14.87 11.515V13.515ZM20.6704 0.0996094C18.5715 0.0996094 16.87 1.80109 16.87 3.89997H18.87C18.87 2.90566 19.6761 2.09961 20.6704 2.09961V0.0996094Z" fill="white"/>
<circle cx="32.4762" cy="25.0174" r="4.47032" stroke="white" stroke-width="2"/>
<circle cx="12.7657" cy="25.0172" r="4.47032" stroke="white" stroke-width="2"/>
</svg>
