<svg width="34" height="34" viewBox="0 0 34 34" fill="none" xmlns="http://www.w3.org/2000/svg">
<circle cx="16.9892" cy="17.0332" r="16.5918" fill="#B2805F"/>
<path d="M19.4594 6.17786L22.4932 6.1785C22.6184 6.17853 22.7399 6.2205 22.8384 6.29773C22.9738 6.40384 23.0529 6.56627 23.0529 6.73826V8.6708V9.68146C23.0529 9.84238 22.997 9.9983 22.8948 10.1226C22.7629 10.2831 22.566 10.376 22.3583 10.376H21.1979H20.2227C19.9931 10.376 19.7695 10.4495 19.5846 10.5856C19.3091 10.7885 19.1464 11.1102 19.1464 11.4524V13.96H22.2775C22.4335 13.96 22.5844 14.0151 22.7036 14.1156C22.8525 14.2412 22.9385 14.4261 22.9385 14.621V17.656C22.9385 17.8483 22.858 18.0319 22.7166 18.1622C22.5895 18.2793 22.423 18.3443 22.2502 18.3443H19.1464L19.1866 27.3101C19.1872 27.4484 19.1385 27.5824 19.0493 27.688C18.9387 27.819 18.7761 27.8945 18.6047 27.8945H15.1797C15.0085 27.8945 14.8457 27.8202 14.7335 27.6908C14.6405 27.5834 14.5893 27.4461 14.5893 27.3041V18.3443H11.814C11.6883 18.3443 11.5662 18.3017 11.4678 18.2234C11.3351 18.1179 11.2578 17.9577 11.2578 17.7881V14.5732C11.2578 14.4223 11.315 14.277 11.4179 14.1665C11.5308 14.0453 11.689 13.9764 11.8546 13.9764H14.6632V10.5874L14.6745 10.4286C14.705 9.99937 14.7981 9.57689 14.9509 9.1746C15.1415 8.67294 15.4219 8.21022 15.7784 7.80916L15.8451 7.73413C16.0982 7.4494 16.3863 7.19783 16.7026 6.98543C17.149 6.68561 17.6454 6.46793 18.1683 6.34263L18.2703 6.3182C18.6598 6.22488 19.0589 6.17778 19.4594 6.17786Z" fill="white"/>
</svg>
