<svg width="34" height="34" viewBox="0 0 34 34" fill="none" xmlns="http://www.w3.org/2000/svg">
<circle cx="16.9619" cy="17.1777" r="16.5918" fill="#B3805F"/>
<path d="M11.7913 16.875C11.7913 15.8541 12.0726 14.8978 12.5612 14.0789V10.6055H9.08778C7.70918 12.3959 6.96191 14.5779 6.96191 16.875C6.96191 19.1722 7.70918 21.3542 9.08778 23.1446H12.5612V19.6712C12.0726 18.8523 11.7913 17.8959 11.7913 16.875V16.875Z" fill="white"/>
<path d="M17.2647 22.3483L14.85 24.763L17.2647 27.1777C19.5618 27.1777 21.7438 26.4305 23.5343 25.0519V21.5821H20.0645C19.2385 22.0725 18.2781 22.3483 17.2647 22.3483V22.3483Z" fill="white"/>
<path d="M12.5614 19.6711L9.08789 23.1446C9.36083 23.499 9.65804 23.8385 9.97964 24.1601C11.9256 26.106 14.5128 27.1777 17.2648 27.1777V22.3483C15.2676 22.3483 13.5173 21.273 12.5614 19.6711Z" fill="white"/>
<path d="M27.5674 16.875C27.5674 16.2482 27.5106 15.6202 27.3987 15.0086L27.3081 14.5136H17.2646V19.343H22.1525C21.6778 20.2872 20.948 21.0575 20.0644 21.5822L23.5342 25.0519C23.8887 24.779 24.2281 24.4818 24.5498 24.1602C26.4957 22.2142 27.5674 19.627 27.5674 16.875V16.875Z" fill="white"/>
<path d="M21.1349 13.0048L21.5618 13.4316L24.9767 10.0167L24.5498 9.58988C22.6039 7.64395 20.0167 6.57227 17.2647 6.57227L14.85 8.98697L17.2647 11.4017C18.7266 11.4017 20.1011 11.971 21.1349 13.0048Z" fill="white"/>
<path d="M17.2647 11.4017V6.57227C14.5127 6.57227 11.9255 7.64395 9.97952 9.58984C9.65792 9.91144 9.36071 10.2509 9.08777 10.6054L12.5612 14.0789C13.5172 12.477 15.2676 11.4017 17.2647 11.4017V11.4017Z" fill="white"/>
</svg>
