<svg width="34" height="34" viewBox="0 0 34 34" fill="none" xmlns="http://www.w3.org/2000/svg">
<circle cx="17.3906" cy="17.0332" r="16.5918" fill="#B2805F"/>
<path d="M8.90625 19.913V13.9123C8.90625 13.2446 9.02256 12.582 9.24997 11.9543L9.38613 11.5784C9.82272 10.3731 10.7239 9.39301 11.8884 8.85703C12.5168 8.56775 13.2005 8.41797 13.8923 8.41797H20.8544C21.3762 8.41797 21.8946 8.5005 22.3906 8.66251C23.941 9.16894 25.1422 10.407 25.6015 11.972L25.6589 12.1675C25.8022 12.6554 25.8749 13.1613 25.8749 13.6698V20.0216C25.8749 20.5254 25.8041 21.0268 25.6647 21.5109L25.6292 21.6343C25.1823 23.1864 24.03 24.4371 22.5196 25.0094C21.9393 25.2292 21.324 25.3419 20.7034 25.3419H13.8783C13.1954 25.3419 12.5203 25.1969 11.8977 24.9163C10.644 24.3515 9.69121 23.2782 9.27886 21.9664L9.16658 21.6092C8.99404 21.0604 8.90625 20.4884 8.90625 19.913Z" stroke="white" stroke-width="2"/>
<circle cx="17.4242" cy="17.0341" r="3.81673" stroke="white" stroke-width="2"/>
<circle cx="22.2404" cy="12.2167" r="1.10217" fill="white"/>
</svg>
