<svg width="34" height="34" viewBox="0 0 34 34" fill="none" xmlns="http://www.w3.org/2000/svg">
<circle cx="17.1933" cy="17.0332" r="16.5918" fill="#B3805F"/>
<path d="M12.5158 12.286V24.8869H8.59399V12.286H12.5158Z" fill="white"/>
<path d="M15.002 12.286V24.8869H18.7901V17.3319C18.7901 17.2936 18.7957 17.2555 18.8069 17.2189L18.8822 16.9716C18.9583 16.7218 19.0911 16.4929 19.2703 16.303C19.364 16.2037 19.4692 16.1162 19.5839 16.0422L19.6263 16.0148C19.9673 15.7948 20.3644 15.6777 20.7702 15.6777H21.0738C22.0393 15.6777 22.8919 16.3074 23.1759 17.2302C23.1849 17.2593 23.1895 17.2896 23.1895 17.3201V24.9478L27.0919 24.8869V22.5263V20.1923V17.8892L26.951 15.5445L26.846 14.998C26.6112 13.7754 25.7622 12.7605 24.6004 12.3134C24.1877 12.1546 23.7493 12.073 23.307 12.0729L22.3849 12.0725C20.8593 12.0718 19.4466 12.8763 18.6687 14.1886C18.6625 14.1991 18.6464 14.1947 18.6464 14.1825V12.286H15.002Z" fill="white"/>
<path d="M12.7989 8.41927C12.7989 9.69822 11.8016 10.735 10.5713 10.735C9.34107 10.735 8.34375 9.69822 8.34375 8.41927C8.34375 7.14031 9.34107 6.10352 10.5713 6.10352C11.8016 6.10352 12.7989 7.14031 12.7989 8.41927Z" fill="white"/>
</svg>
