<svg width="34" height="34" viewBox="0 0 34 34" fill="none" xmlns="http://www.w3.org/2000/svg">
<circle cx="16.5947" cy="17.0332" r="16.5918" fill="#B3805F"/>
<path d="M17.3935 5.58789C11.0886 5.58885 7.7373 9.62822 7.7373 14.0327C7.7373 16.0749 8.87868 18.6231 10.7062 19.431C11.2276 19.6658 11.1586 19.3793 11.6071 17.6638C11.6425 17.5211 11.6243 17.3974 11.5093 17.2642C8.89689 14.2426 10.9995 8.03068 17.0207 8.03068C25.7348 8.03068 24.1066 20.0884 18.5368 20.0884C17.1012 20.0884 16.0317 18.9614 16.37 17.5671C16.7801 15.9063 17.5832 14.1209 17.5832 12.9239C17.5832 9.9071 13.0886 10.3546 13.0886 14.3518C13.0886 15.5871 13.5256 16.4209 13.5256 16.4209C13.5256 16.4209 12.0795 22.2629 11.8112 23.3544C11.3569 25.2021 11.8725 28.1931 11.9176 28.4508C11.9453 28.5927 12.1044 28.6377 12.1936 28.5208C12.3363 28.3339 14.0843 25.8404 14.5741 24.0377C14.7523 23.3813 15.4835 20.7171 15.4835 20.7171C15.9656 21.5873 17.3551 22.3156 18.8358 22.3156C23.2403 22.3156 26.4238 18.4439 26.4238 13.6398C26.4085 9.03406 22.4669 5.58789 17.3935 5.58789V5.58789Z" fill="white"/>
</svg>
