<svg width="34" height="34" viewBox="0 0 34 34" fill="none" xmlns="http://www.w3.org/2000/svg">
<circle cx="16.7783" cy="17.1777" r="16.5918" fill="#B3805F"/>
<path d="M21.6453 19.2168L21.6374 19.2831C19.694 18.3145 19.4907 18.1855 19.2397 18.562C19.0656 18.8227 18.5583 19.4139 18.4054 19.5889C18.2508 19.7612 18.097 19.7745 17.8345 19.6552C17.5694 19.5226 16.7183 19.2442 15.7108 18.3428C14.926 17.6402 14.3993 16.7785 14.2438 16.5134C13.9848 16.0662 14.5266 16.0026 15.0197 15.0693C15.1081 14.8837 15.063 14.7379 14.9976 14.6062C14.9313 14.4736 14.4037 13.1745 14.1828 12.6566C13.9707 12.1405 13.7524 12.2059 13.5889 12.2059C13.0798 12.1617 12.7078 12.1688 12.3799 12.5099C10.9535 14.0777 11.3132 15.695 12.5337 17.4148C14.9322 20.554 16.2102 21.132 18.5468 21.9344C19.1779 22.1351 19.7532 22.1068 20.2083 22.0414C20.7156 21.961 21.77 21.4042 21.99 20.7811C22.2154 20.1581 22.2154 19.6411 22.1491 19.5217C22.0837 19.4024 21.9105 19.3362 21.6453 19.2168V19.2168Z" fill="white"/>
<path d="M24.3081 9.62078C17.5128 3.0517 6.26678 7.81611 6.26236 17.0833C6.26236 18.9357 6.74755 20.7422 7.67197 22.3374L6.1731 27.7832L11.7718 26.3232C18.758 30.0969 27.3801 25.0859 27.3836 17.0886C27.3836 14.2818 26.2877 11.6402 24.2948 9.65524L24.3081 9.62078ZM25.6178 17.0595C25.6125 23.8053 18.2074 28.0182 12.3507 24.5751L12.0325 24.3859L8.71836 25.2476L9.60655 22.0263L9.39533 21.6949C5.75065 15.8929 9.93796 8.31014 16.842 8.31014C19.1875 8.31014 21.389 9.22485 23.0469 10.8819C24.704 12.5248 25.6178 14.7263 25.6178 17.0595V17.0595Z" fill="white"/>
</svg>
