<svg width="34" height="34" viewBox="0 0 34 34" fill="none" xmlns="http://www.w3.org/2000/svg">
<circle cx="16.792" cy="17.0351" r="16.5918" fill="#B2805F"/>
<path d="M26.2793 16.682L26.4951 17.3138C26.6574 17.7889 26.7558 18.2834 26.7876 18.7845L26.8687 20.0596V22.1172V24.2358L26.7384 25.4175C26.6777 25.9677 26.5215 26.5031 26.2766 26.9995L26.1513 27.2536C26.0721 27.4143 25.9744 27.5653 25.8604 27.7036C25.467 28.1805 24.8995 28.4807 24.2839 28.5374L22.1295 28.7359H17.0829H12.4802L9.71244 28.5846C9.24239 28.5589 8.78397 28.4288 8.37046 28.2038L8.19952 28.1108C7.80179 27.8944 7.47107 27.573 7.24336 27.1817C7.06554 26.876 6.95528 26.5358 6.92004 26.184L6.80673 25.0529L6.71582 23.3431V21.6635V19.1063L6.88048 17.5777C6.94087 17.017 7.17784 16.4899 7.55719 16.0727C7.74614 15.8648 7.96682 15.6882 8.21101 15.5494L8.37555 15.4558C8.86388 15.1782 9.40707 15.0108 9.96697 14.9655L11.8158 14.8157H17.0223H20.972L24.0301 14.9802C24.6833 15.0153 25.2972 15.3031 25.742 15.7826C25.9822 16.0414 26.1652 16.3478 26.2793 16.682Z" fill="white"/>
<path d="M19.8708 7.3268H18.8651C18.8098 7.3268 18.765 7.37173 18.7651 7.42705L18.7791 13.0153C18.7793 13.1112 18.7899 13.2067 18.8106 13.3004L18.8397 13.4318C18.8736 13.5853 18.9492 13.7265 19.058 13.8399C19.2195 14.0081 19.4461 14.1032 19.6792 14.1032C19.8602 14.1032 20.0394 14.0468 20.1868 13.9418L21.0803 13.3059V13.8462C21.0803 13.9567 21.1699 14.0462 21.2803 14.0462H22.0857C22.1962 14.0462 22.2857 13.9567 22.2857 13.8462V7.42666C22.2857 7.37143 22.2409 7.32666 22.1857 7.32666H21.1486C21.0993 7.32666 21.0595 7.36669 21.0597 7.41594L21.0791 12.2042C21.0799 12.3961 21.0212 12.5836 20.9111 12.7408L20.8973 12.7606C20.8599 12.8139 20.8158 12.862 20.766 12.9038L20.6938 12.9644C20.6063 13.0379 20.4957 13.0781 20.3815 13.0781H20.3182C20.2064 13.0781 20.101 13.0259 20.0333 12.9369C19.9858 12.8746 19.9601 12.7984 19.9601 12.7201V7.41615C19.9601 7.36681 19.9201 7.3268 19.8708 7.3268Z" fill="white"/>
<path d="M13.7424 19.2422H12.7367C12.6814 19.2422 12.6366 19.2871 12.6367 19.3425L12.6507 24.9307C12.6509 25.0266 12.6615 25.1221 12.6822 25.2158L12.7113 25.3472C12.7452 25.5007 12.8208 25.6419 12.9296 25.7553C13.0911 25.9235 13.3177 26.0186 13.5508 26.0186C13.7318 26.0186 13.9109 25.9622 14.0584 25.8572L14.9519 25.2213V25.7616C14.9519 25.8721 15.0415 25.9616 15.1519 25.9616H15.9573C16.0677 25.9616 16.1573 25.8721 16.1573 25.7616V19.3421C16.1573 19.2868 16.1125 19.2421 16.0573 19.2421H15.0202C14.9709 19.2421 14.931 19.2821 14.9312 19.3313L14.9507 24.1196C14.9515 24.3115 14.8928 24.499 14.7827 24.6562L14.7688 24.676C14.7315 24.7293 14.6874 24.7774 14.6376 24.8192L14.5654 24.8798C14.4779 24.9533 14.3673 24.9935 14.2531 24.9935H14.1897C14.0779 24.9935 13.9726 24.9413 13.9049 24.8523C13.8574 24.79 13.8317 24.7138 13.8317 24.6355V19.3316C13.8317 19.2822 13.7917 19.2422 13.7424 19.2422Z" fill="#B2805F"/>
<path d="M8.16235 18.2297H9.63274L9.62037 25.9918H10.9702L11.0194 18.2297H12.4579V16.9233H8.16235V18.2297Z" fill="#B2805F"/>
<path d="M17.176 25.887V16.9429H18.3435V19.8657L18.8421 19.4773C19.0338 19.328 19.267 19.2418 19.5096 19.2305L19.5982 19.2263C19.9127 19.2117 20.2157 19.3462 20.4157 19.5894C20.5627 19.7681 20.643 19.9922 20.643 20.2235V24.823C20.643 25.0847 20.5563 25.3389 20.3964 25.546L20.3418 25.6166C20.1523 25.862 19.8597 26.0058 19.5496 26.0058C19.3149 26.0058 19.0876 25.9233 18.9075 25.7728L18.3082 25.2718V25.887H17.176Z" fill="#B2805F"/>
<path d="M18.414 24.4412L18.3753 20.7308C18.3748 20.683 18.3813 20.6354 18.3946 20.5895L18.4055 20.5519C18.4349 20.4504 18.5038 20.3648 18.5967 20.3144C18.6546 20.283 18.7195 20.2665 18.7854 20.2665H19.0632C19.1233 20.2665 19.1826 20.2809 19.236 20.3085C19.3392 20.362 19.4119 20.4601 19.4328 20.5744L19.4452 20.6414C19.4506 20.6713 19.4535 20.7016 19.4536 20.732L19.4709 24.4334C19.4713 24.5158 19.4493 24.5968 19.4073 24.6678L19.4048 24.672C19.374 24.7242 19.3325 24.7693 19.2831 24.8044C19.2098 24.8566 19.1221 24.8846 19.0322 24.8846H18.855C18.7665 24.8846 18.6801 24.8577 18.6071 24.8075C18.5532 24.7704 18.5083 24.7217 18.4758 24.6649L18.474 24.6618C18.4355 24.5946 18.4148 24.5187 18.414 24.4412Z" fill="white"/>
<path d="M25.2961 22.7867H22.8578L22.8819 24.5191C22.8823 24.5529 22.8872 24.5866 22.8964 24.6191C22.9268 24.7269 23.0021 24.8164 23.1032 24.8646L23.1441 24.8841C23.2098 24.9155 23.2817 24.9317 23.3545 24.9317H23.5741C23.6861 24.9317 23.7938 24.8887 23.8749 24.8115C23.8908 24.7963 23.9055 24.78 23.9189 24.7627L23.9294 24.7492C24.0193 24.6331 24.0681 24.4904 24.0681 24.3435V23.6702H25.254V24.3833C25.254 24.649 25.1848 24.9101 25.0533 25.141C24.915 25.3837 24.7129 25.584 24.4689 25.72L24.3578 25.782C24.1017 25.9249 23.8133 25.9998 23.52 25.9998C23.2988 25.9998 23.0796 25.9572 22.8746 25.8742L22.7647 25.8297C22.5758 25.7532 22.4036 25.6405 22.2579 25.4979C22.1422 25.3847 22.0448 25.2541 21.9691 25.1109L21.9596 25.0928C21.8308 24.8489 21.7634 24.5773 21.7634 24.3015V20.7602C21.7634 20.6154 21.7895 20.4718 21.8404 20.3363L21.873 20.2494C21.9342 20.0865 22.0229 19.9353 22.1352 19.8024C22.2347 19.6847 22.352 19.5825 22.4822 19.4999C22.727 19.3445 23.0118 19.2616 23.3018 19.2616H23.6815C23.887 19.2616 24.0906 19.3013 24.281 19.3786L24.2988 19.3858C24.4415 19.4438 24.5742 19.5237 24.6921 19.6227C24.8013 19.7144 24.8966 19.8215 24.975 19.9406L24.9996 19.9781C25.0606 20.0707 25.1131 20.1696 25.1558 20.2718C25.2479 20.4926 25.2961 20.7312 25.2961 20.9704V22.7867Z" fill="#B2805F"/>
<path d="M24.0952 21.0628V21.8195H23.4818H22.8684V21.0552C22.8684 20.9746 22.8789 20.8945 22.8996 20.8167L22.9284 20.7084C22.9553 20.6075 23.0105 20.5165 23.0875 20.4461C23.188 20.3544 23.3191 20.3035 23.4552 20.3035H23.529C23.6665 20.3035 23.7985 20.3582 23.8957 20.4555C23.9601 20.52 24.0063 20.6003 24.0297 20.6883L24.062 20.8093C24.084 20.892 24.0952 20.9772 24.0952 21.0628Z" fill="white"/>
<path d="M9.47168 5.02539L11.1545 10.106V14.0196H12.3886V10.106L14.0377 5.02539H12.7674L11.8588 8.55987H11.7723L10.7587 5.02539H9.47168Z" fill="white"/>
<path d="M14.728 12.1274V9.19187C14.728 9.00509 14.759 8.8196 14.8197 8.64295L14.8771 8.47593C14.943 8.2839 15.0619 8.11443 15.22 7.98704C15.4115 7.83278 15.65 7.74866 15.8959 7.74866H15.9497C16.2368 7.74866 16.512 7.86337 16.714 8.06728C16.8349 8.18923 16.9248 8.33833 16.9762 8.50212L17.0455 8.72258C17.1073 8.91926 17.1387 9.12422 17.1387 9.33037V12.0986C17.1387 12.275 17.1144 12.4506 17.0664 12.6204L16.9648 12.98C16.8941 13.2299 16.7288 13.4425 16.5039 13.5724C16.3521 13.6601 16.18 13.7062 16.0047 13.7062H15.9126C15.7203 13.7062 15.5319 13.6524 15.3686 13.5509C15.1794 13.4333 15.0334 13.2576 14.9525 13.05L14.854 12.7974C14.7708 12.5839 14.728 12.3567 14.728 12.1274Z" stroke="white"/>
</svg>
